<svg width="48" height="48" viewBox="0 0 48 48" fill="none" xmlns="http://www.w3.org/2000/svg">
<path d="M47.9768 23.9884C47.9768 37.2369 37.2369 47.9768 23.9884 47.9768C10.7399 47.9768 0 37.2369 0 23.9884C0 10.7399 10.7399 0 23.9884 0C37.2369 0 47.9768 10.7399 47.9768 23.9884Z" fill="url(#paint0_linear)"/>
<path d="M27.2964 42.0041C27.2964 42.5449 26.8582 42.9835 26.3174 42.9835C25.7766 42.9835 25.3383 42.5449 25.3383 42.0041C25.3383 41.4633 25.7766 41.025 26.3174 41.025C26.8582 41.025 27.2964 41.4633 27.2964 42.0041ZM29.2545 41.025C28.7137 41.025 28.2754 41.4633 28.2754 42.0041C28.2754 42.5449 28.7137 42.9835 29.2545 42.9835C29.7953 42.9835 30.2339 42.5449 30.2339 42.0041C30.2339 41.4633 29.7953 41.025 29.2545 41.025ZM32.192 41.025C31.6512 41.025 31.2129 41.4633 31.2129 42.0041C31.2129 42.5449 31.6512 42.9835 32.192 42.9835C32.7328 42.9835 33.171 42.5449 33.171 42.0041C33.171 41.4633 32.7328 41.025 32.192 41.025Z" fill="#A8ABC1"/>
<path d="M25.3593 6.26642V5.28738C25.3593 5.0168 25.6021 4.79749 25.9013 4.79749H45.4161C45.7153 4.79749 45.9581 5.0168 45.9581 5.28738V6.26642C45.9581 6.53663 45.7153 6.75594 45.4161 6.75594H25.9013C25.6021 6.75594 25.3593 6.53663 25.3593 6.26642ZM25.8488 10.6725H45.4311C45.7013 10.6725 45.9207 10.4532 45.9207 10.183V9.20355C45.9207 8.93334 45.7013 8.71403 45.4311 8.71403H25.8488C25.5786 8.71403 25.3593 8.93334 25.3593 9.20355V10.183C25.3593 10.4532 25.5786 10.6725 25.8488 10.6725ZM25.8488 14.5887H37.5981C37.8686 14.5887 38.0876 14.3697 38.0876 14.0991V13.1201C38.0876 12.8499 37.8686 12.6306 37.5981 12.6306H25.8488C25.5786 12.6306 25.3593 12.8499 25.3593 13.1201V14.0991C25.3593 14.3697 25.5786 14.5887 25.8488 14.5887ZM25.9013 26.3383H45.4161C45.7153 26.3383 45.9581 26.119 45.9581 25.8488V24.8697C45.9581 24.5991 45.7153 24.3802 45.4161 24.3802H25.9013C25.6021 24.3802 25.3593 24.5991 25.3593 24.8697V25.8488C25.3593 26.119 25.6021 26.3383 25.9013 26.3383ZM45.5325 28.2964H25.7848C25.5499 28.2964 25.3593 28.5157 25.3593 28.7863V29.7653C25.3593 30.0355 25.5499 30.2548 25.7848 30.2548H45.5325C45.7674 30.2548 45.9581 30.0355 45.9581 29.7653V28.7863C45.9581 28.5157 45.7674 28.2964 45.5325 28.2964ZM37.6117 32.2129H25.8494C25.5788 32.2129 25.3593 32.4322 25.3593 32.7024V33.6818C25.3593 33.952 25.5788 34.1714 25.8494 34.1714H37.6117C37.8826 34.1714 38.1018 33.952 38.1018 33.6818V32.7024C38.1018 32.4322 37.8826 32.2129 37.6117 32.2129Z" fill="#A8ABC1"/>
<path d="M5.77695 9.69306C5.77695 5.36709 9.28368 1.86035 13.6097 1.86035C17.9356 1.86035 21.4427 5.36709 21.4427 9.69306C21.4427 14.0194 17.9356 17.5261 13.6097 17.5261C9.28368 17.5261 5.77695 14.0194 5.77695 9.69306ZM13.6097 21.4427C9.28368 21.4427 5.77695 24.9494 5.77695 29.2758C5.77695 33.6017 9.28368 37.1085 13.6097 37.1085C17.9356 37.1085 21.4427 33.6017 21.4427 29.2758C21.4427 24.9494 17.9356 21.4427 13.6097 21.4427ZM13.6097 41.025C11.8312 41.025 10.1901 41.6193 8.87537 42.6182C12.3125 45.4636 16.7186 47.4629 21.3739 47.836C20.872 43.994 17.5887 41.025 13.6097 41.025Z" fill="#0095D6"/>
<path d="M8.71407 6.75594C8.71407 5.34725 9.08795 4.02689 9.73877 2.88468C10.8806 2.23385 12.2013 1.86035 13.6097 1.86035C17.9356 1.86035 21.4427 5.36709 21.4427 9.69306C21.4427 11.1017 21.0692 12.4225 20.4184 13.5643C19.2762 14.2151 17.9558 14.5886 16.5472 14.5886C12.2212 14.5886 8.71407 11.0819 8.71407 6.75594ZM13.6097 21.4427C12.2013 21.4427 10.8806 21.8162 9.73877 22.467C9.08795 23.6092 8.71407 24.9296 8.71407 26.3383C8.71407 30.6642 12.2212 34.1714 16.5472 34.1714C17.9558 34.1714 19.2762 33.7975 20.4184 33.1467C21.0692 32.0048 21.4427 30.6841 21.4427 29.2758C21.4427 24.9494 17.9356 21.4427 13.6097 21.4427Z" fill="#2C4EA2"/>
<defs>
<linearGradient id="paint0_linear" x1="23.9884" y1="0" x2="23.9884" y2="47.9768" gradientUnits="userSpaceOnUse">
<stop stop-color="#DDDEEE"/>
<stop offset="1" stop-color="#EEEFF8"/>
</linearGradient>
</defs>
</svg>
