<svg width="346" height="520" viewBox="0 0 346 520" fill="none" xmlns="http://www.w3.org/2000/svg">
<g filter="url(#filter0_d)">
<rect x="35" y="25" width="236" height="80" rx="8" fill="white"/>
</g>
<path d="M121.444 58.18C119.728 58.18 118.378 57.766 117.394 56.938C116.422 56.11 115.906 54.898 115.846 53.302C115.834 52.978 115.828 52.45 115.828 51.718C115.828 50.974 115.834 50.434 115.846 50.098C115.906 48.538 116.428 47.338 117.412 46.498C118.408 45.646 119.752 45.22 121.444 45.22C122.512 45.22 123.466 45.394 124.306 45.742C125.158 46.09 125.83 46.594 126.322 47.254C126.814 47.914 127.072 48.694 127.096 49.594C127.096 49.702 127.054 49.792 126.97 49.864C126.898 49.936 126.808 49.972 126.7 49.972H124.144C123.976 49.972 123.85 49.942 123.766 49.882C123.694 49.81 123.628 49.684 123.568 49.504C123.4 48.916 123.142 48.508 122.794 48.28C122.458 48.04 122.008 47.92 121.444 47.92C120.088 47.92 119.386 48.676 119.338 50.188C119.326 50.512 119.32 51.01 119.32 51.682C119.32 52.354 119.326 52.864 119.338 53.212C119.386 54.724 120.088 55.48 121.444 55.48C121.996 55.48 122.446 55.36 122.794 55.12C123.154 54.88 123.412 54.472 123.568 53.896C123.616 53.716 123.682 53.596 123.766 53.536C123.85 53.464 123.976 53.428 124.144 53.428H126.7C126.808 53.428 126.898 53.464 126.97 53.536C127.054 53.608 127.096 53.698 127.096 53.806C127.072 54.706 126.814 55.486 126.322 56.146C125.83 56.806 125.158 57.31 124.306 57.658C123.466 58.006 122.512 58.18 121.444 58.18ZM131.561 58.18C130.925 58.18 130.343 58.06 129.815 57.82C129.299 57.568 128.891 57.226 128.591 56.794C128.303 56.362 128.159 55.888 128.159 55.372C128.159 54.556 128.495 53.896 129.167 53.392C129.851 52.876 130.787 52.522 131.975 52.33L134.207 51.988V51.772C134.207 51.328 134.117 51.004 133.937 50.8C133.757 50.596 133.451 50.494 133.019 50.494C132.779 50.494 132.575 50.536 132.407 50.62C132.251 50.704 132.071 50.83 131.867 50.998C131.711 51.13 131.573 51.226 131.453 51.286C131.405 51.37 131.345 51.412 131.273 51.412H129.185C129.065 51.412 128.963 51.376 128.879 51.304C128.807 51.22 128.777 51.124 128.789 51.016C128.801 50.692 128.963 50.332 129.275 49.936C129.587 49.528 130.061 49.18 130.697 48.892C131.333 48.604 132.119 48.46 133.055 48.46C134.543 48.46 135.647 48.79 136.367 49.45C137.087 50.098 137.447 50.98 137.447 52.096V57.55C137.447 57.67 137.405 57.778 137.321 57.874C137.237 57.958 137.129 58 136.997 58H134.783C134.663 58 134.555 57.958 134.459 57.874C134.375 57.778 134.333 57.67 134.333 57.55V56.92C134.069 57.292 133.703 57.598 133.235 57.838C132.767 58.066 132.209 58.18 131.561 58.18ZM132.461 56.056C132.989 56.056 133.415 55.882 133.739 55.534C134.075 55.186 134.243 54.682 134.243 54.022V53.806L132.749 54.058C131.741 54.25 131.237 54.61 131.237 55.138C131.237 55.414 131.351 55.636 131.579 55.804C131.819 55.972 132.113 56.056 132.461 56.056ZM139.873 61.42C139.741 61.42 139.627 61.378 139.531 61.294C139.447 61.21 139.405 61.102 139.405 60.97V49.09C139.405 48.958 139.447 48.85 139.531 48.766C139.627 48.682 139.741 48.64 139.873 48.64H142.015C142.147 48.64 142.255 48.682 142.339 48.766C142.423 48.85 142.465 48.958 142.465 49.09V49.738C143.113 48.886 144.043 48.46 145.255 48.46C146.419 48.46 147.331 48.826 147.991 49.558C148.663 50.278 149.023 51.31 149.071 52.654C149.083 52.81 149.089 53.032 149.089 53.32C149.089 53.608 149.083 53.836 149.071 54.004C149.023 55.3 148.663 56.32 147.991 57.064C147.319 57.808 146.407 58.18 145.255 58.18C144.091 58.18 143.221 57.784 142.645 56.992V60.97C142.645 61.102 142.603 61.21 142.519 61.294C142.435 61.378 142.327 61.42 142.195 61.42H139.873ZM144.211 55.678C144.751 55.678 145.135 55.522 145.363 55.21C145.603 54.886 145.741 54.442 145.777 53.878C145.789 53.758 145.795 53.572 145.795 53.32C145.795 53.068 145.789 52.882 145.777 52.762C145.741 52.198 145.603 51.76 145.363 51.448C145.135 51.124 144.751 50.962 144.211 50.962C143.695 50.962 143.311 51.13 143.059 51.466C142.807 51.79 142.669 52.204 142.645 52.708C142.633 52.864 142.627 53.092 142.627 53.392C142.627 53.68 142.633 53.902 142.645 54.058C142.669 54.526 142.807 54.916 143.059 55.228C143.323 55.528 143.707 55.678 144.211 55.678ZM155.692 58C153.148 58 151.876 56.806 151.876 54.418V51.088H150.454C150.334 51.088 150.226 51.046 150.13 50.962C150.046 50.866 150.004 50.758 150.004 50.638V49.09C150.004 48.958 150.046 48.85 150.13 48.766C150.226 48.682 150.334 48.64 150.454 48.64H151.876V45.67C151.876 45.538 151.918 45.43 152.002 45.346C152.098 45.262 152.206 45.22 152.326 45.22H154.54C154.672 45.22 154.78 45.262 154.864 45.346C154.948 45.43 154.99 45.538 154.99 45.67V48.64H157.24C157.372 48.64 157.48 48.682 157.564 48.766C157.66 48.85 157.708 48.958 157.708 49.09V50.638C157.708 50.77 157.66 50.878 157.564 50.962C157.48 51.046 157.372 51.088 157.24 51.088H154.99V54.148C154.99 54.568 155.068 54.886 155.224 55.102C155.38 55.318 155.632 55.426 155.98 55.426H157.402C157.534 55.426 157.642 55.474 157.726 55.57C157.81 55.654 157.852 55.762 157.852 55.894V57.55C157.852 57.67 157.81 57.778 157.726 57.874C157.642 57.958 157.534 58 157.402 58H155.692ZM162.741 58.18C161.685 58.18 160.833 57.826 160.185 57.118C159.537 56.41 159.213 55.408 159.213 54.112V49.09C159.213 48.958 159.255 48.85 159.339 48.766C159.435 48.682 159.543 48.64 159.663 48.64H162.057C162.189 48.64 162.297 48.682 162.381 48.766C162.477 48.85 162.525 48.958 162.525 49.09V54.004C162.525 55.12 163.023 55.678 164.019 55.678C164.499 55.678 164.871 55.534 165.135 55.246C165.411 54.946 165.549 54.532 165.549 54.004V49.09C165.549 48.958 165.591 48.85 165.675 48.766C165.771 48.682 165.885 48.64 166.017 48.64H168.393C168.525 48.64 168.633 48.682 168.717 48.766C168.801 48.85 168.843 48.958 168.843 49.09V57.55C168.843 57.67 168.801 57.778 168.717 57.874C168.633 57.958 168.525 58 168.393 58H166.197C166.065 58 165.951 57.958 165.855 57.874C165.771 57.79 165.729 57.682 165.729 57.55V56.866C165.105 57.742 164.109 58.18 162.741 58.18ZM171.337 58C171.217 58 171.109 57.958 171.013 57.874C170.929 57.778 170.887 57.67 170.887 57.55V49.108C170.887 48.976 170.929 48.868 171.013 48.784C171.097 48.688 171.205 48.64 171.337 48.64H173.533C173.665 48.64 173.773 48.688 173.857 48.784C173.953 48.868 174.001 48.976 174.001 49.108V49.792C174.337 49.42 174.727 49.138 175.171 48.946C175.627 48.742 176.131 48.64 176.683 48.64H177.493C177.625 48.64 177.733 48.682 177.817 48.766C177.901 48.85 177.943 48.958 177.943 49.09V51.052C177.943 51.172 177.901 51.28 177.817 51.376C177.733 51.46 177.625 51.502 177.493 51.502H175.675C175.195 51.502 174.823 51.634 174.559 51.898C174.307 52.162 174.181 52.534 174.181 53.014V57.55C174.181 57.682 174.133 57.79 174.037 57.874C173.953 57.958 173.845 58 173.713 58H171.337ZM183.506 58.18C182.042 58.18 180.89 57.79 180.05 57.01C179.21 56.218 178.778 55.072 178.754 53.572V53.014C178.802 51.586 179.246 50.47 180.086 49.666C180.926 48.862 182.06 48.46 183.488 48.46C184.52 48.46 185.39 48.67 186.098 49.09C186.818 49.498 187.352 50.068 187.7 50.8C188.06 51.52 188.24 52.342 188.24 53.266V53.716C188.24 53.848 188.192 53.962 188.096 54.058C188.012 54.142 187.904 54.184 187.772 54.184H182.066V54.292C182.078 54.832 182.204 55.27 182.444 55.606C182.684 55.93 183.026 56.092 183.47 56.092C183.758 56.092 183.986 56.038 184.154 55.93C184.334 55.81 184.502 55.66 184.658 55.48C184.766 55.36 184.85 55.288 184.91 55.264C184.982 55.228 185.09 55.21 185.234 55.21H187.592C187.7 55.21 187.79 55.246 187.862 55.318C187.946 55.378 187.988 55.456 187.988 55.552C187.988 55.864 187.808 56.23 187.448 56.65C187.1 57.07 186.584 57.43 185.9 57.73C185.228 58.03 184.43 58.18 183.506 58.18ZM184.928 52.348V52.312C184.928 51.736 184.802 51.292 184.55 50.98C184.298 50.656 183.944 50.494 183.488 50.494C183.032 50.494 182.678 50.656 182.426 50.98C182.186 51.292 182.066 51.736 182.066 52.312V52.348H184.928ZM194.281 58C194.161 58 194.053 57.958 193.957 57.874C193.873 57.778 193.831 57.67 193.831 57.55V45.868C193.831 45.736 193.873 45.628 193.957 45.544C194.041 45.448 194.149 45.4 194.281 45.4H199.015C200.791 45.4 202.171 45.826 203.155 46.678C204.139 47.518 204.655 48.73 204.703 50.314C204.715 50.662 204.721 51.124 204.721 51.7C204.721 52.276 204.715 52.732 204.703 53.068C204.583 56.356 202.717 58 199.105 58H194.281ZM199.015 55.3C199.771 55.3 200.329 55.12 200.689 54.76C201.049 54.4 201.241 53.824 201.265 53.032C201.289 52.684 201.301 52.234 201.301 51.682C201.301 51.13 201.289 50.686 201.265 50.35C201.241 49.582 201.031 49.018 200.635 48.658C200.251 48.286 199.681 48.1 198.925 48.1H197.215V55.3H199.015ZM209.397 58.18C208.761 58.18 208.179 58.06 207.651 57.82C207.135 57.568 206.727 57.226 206.427 56.794C206.139 56.362 205.995 55.888 205.995 55.372C205.995 54.556 206.331 53.896 207.003 53.392C207.687 52.876 208.623 52.522 209.811 52.33L212.043 51.988V51.772C212.043 51.328 211.953 51.004 211.773 50.8C211.593 50.596 211.287 50.494 210.855 50.494C210.615 50.494 210.411 50.536 210.243 50.62C210.087 50.704 209.907 50.83 209.703 50.998C209.547 51.13 209.409 51.226 209.289 51.286C209.241 51.37 209.181 51.412 209.109 51.412H207.021C206.901 51.412 206.799 51.376 206.715 51.304C206.643 51.22 206.613 51.124 206.625 51.016C206.637 50.692 206.799 50.332 207.111 49.936C207.423 49.528 207.897 49.18 208.533 48.892C209.169 48.604 209.955 48.46 210.891 48.46C212.379 48.46 213.483 48.79 214.203 49.45C214.923 50.098 215.283 50.98 215.283 52.096V57.55C215.283 57.67 215.241 57.778 215.157 57.874C215.073 57.958 214.965 58 214.833 58H212.619C212.499 58 212.391 57.958 212.295 57.874C212.211 57.778 212.169 57.67 212.169 57.55V56.92C211.905 57.292 211.539 57.598 211.071 57.838C210.603 58.066 210.045 58.18 209.397 58.18ZM210.297 56.056C210.825 56.056 211.251 55.882 211.575 55.534C211.911 55.186 212.079 54.682 212.079 54.022V53.806L210.585 54.058C209.577 54.25 209.073 54.61 209.073 55.138C209.073 55.414 209.187 55.636 209.415 55.804C209.655 55.972 209.949 56.056 210.297 56.056ZM222.085 58C219.541 58 218.269 56.806 218.269 54.418V51.088H216.847C216.727 51.088 216.619 51.046 216.523 50.962C216.439 50.866 216.397 50.758 216.397 50.638V49.09C216.397 48.958 216.439 48.85 216.523 48.766C216.619 48.682 216.727 48.64 216.847 48.64H218.269V45.67C218.269 45.538 218.311 45.43 218.395 45.346C218.491 45.262 218.599 45.22 218.719 45.22H220.933C221.065 45.22 221.173 45.262 221.257 45.346C221.341 45.43 221.383 45.538 221.383 45.67V48.64H223.633C223.765 48.64 223.873 48.682 223.957 48.766C224.053 48.85 224.101 48.958 224.101 49.09V50.638C224.101 50.77 224.053 50.878 223.957 50.962C223.873 51.046 223.765 51.088 223.633 51.088H221.383V54.148C221.383 54.568 221.461 54.886 221.617 55.102C221.773 55.318 222.025 55.426 222.373 55.426H223.795C223.927 55.426 224.035 55.474 224.119 55.57C224.203 55.654 224.245 55.762 224.245 55.894V57.55C224.245 57.67 224.203 57.778 224.119 57.874C224.035 57.958 223.927 58 223.795 58H222.085ZM228.522 58.18C227.886 58.18 227.304 58.06 226.776 57.82C226.26 57.568 225.852 57.226 225.552 56.794C225.264 56.362 225.12 55.888 225.12 55.372C225.12 54.556 225.456 53.896 226.128 53.392C226.812 52.876 227.748 52.522 228.936 52.33L231.168 51.988V51.772C231.168 51.328 231.078 51.004 230.898 50.8C230.718 50.596 230.412 50.494 229.98 50.494C229.74 50.494 229.536 50.536 229.368 50.62C229.212 50.704 229.032 50.83 228.828 50.998C228.672 51.13 228.534 51.226 228.414 51.286C228.366 51.37 228.306 51.412 228.234 51.412H226.146C226.026 51.412 225.924 51.376 225.84 51.304C225.768 51.22 225.738 51.124 225.75 51.016C225.762 50.692 225.924 50.332 226.236 49.936C226.548 49.528 227.022 49.18 227.658 48.892C228.294 48.604 229.08 48.46 230.016 48.46C231.504 48.46 232.608 48.79 233.328 49.45C234.048 50.098 234.408 50.98 234.408 52.096V57.55C234.408 57.67 234.366 57.778 234.282 57.874C234.198 57.958 234.09 58 233.958 58H231.744C231.624 58 231.516 57.958 231.42 57.874C231.336 57.778 231.294 57.67 231.294 57.55V56.92C231.03 57.292 230.664 57.598 230.196 57.838C229.728 58.066 229.17 58.18 228.522 58.18ZM229.422 56.056C229.95 56.056 230.376 55.882 230.7 55.534C231.036 55.186 231.204 54.682 231.204 54.022V53.806L229.71 54.058C228.702 54.25 228.198 54.61 228.198 55.138C228.198 55.414 228.312 55.636 228.54 55.804C228.78 55.972 229.074 56.056 229.422 56.056Z" fill="#303037"/>
<path d="M116.477 85H120.383C122.664 85 124.102 83.8828 124.102 82.0078C124.102 80.5078 123.195 79.5625 121.781 79.375V79.3125C122.867 78.9844 123.5 78.1797 123.5 76.9609C123.5 75.3438 122.344 74.3359 120.523 74.3359H116.477V85ZM117.906 75.5859H120.273C121.398 75.5859 122.055 76.1875 122.055 77.2109C122.055 78.3672 121.273 78.9062 119.516 78.9062H117.906V75.5859ZM117.906 80.1172H120.422C121.828 80.1172 122.633 80.8125 122.633 82C122.633 83.2266 121.797 83.75 119.734 83.75H117.906V80.1172ZM126.586 85H128V76.7812H126.586V85ZM126.289 74.25C126.289 74.8125 126.719 75.2266 127.281 75.2266C127.875 75.2266 128.305 74.8125 128.305 74.25C128.305 73.6797 127.875 73.2656 127.281 73.2656C126.719 73.2656 126.289 73.6797 126.289 74.25ZM133.953 86.8125C132.875 86.8125 132.211 86.3281 132.102 85.75H130.664C130.773 86.9453 131.805 88.0078 133.906 88.0078C136.008 88.0078 137.523 87.0234 137.523 84.7578V76.7812H136.172V78.0156H136.102C135.828 77.3438 134.953 76.6562 133.719 76.6562C131.898 76.6562 130.484 77.9609 130.484 80.1328V81.3906C130.484 83.5625 131.906 84.8516 133.727 84.8516C134.867 84.8516 135.711 84.2734 136.031 83.5625H136.109V84.75C136.109 86.0391 135.398 86.8125 133.953 86.8125ZM134.07 77.8828C135.359 77.8828 136.109 78.9688 136.109 80.1719V81.3984C136.109 82.5703 135.398 83.6484 134.086 83.6484C132.812 83.6484 131.906 82.6484 131.906 81.1562V80.3906C131.906 78.8906 132.734 77.8828 134.07 77.8828ZM143.883 74.3359V85H147.352C150.461 85 152.047 83.1406 152.047 79.6641C152.047 76.1875 150.461 74.3359 147.352 74.3359H143.883ZM145.32 75.6172H147.25C149.469 75.6172 150.555 76.9688 150.555 79.6719C150.555 82.375 149.477 83.7109 147.25 83.7109H145.32V75.6172ZM156.547 85.1328C157.758 85.1328 158.5 84.5703 158.898 83.9141H158.961V85H160.32V79.3906C160.32 77.375 158.922 76.6484 157.227 76.6484C155.391 76.6484 154.297 77.4375 154.172 78.8281H155.539C155.703 78.2578 156.141 77.8594 157.18 77.8594C158.234 77.8594 158.898 78.3359 158.898 79.3828V80.1953H156.75C154.859 80.1953 153.859 81.1719 153.859 82.6094C153.859 84.1328 154.953 85.1328 156.547 85.1328ZM156.938 83.9375C156.086 83.9375 155.305 83.5 155.305 82.5625C155.305 81.8281 155.758 81.2734 156.867 81.2734H158.898V82.1953C158.898 83.1875 158.047 83.9375 156.938 83.9375ZM163.523 76.8047H162.258V77.9688H163.516V82.6953C163.516 84.3203 163.938 85.0703 165.891 85.0703C166.203 85.0703 166.781 85.0234 166.898 85V83.8516C166.766 83.8672 166.453 83.8828 166.25 83.8828C165.25 83.8828 164.922 83.6328 164.922 82.6719V77.9688H166.781V76.8047H164.922V74.7422H163.523V76.8047ZM171.312 85.1328C172.523 85.1328 173.266 84.5703 173.664 83.9141H173.727V85H175.086V79.3906C175.086 77.375 173.688 76.6484 171.992 76.6484C170.156 76.6484 169.062 77.4375 168.938 78.8281H170.305C170.469 78.2578 170.906 77.8594 171.945 77.8594C173 77.8594 173.664 78.3359 173.664 79.3828V80.1953H171.516C169.625 80.1953 168.625 81.1719 168.625 82.6094C168.625 84.1328 169.719 85.1328 171.312 85.1328ZM171.703 83.9375C170.852 83.9375 170.07 83.5 170.07 82.5625C170.07 81.8281 170.523 81.2734 171.633 81.2734H173.664V82.1953C173.664 83.1875 172.812 83.9375 171.703 83.9375ZM182.562 78.9531C182.562 76.7266 183.602 75.4141 185.359 75.4141C186.711 75.4141 187.703 76.2812 187.844 77.4844H189.266V77.4297C189.117 75.5 187.5 74.1172 185.352 74.1172C182.688 74.1172 181.117 75.9219 181.117 78.9297V80.4609C181.117 83.4766 182.648 85.2188 185.352 85.2188C187.484 85.2188 189.109 83.8984 189.266 82.0625V82.0156H187.844C187.703 83.1484 186.734 83.9219 185.359 83.9219C183.578 83.9219 182.562 82.6641 182.562 80.4531V78.9531ZM194.812 76.6406C192.758 76.6406 191.258 78.0625 191.258 80.2812V81.4844C191.258 83.8281 192.734 85.1328 194.812 85.1328C196.852 85.1328 198.359 83.8125 198.359 81.4844V80.2812C198.359 77.9844 196.852 76.6406 194.812 76.6406ZM194.82 77.8594C196.141 77.8594 196.938 78.9062 196.938 80.3984V81.3828C196.938 82.8984 196.18 83.9219 194.82 83.9219C193.445 83.9219 192.672 82.8984 192.672 81.3828V80.3984C192.672 78.9141 193.5 77.8594 194.82 77.8594ZM200.781 85H202.195V73.7734H200.781V85ZM205.078 85H206.492V73.7734H205.078V85ZM212.445 85.1328C214.523 85.1328 215.516 83.8438 215.641 82.9531H214.188C214.047 83.4609 213.398 83.9219 212.438 83.9219C211.07 83.9219 210.336 82.9453 210.336 81.6719V81.2578H215.75V80.2734C215.75 78.0547 214.328 76.6406 212.336 76.6406C210.367 76.6406 208.93 78.0234 208.93 80.2734V81.5078C208.93 83.7344 210.234 85.1328 212.445 85.1328ZM210.336 80.2344V80.1016C210.336 78.7422 211.141 77.8516 212.344 77.8516C213.547 77.8516 214.344 78.7422 214.344 80.1016V80.2344H210.336ZM217.695 81.5391C217.695 83.75 219.008 85.1328 221.125 85.1328C223.297 85.1328 224.289 83.9297 224.336 82.7031H222.961C222.812 83.3359 222.359 83.8828 221.148 83.8828C219.883 83.8828 219.109 82.9766 219.109 81.5469V80.2578C219.109 78.8203 219.805 77.8984 221.148 77.8984C222.43 77.8984 222.812 78.6797 222.898 79.1719H224.281C224.242 77.9141 223.18 76.6406 221.125 76.6406C219.016 76.6406 217.695 78.0469 217.695 80.2031V81.5391ZM227.008 76.8047H225.742V77.9688H227V82.6953C227 84.3203 227.422 85.0703 229.375 85.0703C229.688 85.0703 230.266 85.0234 230.383 85V83.8516C230.25 83.8672 229.938 83.8828 229.734 83.8828C228.734 83.8828 228.406 83.6328 228.406 82.6719V77.9688H230.266V76.8047H228.406V74.7422H227.008V76.8047ZM232.773 85H234.188V76.7812H232.773V85ZM232.477 74.25C232.477 74.8125 232.906 75.2266 233.469 75.2266C234.062 75.2266 234.492 74.8125 234.492 74.25C234.492 73.6797 234.062 73.2656 233.469 73.2656C232.906 73.2656 232.477 73.6797 232.477 74.25ZM240.328 76.6406C238.273 76.6406 236.773 78.0625 236.773 80.2812V81.4844C236.773 83.8281 238.25 85.1328 240.328 85.1328C242.367 85.1328 243.875 83.8125 243.875 81.4844V80.2812C243.875 77.9844 242.367 76.6406 240.328 76.6406ZM240.336 77.8594C241.656 77.8594 242.453 78.9062 242.453 80.3984V81.3828C242.453 82.8984 241.695 83.9219 240.336 83.9219C238.961 83.9219 238.188 82.8984 238.188 81.3828V80.3984C238.188 78.9141 239.016 77.8594 240.336 77.8594ZM246.25 85H247.664V80.4219C247.664 79.0078 248.367 77.8984 249.812 77.8984C250.93 77.8984 251.594 78.5547 251.594 79.8438V85H253.008V79.3906C253.008 77.5469 251.875 76.6484 250.219 76.6484C248.5 76.6484 247.93 77.625 247.727 78.2734H247.648V76.7812H246.25V85Z" fill="#A7A9C0"/>
<circle cx="75" cy="65" r="24" fill="#2C4EA2"/>
<path d="M76.0009 72C75.8676 72 75.7476 71.9533 75.6409 71.86C75.5476 71.7533 75.5009 71.6333 75.5009 71.5V62.14L72.8209 64.2C72.7143 64.2667 72.6143 64.3 72.5209 64.3C72.3609 64.3 72.2209 64.22 72.1009 64.06L70.8609 62.46C70.8076 62.3667 70.7809 62.2667 70.7809 62.16C70.7809 61.9733 70.8543 61.8267 71.0009 61.72L75.6409 58.14C75.7743 58.0467 75.9276 58 76.1009 58H78.7409C78.8876 58 79.0076 58.0467 79.1009 58.14C79.2076 58.2333 79.2609 58.3533 79.2609 58.5V71.5C79.2609 71.6467 79.2076 71.7667 79.1009 71.86C79.0076 71.9533 78.8876 72 78.7409 72H76.0009Z" fill="white"/>
<g filter="url(#filter1_d)">
<rect x="35" y="176" width="236" height="109" rx="8" fill="white"/>
</g>
<path d="M116.674 209C116.554 209 116.446 208.958 116.35 208.874C116.266 208.778 116.224 208.67 116.224 208.55V196.868C116.224 196.736 116.266 196.628 116.35 196.544C116.434 196.448 116.542 196.4 116.674 196.4H122.236C123.76 196.4 124.894 196.712 125.638 197.336C126.382 197.96 126.754 198.848 126.754 200C126.754 200.576 126.598 201.074 126.286 201.494C125.986 201.914 125.65 202.22 125.278 202.412C125.77 202.628 126.184 202.988 126.52 203.492C126.856 203.984 127.024 204.542 127.024 205.166C127.024 206.378 126.622 207.32 125.818 207.992C125.026 208.664 123.886 209 122.398 209H116.674ZM121.858 201.386C122.302 201.386 122.644 201.266 122.884 201.026C123.124 200.786 123.244 200.474 123.244 200.09C123.244 199.718 123.124 199.418 122.884 199.19C122.656 198.95 122.314 198.83 121.858 198.83H119.608V201.386H121.858ZM122.02 206.57C122.488 206.57 122.848 206.438 123.1 206.174C123.364 205.898 123.496 205.562 123.496 205.166C123.496 204.758 123.364 204.422 123.1 204.158C122.836 203.882 122.476 203.744 122.02 203.744H119.608V206.57H122.02ZM132.191 209.18C131.135 209.18 130.283 208.826 129.635 208.118C128.987 207.41 128.663 206.408 128.663 205.112V200.09C128.663 199.958 128.705 199.85 128.789 199.766C128.885 199.682 128.993 199.64 129.113 199.64H131.507C131.639 199.64 131.747 199.682 131.831 199.766C131.927 199.85 131.975 199.958 131.975 200.09V205.004C131.975 206.12 132.473 206.678 133.469 206.678C133.949 206.678 134.321 206.534 134.585 206.246C134.861 205.946 134.999 205.532 134.999 205.004V200.09C134.999 199.958 135.041 199.85 135.125 199.766C135.221 199.682 135.335 199.64 135.467 199.64H137.843C137.975 199.64 138.083 199.682 138.167 199.766C138.251 199.85 138.293 199.958 138.293 200.09V208.55C138.293 208.67 138.251 208.778 138.167 208.874C138.083 208.958 137.975 209 137.843 209H135.647C135.515 209 135.401 208.958 135.305 208.874C135.221 208.79 135.179 208.682 135.179 208.55V207.866C134.555 208.742 133.559 209.18 132.191 209.18ZM140.787 198.344C140.655 198.344 140.547 198.302 140.463 198.218C140.379 198.122 140.337 198.008 140.337 197.876V196.202C140.337 196.07 140.379 195.962 140.463 195.878C140.559 195.782 140.667 195.734 140.787 195.734H143.037C143.169 195.734 143.277 195.782 143.361 195.878C143.457 195.962 143.505 196.07 143.505 196.202V197.876C143.505 198.008 143.457 198.122 143.361 198.218C143.277 198.302 143.169 198.344 143.037 198.344H140.787ZM140.787 209C140.667 209 140.559 208.958 140.463 208.874C140.379 208.778 140.337 208.67 140.337 208.55V200.09C140.337 199.958 140.379 199.85 140.463 199.766C140.559 199.682 140.667 199.64 140.787 199.64H143.037C143.169 199.64 143.277 199.682 143.361 199.766C143.457 199.85 143.505 199.958 143.505 200.09V208.55C143.505 208.682 143.457 208.79 143.361 208.874C143.277 208.958 143.169 209 143.037 209H140.787ZM146.025 209C145.893 209 145.779 208.958 145.683 208.874C145.599 208.79 145.557 208.682 145.557 208.55V196.67C145.557 196.538 145.599 196.43 145.683 196.346C145.779 196.262 145.893 196.22 146.025 196.22H148.275C148.407 196.22 148.515 196.262 148.599 196.346C148.683 196.43 148.725 196.538 148.725 196.67V208.55C148.725 208.67 148.683 208.778 148.599 208.874C148.515 208.958 148.407 209 148.275 209H146.025ZM154.288 209.18C153.124 209.18 152.206 208.814 151.534 208.082C150.874 207.35 150.52 206.306 150.472 204.95L150.454 204.32L150.472 203.672C150.52 202.364 150.88 201.338 151.552 200.594C152.224 199.838 153.136 199.46 154.288 199.46C155.368 199.46 156.238 199.808 156.898 200.504V196.67C156.898 196.538 156.94 196.43 157.024 196.346C157.12 196.262 157.228 196.22 157.348 196.22H159.67C159.802 196.22 159.91 196.262 159.994 196.346C160.09 196.43 160.138 196.538 160.138 196.67V208.55C160.138 208.682 160.09 208.79 159.994 208.874C159.91 208.958 159.802 209 159.67 209H157.528C157.408 209 157.3 208.958 157.204 208.874C157.12 208.778 157.078 208.67 157.078 208.55V207.992C156.43 208.784 155.5 209.18 154.288 209.18ZM155.332 206.678C155.848 206.678 156.232 206.516 156.484 206.192C156.736 205.856 156.874 205.436 156.898 204.932C156.922 204.596 156.934 204.368 156.934 204.248C156.934 204.116 156.922 203.894 156.898 203.582C156.874 203.114 156.73 202.73 156.466 202.43C156.214 202.118 155.836 201.962 155.332 201.962C154.792 201.962 154.402 202.124 154.162 202.448C153.934 202.76 153.802 203.198 153.766 203.762L153.748 204.32L153.766 204.878C153.802 205.442 153.934 205.886 154.162 206.21C154.402 206.522 154.792 206.678 155.332 206.678ZM166.631 209C166.499 209 166.385 208.958 166.289 208.874C166.205 208.79 166.163 208.682 166.163 208.55V196.868C166.163 196.736 166.205 196.628 166.289 196.544C166.385 196.448 166.499 196.4 166.631 196.4H168.665C168.965 196.4 169.181 196.532 169.313 196.796L172.409 202.34L175.523 196.796C175.655 196.532 175.871 196.4 176.171 196.4H178.205C178.337 196.4 178.445 196.448 178.529 196.544C178.625 196.628 178.673 196.736 178.673 196.868V208.55C178.673 208.682 178.625 208.79 178.529 208.874C178.445 208.958 178.337 209 178.205 209H175.919C175.799 209 175.691 208.958 175.595 208.874C175.511 208.778 175.469 208.67 175.469 208.55V201.998L173.525 205.562C173.369 205.838 173.159 205.976 172.895 205.976H171.923C171.683 205.976 171.473 205.838 171.293 205.562L169.367 201.998V208.55C169.367 208.682 169.319 208.79 169.223 208.874C169.139 208.958 169.031 209 168.899 209H166.631ZM185.424 209.18C183.912 209.18 182.748 208.832 181.932 208.136C181.128 207.428 180.69 206.426 180.618 205.13C180.606 204.974 180.6 204.704 180.6 204.32C180.6 203.936 180.606 203.666 180.618 203.51C180.69 202.238 181.14 201.248 181.968 200.54C182.808 199.82 183.96 199.46 185.424 199.46C186.888 199.46 188.034 199.82 188.862 200.54C189.702 201.248 190.158 202.238 190.23 203.51C190.254 203.822 190.266 204.092 190.266 204.32C190.266 204.548 190.254 204.818 190.23 205.13C190.158 206.426 189.714 207.428 188.898 208.136C188.094 208.832 186.936 209.18 185.424 209.18ZM185.424 206.912C185.916 206.912 186.282 206.762 186.522 206.462C186.762 206.15 186.9 205.676 186.936 205.04C186.948 204.92 186.954 204.68 186.954 204.32C186.954 203.96 186.948 203.72 186.936 203.6C186.9 202.976 186.762 202.508 186.522 202.196C186.282 201.884 185.916 201.728 185.424 201.728C184.932 201.728 184.566 201.884 184.326 202.196C184.086 202.508 183.948 202.976 183.912 203.6L183.894 204.32L183.912 205.04C183.948 205.676 184.086 206.15 184.326 206.462C184.566 206.762 184.932 206.912 185.424 206.912ZM195.491 209.18C194.327 209.18 193.409 208.814 192.737 208.082C192.077 207.35 191.723 206.306 191.675 204.95L191.657 204.32L191.675 203.672C191.723 202.364 192.083 201.338 192.755 200.594C193.427 199.838 194.339 199.46 195.491 199.46C196.571 199.46 197.441 199.808 198.101 200.504V196.67C198.101 196.538 198.143 196.43 198.227 196.346C198.323 196.262 198.431 196.22 198.551 196.22H200.873C201.005 196.22 201.113 196.262 201.197 196.346C201.293 196.43 201.341 196.538 201.341 196.67V208.55C201.341 208.682 201.293 208.79 201.197 208.874C201.113 208.958 201.005 209 200.873 209H198.731C198.611 209 198.503 208.958 198.407 208.874C198.323 208.778 198.281 208.67 198.281 208.55V207.992C197.633 208.784 196.703 209.18 195.491 209.18ZM196.535 206.678C197.051 206.678 197.435 206.516 197.687 206.192C197.939 205.856 198.077 205.436 198.101 204.932C198.125 204.596 198.137 204.368 198.137 204.248C198.137 204.116 198.125 203.894 198.101 203.582C198.077 203.114 197.933 202.73 197.669 202.43C197.417 202.118 197.039 201.962 196.535 201.962C195.995 201.962 195.605 202.124 195.365 202.448C195.137 202.76 195.005 203.198 194.969 203.762L194.951 204.32L194.969 204.878C195.005 205.442 195.137 205.886 195.365 206.21C195.605 206.522 195.995 206.678 196.535 206.678ZM207.781 209.18C206.317 209.18 205.165 208.79 204.325 208.01C203.485 207.218 203.053 206.072 203.029 204.572V204.014C203.077 202.586 203.521 201.47 204.361 200.666C205.201 199.862 206.335 199.46 207.763 199.46C208.795 199.46 209.665 199.67 210.373 200.09C211.093 200.498 211.627 201.068 211.975 201.8C212.335 202.52 212.515 203.342 212.515 204.266V204.716C212.515 204.848 212.467 204.962 212.371 205.058C212.287 205.142 212.179 205.184 212.047 205.184H206.341V205.292C206.353 205.832 206.479 206.27 206.719 206.606C206.959 206.93 207.301 207.092 207.745 207.092C208.033 207.092 208.261 207.038 208.429 206.93C208.609 206.81 208.777 206.66 208.933 206.48C209.041 206.36 209.125 206.288 209.185 206.264C209.257 206.228 209.365 206.21 209.509 206.21H211.867C211.975 206.21 212.065 206.246 212.137 206.318C212.221 206.378 212.263 206.456 212.263 206.552C212.263 206.864 212.083 207.23 211.723 207.65C211.375 208.07 210.859 208.43 210.175 208.73C209.503 209.03 208.705 209.18 207.781 209.18ZM209.203 203.348V203.312C209.203 202.736 209.077 202.292 208.825 201.98C208.573 201.656 208.219 201.494 207.763 201.494C207.307 201.494 206.953 201.656 206.701 201.98C206.461 202.292 206.341 202.736 206.341 203.312V203.348H209.203ZM214.598 209C214.466 209 214.352 208.958 214.256 208.874C214.172 208.79 214.13 208.682 214.13 208.55V196.67C214.13 196.538 214.172 196.43 214.256 196.346C214.352 196.262 214.466 196.22 214.598 196.22H216.848C216.98 196.22 217.088 196.262 217.172 196.346C217.256 196.43 217.298 196.538 217.298 196.67V208.55C217.298 208.67 217.256 208.778 217.172 208.874C217.088 208.958 216.98 209 216.848 209H214.598Z" fill="#303037"/>
<path d="M117.812 239V231.273H117.883L120.828 238.047H122L124.938 231.273H125.016V239H126.32V228.336H124.914L121.445 236.461H121.398L117.922 228.336H116.508V239H117.812ZM131.453 239.133C132.664 239.133 133.406 238.57 133.805 237.914H133.867V239H135.227V233.391C135.227 231.375 133.828 230.648 132.133 230.648C130.297 230.648 129.203 231.438 129.078 232.828H130.445C130.609 232.258 131.047 231.859 132.086 231.859C133.141 231.859 133.805 232.336 133.805 233.383V234.195H131.656C129.766 234.195 128.766 235.172 128.766 236.609C128.766 238.133 129.859 239.133 131.453 239.133ZM131.844 237.938C130.992 237.938 130.211 237.5 130.211 236.562C130.211 235.828 130.664 235.273 131.773 235.273H133.805V236.195C133.805 237.188 132.953 237.938 131.844 237.938ZM137.57 235.539C137.57 237.75 138.883 239.133 141 239.133C143.172 239.133 144.164 237.93 144.211 236.703H142.836C142.688 237.336 142.234 237.883 141.023 237.883C139.758 237.883 138.984 236.977 138.984 235.547V234.258C138.984 232.82 139.68 231.898 141.023 231.898C142.305 231.898 142.688 232.68 142.773 233.172H144.156C144.117 231.914 143.055 230.641 141 230.641C138.891 230.641 137.57 232.047 137.57 234.203V235.539ZM146.477 239H147.891V234.422C147.891 233 148.625 231.898 150.031 231.898C151.141 231.898 151.852 232.57 151.852 233.859V239H153.266V233.406C153.266 231.562 152.094 230.648 150.508 230.648C148.797 230.648 148.125 231.703 147.961 232.273H147.891V227.773H146.477V239ZM156.195 239H157.609V230.781H156.195V239ZM155.898 228.25C155.898 228.812 156.328 229.227 156.891 229.227C157.484 229.227 157.914 228.812 157.914 228.25C157.914 227.68 157.484 227.266 156.891 227.266C156.328 227.266 155.898 227.68 155.898 228.25ZM160.594 239H162.008V234.422C162.008 233.008 162.711 231.898 164.156 231.898C165.273 231.898 165.938 232.555 165.938 233.844V239H167.352V233.391C167.352 231.547 166.219 230.648 164.562 230.648C162.844 230.648 162.273 231.625 162.07 232.273H161.992V230.781H160.594V239ZM173.211 239.133C175.289 239.133 176.281 237.844 176.406 236.953H174.953C174.812 237.461 174.164 237.922 173.203 237.922C171.836 237.922 171.102 236.945 171.102 235.672V235.258H176.516V234.273C176.516 232.055 175.094 230.641 173.102 230.641C171.133 230.641 169.695 232.023 169.695 234.273V235.508C169.695 237.734 171 239.133 173.211 239.133ZM171.102 234.234V234.102C171.102 232.742 171.906 231.852 173.109 231.852C174.312 231.852 175.109 232.742 175.109 234.102V234.234H171.102ZM188.883 237.695H184.008V228.336H182.57V239H188.883V237.695ZM193.773 239.133C195.852 239.133 196.844 237.844 196.969 236.953H195.516C195.375 237.461 194.727 237.922 193.766 237.922C192.398 237.922 191.664 236.945 191.664 235.672V235.258H197.078V234.273C197.078 232.055 195.656 230.641 193.664 230.641C191.695 230.641 190.258 232.023 190.258 234.273V235.508C190.258 237.734 191.562 239.133 193.773 239.133ZM191.664 234.234V234.102C191.664 232.742 192.469 231.852 193.672 231.852C194.875 231.852 195.672 232.742 195.672 234.102V234.234H191.664ZM201.641 239.133C202.852 239.133 203.594 238.57 203.992 237.914H204.055V239H205.414V233.391C205.414 231.375 204.016 230.648 202.32 230.648C200.484 230.648 199.391 231.438 199.266 232.828H200.633C200.797 232.258 201.234 231.859 202.273 231.859C203.328 231.859 203.992 232.336 203.992 233.383V234.195H201.844C199.953 234.195 198.953 235.172 198.953 236.609C198.953 238.133 200.047 239.133 201.641 239.133ZM202.031 237.938C201.18 237.938 200.398 237.5 200.398 236.562C200.398 235.828 200.852 235.273 201.961 235.273H203.992V236.195C203.992 237.188 203.141 237.938 202.031 237.938ZM208.281 239H209.703V233.93C209.703 232.82 210.422 231.953 211.867 231.953C212.117 231.953 212.398 231.969 212.531 232V230.695C212.367 230.672 212.195 230.656 212.016 230.656C210.562 230.656 209.969 231.5 209.766 232.047H209.695V230.781H208.281V239ZM214.422 239H215.836V234.422C215.836 233.008 216.539 231.898 217.984 231.898C219.102 231.898 219.766 232.555 219.766 233.844V239H221.18V233.391C221.18 231.547 220.047 230.648 218.391 230.648C216.672 230.648 216.102 231.625 215.898 232.273H215.82V230.781H214.422V239ZM224.117 239H225.531V230.781H224.117V239ZM223.82 228.25C223.82 228.812 224.25 229.227 224.812 229.227C225.406 229.227 225.836 228.812 225.836 228.25C225.836 227.68 225.406 227.266 224.812 227.266C224.25 227.266 223.82 227.68 223.82 228.25ZM228.516 239H229.93V234.422C229.93 233.008 230.633 231.898 232.078 231.898C233.195 231.898 233.859 232.555 233.859 233.844V239H235.273V233.391C235.273 231.547 234.141 230.648 232.484 230.648C230.766 230.648 230.195 231.625 229.992 232.273H229.914V230.781H228.516V239ZM240.984 240.812C239.906 240.812 239.242 240.328 239.133 239.75H237.695C237.805 240.945 238.836 242.008 240.938 242.008C243.039 242.008 244.555 241.023 244.555 238.758V230.781H243.203V232.016H243.133C242.859 231.344 241.984 230.656 240.75 230.656C238.93 230.656 237.516 231.961 237.516 234.133V235.391C237.516 237.562 238.938 238.852 240.758 238.852C241.898 238.852 242.742 238.273 243.062 237.562H243.141V238.75C243.141 240.039 242.43 240.812 240.984 240.812ZM241.102 231.883C242.391 231.883 243.141 232.969 243.141 234.172V235.398C243.141 236.57 242.43 237.648 241.117 237.648C239.844 237.648 238.938 236.648 238.938 235.156V234.391C238.938 232.891 239.766 231.883 241.102 231.883ZM120.023 263V253.625H123.234V252.336H115.367V253.625H118.586V263H120.023ZM127.18 263.133C129.258 263.133 130.25 261.844 130.375 260.953H128.922C128.781 261.461 128.133 261.922 127.172 261.922C125.805 261.922 125.07 260.945 125.07 259.672V259.258H130.484V258.273C130.484 256.055 129.062 254.641 127.07 254.641C125.102 254.641 123.664 256.023 123.664 258.273V259.508C123.664 261.734 124.969 263.133 127.18 263.133ZM125.07 258.234V258.102C125.07 256.742 125.875 255.852 127.078 255.852C128.281 255.852 129.078 256.742 129.078 258.102V258.234H125.07ZM132.43 259.539C132.43 261.75 133.742 263.133 135.859 263.133C138.031 263.133 139.023 261.93 139.07 260.703H137.695C137.547 261.336 137.094 261.883 135.883 261.883C134.617 261.883 133.844 260.977 133.844 259.547V258.258C133.844 256.82 134.539 255.898 135.883 255.898C137.164 255.898 137.547 256.68 137.633 257.172H139.016C138.977 255.914 137.914 254.641 135.859 254.641C133.75 254.641 132.43 256.047 132.43 258.203V259.539ZM141.336 263H142.75V258.422C142.75 257 143.484 255.898 144.891 255.898C146 255.898 146.711 256.57 146.711 257.859V263H148.125V257.406C148.125 255.562 146.953 254.648 145.367 254.648C143.656 254.648 142.984 255.703 142.82 256.273H142.75V251.773H141.336V263ZM150.859 263H152.273V258.422C152.273 257.008 152.977 255.898 154.422 255.898C155.539 255.898 156.203 256.555 156.203 257.844V263H157.617V257.391C157.617 255.547 156.484 254.648 154.828 254.648C153.109 254.648 152.539 255.625 152.336 256.273H152.258V254.781H150.859V263ZM160.555 263H161.969V254.781H160.555V263ZM160.258 252.25C160.258 252.812 160.688 253.227 161.25 253.227C161.844 253.227 162.273 252.812 162.273 252.25C162.273 251.68 161.844 251.266 161.25 251.266C160.688 251.266 160.258 251.68 160.258 252.25ZM167.703 254.656C165.797 254.656 164.555 256.039 164.555 258.172V259.617C164.555 261.773 165.766 263.125 167.68 263.125C168.836 263.125 169.75 262.609 170.102 261.758H170.172V265.727H171.586V254.781H170.234V256.07H170.164C169.781 255.18 168.859 254.656 167.703 254.656ZM168.031 255.891C169.289 255.891 170.172 256.805 170.172 258.109V259.523C170.172 260.984 169.367 261.906 168.062 261.906C166.75 261.906 165.977 260.977 165.977 259.391V258.391C165.977 256.836 166.758 255.891 168.031 255.891ZM181.047 254.781H179.633V259.953C179.633 261.008 178.719 261.883 177.516 261.883C176.539 261.883 175.727 261.453 175.727 260.094V254.781H174.312V260.477C174.312 262.391 175.477 263.133 177.125 263.133C178.562 263.133 179.336 262.305 179.57 261.633H179.648V263H181.047V254.781ZM186.945 263.133C189.023 263.133 190.016 261.844 190.141 260.953H188.688C188.547 261.461 187.898 261.922 186.938 261.922C185.57 261.922 184.836 260.945 184.836 259.672V259.258H190.25V258.273C190.25 256.055 188.828 254.641 186.836 254.641C184.867 254.641 183.43 256.023 183.43 258.273V259.508C183.43 261.734 184.734 263.133 186.945 263.133ZM184.836 258.234V258.102C184.836 256.742 185.641 255.852 186.844 255.852C188.047 255.852 188.844 256.742 188.844 258.102V258.234H184.836ZM192.203 257.141C192.203 258.758 193.445 259.117 194.977 259.43C196.117 259.656 197.031 259.82 197.031 260.734C197.031 261.438 196.5 262.016 195.203 262.016C194.055 262.016 193.547 261.562 193.438 260.836H192.055C192.055 262.312 193.312 263.133 195.141 263.133C197.109 263.133 198.422 262.203 198.422 260.562C198.422 258.969 197.148 258.539 195.609 258.266C194.68 258.102 193.57 257.969 193.57 256.992C193.57 256.211 194.258 255.766 195.219 255.766C196.32 255.766 196.852 256.375 196.898 256.953H198.211C198.211 255.562 197.039 254.641 195.266 254.641C193.664 254.641 192.203 255.391 192.203 257.141Z" fill="#A7A9C0"/>
<circle cx="75" cy="216" r="24" fill="#2C4EA2"/>
<path d="M69.7575 223C69.6242 223 69.5042 222.953 69.3975 222.86C69.3042 222.753 69.2575 222.633 69.2575 222.5V221C69.2575 220.6 69.4242 220.267 69.7575 220L71.6175 218.18C72.8842 217.22 73.8375 216.473 74.4775 215.94C75.1308 215.407 75.6242 214.927 75.9575 214.5C76.3042 214.06 76.4775 213.647 76.4775 213.26C76.4775 212.273 75.9842 211.78 74.9975 211.78C74.4775 211.78 74.0775 211.94 73.7975 212.26C73.5175 212.567 73.3308 212.953 73.2375 213.42C73.1575 213.727 72.9308 213.88 72.5575 213.88H69.9175C69.7975 213.88 69.6908 213.84 69.5975 213.76C69.5175 213.667 69.4775 213.567 69.4775 213.46C69.5042 212.58 69.7442 211.787 70.1975 211.08C70.6642 210.36 71.3108 209.793 72.1375 209.38C72.9642 208.953 73.9175 208.74 74.9975 208.74C76.1175 208.74 77.0842 208.92 77.8975 209.28C78.7108 209.64 79.3242 210.147 79.7375 210.8C80.1642 211.453 80.3775 212.213 80.3775 213.08C80.3775 214.04 80.0775 214.907 79.4775 215.68C78.8908 216.453 77.9908 217.293 76.7775 218.2L75.1175 219.86H80.1775C80.3242 219.86 80.4442 219.907 80.5375 220C80.6308 220.093 80.6775 220.213 80.6775 220.36V222.5C80.6775 222.633 80.6308 222.753 80.5375 222.86C80.4442 222.953 80.3242 223 80.1775 223H69.7575Z" fill="white"/>
<g filter="url(#filter2_d)">
<rect x="33" y="356" width="238" height="109" rx="8" fill="white"/>
</g>
<path d="M114.692 389C114.56 389 114.446 388.958 114.35 388.874C114.266 388.79 114.224 388.682 114.224 388.55V376.868C114.224 376.736 114.266 376.628 114.35 376.544C114.446 376.448 114.56 376.4 114.692 376.4H116.726C117.026 376.4 117.242 376.532 117.374 376.796L120.47 382.34L123.584 376.796C123.716 376.532 123.932 376.4 124.232 376.4H126.266C126.398 376.4 126.506 376.448 126.59 376.544C126.686 376.628 126.734 376.736 126.734 376.868V388.55C126.734 388.682 126.686 388.79 126.59 388.874C126.506 388.958 126.398 389 126.266 389H123.98C123.86 389 123.752 388.958 123.656 388.874C123.572 388.778 123.53 388.67 123.53 388.55V381.998L121.586 385.562C121.43 385.838 121.22 385.976 120.956 385.976H119.984C119.744 385.976 119.534 385.838 119.354 385.562L117.428 381.998V388.55C117.428 388.682 117.38 388.79 117.284 388.874C117.2 388.958 117.092 389 116.96 389H114.692ZM133.377 389.18C131.913 389.18 130.761 388.79 129.921 388.01C129.081 387.218 128.649 386.072 128.625 384.572V384.014C128.673 382.586 129.117 381.47 129.957 380.666C130.797 379.862 131.931 379.46 133.359 379.46C134.391 379.46 135.261 379.67 135.969 380.09C136.689 380.498 137.223 381.068 137.571 381.8C137.931 382.52 138.111 383.342 138.111 384.266V384.716C138.111 384.848 138.063 384.962 137.967 385.058C137.883 385.142 137.775 385.184 137.643 385.184H131.937V385.292C131.949 385.832 132.075 386.27 132.315 386.606C132.555 386.93 132.897 387.092 133.341 387.092C133.629 387.092 133.857 387.038 134.025 386.93C134.205 386.81 134.373 386.66 134.529 386.48C134.637 386.36 134.721 386.288 134.781 386.264C134.853 386.228 134.961 386.21 135.105 386.21H137.463C137.571 386.21 137.661 386.246 137.733 386.318C137.817 386.378 137.859 386.456 137.859 386.552C137.859 386.864 137.679 387.23 137.319 387.65C136.971 388.07 136.455 388.43 135.771 388.73C135.099 389.03 134.301 389.18 133.377 389.18ZM134.799 383.348V383.312C134.799 382.736 134.673 382.292 134.421 381.98C134.169 381.656 133.815 381.494 133.359 381.494C132.903 381.494 132.549 381.656 132.297 381.98C132.057 382.292 131.937 382.736 131.937 383.312V383.348H134.799ZM142.551 389.18C141.915 389.18 141.333 389.06 140.805 388.82C140.289 388.568 139.881 388.226 139.581 387.794C139.293 387.362 139.149 386.888 139.149 386.372C139.149 385.556 139.485 384.896 140.157 384.392C140.841 383.876 141.777 383.522 142.965 383.33L145.197 382.988V382.772C145.197 382.328 145.107 382.004 144.927 381.8C144.747 381.596 144.441 381.494 144.009 381.494C143.769 381.494 143.565 381.536 143.397 381.62C143.241 381.704 143.061 381.83 142.857 381.998C142.701 382.13 142.563 382.226 142.443 382.286C142.395 382.37 142.335 382.412 142.263 382.412H140.175C140.055 382.412 139.953 382.376 139.869 382.304C139.797 382.22 139.767 382.124 139.779 382.016C139.791 381.692 139.953 381.332 140.265 380.936C140.577 380.528 141.051 380.18 141.687 379.892C142.323 379.604 143.109 379.46 144.045 379.46C145.533 379.46 146.637 379.79 147.357 380.45C148.077 381.098 148.437 381.98 148.437 383.096V388.55C148.437 388.67 148.395 388.778 148.311 388.874C148.227 388.958 148.119 389 147.987 389H145.773C145.653 389 145.545 388.958 145.449 388.874C145.365 388.778 145.323 388.67 145.323 388.55V387.92C145.059 388.292 144.693 388.598 144.225 388.838C143.757 389.066 143.199 389.18 142.551 389.18ZM143.451 387.056C143.979 387.056 144.405 386.882 144.729 386.534C145.065 386.186 145.233 385.682 145.233 385.022V384.806L143.739 385.058C142.731 385.25 142.227 385.61 142.227 386.138C142.227 386.414 142.341 386.636 142.569 386.804C142.809 386.972 143.103 387.056 143.451 387.056ZM154.319 389.18C153.335 389.18 152.513 389.042 151.853 388.766C151.193 388.49 150.701 388.16 150.377 387.776C150.065 387.392 149.909 387.044 149.909 386.732C149.909 386.612 149.951 386.516 150.035 386.444C150.131 386.36 150.233 386.318 150.341 386.318H152.519C152.591 386.318 152.651 386.342 152.699 386.39C152.903 386.522 153.017 386.6 153.041 386.624C153.269 386.792 153.479 386.924 153.671 387.02C153.875 387.104 154.115 387.146 154.391 387.146C154.715 387.146 154.979 387.086 155.183 386.966C155.399 386.834 155.507 386.654 155.507 386.426C155.507 386.234 155.447 386.078 155.327 385.958C155.219 385.838 155.003 385.724 154.679 385.616C154.367 385.496 153.887 385.376 153.239 385.256C151.163 384.836 150.125 383.876 150.125 382.376C150.125 381.884 150.281 381.416 150.593 380.972C150.917 380.516 151.385 380.15 151.997 379.874C152.621 379.598 153.365 379.46 154.229 379.46C155.105 379.46 155.861 379.598 156.497 379.874C157.145 380.138 157.637 380.462 157.973 380.846C158.309 381.218 158.477 381.56 158.477 381.872C158.477 381.98 158.435 382.076 158.351 382.16C158.279 382.244 158.189 382.286 158.081 382.286H156.101C155.993 382.286 155.909 382.262 155.849 382.214C155.705 382.142 155.561 382.052 155.417 381.944C155.201 381.8 155.009 381.692 154.841 381.62C154.685 381.536 154.481 381.494 154.229 381.494C153.929 381.494 153.695 381.56 153.527 381.692C153.359 381.824 153.275 381.992 153.275 382.196C153.275 382.376 153.323 382.526 153.419 382.646C153.527 382.754 153.737 382.862 154.049 382.97C154.373 383.078 154.859 383.192 155.507 383.312C156.683 383.516 157.535 383.882 158.063 384.41C158.603 384.926 158.873 385.532 158.873 386.228C158.873 387.128 158.471 387.848 157.667 388.388C156.875 388.916 155.759 389.18 154.319 389.18ZM163.853 389.18C162.797 389.18 161.945 388.826 161.297 388.118C160.649 387.41 160.325 386.408 160.325 385.112V380.09C160.325 379.958 160.367 379.85 160.451 379.766C160.547 379.682 160.655 379.64 160.775 379.64H163.169C163.301 379.64 163.409 379.682 163.493 379.766C163.589 379.85 163.637 379.958 163.637 380.09V385.004C163.637 386.12 164.135 386.678 165.131 386.678C165.611 386.678 165.983 386.534 166.247 386.246C166.523 385.946 166.661 385.532 166.661 385.004V380.09C166.661 379.958 166.703 379.85 166.787 379.766C166.883 379.682 166.997 379.64 167.129 379.64H169.505C169.637 379.64 169.745 379.682 169.829 379.766C169.913 379.85 169.955 379.958 169.955 380.09V388.55C169.955 388.67 169.913 388.778 169.829 388.874C169.745 388.958 169.637 389 169.505 389H167.309C167.177 389 167.063 388.958 166.967 388.874C166.883 388.79 166.841 388.682 166.841 388.55V387.866C166.217 388.742 165.221 389.18 163.853 389.18ZM172.449 389C172.329 389 172.221 388.958 172.125 388.874C172.041 388.778 171.999 388.67 171.999 388.55V380.108C171.999 379.976 172.041 379.868 172.125 379.784C172.209 379.688 172.317 379.64 172.449 379.64H174.645C174.777 379.64 174.885 379.688 174.969 379.784C175.065 379.868 175.113 379.976 175.113 380.108V380.792C175.449 380.42 175.839 380.138 176.283 379.946C176.739 379.742 177.243 379.64 177.795 379.64H178.605C178.737 379.64 178.845 379.682 178.929 379.766C179.013 379.85 179.055 379.958 179.055 380.09V382.052C179.055 382.172 179.013 382.28 178.929 382.376C178.845 382.46 178.737 382.502 178.605 382.502H176.787C176.307 382.502 175.935 382.634 175.671 382.898C175.419 383.162 175.293 383.534 175.293 384.014V388.55C175.293 388.682 175.245 388.79 175.149 388.874C175.065 388.958 174.957 389 174.825 389H172.449ZM184.617 389.18C183.153 389.18 182.001 388.79 181.161 388.01C180.321 387.218 179.889 386.072 179.865 384.572V384.014C179.913 382.586 180.357 381.47 181.197 380.666C182.037 379.862 183.171 379.46 184.599 379.46C185.631 379.46 186.501 379.67 187.209 380.09C187.929 380.498 188.463 381.068 188.811 381.8C189.171 382.52 189.351 383.342 189.351 384.266V384.716C189.351 384.848 189.303 384.962 189.207 385.058C189.123 385.142 189.015 385.184 188.883 385.184H183.177V385.292C183.189 385.832 183.315 386.27 183.555 386.606C183.795 386.93 184.137 387.092 184.581 387.092C184.869 387.092 185.097 387.038 185.265 386.93C185.445 386.81 185.613 386.66 185.769 386.48C185.877 386.36 185.961 386.288 186.021 386.264C186.093 386.228 186.201 386.21 186.345 386.21H188.703C188.811 386.21 188.901 386.246 188.973 386.318C189.057 386.378 189.099 386.456 189.099 386.552C189.099 386.864 188.919 387.23 188.559 387.65C188.211 388.07 187.695 388.43 187.011 388.73C186.339 389.03 185.541 389.18 184.617 389.18ZM186.039 383.348V383.312C186.039 382.736 185.913 382.292 185.661 381.98C185.409 381.656 185.055 381.494 184.599 381.494C184.143 381.494 183.789 381.656 183.537 381.98C183.297 382.292 183.177 382.736 183.177 383.312V383.348H186.039Z" fill="#303037"/>
<path d="M116.164 419V410.308H116.243L119.557 417.928H120.875L124.18 410.308H124.268V419H125.735V407.003H124.153L120.251 416.144H120.198L116.287 407.003H114.696V419H116.164ZM132.564 409.596C130.253 409.596 128.565 411.195 128.565 413.691V415.045C128.565 417.682 130.227 419.149 132.564 419.149C134.858 419.149 136.555 417.664 136.555 415.045V413.691C136.555 411.107 134.858 409.596 132.564 409.596ZM132.573 410.967C134.059 410.967 134.955 412.145 134.955 413.823V414.931C134.955 416.636 134.103 417.787 132.573 417.787C131.026 417.787 130.156 416.636 130.156 414.931V413.823C130.156 412.153 131.088 410.967 132.573 410.967ZM139.227 419H140.817V413.85C140.817 412.259 141.608 411.011 143.234 411.011C144.491 411.011 145.238 411.749 145.238 413.199V419H146.829V412.689C146.829 410.615 145.555 409.604 143.691 409.604C141.758 409.604 141.116 410.703 140.888 411.433H140.8V409.754H139.227V419ZM150.134 419H151.725V409.754H150.134V419ZM149.8 406.906C149.8 407.539 150.283 408.005 150.916 408.005C151.584 408.005 152.067 407.539 152.067 406.906C152.067 406.265 151.584 405.799 150.916 405.799C150.283 405.799 149.8 406.265 149.8 406.906ZM155.601 409.78H154.177V411.09H155.592V416.407C155.592 418.235 156.066 419.079 158.264 419.079C158.615 419.079 159.266 419.026 159.397 419V417.708C159.248 417.726 158.896 417.743 158.668 417.743C157.543 417.743 157.174 417.462 157.174 416.381V411.09H159.266V409.78H157.174V407.46H155.601V409.78ZM165.418 409.596C163.106 409.596 161.419 411.195 161.419 413.691V415.045C161.419 417.682 163.08 419.149 165.418 419.149C167.712 419.149 169.408 417.664 169.408 415.045V413.691C169.408 411.107 167.712 409.596 165.418 409.596ZM165.427 410.967C166.912 410.967 167.809 412.145 167.809 413.823V414.931C167.809 416.636 166.956 417.787 165.427 417.787C163.88 417.787 163.01 416.636 163.01 414.931V413.823C163.01 412.153 163.941 410.967 165.427 410.967ZM172.221 419H173.82V413.296C173.82 412.048 174.629 411.072 176.255 411.072C176.536 411.072 176.853 411.09 177.002 411.125V409.657C176.817 409.631 176.624 409.613 176.422 409.613C174.787 409.613 174.119 410.562 173.891 411.178H173.812V409.754H172.221V419ZM179.349 419H180.939V409.754H179.349V419ZM179.015 406.906C179.015 407.539 179.498 408.005 180.131 408.005C180.799 408.005 181.282 407.539 181.282 406.906C181.282 406.265 180.799 405.799 180.131 405.799C179.498 405.799 179.015 406.265 179.015 406.906ZM184.297 419H185.888V413.85C185.888 412.259 186.679 411.011 188.305 411.011C189.562 411.011 190.309 411.749 190.309 413.199V419H191.899V412.689C191.899 410.615 190.625 409.604 188.762 409.604C186.828 409.604 186.187 410.703 185.958 411.433H185.87V409.754H184.297V419ZM198.324 421.039C197.111 421.039 196.364 420.494 196.241 419.844H194.624C194.747 421.188 195.907 422.384 198.271 422.384C200.636 422.384 202.341 421.276 202.341 418.728V409.754H200.82V411.143H200.741C200.434 410.387 199.449 409.613 198.061 409.613C196.013 409.613 194.422 411.081 194.422 413.524V414.939C194.422 417.383 196.021 418.833 198.069 418.833C199.353 418.833 200.302 418.183 200.662 417.383H200.75V418.719C200.75 420.169 199.95 421.039 198.324 421.039ZM198.456 410.993C199.906 410.993 200.75 412.215 200.75 413.568V414.948C200.75 416.267 199.95 417.479 198.474 417.479C197.041 417.479 196.021 416.354 196.021 414.676V413.814C196.021 412.127 196.953 410.993 198.456 410.993ZM217.669 419H219.638L217.555 416.785C218.231 415.757 218.521 414.342 218.521 412.584V412.171H217.071V412.566C217.071 413.938 216.922 415.001 216.535 415.73L213.67 412.628C215.05 411.898 216.21 411.063 216.21 409.587C216.21 407.979 214.865 406.897 213.151 406.897C211.35 406.897 210.093 408.084 210.093 409.569C210.093 410.668 210.796 411.503 211.569 412.32C211.411 412.391 211.262 412.47 211.112 412.558C209.768 413.296 208.783 414.271 208.783 415.845C208.783 417.954 210.559 419.229 212.809 419.229C213.978 419.229 215.419 418.886 216.597 417.849L217.669 419ZM212.026 413.463C212.149 413.393 212.281 413.322 212.413 413.261L215.691 416.855C214.962 417.62 213.837 417.919 212.949 417.919C211.613 417.919 210.348 417.216 210.348 415.739C210.348 414.658 211.016 414.008 212.026 413.463ZM212.835 411.758C211.886 410.809 211.587 410.281 211.587 409.657C211.587 408.77 212.22 408.119 213.16 408.119C214.065 408.119 214.742 408.726 214.742 409.64C214.742 410.65 213.934 411.195 212.835 411.758ZM115.812 436.197C115.812 433.692 116.981 432.216 118.959 432.216C120.479 432.216 121.596 433.191 121.754 434.545H123.354V434.483C123.187 432.312 121.367 430.757 118.95 430.757C115.953 430.757 114.187 432.787 114.187 436.171V437.894C114.187 441.286 115.909 443.246 118.95 443.246C121.35 443.246 123.178 441.761 123.354 439.695V439.643H121.754C121.596 440.917 120.506 441.787 118.959 441.787C116.955 441.787 115.812 440.372 115.812 437.885V436.197ZM128.539 443.149C129.901 443.149 130.736 442.517 131.185 441.778H131.255V443H132.784V436.689C132.784 434.422 131.211 433.604 129.304 433.604C127.238 433.604 126.008 434.492 125.867 436.057H127.405C127.59 435.415 128.082 434.967 129.251 434.967C130.438 434.967 131.185 435.503 131.185 436.681V437.595H128.768C126.641 437.595 125.516 438.693 125.516 440.311C125.516 442.024 126.746 443.149 128.539 443.149ZM128.979 441.805C128.021 441.805 127.142 441.312 127.142 440.258C127.142 439.432 127.651 438.808 128.899 438.808H131.185V439.845C131.185 440.961 130.227 441.805 128.979 441.805ZM135.922 443H137.513V430.37H135.922V443ZM140.923 443H142.514V433.754H140.923V443ZM140.589 430.906C140.589 431.539 141.072 432.005 141.705 432.005C142.373 432.005 142.856 431.539 142.856 430.906C142.856 430.265 142.373 429.799 141.705 429.799C141.072 429.799 140.589 430.265 140.589 430.906ZM150.23 443.141C152.437 443.141 153.816 441.62 153.816 439.159V437.586C153.816 435.134 152.454 433.613 150.274 433.613C148.938 433.613 147.84 434.255 147.55 435.213H147.471V430.37H145.88V443H147.409V441.629H147.488C147.901 442.578 148.93 443.141 150.23 443.141ZM149.923 441.761C148.499 441.761 147.471 440.706 147.471 439.221V437.709C147.471 436.039 148.402 434.993 149.879 434.993C151.364 434.993 152.217 436.065 152.217 437.911V438.887C152.217 440.706 151.373 441.761 149.923 441.761ZM156.646 443H158.246V437.296C158.246 436.048 159.055 435.072 160.681 435.072C160.962 435.072 161.278 435.09 161.428 435.125V433.657C161.243 433.631 161.05 433.613 160.848 433.613C159.213 433.613 158.545 434.562 158.316 435.178H158.237V433.754H156.646V443ZM166.051 443.149C167.413 443.149 168.248 442.517 168.696 441.778H168.767V443H170.296V436.689C170.296 434.422 168.723 433.604 166.815 433.604C164.75 433.604 163.52 434.492 163.379 436.057H164.917C165.102 435.415 165.594 434.967 166.763 434.967C167.949 434.967 168.696 435.503 168.696 436.681V437.595H166.279C164.152 437.595 163.027 438.693 163.027 440.311C163.027 442.024 164.258 443.149 166.051 443.149ZM166.49 441.805C165.532 441.805 164.653 441.312 164.653 440.258C164.653 439.432 165.163 438.808 166.411 438.808H168.696V439.845C168.696 440.961 167.738 441.805 166.49 441.805ZM173.899 433.78H172.476V435.09H173.891V440.407C173.891 442.235 174.365 443.079 176.562 443.079C176.914 443.079 177.564 443.026 177.696 443V441.708C177.547 441.726 177.195 441.743 176.967 441.743C175.842 441.743 175.473 441.462 175.473 440.381V435.09H177.564V433.78H175.473V431.46H173.899V433.78ZM180.386 443H181.977V433.754H180.386V443ZM180.052 430.906C180.052 431.539 180.535 432.005 181.168 432.005C181.836 432.005 182.319 431.539 182.319 430.906C182.319 430.265 181.836 429.799 181.168 429.799C180.535 429.799 180.052 430.265 180.052 430.906ZM188.885 433.596C186.573 433.596 184.886 435.195 184.886 437.691V439.045C184.886 441.682 186.547 443.149 188.885 443.149C191.179 443.149 192.875 441.664 192.875 439.045V437.691C192.875 435.107 191.179 433.596 188.885 433.596ZM188.894 434.967C190.379 434.967 191.275 436.145 191.275 437.823V438.931C191.275 440.636 190.423 441.787 188.894 441.787C187.347 441.787 186.477 440.636 186.477 438.931V437.823C186.477 436.153 187.408 434.967 188.894 434.967ZM195.547 443H197.138V437.85C197.138 436.259 197.929 435.011 199.555 435.011C200.812 435.011 201.559 435.749 201.559 437.199V443H203.149V436.689C203.149 434.615 201.875 433.604 200.012 433.604C198.078 433.604 197.437 434.703 197.208 435.433H197.12V433.754H195.547V443Z" fill="#A7A9C0"/>
<circle cx="73" cy="396" r="24" fill="#2C4EA2"/>
<path d="M72.8896 403.2C71.5829 403.2 70.4829 403 69.5896 402.6C68.7096 402.187 68.0563 401.68 67.6296 401.08C67.2163 400.48 66.9963 399.88 66.9696 399.28C66.9696 399.16 67.0096 399.06 67.0896 398.98C67.1829 398.9 67.2896 398.86 67.4096 398.86H70.1696C70.3296 398.86 70.4563 398.893 70.5496 398.96C70.6429 399.013 70.7296 399.107 70.8096 399.24C71.0629 399.893 71.7629 400.22 72.9096 400.22C73.5629 400.22 74.0696 400.067 74.4296 399.76C74.7896 399.453 74.9696 399.04 74.9696 398.52C74.9696 397.52 74.3029 397.02 72.9696 397.02H70.7296C70.5829 397.02 70.4563 396.973 70.3496 396.88C70.2563 396.773 70.2096 396.647 70.2096 396.5V395.32C70.2096 395.013 70.3229 394.787 70.5496 394.64L73.7696 392H68.2496C68.1163 392 67.9963 391.953 67.8896 391.86C67.7963 391.753 67.7496 391.633 67.7496 391.5V389.52C67.7496 389.373 67.7963 389.253 67.8896 389.16C67.9829 389.053 68.1029 389 68.2496 389H77.5696C77.7163 389 77.8363 389.053 77.9296 389.16C78.0229 389.253 78.0696 389.373 78.0696 389.52V391.3C78.0696 391.58 77.9629 391.8 77.7496 391.96L74.7896 394.66L74.9296 394.7C76.1296 394.873 77.0829 395.287 77.7896 395.94C78.4963 396.593 78.8496 397.533 78.8496 398.76C78.8496 399.653 78.5896 400.44 78.0696 401.12C77.5629 401.787 76.8563 402.3 75.9496 402.66C75.0563 403.02 74.0363 403.2 72.8896 403.2Z" fill="white"/>
<path d="M157 118C157 116.895 156.105 116 155 116C153.895 116 153 116.895 153 118L157 118ZM153.586 169.414C154.367 170.195 155.633 170.195 156.414 169.414L169.142 156.686C169.923 155.905 169.923 154.639 169.142 153.858C168.361 153.077 167.095 153.077 166.314 153.858L155 165.172L143.686 153.858C142.905 153.077 141.639 153.077 140.858 153.858C140.077 154.639 140.077 155.905 140.858 156.686L153.586 169.414ZM153 118L153 168L157 168L157 118L153 118Z" fill="#EFEFF0"/>
<path d="M157 298C157 296.895 156.105 296 155 296C153.895 296 153 296.895 153 298L157 298ZM153.586 349.414C154.367 350.195 155.633 350.195 156.414 349.414L169.142 336.686C169.923 335.905 169.923 334.639 169.142 333.858C168.361 333.077 167.095 333.077 166.314 333.858L155 345.172L143.686 333.858C142.905 333.077 141.639 333.077 140.858 333.858C140.077 334.639 140.077 335.905 140.858 336.686L153.586 349.414ZM153 298L153 348L157 348L157 298L153 298Z" fill="#EFEFF0"/>
<path d="M287.586 57.5858C286.805 58.3668 286.805 59.6332 287.586 60.4142L300.314 73.1422C301.095 73.9232 302.361 73.9232 303.142 73.1422C303.923 72.3611 303.923 71.0948 303.142 70.3137L291.828 59L303.142 47.6863C303.923 46.9052 303.923 45.6389 303.142 44.8578C302.361 44.0768 301.095 44.0768 300.314 44.8578L287.586 57.5858ZM289 410C287.895 410 287 410.895 287 412C287 413.105 287.895 414 289 414L289 410ZM346 408L346 63L342 63L342 408L346 408ZM340 57L289 57L289 61L340 61L340 57ZM340 410L289 410L289 414L340 414L340 410ZM346 63C346 59.6863 343.314 57 340 57L340 61C341.105 61 342 61.8954 342 63L346 63ZM342 408C342 409.105 341.105 410 340 410L340 414C343.314 414 346 411.314 346 408L342 408Z" fill="#EFEFF0"/>
<defs>
<filter id="filter0_d" x="-5" y="0" width="316" height="160" filterUnits="userSpaceOnUse" color-interpolation-filters="sRGB">
<feFlood flood-opacity="0" result="BackgroundImageFix"/>
<feColorMatrix in="SourceAlpha" type="matrix" values="0 0 0 0 0 0 0 0 0 0 0 0 0 0 0 0 0 0 127 0"/>
<feOffset dy="15"/>
<feGaussianBlur stdDeviation="20"/>
<feColorMatrix type="matrix" values="0 0 0 0 0.105882 0 0 0 0 0.117647 0 0 0 0 0.305882 0 0 0 0.08 0"/>
<feBlend mode="normal" in2="BackgroundImageFix" result="effect1_dropShadow"/>
<feBlend mode="normal" in="SourceGraphic" in2="effect1_dropShadow" result="shape"/>
</filter>
<filter id="filter1_d" x="-5" y="151" width="316" height="189" filterUnits="userSpaceOnUse" color-interpolation-filters="sRGB">
<feFlood flood-opacity="0" result="BackgroundImageFix"/>
<feColorMatrix in="SourceAlpha" type="matrix" values="0 0 0 0 0 0 0 0 0 0 0 0 0 0 0 0 0 0 127 0"/>
<feOffset dy="15"/>
<feGaussianBlur stdDeviation="20"/>
<feColorMatrix type="matrix" values="0 0 0 0 0.105882 0 0 0 0 0.117647 0 0 0 0 0.305882 0 0 0 0.08 0"/>
<feBlend mode="normal" in2="BackgroundImageFix" result="effect1_dropShadow"/>
<feBlend mode="normal" in="SourceGraphic" in2="effect1_dropShadow" result="shape"/>
</filter>
<filter id="filter2_d" x="-7" y="331" width="318" height="189" filterUnits="userSpaceOnUse" color-interpolation-filters="sRGB">
<feFlood flood-opacity="0" result="BackgroundImageFix"/>
<feColorMatrix in="SourceAlpha" type="matrix" values="0 0 0 0 0 0 0 0 0 0 0 0 0 0 0 0 0 0 127 0"/>
<feOffset dy="15"/>
<feGaussianBlur stdDeviation="20"/>
<feColorMatrix type="matrix" values="0 0 0 0 0.105882 0 0 0 0 0.117647 0 0 0 0 0.305882 0 0 0 0.08 0"/>
<feBlend mode="normal" in2="BackgroundImageFix" result="effect1_dropShadow"/>
<feBlend mode="normal" in="SourceGraphic" in2="effect1_dropShadow" result="shape"/>
</filter>
</defs>
</svg>
