<svg width="66" height="12" viewBox="0 0 66 12" fill="none" xmlns="http://www.w3.org/2000/svg">
<g clip-path="url(#clip0)">
<path d="M0.904762 2C1.40445 2 1.80952 1.55228 1.80952 1C1.80952 0.447715 1.40445 0 0.904762 0C0.405076 0 0 0.447715 0 1C0 1.55228 0.405076 2 0.904762 2Z" fill="white" fill-opacity="0.4"/>
<path d="M9.95238 2C10.4521 2 10.8571 1.55228 10.8571 1C10.8571 0.447715 10.4521 0 9.95238 0C9.4527 0 9.04762 0.447715 9.04762 1C9.04762 1.55228 9.4527 2 9.95238 2Z" fill="white" fill-opacity="0.4"/>
<path d="M19 2C19.4997 2 19.9048 1.55228 19.9048 1C19.9048 0.447715 19.4997 0 19 0C18.5003 0 18.0952 0.447715 18.0952 1C18.0952 1.55228 18.5003 2 19 2Z" fill="white" fill-opacity="0.4"/>
<path d="M28.0476 2C28.5473 2 28.9524 1.55228 28.9524 1C28.9524 0.447715 28.5473 0 28.0476 0C27.5479 0 27.1429 0.447715 27.1429 1C27.1429 1.55228 27.5479 2 28.0476 2Z" fill="white" fill-opacity="0.4"/>
<path d="M37.0952 2C37.5949 2 38 1.55228 38 1C38 0.447715 37.5949 0 37.0952 0C36.5956 0 36.1905 0.447715 36.1905 1C36.1905 1.55228 36.5956 2 37.0952 2Z" fill="white" fill-opacity="0.4"/>
<path d="M46.1429 2C46.6425 2 47.0476 1.55228 47.0476 1C47.0476 0.447715 46.6425 0 46.1429 0C45.6432 0 45.2381 0.447715 45.2381 1C45.2381 1.55228 45.6432 2 46.1429 2Z" fill="white" fill-opacity="0.4"/>
<path d="M55.1905 2C55.6902 2 56.0952 1.55228 56.0952 1C56.0952 0.447715 55.6902 0 55.1905 0C54.6908 0 54.2857 0.447715 54.2857 1C54.2857 1.55228 54.6908 2 55.1905 2Z" fill="white" fill-opacity="0.4"/>
<path d="M64.2381 2C64.7378 2 65.1429 1.55228 65.1429 1C65.1429 0.447715 64.7378 0 64.2381 0C63.7384 0 63.3333 0.447715 63.3333 1C63.3333 1.55228 63.7384 2 64.2381 2Z" fill="white" fill-opacity="0.4"/>
<path d="M0.904762 12C1.40445 12 1.80952 11.5523 1.80952 11C1.80952 10.4477 1.40445 10 0.904762 10C0.405076 10 0 10.4477 0 11C0 11.5523 0.405076 12 0.904762 12Z" fill="white" fill-opacity="0.4"/>
<path d="M9.95238 12C10.4521 12 10.8571 11.5523 10.8571 11C10.8571 10.4477 10.4521 10 9.95238 10C9.4527 10 9.04762 10.4477 9.04762 11C9.04762 11.5523 9.4527 12 9.95238 12Z" fill="white" fill-opacity="0.4"/>
<path d="M19 12C19.4997 12 19.9048 11.5523 19.9048 11C19.9048 10.4477 19.4997 10 19 10C18.5003 10 18.0952 10.4477 18.0952 11C18.0952 11.5523 18.5003 12 19 12Z" fill="white" fill-opacity="0.4"/>
<path d="M28.0476 12C28.5473 12 28.9524 11.5523 28.9524 11C28.9524 10.4477 28.5473 10 28.0476 10C27.5479 10 27.1429 10.4477 27.1429 11C27.1429 11.5523 27.5479 12 28.0476 12Z" fill="white" fill-opacity="0.4"/>
<path d="M37.0952 12C37.5949 12 38 11.5523 38 11C38 10.4477 37.5949 10 37.0952 10C36.5956 10 36.1905 10.4477 36.1905 11C36.1905 11.5523 36.5956 12 37.0952 12Z" fill="white" fill-opacity="0.4"/>
<path d="M46.1429 12C46.6425 12 47.0476 11.5523 47.0476 11C47.0476 10.4477 46.6425 10 46.1429 10C45.6432 10 45.2381 10.4477 45.2381 11C45.2381 11.5523 45.6432 12 46.1429 12Z" fill="white" fill-opacity="0.4"/>
<path d="M55.1905 12C55.6902 12 56.0952 11.5523 56.0952 11C56.0952 10.4477 55.6902 10 55.1905 10C54.6908 10 54.2857 10.4477 54.2857 11C54.2857 11.5523 54.6908 12 55.1905 12Z" fill="white" fill-opacity="0.4"/>
<path d="M64.2381 12C64.7378 12 65.1429 11.5523 65.1429 11C65.1429 10.4477 64.7378 10 64.2381 10C63.7384 10 63.3333 10.4477 63.3333 11C63.3333 11.5523 63.7384 12 64.2381 12Z" fill="white" fill-opacity="0.4"/>
</g>
<defs>
<clipPath id="clip0">
<rect width="65.1429" height="12" fill="white"/>
</clipPath>
</defs>
</svg>
