<svg width="43" height="41" viewBox="0 0 43 41" fill="none" xmlns="http://www.w3.org/2000/svg">
<path d="M21.048 41.0004C19.9821 41.0014 18.9265 40.8025 17.9417 40.4151C16.9569 40.0277 16.0622 39.4595 15.3089 38.743L2.37594 26.4411C1.62251 25.7262 1.0248 24.8771 0.616987 23.9424C0.209176 23.0078 -0.000732422 22.0059 -0.000732422 20.9941C-0.000732422 19.9823 0.209176 18.9804 0.616987 18.0457C1.0248 17.1111 1.62251 16.262 2.37594 15.547L15.3089 3.25787C16.0624 2.54155 16.9571 1.97332 17.9419 1.58564C18.9266 1.19796 19.982 0.998417 21.048 0.998417C22.1138 0.998417 23.1693 1.19796 24.154 1.58564C25.1388 1.97332 26.0335 2.54155 26.787 3.25787L39.72 15.547C40.4738 16.2631 41.0718 17.1132 41.4798 18.049C41.8878 18.9847 42.0978 19.9876 42.0978 21.0004C42.0978 22.0133 41.8878 23.0162 41.4798 23.9519C41.0718 24.8876 40.4738 25.7378 39.72 26.4538L26.7737 38.743C26.0251 39.4619 25.1331 40.0319 24.15 40.4195C23.1669 40.8071 22.1123 41.0046 21.048 41.0004ZM17.5778 36.587C18.0329 37.021 18.5737 37.3655 19.1692 37.6005C19.7647 37.8355 20.4031 37.9565 21.048 37.9565C21.6928 37.9565 22.3312 37.8355 22.9267 37.6005C23.5222 37.3655 24.063 37.021 24.5181 36.587L31.6986 29.7512L26.8404 26.1621C26.426 26.3612 25.97 26.4695 25.5057 26.4792C25.3284 26.4986 25.1492 26.4986 24.9719 26.4792L23.8107 28.0137C24.0731 28.4456 24.2112 28.9355 24.2111 29.4342C24.1593 30.1861 23.8084 30.8911 23.2297 31.4062C22.6509 31.9213 21.8876 32.2079 21.0947 32.2079C20.3017 32.2079 19.5384 31.9213 18.9596 31.4062C18.3809 30.8911 18.03 30.1861 17.9782 29.4342C17.9762 29.1016 18.035 28.7712 18.1517 28.4576L18.0183 28.3308C17.6013 28.5199 17.1456 28.6194 16.6836 28.6225C16.2212 28.6224 15.7649 28.5227 15.3489 28.3308L12.0122 31.3492L17.5778 36.587ZM21.048 28.9776C20.9447 28.9781 20.8451 29.0141 20.7677 29.079C20.6857 29.1566 20.6379 29.2609 20.6342 29.3707C20.6342 29.475 20.6778 29.575 20.7554 29.6487C20.833 29.7225 20.9382 29.7639 21.048 29.7639C21.1028 29.7657 21.1574 29.7567 21.2085 29.7376C21.2595 29.7184 21.3059 29.6895 21.3447 29.6527C21.3834 29.6158 21.4139 29.5718 21.434 29.5233C21.4541 29.4748 21.4636 29.4228 21.4617 29.3707C21.4591 29.3103 21.4436 29.251 21.4161 29.1965C21.3885 29.142 21.3496 29.0934 21.3015 29.0537C21.2243 29.0118 21.1369 28.9899 21.048 28.9903V28.9776ZM4.64488 17.703C4.18807 18.1355 3.8256 18.6493 3.57828 19.2152C3.33096 19.781 3.20364 20.3877 3.20364 21.0004C3.20364 21.6131 3.33096 22.2198 3.57828 22.7857C3.8256 23.3515 4.18807 23.8654 4.64488 24.2978L10.1571 29.5356L13.6005 26.2636C13.5476 26.0516 13.5207 25.8346 13.5204 25.6168C13.4925 25.2116 13.5524 24.8053 13.6964 24.423C13.8403 24.0407 14.0654 23.6905 14.3575 23.3941C14.6496 23.0978 15.0026 22.8616 15.3947 22.7001C15.7868 22.5385 16.2095 22.4552 16.6369 22.4552C17.0642 22.4552 17.487 22.5385 17.879 22.7001C18.2711 22.8616 18.6241 23.0978 18.9163 23.3941C19.2084 23.6905 19.4334 24.0407 19.5774 24.423C19.7214 24.8053 19.7812 25.2116 19.7533 25.6168C19.753 25.8346 19.7262 26.0516 19.6732 26.2636L20.0203 26.5933C20.3502 26.4824 20.6979 26.4266 21.048 26.4284C21.2257 26.4159 21.4041 26.4159 21.5818 26.4284L22.6896 24.9319C22.4342 24.498 22.3009 24.0087 22.3025 23.5115C22.3543 22.7596 22.7052 22.0546 23.284 21.5395C23.8627 21.0244 24.626 20.7378 25.419 20.7378C26.212 20.7378 26.9753 21.0244 27.554 21.5395C28.1328 22.0546 28.4836 22.7596 28.5354 23.5115C28.5337 23.7202 28.5114 23.9282 28.4687 24.1329L33.5938 27.9376L37.411 24.3105C37.8678 23.8781 38.2303 23.3642 38.4776 22.7983C38.7249 22.2325 38.8522 21.6258 38.8522 21.0131C38.8522 20.4004 38.7249 19.7937 38.4776 19.2279C38.2303 18.662 37.8678 18.1481 37.411 17.7157L32.2058 12.7696L30.097 15.3061C30.2289 15.6429 30.2967 15.9993 30.2972 16.3587C30.302 17.077 30.0313 17.7723 29.5358 18.3147C29.0402 18.8571 28.3537 19.2095 27.6047 19.3058C26.8556 19.4022 26.0952 19.236 25.4657 18.8383C24.8362 18.4406 24.3807 17.8386 24.1844 17.145L20.5541 15.8768C20.2692 16.154 19.9287 16.3743 19.5528 16.5246C19.1769 16.6749 18.7731 16.7521 18.3653 16.7518C17.7197 16.7522 17.0899 16.5616 16.5635 16.2065L13.9876 17.5762C13.9357 18.3281 13.5849 19.0331 13.0061 19.5482C12.4274 20.0633 11.6641 20.35 10.8711 20.35C10.0781 20.35 9.31484 20.0633 8.73609 19.5482C8.15734 19.0331 7.80647 18.3281 7.75466 17.5762C7.75259 16.9664 7.95346 16.3716 8.32856 15.8768L7.88812 14.5071L4.64488 17.703ZM16.3099 25.8577C16.3518 25.9023 16.4033 25.9378 16.4608 25.9618C16.5184 25.9859 16.5807 25.998 16.6435 25.9972C16.7046 25.9987 16.7652 25.987 16.8207 25.9628C16.8762 25.9386 16.9252 25.9027 16.9639 25.8577C16.9831 25.787 16.9831 25.7129 16.9639 25.6421C16.9604 25.5401 16.9153 25.4433 16.8381 25.3723C16.7608 25.3013 16.6576 25.2616 16.5501 25.2617C16.4953 25.2599 16.4406 25.2689 16.3896 25.288C16.3386 25.3071 16.2922 25.336 16.2534 25.3729C16.2146 25.4098 16.1842 25.4538 16.1641 25.5023C16.1439 25.5508 16.1345 25.6027 16.1364 25.6548C16.1183 25.7214 16.1183 25.7912 16.1364 25.8577H16.3099ZM25.2388 23.8286C25.3123 23.8527 25.3922 23.8527 25.4657 23.8286C25.5233 23.8289 25.5804 23.8178 25.6333 23.796C25.6861 23.7741 25.7336 23.742 25.7727 23.7018C25.7938 23.6313 25.7938 23.5566 25.7727 23.4862C25.7553 23.3956 25.7051 23.3136 25.6307 23.2546C25.5563 23.1956 25.4625 23.1633 25.3656 23.1633C25.2687 23.1633 25.1749 23.1956 25.1005 23.2546C25.0261 23.3136 24.9759 23.3956 24.9585 23.4862C24.9569 23.5442 24.9694 23.6018 24.9948 23.6545C25.0202 23.7073 25.0581 23.7538 25.1053 23.7905L25.2388 23.8286ZM10.6776 17.3479C10.6303 17.3847 10.5925 17.4312 10.567 17.4839C10.5416 17.5367 10.5292 17.5943 10.5308 17.6523C10.5308 17.7566 10.5744 17.8566 10.6519 17.9303C10.7295 18.004 10.8348 18.0454 10.9445 18.0454C11.0542 18.0454 11.1595 18.004 11.2371 17.9303C11.3147 17.8566 11.3583 17.7566 11.3583 17.6523C11.3647 17.6017 11.3647 17.5506 11.3583 17.5001C11.3236 17.4298 11.2691 17.37 11.2007 17.3274C11.1324 17.2849 11.0529 17.2612 10.9712 17.2591C10.9014 17.2401 10.8274 17.2401 10.7577 17.2591L10.6776 17.3479ZM26.8671 16.3207V16.4728C26.8909 16.5634 26.9459 16.6437 27.0232 16.7012C27.1006 16.7586 27.196 16.7899 27.2942 16.7899C27.4029 16.7867 27.5062 16.7443 27.583 16.6712C27.6599 16.5982 27.7046 16.5 27.7079 16.3967C27.708 16.3046 27.6751 16.2151 27.6145 16.1431C27.5772 16.1093 27.5333 16.0829 27.4851 16.0655C27.437 16.0481 27.3857 16.04 27.3342 16.0416C27.2364 16.0373 27.1403 16.0671 27.064 16.1255C26.9878 16.184 26.9367 16.2669 26.9205 16.3587L26.8671 16.3207ZM10.9045 14.6846C11.6134 14.6907 12.2997 14.923 12.8531 15.3441L15.2955 14.0759C15.2955 14.0759 15.2955 13.9617 15.2955 13.8983C15.3098 13.1493 15.6217 12.4331 16.1686 11.8935C16.7155 11.3538 17.457 11.0307 18.2442 10.989C19.0314 10.9473 19.806 11.19 20.4127 11.6684C21.0194 12.1469 21.4132 12.8257 21.5151 13.5686L24.745 14.6466C25.1295 14.1529 25.6671 13.7859 26.2822 13.5971C26.8974 13.4083 27.5592 13.4072 28.1751 13.594L30.3372 10.956L24.5181 5.41387C24.063 4.97979 23.5222 4.63537 22.9267 4.40036C22.3312 4.16535 21.6928 4.04437 21.048 4.04437C20.4031 4.04437 19.7647 4.16535 19.1692 4.40036C18.5737 4.63537 18.0329 4.97979 17.5778 5.41387L10.0903 12.5286L10.7844 14.6846H10.9045ZM18.0583 14.0886C18.0941 14.145 18.1452 14.1912 18.2062 14.2225C18.2673 14.2537 18.336 14.2688 18.4053 14.2661C18.484 14.2658 18.5609 14.2441 18.6271 14.2037C18.6933 14.1632 18.746 14.1057 18.779 14.0378C18.779 13.7081 18.6189 13.5432 18.392 13.5432C18.3371 13.5415 18.2825 13.5504 18.2315 13.5695C18.1804 13.5887 18.1341 13.6176 18.0953 13.6544C18.0565 13.6913 18.0261 13.7354 18.0059 13.7839C17.9858 13.8324 17.9764 13.8843 17.9782 13.9364C17.966 13.9907 17.966 14.0469 17.9782 14.1012L18.0583 14.0886Z" fill="url(#paint0_linear)"/>
<path d="M10.9042 18.9074C11.634 18.9074 12.2255 18.3453 12.2255 17.6519C12.2255 16.9584 11.634 16.3963 10.9042 16.3963C10.1745 16.3963 9.58289 16.9584 9.58289 17.6519C9.58289 18.3453 10.1745 18.9074 10.9042 18.9074Z" fill="white"/>
<path d="M18.4051 15.1281C19.1348 15.1281 19.7264 14.566 19.7264 13.8725C19.7264 13.1791 19.1348 12.617 18.4051 12.617C17.6753 12.617 17.0837 13.1791 17.0837 13.8725C17.0837 14.566 17.6753 15.1281 18.4051 15.1281Z" fill="white"/>
<path d="M27.2272 17.6519C27.9569 17.6519 28.5485 17.0897 28.5485 16.3963C28.5485 15.7029 27.9569 15.1408 27.2272 15.1408C26.4975 15.1408 25.9059 15.7029 25.9059 16.3963C25.9059 17.0897 26.4975 17.6519 27.2272 17.6519Z" fill="white"/>
<path d="M25.4655 24.7666C26.1952 24.7666 26.7868 24.2045 26.7868 23.5111C26.7868 22.8177 26.1952 22.2555 25.4655 22.2555C24.7357 22.2555 24.1442 22.8177 24.1442 23.5111C24.1442 24.2045 24.7357 24.7666 25.4655 24.7666Z" fill="white"/>
<path d="M21.0478 30.6386C21.7775 30.6386 22.3691 30.0764 22.3691 29.383C22.3691 28.6896 21.7775 28.1275 21.0478 28.1275C20.318 28.1275 19.7264 28.6896 19.7264 29.383C19.7264 30.0764 20.318 30.6386 21.0478 30.6386Z" fill="white"/>
<path d="M16.6433 26.8719C17.3731 26.8719 17.9647 26.3098 17.9647 25.6164C17.9647 24.9229 17.3731 24.3608 16.6433 24.3608C15.9136 24.3608 15.322 24.9229 15.322 25.6164C15.322 26.3098 15.9136 26.8719 16.6433 26.8719Z" fill="white"/>
<defs>
<linearGradient id="paint0_linear" x1="21.0479" y1="41.0004" x2="21.0479" y2="1.00042" gradientUnits="userSpaceOnUse">
<stop stop-color="#2C4EA2"/>
<stop offset="0.56" stop-color="#3FBEAD"/>
<stop offset="1" stop-color="#1496B4"/>
</linearGradient>
</defs>
</svg>
