<svg width="64" height="63" viewBox="0 0 64 63" fill="none" xmlns="http://www.w3.org/2000/svg">
<g clip-path="url(#clip0)">
<path d="M64 31.2974C64 48.5825 49.9878 62.5947 32.7026 62.5947C15.4175 62.5947 1.40527 48.5825 1.40527 31.2974C1.40527 14.0122 15.4175 0 32.7026 0C49.9878 0 64 14.0122 64 31.2974Z" fill="url(#paint0_linear)"/>
<path d="M57.5552 32.9888C56.8008 44.2349 48.584 53.436 37.8135 55.6821C37.4175 55.7647 37.0459 55.46 37.0459 55.0557V50.9702C37.0459 48.8535 35.3301 47.1377 33.2134 47.1377H21.7163C18.8945 47.1377 16.6064 44.8501 16.6064 42.0278H7.02588C3.14551 42.0278 0 38.8823 0 35.002C0 31.7861 2.16113 29.0772 5.10986 28.2427V24.1436C5.10986 21.7612 6.74023 19.7598 8.94629 19.1938C8.94482 19.1406 8.94189 19.0874 8.94189 19.0337C8.94189 15.7119 11.4785 12.9834 14.7202 12.6763C15.0269 9.43457 17.7559 6.89844 21.0776 6.89844C21.561 6.89844 22.0308 6.95361 22.4834 7.05518C23.5635 5.06006 25.6753 3.70459 28.104 3.70459C29.8452 3.70459 31.4229 4.40234 32.5747 5.53223C33.7271 4.40234 35.3047 3.70459 37.0459 3.70459C39.916 3.70459 42.3433 5.59717 43.1489 8.20264C44.0044 7.77734 44.9678 7.53711 45.9878 7.53711C49.5156 7.53711 52.3755 10.3965 52.3755 13.9243C52.3755 14.3975 52.3223 14.8584 52.2246 15.3027C55.2144 15.835 57.4849 18.4458 57.4849 21.5889C57.4849 22.6733 57.2139 23.6943 56.7368 24.5894C57.9829 25.7549 58.7627 27.4126 58.7627 29.2534C58.7627 30.6484 58.314 31.938 57.5552 32.9888Z" fill="#2C4EA2"/>
<path d="M23.5132 42.0278H36.7627C44.7846 42.0278 46.3149 53.5371 38.5415 55.5166C38.4472 55.5405 38.3525 55.5635 38.2563 55.5854C38.1089 55.6191 37.9609 55.6514 37.812 55.6821C37.417 55.7646 37.0459 55.4595 37.0459 55.0557V50.9702C37.0459 48.8535 35.3301 47.1377 33.2138 47.1377H21.7168C18.8945 47.1377 16.6069 44.8501 16.6069 42.0278H7.14305C3.28074 42.0278 0.0527172 38.9604 0.000959354 35.0986C-0.042986 31.8408 2.13182 29.0854 5.10985 28.2427V24.1436C5.10985 21.7627 6.73826 19.7622 8.94236 19.1953V27.4565C8.94236 32.6821 13.1782 36.9185 18.4038 36.9185C20.9389 36.9185 22.9941 38.9736 22.9941 41.5088C22.9941 41.7954 23.2265 42.0278 23.5132 42.0278Z" fill="#0095D6"/>
<path d="M20.439 38.1958C20.439 38.9014 19.8672 39.4731 19.1616 39.4731C18.4561 39.4731 17.8843 38.9014 17.8843 38.1958C17.8843 37.4902 18.4561 36.918 19.1616 36.918C19.8672 36.918 20.439 37.4902 20.439 38.1958ZM22.9941 36.918C22.2886 36.918 21.7168 37.4902 21.7168 38.1958C21.7168 38.9014 22.2886 39.4731 22.9941 39.4731C23.6997 39.4731 24.2715 38.9014 24.2715 38.1958C24.2715 37.4902 23.6997 36.918 22.9941 36.918ZM26.8262 36.918C26.1206 36.918 25.5488 37.4902 25.5488 38.1958C25.5488 38.9014 26.1206 39.4731 26.8262 39.4731C27.5317 39.4731 28.104 38.9014 28.104 38.1958C28.104 37.4902 27.5317 36.918 26.8262 36.918Z" fill="white"/>
<path d="M48.7559 31.915V35.6406C48.7559 42.4702 46.498 48.8877 42.3989 53.7104C42.1538 53.9985 41.9038 54.2783 41.6494 54.5508C40.415 55.0264 39.1333 55.4067 37.813 55.6821C37.4175 55.7646 37.0454 55.46 37.0454 55.0557V54.8584C41.3457 51.748 43.3774 46.6973 44.5532 40.7505C44.6494 40.2642 44.5347 39.4731 43.5605 39.4731H35.7681C33.6514 39.4731 31.936 37.7573 31.936 35.6406C31.936 35.6382 31.936 35.6357 31.936 35.6333C31.9365 35.2388 31.6284 34.9136 31.2334 34.9136H15.7739C14.1294 34.9136 12.7769 33.5898 12.7744 31.9458C12.7744 31.9355 12.7744 31.9253 12.7744 31.915C12.7744 21.979 20.8291 13.9243 30.7651 13.9243C40.7012 13.9243 48.7559 21.979 48.7559 31.915Z" fill="white"/>
<path d="M20.8838 34.9136H15.7739C14.1299 34.9136 12.7773 33.5898 12.7744 31.9458C12.7744 31.9355 12.7744 31.9253 12.7744 31.915C12.7744 21.979 20.8291 13.9243 30.7651 13.9243C31.6328 13.9243 32.4854 13.9868 33.3203 14.1055C24.5942 15.3462 17.8843 22.8462 17.8843 31.915V31.9458C17.8872 33.5898 19.2397 34.9136 20.8838 34.9136Z" fill="#F4F4F4"/>
<path d="M20.439 30.5308C19.7334 30.5308 19.1616 29.959 19.1616 29.2534V24.1436C19.1616 23.438 19.7334 22.8662 20.439 22.8662C21.1445 22.8662 21.7168 23.438 21.7168 24.1436V29.2534C21.7168 29.959 21.1445 30.5308 20.439 30.5308Z" fill="#A8ABC1"/>
<path d="M25.5488 30.5308C24.8433 30.5308 24.2715 29.959 24.2715 29.2534V24.1436C24.2715 23.438 24.8433 22.8662 25.5488 22.8662C26.2544 22.8662 26.8262 23.438 26.8262 24.1436V29.2534C26.8262 29.959 26.2544 30.5308 25.5488 30.5308Z" fill="#A8ABC1"/>
<path d="M30.6587 30.5308C29.9531 30.5308 29.3813 29.959 29.3813 29.2534V24.1436C29.3813 23.438 29.9531 22.8662 30.6587 22.8662C31.3643 22.8662 31.936 23.438 31.936 24.1436V29.2534C31.936 29.959 31.3643 30.5308 30.6587 30.5308Z" fill="#A8ABC1"/>
<path d="M35.7686 30.5308C35.063 30.5308 34.4912 29.959 34.4912 29.2534V24.1436C34.4912 23.438 35.063 22.8662 35.7686 22.8662C36.4741 22.8662 37.0459 23.438 37.0459 24.1436V29.2534C37.0459 29.959 36.4741 30.5308 35.7686 30.5308Z" fill="#A8ABC1"/>
<path d="M40.8784 30.5308C40.1729 30.5308 39.6006 29.959 39.6006 29.2534V24.1436C39.6006 23.438 40.1729 22.8662 40.8784 22.8662C41.584 22.8662 42.1558 23.438 42.1558 24.1436V29.2534C42.1558 29.959 41.584 30.5308 40.8784 30.5308Z" fill="#A8ABC1"/>
</g>
<defs>
<linearGradient id="paint0_linear" x1="32.7026" y1="0" x2="32.7026" y2="62.5947" gradientUnits="userSpaceOnUse">
<stop stop-color="#DDDEEE"/>
<stop offset="1" stop-color="#EEEFF8"/>
</linearGradient>
<clipPath id="clip0">
<rect width="64" height="62.6667" fill="white"/>
</clipPath>
</defs>
</svg>
