<svg width="64" height="67" viewBox="0 0 64 67" fill="none" xmlns="http://www.w3.org/2000/svg">
<path d="M63.9692 33.3244C64.007 46.2785 56.3433 57.4452 45.2984 62.5085C44.75 62.7595 44.1257 62.3593 44.1257 61.7565C44.1257 55.9217 39.3957 51.1917 33.5609 51.1917H6.37525C5.75499 51.1917 5.17365 50.8773 4.84481 50.3508C1.77495 45.4407 0 39.6383 0 33.4207C0 15.779 14.2829 1.4731 31.9162 1.43611C49.6287 1.39925 63.9172 15.6123 63.9692 33.3244Z" fill="url(#paint0_linear)"/>
<path d="M57.1806 45.2315H20.6268C19.5454 45.2315 18.6687 44.3548 18.6687 43.2735V1.95808C18.6687 0.876746 19.5454 0 20.6268 0H57.1806C58.262 0 59.1387 0.876746 59.1387 1.95808V43.2735C59.1387 44.3548 58.262 45.2315 57.1806 45.2315Z" fill="#D3D5E0"/>
<path d="M57.1806 45.2315H23.8907C22.8089 45.2315 21.9321 44.3548 21.9321 43.2735V1.95808C21.9321 0.876746 22.8089 0 23.8907 0H57.1806C58.262 0 59.1387 0.876746 59.1387 1.95808V43.2735C59.1387 44.3548 58.262 45.2315 57.1806 45.2315Z" fill="#A8ABC1"/>
<path opacity="0.5" d="M49.478 8.4857V9.79159C49.478 10.1519 49.1856 10.4443 48.8253 10.4443H25.3263C24.9661 10.4443 24.6736 10.1519 24.6736 9.79159V8.4857C24.6736 8.12542 24.9661 7.83301 25.3263 7.83301H48.8253C49.1856 7.83301 49.478 8.12542 49.478 8.4857ZM25.3263 15.6658H40.9925C41.3528 15.6658 41.6452 15.3739 41.6452 15.0131V13.7078C41.6452 13.3475 41.3528 13.0551 40.9925 13.0551H25.3263C24.9661 13.0551 24.6736 13.3475 24.6736 13.7078V15.0131C24.6736 15.3739 24.9661 15.6658 25.3263 15.6658ZM48.8253 20.8879H25.3263C24.9661 20.8879 24.6736 21.1803 24.6736 21.5406V22.8465C24.6736 23.2068 24.9661 23.4992 25.3263 23.4992H48.8253C49.1856 23.4992 49.478 23.2068 49.478 22.8465V21.5406C49.478 21.1803 49.1856 20.8879 48.8253 20.8879ZM48.8253 26.11H25.3263C24.9661 26.11 24.6736 26.4024 24.6736 26.7626V28.068C24.6736 28.4288 24.9661 28.7212 25.3263 28.7212H48.8253C49.1856 28.7212 49.478 28.4288 49.478 28.068V26.7626C49.478 26.4024 49.1856 26.11 48.8253 26.11ZM40.9925 31.332H25.3263C24.9661 31.332 24.6736 31.6244 24.6736 31.9847V33.2901C24.6736 33.6509 24.9661 33.9428 25.3263 33.9428H40.9925C41.3528 33.9428 41.6452 33.6509 41.6452 33.2901V31.9847C41.6452 31.6244 41.3528 31.332 40.9925 31.332Z" fill="white"/>
<path d="M45.3004 22.0015V62.5085C41.246 64.3673 36.737 65.4052 31.9845 65.4052C20.5269 65.4052 10.479 59.3798 4.83032 50.3259V22.0015C4.83032 20.9202 5.70707 20.0435 6.78841 20.0435H43.3423C44.4236 20.043 45.3004 20.9197 45.3004 22.0015Z" fill="#2C4EA2"/>
<path d="M8.0938 54.6837C6.88771 53.3294 5.79489 51.8718 4.83032 50.3259V22.0015C4.83032 20.9202 5.70707 20.0435 6.78841 20.0435H10.0524C8.97104 20.0435 8.0938 20.9202 8.0938 22.0015V54.6837Z" fill="#0095D6"/>
<path d="M35.1177 26.7626V28.0679C35.1177 28.4287 34.8253 28.7211 34.4651 28.7211H10.966C10.6058 28.7211 10.3134 28.4287 10.3134 28.0679V26.7626C10.3134 26.4023 10.6058 26.1099 10.966 26.1099H34.4651C34.8253 26.1099 35.1177 26.4023 35.1177 26.7626ZM26.6322 31.3319H10.966C10.6058 31.3319 10.3134 31.6243 10.3134 31.9846V33.29C10.3134 33.6508 10.6058 33.9427 10.966 33.9427H26.6322C26.9925 33.9427 27.2849 33.6508 27.2849 33.29V31.9846C27.2849 31.6243 26.9925 31.3319 26.6322 31.3319Z" fill="white"/>
<path d="M35.1177 39.8172V41.1231C35.1177 41.4834 34.8253 41.7758 34.4651 41.7758H10.966C10.6058 41.7758 10.3134 41.4834 10.3134 41.1231V39.8172C10.3134 39.457 10.6058 39.1646 10.966 39.1646H34.4651C34.8253 39.1646 35.1177 39.457 35.1177 39.8172ZM34.4651 44.3866H10.966C10.6058 44.3866 10.3134 44.679 10.3134 45.0393V46.3447C10.3134 46.7055 10.6058 46.9974 10.966 46.9974H34.4651C34.8253 46.9974 35.1177 46.7055 35.1177 46.3447V45.0393C35.1177 44.679 34.8253 44.3866 34.4651 44.3866ZM26.6322 49.6087H10.966C10.6058 49.6087 10.3134 49.9011 10.3134 50.2614V51.5667C10.3134 51.9275 10.6058 52.2194 10.966 52.2194H26.6322C26.9925 52.2194 27.2849 51.9275 27.2849 51.5667V50.2614C27.2849 49.9011 26.9925 49.6087 26.6322 49.6087Z" fill="white"/>
<defs>
<linearGradient id="paint0_linear" x1="31.9847" y1="1.43604" x2="31.9847" y2="62.5847" gradientUnits="userSpaceOnUse">
<stop stop-color="#DDDEEE"/>
<stop offset="1" stop-color="#EEEFF8"/>
</linearGradient>
</defs>
</svg>
