<svg width="150" height="36" viewBox="0 0 150 36" fill="none" xmlns="http://www.w3.org/2000/svg">
<g clip-path="url(#clip0)">
<path d="M40.5859 8.92222H48.6692C51.943 8.92222 54.3835 10.3663 54.3835 13.4088C54.3835 15.6393 53.2511 16.8812 51.2868 17.5403V17.5912C53.6291 18.0736 54.8374 19.3409 54.8374 21.495C54.8374 25.7284 51.135 26.6152 47.9877 26.6152H40.5859V8.92222ZM45.269 15.9194H46.5785C48.1142 15.9194 49.702 15.5389 49.702 14.0424C49.702 12.4216 48.1901 12.2688 46.6276 12.2688H45.269V15.9194ZM45.269 23.2702H46.6544C48.3672 23.2702 50.1544 23.0155 50.1544 21.2164C50.1544 19.29 48.3166 19.1132 46.7035 19.1132H45.269V23.2702Z" fill="#A7A9C0"/>
<path d="M60.9851 8.92222H66.7262L73.4999 26.6152H68.3631L67.0535 22.8387H60.4568L59.0714 26.6152H54.3125L60.9851 8.92222ZM63.8556 12.5729H63.805L61.5387 19.4937H65.9464L63.8556 12.5729Z" fill="#A7A9C0"/>
<path d="M74.1514 8.92222H80.1186L86.062 20.9378H86.1111L86.0367 8.92222H90.318V26.6152H84.4995L78.3567 14.5233H78.3076L78.4564 26.6152H74.1514V8.92222Z" fill="#A7A9C0"/>
<path d="M91.9067 8.92222H96.5898V16.1471H96.6404L101.928 8.92222H107.567L101.072 17.1598L108.072 26.6152H102.103L96.6404 18.5799H96.5898V26.6152H91.9067V8.92222Z" fill="#A7A9C0"/>
<path d="M113.88 8.92222H121.964C125.236 8.92222 127.679 10.3663 127.679 13.4088C127.679 15.6393 126.547 16.8812 124.583 17.5403V17.5912C126.925 18.0736 128.132 19.3409 128.132 21.495C128.132 25.7284 124.431 26.6152 121.284 26.6152H113.88V8.92222ZM118.563 15.9194H119.873C121.41 15.9194 122.995 15.5389 122.995 14.0424C122.995 12.4216 121.486 12.2688 119.924 12.2688H118.563V15.9194ZM118.563 23.2702H119.949C121.66 23.2702 123.449 23.0155 123.449 21.2164C123.449 19.29 121.611 19.1132 119.999 19.1132H118.563V23.2702Z" fill="#A7A9C0"/>
<path d="M129.17 8.92222H137.531C140.653 8.92222 143.196 10.3423 143.196 13.3848C143.196 15.7412 142.089 17.3126 139.822 17.8444V17.8953C141.331 18.3013 141.432 19.645 142.315 21.7991L144.026 26.6152H139.142L138.135 23.423C137.178 20.3805 136.572 19.618 134.836 19.618H133.853V26.6152H129.17V8.92222ZM133.853 16.273H135.087C136.599 16.273 138.513 16.222 138.513 14.2192C138.513 12.5729 136.876 12.2688 135.087 12.2688H133.853V16.273Z" fill="#A7A9C0"/>
<path d="M145.317 8.92188H150V26.6149H145.317V8.92188Z" fill="#A7A9C0"/>
<path d="M29.8987 0.000251293H5.38837C2.41219 0.000251293 0 2.48845 0 5.55788V5.6163V29.9934C0 33.0329 2.36755 35.5046 5.30504 35.5496H29.8853C32.8615 35.5496 35.2752 33.0629 35.2752 29.9934L35.2856 5.55788C35.2856 2.48845 32.8749 0.000251293 29.8987 0.000251293ZM8.30057 32.7018L6.96426 32.7168C5.34522 32.7168 4.03272 31.3776 4.03272 29.7253L4.02529 29.4901V6.92406L4.03421 5.70767C4.09522 4.1093 5.30207 2.824 6.88093 2.824H9.59967C12.064 2.824 14.061 4.98114 14.061 7.52326C14.061 8.78159 13.5714 9.92308 12.7782 10.753L5.84224 17.8386L12.3437 24.5032C13.1815 25.3736 13.6875 26.5151 13.6875 27.7659C13.6875 30.4923 11.2768 32.7018 8.30057 32.7018ZM28.2871 32.6794L16.1666 32.6749C16.1666 32.6749 17.5669 29.6264 17.5669 27.7389C17.5669 25.4365 16.8035 23.3812 15.6071 22.021L11.4613 17.7667L15.6919 13.3655C16.9523 12.1746 17.7886 10.0594 17.7886 7.6491C17.7886 5.74063 17.2648 4.05088 16.4211 2.824H19.3571C21.8214 2.824 23.8199 4.98114 23.8199 7.52326C23.8199 8.78159 23.3303 9.92308 22.5371 10.753L15.7336 17.7652L29.8645 32.2704C29.4166 32.5535 28.8526 32.6794 28.2871 32.6794ZM31.2469 28.1509L21.1205 17.7607L25.9434 12.8262C26.924 11.5904 27.5475 9.72984 27.5475 7.6491C27.5475 5.72865 27.0163 3.99545 26.1651 2.76858L28.3228 2.83449C29.9419 2.83449 31.2544 4.17371 31.2544 5.82602L31.2469 28.1509Z" fill="#A7A9C0"/>
</g>
<defs>
<clipPath id="clip0">
<rect width="150" height="35.5493" fill="white"/>
</clipPath>
</defs>
</svg>
