<svg width="124" height="48" viewBox="0 0 124 48" fill="none" xmlns="http://www.w3.org/2000/svg">
<path d="M119.214 18.1709C116.322 15.2885 112.527 13.7009 108.526 13.7009C105.6 13.7009 102.661 14.7877 101.045 15.8606C97.6993 18.0825 94.9499 20.4943 90.0002 26.8712V31.4549C94.1998 25.9996 98.1737 21.7006 101.191 19.3363C103.174 17.7486 105.987 16.7649 108.526 16.7649C115.081 16.7649 120.62 22.2866 120.62 28.8255V31.5842C120.62 34.8152 119.348 37.8506 117.03 40.1356C114.735 42.3992 111.712 43.6456 108.526 43.6456C103.14 43.6456 98.3986 39.9588 97.1101 34.9241L94.945 37.5413C96.5241 42.8166 102.227 46.7088 108.526 46.7088C112.527 46.7088 116.322 45.1187 119.214 42.2421C122.103 39.3597 123.692 35.5755 123.692 31.5842V28.8255C123.692 24.8358 122.103 21.05 119.214 18.1709ZM53.4084 16.7649C55.4955 16.7649 57.3002 17.2117 58.9294 18.1316C59.6951 17.1774 60.4682 16.4024 61.0444 15.8287C59.3209 14.516 56.4024 13.7009 53.4084 13.7009C49.1415 13.7009 45.2669 15.2353 42.5002 18.0236C39.7541 20.7864 38.2374 24.6222 38.2374 28.8255V46.7088H41.3094V28.8255C41.3094 21.7243 46.2846 16.7649 53.4084 16.7649V16.7649ZM82.6014 46.7088V28.8255C82.6014 23.3275 78.2819 19.0196 72.7675 19.0196C70.1995 19.0196 67.748 20.0564 65.8587 21.9379C63.9735 23.8178 62.9345 26.2664 62.9345 28.8255V31.5842C62.9345 36.898 67.4394 41.391 72.7675 41.391C74.2284 41.391 76.217 41.0325 77.4341 40.0365V36.799C76.2383 37.7573 74.5025 38.3277 72.7675 38.3277C68.9774 38.3277 66.0064 35.3635 66.0064 31.5842V28.8255C66.0064 25.0453 68.9774 22.086 72.7675 22.086C76.5609 22.086 79.5294 25.0453 79.5294 28.8255V46.7088H82.6014ZM0.307861 27.0504V28.0398C0.307861 33.3511 2.32847 38.3073 5.99955 41.9933C9.6616 45.6711 14.5703 47.6934 19.8213 47.6934C24.0431 47.6934 27.7814 46.7408 30.9371 44.8691C33.5388 43.3224 34.6919 41.7592 34.7912 41.616V25.1255H19.0752V28.1904H31.7192V40.6642L31.7069 40.6749C30.2264 42.1537 26.712 44.6277 19.8213 44.6277C15.3311 44.6277 11.1742 42.9213 8.10879 39.8156C5.059 36.7245 3.37981 32.5418 3.37981 28.0398V27.0504C3.37981 22.7997 5.30276 18.5588 8.65293 15.4211C12.0737 12.2237 16.5302 10.4609 21.2042 10.4609C25.563 10.4609 28.5997 11.1205 31.0389 12.5936V9.15554C28.4996 8.07854 25.4645 7.59488 21.2042 7.59488C9.87827 7.59488 0.307861 16.5063 0.307861 27.0504V27.0504ZM53.4084 22.086C54.5738 22.086 55.5611 22.2784 56.3474 22.6597C56.7299 21.7088 57.1222 20.9248 57.6942 19.973C56.8587 19.3772 54.8701 19.0196 53.4084 19.0196C47.8029 19.0196 43.5745 23.2351 43.5745 28.8255V46.7088H46.6465V28.8255C46.6465 24.8555 49.4279 22.086 53.4084 22.086V22.086ZM31.0389 18.4892V14.8671C28.2591 13.3801 25.2257 12.7172 21.2042 12.7172C17.1006 12.7172 13.2104 14.2189 10.2459 16.9392C7.27905 19.6693 5.64335 23.2604 5.64335 27.0504V28.0398C5.64335 35.9446 12.0023 42.3747 19.8213 42.3747C26.181 42.3747 28.7917 40.2992 29.4565 39.6429V30.4459H19.0752V33.5083H26.5824V38.1166L26.5553 38.1256C25.5893 38.5094 23.5835 39.3098 19.8213 39.3098C16.8388 39.3098 14.0483 38.1534 11.9621 36.0477C9.86596 33.9346 8.71531 31.0891 8.71531 28.0398V27.0504C8.71531 20.9419 14.4349 15.782 21.2042 15.782C25.8872 15.782 28.6563 16.5382 31.0389 18.4892V18.4892ZM103.557 24.2605C104.943 22.8815 106.758 22.086 108.526 22.086C112.316 22.086 115.289 25.0453 115.289 28.8255V31.5842C115.289 35.3635 112.316 38.3277 108.526 38.3277C106.691 38.3277 104.918 37.3219 103.53 35.5043C102.299 33.897 101.501 31.7225 101.378 29.7682L98.8902 32.7971C99.3785 35.1139 100.593 37.3342 102.309 38.8949C104.08 40.5022 106.288 41.391 108.526 41.391C113.95 41.391 118.359 36.9913 118.359 31.5842V28.8255C118.359 26.2664 117.32 23.8178 115.435 21.9379C113.547 20.0564 111.094 19.0196 108.526 19.0196C106.903 19.0196 104.321 19.5998 101.244 22.3586L101.233 22.3692C100.41 23.1909 98.4766 25.119 97.3005 26.4939C95.3225 28.6454 92.4484 31.8936 90.0002 35.1434V39.9269C92.7176 36.4455 94.2819 34.4952 96.8359 31.554C99.1233 28.8926 101.955 25.6583 103.557 24.2605ZM57.6015 31.5842C57.6015 35.5755 59.1928 39.3597 62.0809 42.2421C64.9715 45.1187 68.7673 46.7088 72.7675 46.7088C74.4623 46.7088 76.2031 46.3479 77.4341 45.7431V42.6824C75.9962 43.2831 74.2588 43.6456 72.7675 43.6456C66.2133 43.6456 60.6718 38.1231 60.6718 31.5842V28.8255C60.6718 22.2866 66.2133 16.7649 72.7675 16.7649C76.0266 16.7649 79.0731 18.0088 81.3457 20.275C83.6158 22.5386 84.8633 25.5756 84.8633 28.8255V46.7088H87.9352V28.2362C87.744 24.3333 86.073 20.6817 83.2309 17.9516C80.3846 15.2108 76.6643 13.7009 72.7675 13.7009C68.7673 13.7009 64.9715 15.2885 62.0809 18.1709C59.1928 21.05 57.6015 24.8358 57.6015 28.8255V31.5842ZM93.1632 19.725C94.1038 18.5989 95.0771 17.4548 96.2311 16.4891V0.307145H93.1632V19.725ZM98.4946 15.2353V0.307145H101.565V13.1345C100.731 13.5544 99.5657 14.3531 98.4946 15.2353" fill="#A7A9C0"/>
</svg>
