<svg width="215" height="48" viewBox="0 0 215 48" fill="none" xmlns="http://www.w3.org/2000/svg">
<path d="M6.36504 46.1027C4.50078 44.7972 3.00401 42.4632 3.00401 38.3213V27.3498H0.805207H0V26.5412V23.9488V23.1402H0.804951H3.04947V17.4447V16.6361H3.85442H6.90363H7.70858V17.4447V23.1402H12.6836H13.4886V23.9488V26.5412V27.3498H12.6836H7.70858V38.0027C7.70858 39.9254 8.17925 41.1501 8.84016 41.9206C9.79094 43.0288 11.1879 43.2433 12.0919 43.2433C12.2477 43.2433 12.4037 43.2433 12.5276 43.2352H12.5306C12.6693 43.2259 12.8128 43.2084 12.9658 43.1746L13.9436 42.9574V43.9609V46.7354V47.4191L13.2677 47.5315C13.092 47.5607 12.8588 47.5897 12.583 47.6085C12.3488 47.6246 12.0904 47.6351 11.8186 47.6351C10.389 47.6357 8.2127 47.3966 6.36504 46.1029V46.1027V46.1027ZM20.8759 47.4537H17.7812H16.9763V46.6451V23.767V22.9581H17.7812H20.8304H21.6354V23.7667V26.2745C22.0873 25.6508 22.5994 25.0862 23.1664 24.6005C24.5199 23.4412 26.177 22.7306 28.0668 22.7306C28.2968 22.7306 28.5492 22.7447 28.803 22.773C29.04 22.7992 29.2742 22.8388 29.4875 22.8922L30.1006 23.0456V23.6757V26.7229V27.8409L29.0441 27.4905C29.0344 27.4871 28.9292 27.4774 28.7745 27.465C28.5893 27.4501 28.3659 27.4403 28.1577 27.4403C26.1709 27.4403 24.6922 28.4416 23.6602 29.9047L23.6586 29.9036C22.2939 31.84 21.6802 34.5699 21.6802 36.9562V46.6443V47.4529H20.8758V47.4537H20.8759ZM33.406 45.8791C31.946 44.6177 30.9939 42.8199 30.9939 40.5048C30.9939 36.315 33.623 34.1068 36.8533 32.9493C39.9079 31.8547 43.4847 31.7364 45.7257 31.7364H46.2847C46.2579 29.994 45.8191 28.8045 45.0934 28.0441C44.2479 27.1582 42.9589 26.8039 41.4473 26.8039C40.385 26.8039 39.326 26.9876 38.3208 27.3247C37.2766 27.6752 36.288 28.1876 35.4108 28.8292L34.7014 29.3482L34.2504 28.5924L32.8397 26.227L32.4891 25.6392L33.0096 25.1973C34.0017 24.3545 35.3667 23.6523 36.8893 23.1652C38.3837 22.687 40.0334 22.4119 41.6296 22.4119C44.6155 22.4119 46.9535 23.2619 48.5605 24.9112C50.1538 26.5457 50.991 28.9251 50.991 31.999V46.6447V47.4533H50.186H47.2276H46.4227V46.6447V44.8689C45.889 45.472 45.2704 46.0169 44.5796 46.4758C43.1661 47.4151 41.4507 47.9992 39.5362 47.9992C37.2898 47.9996 35.0327 47.2849 33.406 45.8791ZM39.2503 36.4802C37.3068 37.0559 35.7441 38.1475 35.7441 40.2319C35.7441 41.1543 36.1474 42.0999 36.9481 42.7795C37.6649 43.3883 38.7086 43.7895 40.082 43.7895C41.8641 43.7895 43.3112 42.9309 44.3529 41.6602C45.6053 40.1323 46.2859 38.0206 46.2859 36.0474V35.81H45.771C44.0407 35.81 41.4029 35.8423 39.2503 36.4802ZM66.5704 47.4537H63.2025H62.6539L62.454 46.9356L53.6244 24.0574L53.2003 22.958H54.3728H57.6952H58.2491L58.4465 23.4824L64.7727 40.2656L64.7758 40.2752C64.8051 40.3565 64.834 40.4402 64.8625 40.5256C64.8916 40.4404 64.921 40.3567 64.9504 40.2752L64.9534 40.2656L71.2794 23.4824L71.4771 22.958H72.0307H75.3077H76.4781L76.0593 24.054L67.321 46.9321L67.1221 47.4533H66.5702V47.4537H66.5704ZM80.7715 44.367C78.5069 42.1128 77.1436 38.9458 77.1436 35.2284C77.1436 31.3825 78.4298 28.2665 80.5071 26.065C82.7356 23.7041 85.8616 22.4121 89.2809 22.4121C92.5293 22.4121 95.0346 23.6099 96.7762 25.5329C98.6806 27.6352 99.6436 30.5906 99.6436 33.7728C99.6436 34.0249 99.6309 34.3067 99.612 34.5968C99.5977 34.8175 99.572 35.1053 99.5461 35.3925L99.4792 36.1284H98.7475H82.0305C82.2389 38.307 83.0607 40.0361 84.2729 41.2728C85.7426 42.7719 87.8047 43.562 90.0547 43.562C91.1978 43.562 92.3623 43.3246 93.4556 42.8962C94.5718 42.4589 95.6125 41.8242 96.4803 41.0417L97.2053 40.3878L97.7066 41.2277L99.1176 43.5931L99.4557 44.1598L98.9697 44.6038C97.831 45.6452 96.3819 46.4922 94.8212 47.0792C93.2503 47.67 91.5636 47.9995 89.9635 47.9995C86.3023 47.9996 83.0757 46.6614 80.7715 44.367ZM84.4889 28.3146C83.4848 29.2192 82.7143 30.4736 82.3031 32.0545H94.8315C94.6363 30.4123 94.0619 29.1502 93.2422 28.2563C92.2097 27.131 90.764 26.5763 89.1898 26.5763C87.4097 26.5766 85.7559 27.1728 84.4889 28.3146ZM106.142 46.5627C104.863 45.6529 103.859 44.0476 103.859 41.2325V14.6699V13.8613H104.664H107.759H108.564V14.6699V40.5499C108.564 41.7995 108.815 42.4778 109.172 42.8259C109.481 43.1275 109.932 43.1978 110.353 43.1978C110.459 43.1978 110.592 43.1978 110.648 43.1953C110.744 43.1909 110.849 43.1822 110.952 43.1649L111.886 43.0095V43.961V46.7354V47.4197L111.21 47.5318C111.066 47.5556 110.891 47.5802 110.67 47.6006C110.441 47.6213 110.196 47.6355 109.944 47.6355C108.897 47.6356 107.407 47.4632 106.142 46.5627ZM117.22 44.2574C114.922 41.9521 113.508 38.7461 113.508 35.092C113.508 31.502 114.924 28.3512 117.225 26.0862C119.555 23.7921 122.789 22.4125 126.374 22.4125C129.961 22.4125 133.208 23.7934 135.549 26.089C137.859 28.3547 139.285 31.5043 139.285 35.0923C139.285 38.7437 137.863 41.9471 135.556 44.2516C133.214 46.5926 129.964 47.9998 126.374 47.9998C122.785 47.9996 119.55 46.5948 117.22 44.2574ZM120.631 29.1997C119.19 30.6756 118.303 32.7377 118.303 35.0919C118.303 37.5291 119.186 39.6322 120.619 41.1307C122.078 42.6555 124.113 43.5619 126.373 43.5619C128.638 43.5619 130.687 42.6532 132.156 41.1244C133.598 39.6252 134.488 37.5247 134.488 35.0918C134.488 32.7419 133.593 30.6823 132.145 29.206C130.675 27.707 128.631 26.8039 126.373 26.8039C124.12 26.8038 122.089 27.7046 120.631 29.1997ZM147.355 47.4537H144.26H143.455V46.6451V14.67V13.8614H144.26H147.355H148.159V14.67V31.6909H150.651L157.236 23.2678L157.477 22.9581H157.867H161.6H163.276L162.226 24.2725L154.601 33.8071L163.079 46.187L163.946 47.4538H162.419H158.687H158.26L158.02 47.0938L150.66 36.0376H148.159V46.6452V47.4538H147.355V47.4537ZM166.165 45.8791C167.792 47.285 170.049 47.9997 172.295 47.9997C174.21 47.9997 175.925 47.4155 177.339 46.4763C178.03 46.0171 178.648 45.4722 179.182 44.8688V46.6449V47.4534H179.987H182.945H183.75V46.6449V31.9992C183.75 28.9255 182.913 26.5459 181.32 24.9114C179.712 23.2624 177.374 22.4121 174.389 22.4121C172.793 22.4121 171.143 22.6871 169.648 23.1653C168.126 23.6522 166.761 24.3547 165.769 25.1975L165.248 25.6397L165.599 26.2272L167.009 28.5926L167.46 29.3482L168.17 28.8293C169.047 28.1879 170.036 27.6753 171.08 27.3249C172.085 26.9877 173.144 26.804 174.206 26.804C175.718 26.804 177.007 27.1584 177.852 28.0442C178.578 28.8045 179.017 29.994 179.044 31.7366H178.485C176.244 31.7366 172.667 31.8548 169.612 32.9495C166.382 34.107 163.753 36.3151 163.753 40.505C163.753 42.8198 164.705 44.6176 166.165 45.8791ZM172.01 36.4802C174.162 35.8423 176.8 35.81 178.53 35.81H179.045V36.0474C179.045 38.0207 178.365 40.1323 177.113 41.6599C176.071 42.9312 174.624 43.7895 172.842 43.7895C171.468 43.7895 170.424 43.3886 169.708 42.7797C168.907 42.1002 168.504 41.1543 168.504 40.2319C168.503 38.1474 170.066 37.0558 172.01 36.4802Z" fill="#A7A9C0"/>
<path d="M201.572 25.3485C201.599 25.3321 201.626 25.3167 201.653 25.2997C200.425 21.6148 205.53 15.3877 215 4.97363C207.344 5.91745 201.422 7.86973 197.234 10.8302C197.641 16.8655 199.087 21.7051 201.572 25.3485Z" fill="#A7A9C0"/>
<path d="M201.572 25.3495C201.599 25.3331 201.626 25.3177 201.653 25.3006C201.611 25.1762 201.578 25.0485 201.551 24.9179C200.355 20.3545 199.871 15.0823 200.098 9.10156C199.067 9.63363 198.112 10.2102 197.234 10.8312C197.641 16.8661 199.087 21.7061 201.572 25.3495Z" fill="#A7A9C0"/>
<path d="M204.723 30.6316C206.746 31.6717 208.421 32.2084 209.906 31.9511C199.928 28.0227 195.787 17.3721 197.481 0C193.898 0.707884 190.988 2.35454 188.962 5.09928C187.197 7.49008 187.764 10.5295 189.211 14.585C189.405 15.1294 189.638 18.0604 188.43 19.1493C187.985 19.5496 187.272 19.2329 186.655 18.8285C184.533 17.6181 182.77 17.6299 181.366 18.8641C177.494 18.2112 174.689 17.8546 172.953 17.7943C175.431 18.5785 178.293 19.3841 181.508 20.3261C182.88 20.7284 184.058 21.6745 184.986 23.1076C186.886 26.0404 192.268 27.6307 197.481 28.3853C199.438 28.6684 202.143 29.3054 204.723 30.6316Z" fill="#A7A9C0"/>
</svg>
