<svg width="150" height="44" viewBox="0 0 150 44" fill="none" xmlns="http://www.w3.org/2000/svg">
<g clip-path="url(#clip0)">
<path d="M0.153374 30.2476C0.153374 28.0457 0.115031 26.23 0 24.6076H4.10276L4.29448 27.4276H4.40951C5.32975 25.9596 7.05521 24.1826 10.1994 24.1826C12.6917 24.1826 14.6089 25.5733 15.4141 27.698H15.4908C16.1426 26.655 16.9095 25.8824 17.8298 25.3029C18.865 24.5689 20.092 24.1826 21.6258 24.1826C24.7699 24.1826 27.9525 26.3459 27.9525 32.4109V43.6137H23.3129V33.1062C23.3129 29.9385 22.2393 28.0843 19.9387 28.0843C18.3282 28.0843 17.1012 29.2432 16.6028 30.6339C16.4877 31.0975 16.3727 31.6769 16.3727 32.2177V43.6137H11.7331V32.604C11.7331 29.9385 10.6979 28.0843 8.47393 28.0843C6.71012 28.0843 5.48313 29.475 5.06135 30.827C4.86963 31.2906 4.79294 31.8314 4.79294 32.3723V43.6137H0.153374V30.2476Z" fill="#A7A9C0"/>
<path d="M46.0505 39.0167C46.0505 40.7164 46.1272 42.4162 46.3189 43.5751H42.0245L41.7177 41.489H41.6027C40.4524 42.957 38.4585 44.0386 36.0429 44.0386C32.2468 44.0386 30.0996 41.2572 30.0996 38.3986C30.0996 33.6084 34.3174 31.1747 41.2959 31.2133V30.9043C41.2959 29.6681 40.7975 27.5821 37.4616 27.5821C35.6211 27.5821 33.6656 28.1615 32.4002 28.9728L31.4416 25.8437C32.822 24.9939 35.276 24.1826 38.2668 24.1826C44.3251 24.1826 46.0505 28.0457 46.0505 32.1791V39.0167ZM41.411 34.3038C38.0367 34.2265 34.8159 34.9605 34.8159 37.8578C34.8159 39.712 36.0045 40.6005 37.5383 40.6005C39.4171 40.6005 40.8358 39.3644 41.2576 37.9737C41.3726 37.626 41.411 37.2397 41.411 36.9306V34.3038Z" fill="#A7A9C0"/>
<path d="M49.3482 30.2476C49.3482 28.0457 49.3099 26.23 49.1948 24.6076H53.3743L53.6043 27.4662H53.7194C54.5246 25.9982 56.5951 24.1826 59.701 24.1826C62.9985 24.1826 66.4111 26.3459 66.4111 32.3336V43.6137H61.6565V32.8745C61.6565 30.1317 60.6595 28.0843 58.0522 28.0843C56.1733 28.0843 54.8313 29.4363 54.3329 30.9043C54.1795 31.3292 54.1411 31.9087 54.1411 32.4495V43.6137H49.3482V30.2476Z" fill="#A7A9C0"/>
<path d="M87.0781 16.9587V38.2441C87.0781 40.1756 87.1548 42.3003 87.2315 43.5751H82.9753L82.7836 40.5619H82.7069C81.595 42.6866 79.2944 44 76.5336 44C72.0474 44 68.4815 40.137 68.4815 34.3038C68.4431 27.9298 72.3925 24.144 76.9171 24.144C79.5244 24.144 81.3649 25.2256 82.2085 26.655H82.2852V16.9587H87.0781ZM82.2852 32.5268C82.2852 32.1405 82.2468 31.6769 82.1701 31.2906C81.7483 29.4363 80.253 27.8911 78.0674 27.8911C74.9999 27.8911 73.3128 30.6339 73.3128 34.1879C73.3128 37.6646 74.9999 40.1756 78.029 40.1756C79.9462 40.1756 81.6717 38.8622 82.1318 36.7761C82.2468 36.3512 82.2852 35.8876 82.2852 35.3854V32.5268Z" fill="#A7A9C0"/>
<path d="M90.4141 43.5752V24.6077H95.207V43.6138H90.4141V43.5752Z" fill="#A7A9C0"/>
<path d="M98.5814 30.7112C98.5814 28.123 98.543 26.3074 98.428 24.569H102.569L102.722 28.2003H102.876C103.796 25.4961 106.02 24.569 108.014 24.569C108.474 24.569 108.742 24.4917 109.126 24.569V28.7797C108.742 28.7025 108.321 28.6252 107.745 28.6252C105.445 28.6252 103.911 30.0931 103.489 32.2564C103.413 32.6814 103.336 33.1836 103.336 33.7244V43.5365H98.5814V30.7112Z" fill="#A7A9C0"/>
<path d="M111.388 43.5752V24.6077H116.181V43.6138H111.388V43.5752Z" fill="#A7A9C0"/>
<path d="M146.05 4.51985C143.673 1.77709 141.143 3.01326 139.149 4.01765C138.305 4.44258 132.208 7.91932 132.208 7.91932C128.873 9.31001 126.265 7.80343 125.23 6.52863C125.115 6.41273 125.038 6.25821 124.962 6.14232L124.731 5.71739C124.348 5.0993 123.926 4.40395 123.389 3.70861C123.083 3.3223 122.776 2.97463 122.431 2.58833C120.13 0.270505 116.488 -1.35197 110.391 1.58394C107.515 3.28367 98.0827 8.69193 98.0827 8.69193C94.5551 10.1599 91.8327 8.38288 90.9508 7.06945C90.9125 7.03082 90.8741 6.95356 90.8358 6.91493L90.7208 6.72178L90.1073 5.75602C89.8389 5.33108 89.5704 4.94478 89.2254 4.51985C88.9186 4.13354 88.6119 3.78587 88.2668 3.39957C86.0045 1.08174 82.3619 -0.540733 76.3036 2.35654C72.6609 4.44258 64.1487 9.34864 64.1487 9.34864C60.6594 11.3574 57.937 12.9413 57.937 12.9413L61.1579 16.9202C62.4999 18.2336 65.0689 20.3583 69.0183 18.5427C69.0183 18.5427 79.9079 12.2073 79.9462 12.1687C89.2637 7.03082 93.8649 11.9369 95.8588 15.2205C95.9355 15.3364 95.9738 15.4522 96.0505 15.5295C96.0888 15.5681 96.0888 15.6068 96.1272 15.6454L96.3573 16.0317C97.3542 17.5383 98.8879 18.504 100.767 18.4654C101.802 18.4268 102.492 18.1177 103.489 17.5383L114.034 11.3961C114.034 11.3961 114.034 11.3961 114.072 11.3961C123.504 6.18095 128.182 11.4347 130.176 14.7183C130.33 14.9887 130.521 15.2591 130.675 15.5295C131.672 16.8816 133.014 17.7701 134.739 17.7314C135.889 17.6928 137.155 17.0361 137.347 16.8816L149.962 9.54179C150 9.54179 148.696 7.57165 146.05 4.51985Z" fill="#A7A9C0"/>
</g>
<defs>
<clipPath id="clip0">
<rect width="150" height="44" fill="white"/>
</clipPath>
</defs>
</svg>
