<svg width="150" height="48" viewBox="0 0 150 48" fill="none" xmlns="http://www.w3.org/2000/svg">
<path fill-rule="evenodd" clip-rule="evenodd" d="M57.5959 16.1336L63.2483 4.97363C63.2483 4.97363 65.2247 4.97363 78.543 4.97363C91.7503 4.97363 90.377 18.812 81.0921 23.0528C89.9835 27.5778 84.165 42.9175 71.2281 42.8059C58.9561 42.8059 53.4951 42.8059 53.4951 42.8059L60.2558 16.1336H57.5959ZM70.1198 20.2628L71.2281 15.0176C71.2281 15.0176 73.8881 15.0176 75.4397 15.0176C79.5086 16.022 75.9938 20.486 73.8881 20.2628C72.6689 20.2628 70.1198 20.2628 70.1198 20.2628ZM66.7949 33.0967L68.4573 27.0704C68.4573 27.0704 71.2281 27.0704 72.6689 27.0704C77.6563 28.0748 74.553 33.3199 71.2281 33.0967C70.1198 33.0967 66.7949 33.0967 66.7949 33.0967Z" fill="#A7A9C0"/>
<path fill-rule="evenodd" clip-rule="evenodd" d="M117.4 19.2269L123.206 8.90538L115.35 4.77881L114.325 6.05266C110.086 3.79357 87.8918 6.91287 86.5022 28.9585C87.3329 47.4523 107.913 44.1259 109.932 42.9523L115.592 31.1703C110.048 34.8469 98.6968 36.6119 98.217 25.5672C99.2125 16.4588 109.891 13.0577 117.4 19.2269Z" fill="#A7A9C0"/>
<path fill-rule="evenodd" clip-rule="evenodd" d="M122.85 15.7996H125.765L112.312 42.8059H125.334L128.007 36.2917H136L136.199 42.8059H148.185L146.374 4.97363H128.524L122.85 15.7996ZM136.199 27.5218L136 17.0153L131.629 27.5218H136.199Z" fill="#A7A9C0"/>
<path fill-rule="evenodd" clip-rule="evenodd" d="M42.4418 6.32883C48.4116 19.4235 47.5774 31.9801 42.5262 42.4156C31.7783 47.851 18.5575 48.2521 6.60355 42.1609C0.830359 29.8698 1.00844 15.9925 6.60355 6.0741C17.4538 0.649394 31.0539 0.486988 42.4418 6.32883ZM43.118 5.48379C49.3264 19.1016 48.4589 32.1598 43.2057 43.0122C32.028 48.6648 18.2784 49.0818 5.84647 42.7473C-0.157599 29.9652 0.0276046 15.5336 5.84647 5.21888C17.1306 -0.422541 31.2746 -0.591434 43.118 5.48379Z" fill="#A7A9C0"/>
<path fill-rule="evenodd" clip-rule="evenodd" d="M20.8432 36.2917H21.6538C21.6538 36.2917 22.1469 33.0317 18.7111 30.5534C16.5449 28.9909 10.3048 28.6566 9.3089 26.6152C7.2982 29.639 8.93274 33.1345 11.1841 33.9406C14.7705 35.2665 19.2482 31.3681 20.8432 36.2917Z" fill="#A7A9C0"/>
<path fill-rule="evenodd" clip-rule="evenodd" d="M26.7664 36.2917H27.5145C29.7795 30.977 33.983 36.4859 38.3671 33.3199C40.131 32.0461 40.7383 29.5618 39.0489 26.6152C38.0719 29.5875 27.383 27.7271 26.7664 36.2917Z" fill="#A7A9C0"/>
<path fill-rule="evenodd" clip-rule="evenodd" d="M23.7735 36.2919H24.7087C24.7099 32.715 24.0509 26.8395 25.782 22.3546C27.9012 18.1709 29.6037 18.7745 31.3061 14.5746C32.2957 10.374 30.5126 5.86233 24.7087 5.26245C18.0142 5.62498 16.0216 10.3333 17.1922 14.6844C17.9318 17.4335 21.2686 18.9644 22.5872 22.3677C24.3276 26.8568 23.6906 32.9568 23.7735 36.2919Z" fill="#A7A9C0"/>
<path fill-rule="evenodd" clip-rule="evenodd" d="M22.4138 36.2911C22.24 34.3378 21.7762 32.6963 20.7815 31.4401C16.2205 25.6802 6.8962 30.0164 9.29223 20.2281C10.538 15.2238 24.7475 12.2725 23.1159 36.2831L22.4138 36.2911Z" fill="#A7A9C0"/>
<path fill-rule="evenodd" clip-rule="evenodd" d="M25.333 36.3267H26.1657C26.1801 33.5295 27.1463 31.6845 28.983 30.076C33.8421 26.5207 41.4278 28.8985 39.072 20.2287C37.3525 15.9079 29.5991 14.2104 26.2108 23.8168C25.1928 26.7032 25.283 30.6928 25.333 36.3267Z" fill="#A7A9C0"/>
<path fill-rule="evenodd" clip-rule="evenodd" d="M13.2175 40.3092L14.3416 40.6865L13.8003 42.573L13.3424 42.4472L13.384 42.1538C12.8236 42.4109 11.7974 42.2182 11.677 41.5669C11.5565 41.0437 11.9214 39.4575 12.5097 38.7162C13.0815 37.9958 14.4741 38.7001 14.5081 39.1354C14.542 39.5694 14.3719 40.0577 14.3719 40.0577L13.8476 39.958C13.8476 39.958 13.8795 39.8011 13.9252 39.5546C13.9738 39.2928 13.2962 39.0308 13.0926 39.3031C12.903 39.5566 12.5231 40.4417 12.4681 41.1476C12.4098 41.8953 13.1229 41.7378 13.3007 41.6507C13.4442 41.5805 13.5505 40.98 13.5505 40.98L13.0509 40.8123L13.2175 40.3092Z" fill="#A7A9C0"/>
<path fill-rule="evenodd" clip-rule="evenodd" d="M15.0671 42.8728L15.8742 39.2161C17.8462 39.4323 18.0189 39.9854 18.0579 40.5784C17.9801 41.039 17.8581 41.36 17.4645 41.4388C17.9255 41.86 17.4702 42.7425 17.4645 43.3987L16.7761 43.2314C16.8569 42.6584 17.5316 41.4933 16.1979 41.4933L15.8267 43.0163L15.0671 42.8728ZM16.3489 40.8652L16.5625 40.0048C17.3505 40.0128 17.3374 40.331 17.3221 40.6501C17.0943 41.1597 16.6922 40.8793 16.3489 40.8652Z" fill="#A7A9C0"/>
<path fill-rule="evenodd" clip-rule="evenodd" d="M19.2243 39.8066L19.94 39.9192L19.6268 42.4866C19.6663 43.3362 20.5126 43.2854 20.678 42.6668L21.0135 39.9868L21.6174 40.0318L21.349 42.982C21.0781 44.2811 19.1538 44.1073 18.9111 42.8694L19.2243 39.8066Z" fill="#A7A9C0"/>
<path fill-rule="evenodd" clip-rule="evenodd" d="M22.6238 43.9729L22.8251 40.1218C24.2209 40.1509 25.0213 40.3454 24.9945 41.3379C24.9116 42.6945 23.8209 42.3895 23.3171 42.3739L23.1829 43.9954L22.6238 43.9729ZM23.5184 40.82L23.3842 41.7658C23.7293 41.7317 24.1542 42.0315 24.3236 41.3605C24.3107 40.8373 23.9156 40.8086 23.5184 40.82Z" fill="#A7A9C0"/>
<path fill-rule="evenodd" clip-rule="evenodd" d="M28.0809 43.838L27.4771 40.1221C27.7893 40.0707 29.3193 39.5062 29.6912 40.5274C29.8748 41.1513 29.6845 41.3753 29.4676 41.6535C29.8787 41.7867 30.0178 42.1093 30.1162 42.4642C30.1473 43.025 29.9584 43.3977 29.6018 43.5227L28.0809 43.838ZM28.2375 40.5274L28.4164 41.4958C28.8552 41.3977 29.081 41.136 29.0426 40.7977C28.9852 40.5402 28.7715 40.35 28.2375 40.5274ZM28.573 42.2165L28.7295 43.2074C29.0959 43.2167 29.4302 42.9949 29.3334 42.5318C29.2403 42.0864 28.8685 42.1569 28.573 42.2165Z" fill="#A7A9C0"/>
<path fill-rule="evenodd" clip-rule="evenodd" d="M32.4199 40.4146L33.0685 40.302C32.9329 39.8269 33.0213 39.1489 31.5252 39.3787C30.6138 39.5895 30.8794 40.7419 31.0332 41.8334C31.2974 43.1086 31.4886 43.3002 32.4646 43.2297C32.9196 43.1415 33.5281 43.0099 33.3592 41.7208L32.7106 41.8109C32.781 42.1549 32.8586 42.4186 32.487 42.6892C32.1664 42.7308 32.0247 42.8066 31.816 42.3965L31.4805 40.6173C31.4159 40.238 31.5389 40.0135 31.8384 39.8741C32.1671 39.8442 32.3165 40.0063 32.4199 40.4146Z" fill="#A7A9C0"/>
<path fill-rule="evenodd" clip-rule="evenodd" d="M34.433 42.6893L34.2317 38.8157L34.9921 38.613L36.8708 41.811L36.3564 42.1488L35.7302 41.2479L35.0145 41.5182L35.0816 42.4641L34.433 42.6893ZM34.8356 39.7391L34.9027 41.0002L35.596 40.7975L34.8356 39.7391Z" fill="#A7A9C0"/>
</svg>
