<svg width="708" height="703" viewBox="0 0 708 703" fill="none" xmlns="http://www.w3.org/2000/svg">
<path opacity="0.18" d="M373.709 568.631L494 0H0L97.0816 570.456C97.0816 570.456 46.4975 602.017 224.943 603.949C347.356 605.264 377.114 580.842 373.709 568.631Z" fill="#313896"/>
<path opacity="0.18" d="M468.388 656.79C462.144 656.357 454.726 654.861 452.416 649.113C450.738 644.933 452.597 640.104 451.893 635.707C450.431 626.265 439.061 622.319 429.605 620.246L389.359 611.489C385.19 610.57 380.715 609.489 377.935 606.281C375.968 603.993 375.174 600.876 373.658 598.317C367.36 587.415 351.767 587.289 339.098 588.388C267.938 594.559 196.427 595.642 125.112 591.632C103.672 590.424 81.1313 588.947 61.7486 598.065C59.308 598.943 57.2563 600.653 55.9554 602.894C54.4034 606.335 56.4427 610.264 58.5903 613.381C76.7458 639.653 107.408 655.51 138.864 662.538C170.321 669.565 202.968 668.736 235.218 667.943L358.246 664.646C363.119 664.502 368.587 664.646 372.016 668.016C375.445 671.385 375.445 677.332 377.701 681.836C380.841 688.125 388.114 691.188 394.936 693.225C421.267 701.081 449.24 701.387 476.762 701.64C545.594 702.27 614.516 702.883 683.222 698.414C693.437 697.747 706.304 694.684 707.838 684.701C708.777 678.557 704.229 672.61 698.688 669.745C693.148 666.88 686.579 666.43 680.28 666.033L566.709 658.916C552.271 658.015 537.689 654.916 523.504 654.591C505.132 654.087 487.049 658.087 468.388 656.79Z" fill="#313896"/>
<path d="M553.995 676.485C554.116 677.091 554.046 677.721 553.796 678.287C553.512 678.617 553.161 678.883 552.766 679.066C552.37 679.25 551.94 679.346 551.504 679.35C538.995 681.082 526.33 681.402 513.75 680.305C519.966 676.074 526.998 673.184 534.395 671.818C534.928 671.888 535.47 671.842 535.984 671.684C536.498 671.526 536.971 671.259 537.372 670.902C537.773 670.544 538.092 670.104 538.307 669.612C538.522 669.121 538.628 668.588 538.619 668.052C538.893 666.156 539.371 664.295 540.044 662.502C540.161 662.073 540.415 661.693 540.766 661.421C541.141 661.259 541.553 661.203 541.957 661.258L548.49 661.601C551.089 661.763 551.197 661.601 551.847 664.177C552.856 668.223 553.574 672.336 553.995 676.485Z" fill="#3E3E54"/>
<path d="M599.401 676.485C599.525 677.093 599.449 677.725 599.185 678.286C598.901 678.617 598.55 678.883 598.154 679.066C597.759 679.25 597.329 679.346 596.893 679.35C584.39 681.082 571.731 681.402 559.156 680.305C565.373 676.074 572.404 673.184 579.802 671.818C580.511 671.791 581.206 671.617 581.843 671.307C582.48 670.996 583.045 670.557 583.502 670.016C583.797 669.405 583.974 668.745 584.025 668.07C584.291 666.172 584.769 664.311 585.451 662.52C585.562 662.088 585.816 661.707 586.173 661.438C586.541 661.276 586.947 661.219 587.346 661.276L593.879 661.619C596.496 661.781 596.586 661.619 597.254 664.195C598.253 668.237 598.971 672.344 599.401 676.485Z" fill="#3E3E54"/>
<path d="M553.995 676.485C554.116 677.091 554.046 677.721 553.796 678.287C553.512 678.617 553.161 678.883 552.766 679.066C552.37 679.25 551.94 679.346 551.504 679.35C538.995 681.082 526.33 681.402 513.75 680.305C519.966 676.074 526.998 673.184 534.395 671.818C534.928 671.888 535.47 671.842 535.984 671.684C536.498 671.526 536.971 671.259 537.372 670.902C537.773 670.544 538.092 670.104 538.307 669.612C538.522 669.121 538.628 668.588 538.619 668.052C538.893 666.156 539.371 664.295 540.044 662.502C540.161 662.073 540.415 661.693 540.766 661.421C541.141 661.259 541.553 661.203 541.957 661.258L548.49 661.601C551.089 661.763 551.197 661.601 551.847 664.177C552.856 668.223 553.574 672.336 553.995 676.485Z" fill="url(#paint0_linear)"/>
<path d="M599.401 676.485C599.525 677.093 599.449 677.725 599.185 678.286C598.901 678.617 598.55 678.883 598.154 679.066C597.759 679.25 597.329 679.346 596.893 679.35C584.39 681.082 571.731 681.402 559.156 680.305C565.373 676.074 572.404 673.184 579.802 671.818C580.511 671.791 581.206 671.617 581.843 671.307C582.48 670.996 583.045 670.557 583.502 670.016C583.797 669.405 583.974 668.745 584.025 668.07C584.291 666.172 584.769 664.311 585.451 662.52C585.562 662.088 585.816 661.707 586.173 661.438C586.541 661.276 586.947 661.219 587.346 661.276L593.879 661.619C596.496 661.781 596.586 661.619 597.254 664.195C598.253 668.237 598.971 672.344 599.401 676.485Z" fill="url(#paint1_linear)"/>
<path d="M510.88 455.983L526.148 665.132L556.72 664.79L554.085 515.23L574.569 663.961L600.358 664.195L599.383 440.756C599.383 440.756 570.959 388.158 510.88 455.983Z" fill="#3E3E54"/>
<path opacity="0.18" d="M431.833 309.684C434.486 328.136 440.586 345.921 446.65 363.562C451.469 377.545 456.72 392.212 467.91 401.907C473.414 406.7 480.543 410.646 482.528 417.674C483.683 421.89 482.636 426.377 481.607 430.629L519.128 429.782C520.304 429.866 521.481 429.636 522.539 429.116C523.675 428.261 524.479 427.038 524.812 425.656C527.718 417.385 527.538 408.412 527.989 399.654C529.072 378.031 534.684 355.759 549.357 339.902C551.37 338.064 553.017 335.864 554.211 333.415C554.973 330.938 555.206 328.33 554.897 325.757C553.766 302.008 553.513 278.246 554.139 254.473C554.268 253.07 554.121 251.656 553.706 250.31C553.217 249.266 552.559 248.31 551.757 247.481L540.929 234.868C540.316 234.057 539.565 233.362 538.709 232.814C536.236 231.372 533.096 232.543 530.479 233.733C525.697 235.913 520.553 238.436 518.279 243.157C517.111 246.075 516.564 249.205 516.673 252.346L515.861 276.168C515.59 283.772 515.699 292.295 521.095 297.647C523.495 299.989 526.78 301.557 528.314 304.53C529.294 306.914 529.563 309.53 529.09 312.062C528.585 316.57 527.574 321.007 526.076 325.289C524.465 329.683 522.597 333.979 520.481 338.154L498.824 383.203C498.301 384.248 497.471 385.491 496.316 385.275C495.637 385.054 495.073 384.575 494.746 383.941C480.019 362.318 471.988 336.352 455.331 316.135C452.732 312.981 449.104 308.639 445.026 307.323C440.496 305.81 436.417 308.35 431.833 309.684Z" fill="#313896"/>
<path d="M454.97 342.731C451.072 332.046 445.459 317.991 441.561 307.305C440.568 304.602 439.575 301.9 438.402 299.269C451.595 297.467 464.12 295.034 477.402 294.151C477.824 294.033 478.266 294.009 478.698 294.081C479.129 294.154 479.539 294.321 479.898 294.571C480.257 294.821 480.556 295.147 480.774 295.527C480.991 295.906 481.122 296.328 481.156 296.764L499.943 354.21L489.296 388.879L454.97 342.731Z" fill="white"/>
<path d="M557.532 539.61C572.98 539.61 588.212 537.538 602.56 531.88C604.346 531.309 605.976 530.335 607.324 529.033C609.616 526.492 609.526 522.654 609.291 519.248C605.772 467.263 598.734 415.457 598.571 363.363C598.571 353.741 598.734 344.011 596.55 334.641C594.366 325.271 589.457 316.135 581.318 310.981C572.457 305.359 561.25 305.269 550.782 306.044C541.055 306.783 530.93 308.278 522.899 313.774C504.491 326.388 512.414 359.669 511.584 378.644C510.07 406.991 506.997 435.234 502.38 463.244C499.925 479.029 497.236 494.778 494.601 510.527C493.23 518.69 492.797 528.907 499.781 533.267C502.443 534.659 505.372 535.47 508.371 535.646C520.499 537.214 532.663 538.727 544.881 539.376C547.931 539.538 550.981 539.646 554.031 539.682C557.785 539.682 557.64 539.015 559.265 535.682C561.984 529.88 564.697 524.071 567.404 518.257C568.017 525.465 568.439 532.751 568.667 540.115" fill="#313896"/>
<path d="M557.55 539.268C573.016 539.268 588.23 537.195 602.668 531.519C604.449 530.949 606.073 529.974 607.414 528.672C609.706 526.132 609.634 522.312 609.4 518.888C605.88 466.902 598.842 415.097 598.68 363.003C598.68 353.381 598.842 343.65 596.658 334.298C594.475 324.946 589.548 315.774 581.426 310.639C572.565 305.017 561.358 304.909 550.873 305.702C541.145 306.44 531.021 307.936 523.008 313.414C504.6 325.937 512.522 359.309 511.692 378.283C510.172 406.631 507.093 434.874 502.47 462.884C500.034 478.669 497.345 494.418 494.692 510.185C493.338 518.347 492.887 528.546 499.889 532.907C502.543 534.304 505.466 535.116 508.462 535.285C520.607 536.853 532.753 538.367 544.989 539.015C548.039 539.178 551.089 539.286 554.139 539.322C557.893 539.322 557.748 538.673 559.373 535.339C562.08 529.513 564.793 523.699 567.512 517.897C568.126 525.177 568.541 532.462 568.757 539.754" fill="url(#paint2_linear)"/>
<path d="M522.412 384.554C520.409 390.158 518.406 395.762 515.861 401.132C514.737 404.021 512.8 406.524 510.284 408.34C508.631 409.278 506.772 409.798 504.87 409.853C497.94 410.232 491.425 406.592 485.921 402.393C477.294 395.803 470.047 387.588 464.589 378.211C463.942 377.258 463.511 376.176 463.325 375.04C463.361 372.966 464.135 370.973 465.509 369.418L473.378 358.138C478.417 364.624 484.354 370.364 491.01 375.184C491.283 375.445 491.611 375.641 491.971 375.756C492.33 375.872 492.711 375.904 493.085 375.851C493.843 375.616 494.186 374.752 494.421 374.049L503.95 343.002C506.964 333.253 510.717 322.532 519.705 317.666C520.805 317.016 522.04 316.627 523.314 316.531C524.452 316.613 525.56 316.923 526.575 317.443C527.589 317.964 528.487 318.683 529.216 319.558C537.012 327.523 536.651 338.082 534.197 348.029C530.882 360.393 526.949 372.583 522.412 384.554Z" fill="#313896"/>
<path d="M522.358 384.14C520.355 389.744 518.351 395.348 515.807 400.717C514.683 403.607 512.746 406.11 510.23 407.925C508.547 408.875 506.658 409.4 504.726 409.457C497.814 409.817 491.299 406.177 485.794 401.979C477.164 395.393 469.916 387.176 464.462 377.797C463.821 376.846 463.385 375.772 463.181 374.643C463.219 372.562 464 370.562 465.383 369.003L473.251 357.741C478.282 364.231 484.22 369.965 490.884 374.77C491.151 375.033 491.476 375.23 491.833 375.345C492.191 375.461 492.57 375.492 492.941 375.436C493.717 375.202 494.06 374.337 494.294 373.634L503.823 342.587C506.819 332.821 510.573 322.099 519.579 317.252C520.671 316.585 521.91 316.196 523.188 316.117C524.325 316.191 525.435 316.496 526.45 317.014C527.464 317.531 528.363 318.25 529.089 319.126C536.886 327.091 536.525 337.65 534.052 347.596C530.771 359.966 526.868 372.162 522.358 384.14Z" fill="url(#paint3_linear)"/>
<path d="M546.036 299.629C546.07 298.455 545.829 297.289 545.332 296.223C544.267 294.187 541.867 293.34 539.737 292.511C535.55 290.872 531.381 288.457 529.27 284.511C526.942 280.204 527.465 274.961 528.259 270.095C528.905 264.696 530.321 259.417 532.464 254.419C534.641 249.383 538.544 245.288 543.473 242.868C549.573 240.165 556.774 241.175 562.91 243.751C565.256 244.619 567.386 245.984 569.154 247.752C572.764 251.662 573.07 257.482 572.89 262.78C572.409 277.408 569.688 291.877 564.823 305.684C564.558 306.701 564.044 307.636 563.325 308.404C562.541 309.043 561.6 309.459 560.6 309.612C557.225 310.405 550.981 311.306 547.786 309.432C544.339 307.431 546.144 303.251 546.036 299.629Z" fill="url(#paint4_linear)"/>
<path d="M534.81 242.58C536.2 248.436 540.604 253.229 545.639 256.509C547.941 257.711 550.023 259.295 551.793 261.194C554.518 264.69 554.229 269.591 553.814 274.006C555.059 274.564 556.377 273.411 557.279 272.366C558.182 271.321 559.589 270.222 560.78 270.906C561.233 271.207 561.581 271.642 561.773 272.15C562.565 274.067 562.611 276.21 561.904 278.16C561.196 280.11 559.785 281.725 557.947 282.691C557.24 282.945 556.581 283.317 555.998 283.79C555.554 284.404 555.316 285.142 555.316 285.898C555.316 286.655 555.554 287.393 555.998 288.007C556.792 289.304 557.983 290.313 558.777 291.611C560.835 294.854 560.582 299.863 563.975 301.521C565.085 301.938 566.296 302.007 567.446 301.721C568.597 301.435 569.633 300.806 570.418 299.917C571.94 298.108 573.071 296.004 573.738 293.737C578.021 282.048 582.106 270.3 585.992 258.491C586.907 256.258 587.338 253.857 587.256 251.446C587.102 250.205 586.683 249.013 586.026 247.949C585.368 246.886 584.489 245.976 583.448 245.283C582.841 244.977 582.316 244.533 581.914 243.986C581.594 243.093 581.563 242.122 581.823 241.211C581.917 239.801 581.701 238.389 581.189 237.072C580.678 235.755 579.884 234.566 578.864 233.588C576.808 231.628 574.385 230.091 571.735 229.066C563.503 225.578 554.557 224.102 545.639 224.759C537.626 225.354 533.114 235.408 534.81 242.58Z" fill="#3E3E54"/>
<path d="M526.816 373.004C529.282 421.879 525.932 470.873 516.835 518.96L526.816 373.004Z" fill="white"/>
<path d="M519.561 467.749C520.111 472.059 519.86 476.432 518.821 480.651C517.764 484.894 515.198 488.608 511.602 491.102C509.472 492.472 506.494 493.192 504.383 491.661C503.093 490.436 502.259 488.809 502.019 487.048C501.135 483.619 500.74 480.082 500.846 476.543C501.008 473.858 502.073 466.758 505.321 466.037C506.191 466.105 507.05 466.268 507.884 466.524C509.165 466.686 510.465 466.794 511.746 466.938L519.561 467.749Z" fill="url(#paint5_linear)"/>
<path d="M465.78 369.13C462.066 365.855 459.158 361.77 457.28 357.192C455.402 352.614 454.606 347.666 454.952 342.731C457.424 342.389 459.536 344.407 461.124 346.335C462.712 348.263 464.553 350.606 466.123 352.84C466.352 353.278 466.72 353.626 467.17 353.831C467.765 354.029 468.487 353.723 468.974 354.029C469.263 354.225 469.489 354.501 469.624 354.822C470.514 356.442 471.274 358.129 471.898 359.868" fill="url(#paint6_linear)"/>
<path d="M391.669 330.875C389.576 334.947 385.281 337.289 381.202 339.362C342.834 358.979 303.731 377.094 263.895 393.708C242.78 402.537 220.762 411.06 197.861 410.664C192.573 410.574 186.852 409.799 183.116 406.051C179.723 402.609 178.767 397.42 179.091 392.591C179.68 383.987 183.627 375.958 190.082 370.229L189.09 368.048C185.318 359.543 182.159 350.389 183.784 341.29C185.588 331.415 195.19 322.333 204.917 324.802C201.929 321.651 200.146 317.55 199.881 313.218C199.616 308.887 200.886 304.6 203.468 301.109C206.05 297.618 209.78 295.145 214.004 294.124C218.228 293.102 222.678 293.596 226.574 295.521C224.155 289.592 221.683 283.376 222.188 276.997C222.82 268.834 234.713 258.005 240.524 252.346C244.237 248.77 248.744 246.119 253.677 244.61C258.61 243.101 263.83 242.776 268.912 243.661C270.269 243.92 271.603 244.287 272.901 244.76C278.315 237.841 288.115 235.895 296.886 236.706C319.192 238.796 338.972 257.122 342.725 279.177C356.622 277.033 370.735 290.133 369.598 304.152C374.764 303.87 379.869 305.381 384.047 308.429C388.224 311.477 391.217 315.874 392.518 320.874C393.421 324.203 393.121 327.744 391.669 330.875Z" fill="#313896"/>
<path d="M340.668 282.222C337.649 277.477 333.238 273.777 328.035 271.627C323.717 269.986 319.154 269.079 314.536 268.942C310.057 268.54 305.543 268.961 301.217 270.186C296.864 271.463 293.173 274.367 290.912 278.294" stroke="white" stroke-width="1.94" stroke-miterlimit="10" stroke-linecap="round"/>
<path d="M228.848 320.712C229.428 316.921 230.983 313.345 233.359 310.333C234.148 308.982 235.147 307.765 236.319 306.729C239.784 303.954 244.783 304.656 249.151 305.503C248.798 302.118 248.889 298.702 249.421 295.341C249.991 291.953 251.879 288.928 254.673 286.925C258.644 284.385 263.787 285.124 268.443 285.862" stroke="white" stroke-width="1.94" stroke-miterlimit="10" stroke-linecap="round"/>
<path d="M352.272 324.856C350.089 320.982 344.638 320.333 340.325 321.523C335.911 322.819 332.001 325.438 329.125 329.025C326.249 332.611 324.546 336.993 324.245 341.578" stroke="white" stroke-width="1.94" stroke-miterlimit="10" stroke-linecap="round"/>
<path d="M209.375 388.698C208.797 382.867 208.979 376.986 209.916 371.202C210.107 368.631 211.091 366.183 212.731 364.192C214.336 362.736 216.342 361.794 218.488 361.489C223.44 360.617 228.539 361.248 233.127 363.301C237.715 365.354 241.581 368.734 244.224 373.004C242.798 366.913 247.382 360.39 253.392 358.588C259.402 356.786 266.115 358.877 270.934 362.895" stroke="white" stroke-width="1.94" stroke-miterlimit="10" stroke-linecap="round"/>
<path d="M308.634 322.766C310.349 324.153 310.258 326.766 309.861 328.946C308.472 336.154 304.628 343.65 297.806 346.551C294.421 347.816 290.794 348.303 287.194 347.975C280.625 347.614 273.587 345.668 269.706 340.371L263.444 346.497" stroke="white" stroke-width="1.94" stroke-miterlimit="10" stroke-linecap="round"/>
<path d="M292.825 309.612C292.745 306.221 293.91 302.918 296.101 300.325C298.292 297.733 301.357 296.031 304.718 295.539C307.225 295.355 309.746 295.599 312.172 296.26C315.907 297.142 319.824 298.566 321.935 301.773" stroke="white" stroke-width="1.94" stroke-miterlimit="10" stroke-linecap="round"/>
<path d="M267.27 236.129L264.599 240.31C259.517 239.418 254.295 239.74 249.361 241.25C244.427 242.759 239.921 245.413 236.211 248.995C230.382 254.653 218.507 265.483 217.857 273.645C217.352 280.024 219.824 286.259 222.242 292.151C218.344 290.216 213.887 289.714 209.655 290.734C205.423 291.754 201.686 294.23 199.101 297.728C196.516 301.225 195.248 305.521 195.519 309.859C195.791 314.197 197.585 318.301 200.586 321.45C190.858 318.982 181.221 328.064 179.452 337.938C177.828 346.948 180.986 356.192 184.758 364.679L165.556 394.627C152.364 401.222 135.11 402.249 123.849 392.825C121.402 390.764 119.332 388.295 117.731 385.527C112.154 375.869 113.039 363.291 118.597 353.651C124.156 344.011 135.129 336.028 145.668 332.46C144.041 329.325 143.096 325.882 142.897 322.356C142.697 318.831 143.247 315.303 144.51 312.005C145.773 308.706 147.721 305.712 150.225 303.219C152.729 300.726 155.734 298.79 159.041 297.539C156.947 292.049 155.953 286.202 156.117 280.33C156.574 275.506 158.121 270.848 160.64 266.707C163.159 262.565 166.586 259.048 170.663 256.419C178.932 251.221 188.734 249.008 198.438 250.148C199.035 250.318 199.661 250.366 200.278 250.288C200.894 250.211 201.488 250.009 202.024 249.696C202.561 249.383 203.028 248.964 203.398 248.466C203.768 247.968 204.033 247.4 204.177 246.797C207.887 240.114 213.724 234.857 220.763 231.859C224.662 230.35 228.691 229.198 232.8 228.417C236.435 227.438 240.188 226.965 243.953 227.011C247.698 227.379 251.356 228.359 254.781 229.912C259.083 231.694 263.256 233.772 267.27 236.129Z" fill="#313896"/>
<path d="M257.615 286.547C257.086 280.211 258.46 273.862 261.562 268.309C264.664 262.757 269.353 258.253 275.03 255.374" stroke="white" stroke-width="1.94" stroke-miterlimit="10" stroke-linecap="round"/>
<path d="M276.149 319.883C273.535 319.521 270.873 319.792 268.386 320.672C265.899 321.553 263.66 323.018 261.859 324.944C260.058 326.869 258.747 329.199 258.037 331.736C257.326 334.274 257.237 336.945 257.777 339.524" stroke="white" stroke-width="1.94" stroke-miterlimit="10" stroke-linecap="round"/>
<path d="M238.376 345.758C233.269 343.589 227.594 343.137 222.206 344.47C216.819 345.802 212.011 348.848 208.508 353.146" stroke="white" stroke-width="1.94" stroke-miterlimit="10" stroke-linecap="round"/>
<path d="M169.508 312.441C168.534 311.688 167.761 310.707 167.258 309.585C166.754 308.463 166.535 307.235 166.621 306.008C166.798 303.544 167.474 301.141 168.606 298.944C169.908 296.109 171.409 293.369 173.1 290.746C174.339 288.602 175.974 286.713 177.918 285.178C182.304 282.042 188.205 282.349 193.583 282.799" stroke="white" stroke-width="1.94" stroke-miterlimit="10" stroke-linecap="round"/>
<path d="M213.688 257.644C211.851 257.552 210.019 257.915 208.357 258.701C206.694 259.487 205.252 260.672 204.159 262.149C202.021 265.15 200.771 268.69 200.55 272.366" stroke="white" stroke-width="1.94" stroke-miterlimit="10" stroke-linecap="round"/>
<path d="M144.964 373.076C143.881 373.562 142.997 372.049 142.817 370.877C142.062 365.251 143.213 359.534 146.088 354.636C148.962 349.738 153.395 345.941 158.68 343.848" stroke="white" stroke-width="1.94" stroke-miterlimit="10" stroke-linecap="round"/>
<path d="M233.847 635.437C315.318 635.437 381.364 617.18 381.364 594.659C381.364 572.138 315.318 553.881 233.847 553.881C152.375 553.881 86.3289 572.138 86.3289 594.659C86.3289 617.18 152.375 635.437 233.847 635.437Z" fill="#313896"/>
<path d="M240.849 601.939C312.204 601.939 370.049 591.225 370.049 578.009C370.049 564.793 312.204 554.08 240.849 554.08C169.494 554.08 111.649 564.793 111.649 578.009C111.649 591.225 169.494 601.939 240.849 601.939Z" fill="url(#paint7_linear)"/>
<path d="M239.802 593.614V529.645H185.155V460.884" stroke="white" stroke-width="3" stroke-miterlimit="10"/>
<path d="M185.967 460.884C190.313 460.884 193.836 457.366 193.836 453.027C193.836 448.688 190.313 445.171 185.967 445.171C181.622 445.171 178.099 448.688 178.099 453.027C178.099 457.366 181.622 460.884 185.967 460.884Z" stroke="white" stroke-width="3" stroke-miterlimit="10"/>
<path d="M128.92 505.572C133.266 505.572 136.789 502.054 136.789 497.715C136.789 493.376 133.266 489.859 128.92 489.859C124.575 489.859 121.052 493.376 121.052 497.715C121.052 502.054 124.575 505.572 128.92 505.572Z" stroke="white" stroke-width="3" stroke-miterlimit="10"/>
<path d="M212.046 466.776C216.391 466.776 219.914 463.259 219.914 458.92C219.914 454.581 216.391 451.063 212.046 451.063C207.7 451.063 204.177 454.581 204.177 458.92C204.177 463.259 207.7 466.776 212.046 466.776Z" stroke="white" stroke-width="3" stroke-miterlimit="10"/>
<path d="M235.164 433.891C239.51 433.891 243.033 430.373 243.033 426.034C243.033 421.695 239.51 418.178 235.164 418.178C230.818 418.178 227.296 421.695 227.296 426.034C227.296 430.373 230.818 433.891 235.164 433.891Z" stroke="white" stroke-width="3" stroke-miterlimit="10"/>
<path d="M298.6 441.243C302.946 441.243 306.469 437.725 306.469 433.386C306.469 429.047 302.946 425.53 298.6 425.53C294.254 425.53 290.731 429.047 290.731 433.386C290.731 437.725 294.254 441.243 298.6 441.243Z" stroke="white" stroke-width="3" stroke-miterlimit="10"/>
<path d="M350.576 463.01C354.922 463.01 358.444 459.493 358.444 455.154C358.444 450.815 354.922 447.297 350.576 447.297C346.23 447.297 342.707 450.815 342.707 455.154C342.707 459.493 346.23 463.01 350.576 463.01Z" stroke="white" stroke-width="3" stroke-miterlimit="10"/>
<path d="M319.264 558.44C323.61 558.44 327.133 554.923 327.133 550.584C327.133 546.245 323.61 542.727 319.264 542.727C314.918 542.727 311.396 546.245 311.396 550.584C311.396 554.923 314.918 558.44 319.264 558.44Z" stroke="white" stroke-width="3" stroke-miterlimit="10"/>
<path d="M185.155 490.363H212.208V465.317" stroke="white" stroke-width="3" stroke-miterlimit="10"/>
<path d="M241.228 539.952H273.19V491.823H235.327V433.891" stroke="white" stroke-width="3" stroke-miterlimit="10"/>
<path d="M298.762 441.243V511.464H273.677" stroke="white" stroke-width="3" stroke-miterlimit="10"/>
<path d="M238.268 559.594H155.161V499.679H135.977" stroke="white" stroke-width="3" stroke-miterlimit="10"/>
<path d="M299.087 487.246H319.426V543.232" stroke="white" stroke-width="3" stroke-miterlimit="10"/>
<path d="M319.427 515.392H333.449V456.469H344.512" stroke="white" stroke-width="3" stroke-miterlimit="10"/>
<defs>
<linearGradient id="paint0_linear" x1="513.75" y1="671.169" x2="554.049" y2="671.169" gradientUnits="userSpaceOnUse">
<stop stop-opacity="0"/>
<stop offset="0.99"/>
</linearGradient>
<linearGradient id="paint1_linear" x1="14190.1" y1="7164.94" x2="15090.1" y2="7164.94" gradientUnits="userSpaceOnUse">
<stop stop-opacity="0"/>
<stop offset="0.99"/>
</linearGradient>
<linearGradient id="paint2_linear" x1="569.154" y1="706.523" x2="541.213" y2="375.051" gradientUnits="userSpaceOnUse">
<stop offset="0.02" stop-color="white" stop-opacity="0"/>
<stop offset="0.58" stop-color="white" stop-opacity="0.39"/>
<stop offset="0.68" stop-color="white" stop-opacity="0.68"/>
<stop offset="1" stop-color="white"/>
</linearGradient>
<linearGradient id="paint3_linear" x1="24756.4" y1="17643.7" x2="22459" y2="15764.4" gradientUnits="userSpaceOnUse">
<stop offset="0.02" stop-color="white" stop-opacity="0"/>
<stop offset="0.58" stop-color="white" stop-opacity="0.39"/>
<stop offset="0.68" stop-color="white" stop-opacity="0.68"/>
<stop offset="1" stop-color="white"/>
</linearGradient>
<linearGradient id="paint4_linear" x1="564.949" y1="274.889" x2="541.579" y2="276.859" gradientUnits="userSpaceOnUse">
<stop stop-color="#E5C5D5"/>
<stop offset="0.42" stop-color="#EAD4D1"/>
<stop offset="1" stop-color="#F0E9CB"/>
</linearGradient>
<linearGradient id="paint5_linear" x1="6318.22" y1="6394.26" x2="6517.7" y2="6394.26" gradientUnits="userSpaceOnUse">
<stop offset="0.02" stop-color="white" stop-opacity="0"/>
<stop offset="0.58" stop-color="white" stop-opacity="0.39"/>
<stop offset="0.68" stop-color="white" stop-opacity="0.68"/>
<stop offset="1" stop-color="white"/>
</linearGradient>
<linearGradient id="paint6_linear" x1="5399.99" y1="4642.59" x2="5251.16" y2="4521.2" gradientUnits="userSpaceOnUse">
<stop stop-color="#E5C5D5"/>
<stop offset="0.42" stop-color="#EAD4D1"/>
<stop offset="1" stop-color="#F0E9CB"/>
</linearGradient>
<linearGradient id="paint7_linear" x1="7295.16" y1="10753.4" x2="44290.3" y2="10753.4" gradientUnits="userSpaceOnUse">
<stop offset="0.02" stop-color="white" stop-opacity="0"/>
<stop offset="0.58" stop-color="white" stop-opacity="0.39"/>
<stop offset="0.68" stop-color="white" stop-opacity="0.68"/>
<stop offset="1" stop-color="white"/>
</linearGradient>
</defs>
</svg>
