<svg width="35" height="35" viewBox="0 0 35 35" fill="none" xmlns="http://www.w3.org/2000/svg">
<path d="M34.9998 17.615C34.9771 15.9106 34.3218 14.2752 33.1608 13.0253L22.0121 1.8953C21.4303 1.2957 20.7336 0.818942 19.9636 0.493358C19.1936 0.167774 18.3659 0 17.5297 0C16.6934 0 15.8657 0.167774 15.0957 0.493358C14.3257 0.818942 13.629 1.2957 13.0472 1.8953L1.89848 13.0253C1.29787 13.6062 0.820317 14.3017 0.494186 15.0704C0.168056 15.8391 0 16.6655 0 17.5003C0 18.3351 0.168056 19.1614 0.494186 19.9302C0.820317 20.6989 1.29787 21.3944 1.89848 21.9752L13.0472 33.1053C13.6406 33.7055 14.3474 34.182 15.1268 34.5073C15.9061 34.8325 16.7424 35 17.5871 35C18.4318 35 19.2681 34.8325 20.0475 34.5073C20.8268 34.182 21.5337 33.7055 22.1271 33.1053L33.2758 21.9752L32.7011 21.4015L33.2758 21.9752C34.395 20.8 35.0131 19.2366 34.9998 17.615ZM21.8972 13.3696C22.0121 12.7958 22.3569 12.4516 22.8167 12.4516C23.0609 12.4754 23.2966 12.5538 23.5063 12.6811L23.6212 12.7958C23.7654 12.9527 23.8472 13.1567 23.8511 13.3696C23.8526 13.4905 23.8299 13.6106 23.7842 13.7227C23.7386 13.8347 23.6709 13.9365 23.5852 14.0221C23.4995 14.1076 23.3975 14.1752 23.2853 14.2208C23.173 14.2663 23.0528 14.289 22.9316 14.2875C22.242 14.4022 21.7823 13.9433 21.8972 13.3696ZM16.1504 11.4189C16.1114 11.5439 16.0464 11.6592 15.9596 11.7573C15.8728 11.8554 15.7663 11.9341 15.6469 11.9883C15.5276 12.0425 15.3981 12.0709 15.267 12.0716C15.1359 12.0723 15.0061 12.0454 14.8861 11.9926C14.7132 11.9068 14.5574 11.7902 14.4264 11.6484V11.5337C14.3115 11.4189 14.3115 11.3042 14.3115 11.0747C14.3099 10.9537 14.3327 10.8337 14.3783 10.7216C14.424 10.6095 14.4916 10.5077 14.5773 10.4222C14.663 10.3366 14.765 10.2691 14.8773 10.2235C14.9895 10.1779 15.1098 10.1552 15.231 10.1568C15.4695 10.1729 15.6941 10.2748 15.8632 10.4435C16.0322 10.6123 16.1343 10.8366 16.1504 11.0747V11.3042V11.4189ZM8.10498 13.8285C8.17878 13.7515 8.26826 13.6912 8.36739 13.6516C8.46652 13.612 8.573 13.5941 8.67965 13.599C8.85651 13.6007 9.02858 13.6567 9.1725 13.7593C9.31643 13.8619 9.42525 14.0063 9.4842 14.1728V14.6317C9.4842 14.8752 9.38732 15.1087 9.21489 15.2808C9.04245 15.453 8.80858 15.5497 8.56472 15.5497C8.32086 15.5497 8.08698 15.453 7.91455 15.2808C7.74211 15.1087 7.64524 14.8752 7.64524 14.6317C7.76017 14.2875 7.87511 13.9433 8.10498 13.8285ZM14.0816 3.04273C14.9893 2.16098 16.2057 1.66762 17.4722 1.66762C18.7386 1.66762 19.9551 2.16098 20.8628 3.04273L26.2647 8.43563L23.8511 11.6484C23.3589 11.3962 22.7894 11.3388 22.2567 11.4877C21.7239 11.6367 21.2671 11.9809 20.9777 12.4516V12.5664L17.4147 11.3042V11.1894C17.43 10.6265 17.2206 10.0805 16.8326 9.67164C16.4446 9.26279 15.9098 9.02456 15.3459 9.00934C14.782 8.99412 14.2351 9.20318 13.8255 9.59051C13.416 9.97784 13.1774 10.5117 13.1621 11.0747C13.1442 11.273 13.1841 11.4722 13.2771 11.6484L10.4037 13.2548C10.2088 13.0216 9.96141 12.8377 9.68178 12.7181C9.40215 12.5984 9.09816 12.5464 8.79459 12.5664C8.59596 12.5485 8.39639 12.5883 8.21991 12.6811L7.41537 10.042V9.92728L14.0816 3.04273ZM14.4264 22.2047C14.35 22.3498 14.2337 22.47 14.0912 22.5513C13.9486 22.6326 13.7858 22.6716 13.6219 22.6637C13.4874 22.6675 13.3541 22.6381 13.2338 22.578C13.1135 22.518 13.0099 22.4291 12.9323 22.3195V22.2047C12.8408 22.0701 12.8001 21.9075 12.8173 21.7458C12.8173 21.5023 12.9142 21.2688 13.0866 21.0967C13.2591 20.9245 13.4929 20.8278 13.7368 20.8278C13.9807 20.8278 14.2145 20.9245 14.387 21.0967C14.5594 21.2688 14.6563 21.5023 14.6563 21.7458C14.6546 21.8345 14.6331 21.9218 14.5933 22.0012C14.5535 22.0806 14.4965 22.1501 14.4264 22.2047ZM16.4952 25.188C16.4992 24.9752 16.5809 24.7711 16.7251 24.6143H16.84C16.9971 24.4704 17.2015 24.3887 17.4147 24.3848C17.6134 24.367 17.8129 24.4068 17.9894 24.4996C18.0875 24.5674 18.1713 24.6538 18.2359 24.7539C18.3006 24.8541 18.3448 24.9659 18.3662 25.0831C18.3875 25.2003 18.3855 25.3206 18.3603 25.437C18.3351 25.5535 18.2872 25.6638 18.2193 25.7617C18.1513 25.8597 18.0648 25.9433 17.9645 26.0079C17.8642 26.0724 17.7521 26.1166 17.6347 26.1379C17.5173 26.1592 17.3969 26.1572 17.2802 26.1321C17.1636 26.1069 17.0531 26.059 16.955 25.9912C16.8097 25.915 16.6893 25.7988 16.6078 25.6566C16.5264 25.5143 16.4873 25.3517 16.4952 25.188ZM22.0121 20.3688C21.9357 20.5139 21.8194 20.6341 21.6769 20.7154C21.5344 20.7967 21.3715 20.8357 21.2076 20.8278C20.9777 20.8278 20.8628 20.8278 20.7478 20.7131H20.6329C20.5322 20.6272 20.4497 20.5221 20.3905 20.4038C20.3313 20.2855 20.2964 20.1566 20.2881 20.0246C20.2866 19.9037 20.3093 19.7836 20.3549 19.6715C20.4006 19.5595 20.4683 19.4577 20.554 19.3721C20.6397 19.2866 20.7416 19.219 20.8539 19.1734C20.9661 19.1278 21.0864 19.1051 21.2076 19.1067C21.4461 19.1228 21.6707 19.2247 21.8398 19.3935C22.0089 19.5622 22.1109 19.7865 22.1271 20.0246C22.1346 20.0869 22.1282 20.1501 22.1083 20.2096C22.0884 20.2691 22.0556 20.3235 22.0121 20.3688ZM20.8628 32.0726C19.9551 32.9543 18.7386 33.4477 17.4722 33.4477C16.2057 33.4477 14.9893 32.9543 14.0816 32.0726L8.90952 26.9092L12.4725 23.3522C12.8419 23.6217 13.2803 23.7808 13.7368 23.8111C13.9676 23.8231 14.1984 23.7887 14.4156 23.7098C14.6328 23.631 14.8319 23.5094 15.0011 23.3522L15.6907 24.0406C15.5598 24.3705 15.4822 24.7191 15.4608 25.0733C15.4183 25.3621 15.4356 25.6566 15.5116 25.9385C15.5877 26.2204 15.7208 26.4838 15.9029 26.7122C16.085 26.9407 16.312 27.1295 16.5701 27.2668C16.8281 27.4042 17.1117 27.4872 17.4031 27.5108C17.6946 27.5344 17.9878 27.4981 18.2647 27.404C18.5415 27.3099 18.7961 27.1602 19.0126 26.964C19.2292 26.7677 19.4031 26.5293 19.5236 26.2633C19.6442 25.9973 19.7088 25.7094 19.7134 25.4175V25.0733C19.7254 24.8429 19.6909 24.6124 19.612 24.3956C19.533 24.1788 19.4111 23.98 19.2537 23.8111L20.7478 21.7458C20.965 21.8392 21.2017 21.8786 21.4375 21.8605C21.8474 21.8697 22.2497 21.7492 22.5868 21.5163L27.6439 25.4175L20.8628 32.0726ZM32.0115 20.9426L28.3336 24.6143L23.1615 20.5983C23.2642 20.3438 23.3037 20.0682 23.2764 19.7951C23.2764 19.2474 23.0584 18.722 22.6705 18.3347C22.2825 17.9474 21.7563 17.7298 21.2076 17.7298C20.6589 17.7298 20.1327 17.9474 19.7447 18.3347C19.3567 18.722 19.1387 19.2474 19.1387 19.7951C19.1267 20.0255 19.1612 20.256 19.2402 20.4728C19.3192 20.6897 19.441 20.8884 19.5985 21.0573L18.1043 23.1227C17.8872 23.0292 17.6505 22.9898 17.4147 23.0079C17.0599 23.0293 16.7108 23.1067 16.3803 23.2374L15.4608 22.4342C15.6615 21.9158 15.654 21.34 15.4399 20.827C15.2257 20.3139 14.8215 19.9032 14.3115 19.6804C14.0543 19.5863 13.7802 19.5472 13.5069 19.5657C13.2348 19.5641 12.9651 19.6165 12.7134 19.7198C12.4617 19.823 12.2331 19.9751 12.0406 20.1672C11.8482 20.3593 11.6959 20.5876 11.5925 20.8388C11.489 21.0901 11.4366 21.3594 11.4381 21.631C11.42 21.8664 11.4594 22.1027 11.553 22.3195L7.8751 25.9912L2.81796 20.8278C1.93473 19.9217 1.44054 18.7073 1.44054 17.4429C1.44054 16.1786 1.93473 14.9641 2.81796 14.058L6.38095 10.6157L7.1855 13.0253C6.8334 13.3998 6.62922 13.889 6.61082 14.4022C6.5683 14.6911 6.5856 14.9856 6.66164 15.2675C6.73767 15.5494 6.87084 15.8127 7.05289 16.0412C7.23495 16.2697 7.46202 16.4584 7.72007 16.5958C7.97811 16.7331 8.26165 16.8162 8.55313 16.8398C8.84461 16.8634 9.13784 16.827 9.41468 16.7329C9.69153 16.6389 9.94609 16.4891 10.1626 16.2929C10.3792 16.0967 10.5531 15.8582 10.6736 15.5922C10.7942 15.3262 10.8588 15.0384 10.8634 14.7465V14.058L13.7368 12.4516C13.9611 12.6611 14.228 12.8198 14.5193 12.917C14.8106 13.0142 15.1194 13.0476 15.4248 13.015C15.7302 12.9823 16.025 12.8843 16.289 12.7277C16.5531 12.5711 16.7802 12.3595 16.955 12.1074L20.7478 13.4843C20.8088 14.0321 21.0852 14.5332 21.5163 14.8775C21.9474 15.2218 22.4979 15.381 23.0465 15.3202C23.5952 15.2593 24.0972 14.9833 24.4421 14.553C24.787 14.1226 24.9465 13.5731 24.8855 13.0253C24.8629 12.745 24.7848 12.472 24.6556 12.2221L27.0693 9.00934L32.0115 13.9433C32.8994 14.893 33.3932 16.1438 33.3932 17.4429C33.3932 18.7421 32.8994 19.9928 32.0115 20.9426Z" fill="white"/>
</svg>
