<svg width="175" height="35" viewBox="0 0 175 35" fill="none" xmlns="http://www.w3.org/2000/svg">
<path d="M53.0897 23.8111L51.5645 20.2541H45.2292L43.704 23.8111H41.123L47.1063 9.92728H49.5701L55.5534 23.8111H53.0897ZM48.3969 11.7632L46.0504 18.1887H50.626L48.3969 11.7632Z" fill="white"/>
<path d="M58.2518 21.8605C57.5598 21.2091 57.0146 20.4236 56.6509 19.5542C56.2873 18.6848 56.1133 17.7508 56.14 16.8118C56.1253 15.8915 56.3053 14.9781 56.6687 14.1291C57.0322 13.28 57.5711 12.5136 58.2518 11.8779C58.9178 11.2012 59.721 10.6679 60.6099 10.3123C61.4988 9.9566 62.4538 9.7864 63.4139 9.81254C65.2537 9.76618 67.0475 10.3782 68.4587 11.5337L66.8162 13.2548C65.8121 12.5878 64.6277 12.2283 63.4139 12.2221C62.7894 12.2004 62.1668 12.3008 61.5826 12.5176C60.9983 12.7343 60.4642 13.063 60.0116 13.4843C59.16 14.3899 58.6978 15.5816 58.7211 16.8118C58.6984 18.0763 59.1585 19.3037 60.0116 20.2541C60.9376 21.087 62.156 21.5391 63.4139 21.5163C64.6328 21.5445 65.8278 21.1819 66.8162 20.4836L68.4587 22.2047C67.0475 23.3602 65.2537 23.9722 63.4139 23.9259C61.494 23.8724 59.6595 23.1384 58.2518 21.8605Z" fill="white"/>
<path d="M77.6097 23.8111C75.9844 23.8825 74.3916 23.3496 73.1515 22.3195C72.6058 21.8922 72.1647 21.3511 71.8602 20.7357C71.5557 20.1203 71.3957 19.4461 71.3917 18.7625V9.81254H73.7381V17.9593C73.7022 18.4483 73.7783 18.939 73.961 19.3956C74.1436 19.8521 74.4283 20.2631 74.794 20.5983C75.5922 21.1217 76.5314 21.4012 77.4924 21.4012C78.4534 21.4012 79.3926 21.1217 80.1908 20.5983C80.5565 20.2631 80.8412 19.8521 81.0238 19.3956C81.2065 18.939 81.2826 18.4483 81.2467 17.9593V9.81254H83.5931V18.7625C83.5891 19.4461 83.4291 20.1203 83.1246 20.7357C82.8201 21.3511 82.379 21.8922 81.8333 22.3195C81.2761 22.8446 80.6119 23.2488 79.8842 23.5059C79.1564 23.7629 78.3814 23.8669 77.6097 23.8111Z" fill="white"/>
<path d="M95.4424 23.8111L92.3921 18.533H89.4591V23.8111H86.878V9.92727H93.096C93.8218 9.87886 94.5499 9.97603 95.2359 10.2128C95.9218 10.4496 96.551 10.821 97.0849 11.3042C97.4722 11.701 97.7753 12.169 97.9767 12.681C98.1781 13.1931 98.2737 13.7391 98.2581 14.2875C98.2821 15.2241 97.9825 16.1413 97.4077 16.8908C96.8329 17.6404 96.0166 18.1785 95.0905 18.4182L98.7274 23.8111H95.4424ZM95.6771 14.4022C95.6771 12.9106 94.5039 12.1074 92.8614 12.1074H89.4591V16.6971H92.9787C93.315 16.747 93.6584 16.7248 93.985 16.6321C94.3117 16.5393 94.6138 16.3782 94.8705 16.1599C95.1272 15.9416 95.3322 15.6714 95.4715 15.3679C95.6108 15.0644 95.6809 14.7349 95.6771 14.4022Z" fill="white"/>
<path d="M111.985 23.8111L110.459 20.2541H104.124L102.599 23.8111H100.018L106.001 9.92728H108.465L114.448 23.8111H111.985ZM107.292 11.7632L104.945 18.1887H109.521L107.292 11.7632Z" fill="white"/>
<path d="M122.895 23.8111V9.92728H125.359V21.7458H133.337V23.9259H122.895V23.8111Z" fill="white"/>
<path d="M146.829 23.8111L145.304 20.2541H138.968L137.443 23.8111H134.862L140.846 9.92728H143.309L149.293 23.8111H146.829ZM142.136 11.7632L139.79 18.1887H144.365L142.136 11.7632Z" fill="white"/>
<path d="M151.522 23.8111V9.92728H157.857C158.494 9.8563 159.139 9.92221 159.747 10.1204C160.354 10.3186 160.911 10.6443 161.377 11.0747C161.679 11.3546 161.919 11.693 162.08 12.0683C162.242 12.4436 162.322 12.8476 162.315 13.2548C162.282 13.9544 162.043 14.6298 161.626 15.1997C161.21 15.7696 160.635 16.2099 159.969 16.4676C162.198 17.2708 163.019 17.9593 163.019 19.6804C163.019 21.9752 161.142 23.6964 157.974 23.6964H151.522V23.8111ZM159.851 13.8285C159.851 12.6811 158.913 12.1074 157.505 12.1074H154.103V15.6644H157.27C158.678 15.5497 159.851 15.0907 159.851 13.8285ZM160.555 19.7951C160.555 18.6477 159.617 17.9593 157.974 17.9593H153.985V21.631H157.974C159.5 21.631 160.555 21.172 160.555 19.7951Z" fill="white"/>
<path d="M169.824 23.8111C168.663 23.8273 167.51 23.6328 166.421 23.2374C165.663 22.9117 164.952 22.4871 164.31 21.9752L165.835 20.4836C166.783 21.2802 167.987 21.7268 169.237 21.7458C170.645 21.7458 171.584 21.5163 172.053 20.8278C172.226 20.5305 172.316 20.1945 172.316 19.8525C172.316 19.5106 172.226 19.1745 172.053 18.8772C171.717 18.5032 171.302 18.2063 170.835 18.008C170.369 17.8096 169.863 17.7146 169.354 17.7298C168.231 17.6313 167.146 17.2777 166.187 16.6971C165.711 16.4144 165.326 16.0059 165.077 15.5187C164.828 15.0315 164.725 14.4854 164.779 13.9433C164.761 13.3774 164.891 12.8164 165.158 12.3141C165.425 11.8118 165.82 11.385 166.304 11.0747C167.272 10.326 168.472 9.92145 169.706 9.92728C170.784 9.85499 171.864 10.0116 172.874 10.3862C173.564 10.6574 174.2 11.0458 174.751 11.5337L173.226 13.0253C172.853 12.675 172.411 12.4027 171.927 12.2251C171.443 12.0475 170.927 11.9684 170.41 11.9926C169.936 11.927 169.453 11.9764 169.003 12.1365C168.553 12.2965 168.15 12.5624 167.829 12.9106C167.657 13.1659 167.565 13.4651 167.565 13.7712C167.565 14.0772 167.657 14.3764 167.829 14.6317C168.509 15.2208 169.385 15.5471 170.293 15.5497C171.462 15.6875 172.584 16.0795 173.578 16.6971C174.06 17.0295 174.444 17.4803 174.691 18.004C174.938 18.5278 175.04 19.106 174.986 19.6804C174.972 20.2247 174.827 20.7581 174.562 21.2368C174.297 21.7155 173.919 22.1259 173.461 22.4342C172.994 22.9097 172.427 23.2794 171.798 23.5173C171.17 23.7552 170.496 23.8555 169.824 23.8111Z" fill="white"/>
<path d="M35.7262 17.615C35.7031 15.9106 35.0342 14.2752 33.8491 13.0253L22.469 1.8953C21.8751 1.2957 21.164 0.818942 20.378 0.493358C19.592 0.167774 18.7471 0 17.8935 0C17.0399 0 16.195 0.167774 15.409 0.493358C14.623 0.818942 13.9119 1.2957 13.318 1.8953L1.93789 13.0253C1.32481 13.6062 0.837343 14.3017 0.504443 15.0704C0.171544 15.8391 0 16.6655 0 17.5003C0 18.3351 0.171544 19.1614 0.504443 19.9302C0.837343 20.6989 1.32481 21.3944 1.93789 21.9752L13.318 33.1053C13.9237 33.7055 14.6452 34.182 15.4408 34.5073C16.2363 34.8325 17.0899 35 17.9522 35C18.8144 35 19.668 34.8325 20.4636 34.5073C21.2591 34.182 21.9806 33.7055 22.5863 33.1053L33.9664 21.9752L33.3798 21.4015L33.9664 21.9752C35.1089 20.8 35.7399 19.2366 35.7262 17.615ZM22.3517 13.3696C22.469 12.7958 22.821 12.4516 23.2902 12.4516C23.5395 12.4754 23.7802 12.5538 23.9942 12.6811L24.1115 12.7958C24.2587 12.9527 24.3421 13.1567 24.3461 13.3696C24.3477 13.4905 24.3245 13.6106 24.2779 13.7227C24.2313 13.8347 24.1622 13.9365 24.0747 14.0221C23.9873 14.1076 23.8832 14.1752 23.7686 14.2208C23.654 14.2663 23.5313 14.289 23.4076 14.2875C22.7036 14.4022 22.2344 13.9433 22.3517 13.3696ZM16.4856 11.4189C16.4458 11.5439 16.3794 11.6592 16.2908 11.7573C16.2023 11.8554 16.0935 11.9341 15.9717 11.9883C15.8499 12.0425 15.7177 12.0709 15.5839 12.0716C15.4501 12.0723 15.3176 12.0454 15.1951 11.9926C15.0186 11.9068 14.8595 11.7902 14.7258 11.6484V11.5337C14.6085 11.4189 14.6085 11.3042 14.6085 11.0747C14.6069 10.9537 14.6301 10.8337 14.6767 10.7216C14.7234 10.6095 14.7924 10.5077 14.8799 10.4222C14.9674 10.3366 15.0715 10.2691 15.1861 10.2235C15.3006 10.1779 15.4234 10.1552 15.5471 10.1568C15.7906 10.1729 16.0199 10.2748 16.1924 10.4435C16.365 10.6123 16.4692 10.8366 16.4856 11.0747V11.3042V11.4189ZM8.2732 13.8285C8.34853 13.7515 8.43987 13.6912 8.54106 13.6516C8.64225 13.612 8.75094 13.5941 8.8598 13.599C9.04034 13.6007 9.21597 13.6567 9.36289 13.7593C9.5098 13.8619 9.62088 14.0063 9.68105 14.1728V14.6317C9.68105 14.8752 9.58216 15.1087 9.40615 15.2808C9.23013 15.453 8.99141 15.5497 8.74248 15.5497C8.49356 15.5497 8.25483 15.453 8.07882 15.2808C7.9028 15.1087 7.80392 14.8752 7.80392 14.6317C7.92124 14.2875 8.03856 13.9433 8.2732 13.8285ZM14.3739 3.04273C15.3004 2.16098 16.5421 1.66762 17.8348 1.66762C19.1276 1.66762 20.3693 2.16098 21.2958 3.04273L26.8099 8.43563L24.3461 11.6484C23.8437 11.3962 23.2625 11.3388 22.7186 11.4877C22.1748 11.6367 21.7086 11.9809 21.4131 12.4516V12.5664L17.7762 11.3042V11.1894C17.7917 10.6265 17.578 10.0805 17.1819 9.67164C16.7859 9.26279 16.24 9.02456 15.6644 9.00934C15.0888 8.99412 14.5305 9.20318 14.1125 9.59051C13.6945 9.97784 13.4509 10.5117 13.4353 11.0747C13.4171 11.273 13.4578 11.4722 13.5526 11.6484L10.6196 13.2548C10.4206 13.0216 10.1682 12.8377 9.88273 12.7181C9.5973 12.5984 9.287 12.5464 8.97713 12.5664C8.77437 12.5485 8.57066 12.5883 8.39052 12.6811L7.56928 10.042V9.92728L14.3739 3.04273ZM14.7258 22.2047C14.6478 22.3498 14.5291 22.47 14.3836 22.5513C14.2382 22.6326 14.072 22.6716 13.9046 22.6637C13.7673 22.6675 13.6313 22.6381 13.5084 22.578C13.3856 22.518 13.2799 22.4291 13.2007 22.3195V22.2047C13.1074 22.0701 13.0658 21.9075 13.0833 21.7458C13.0833 21.5023 13.1822 21.2688 13.3582 21.0967C13.5343 20.9245 13.773 20.8278 14.0219 20.8278C14.2708 20.8278 14.5096 20.9245 14.6856 21.0967C14.8616 21.2688 14.9605 21.5023 14.9605 21.7458C14.9587 21.8345 14.9368 21.9218 14.8962 22.0012C14.8556 22.0806 14.7974 22.1501 14.7258 22.2047ZM16.8376 25.188C16.8416 24.9752 16.9251 24.7711 17.0722 24.6143H17.1896C17.3499 24.4704 17.5586 24.3887 17.7762 24.3848C17.9789 24.367 18.1826 24.4068 18.3628 24.4996C18.4629 24.5674 18.5484 24.6538 18.6144 24.7539C18.6804 24.8541 18.7256 24.9659 18.7474 25.0831C18.7692 25.2003 18.7671 25.3206 18.7414 25.437C18.7157 25.5535 18.6667 25.6638 18.5974 25.7617C18.5281 25.8597 18.4397 25.9433 18.3373 26.0079C18.235 26.0724 18.1206 26.1166 18.0008 26.1379C17.8809 26.1592 17.758 26.1572 17.6389 26.1321C17.5199 26.1069 17.407 26.059 17.3069 25.9912C17.1586 25.915 17.0357 25.7988 16.9525 25.6566C16.8694 25.5143 16.8295 25.3517 16.8376 25.188ZM22.469 20.3688C22.391 20.5139 22.2723 20.6341 22.1268 20.7154C21.9813 20.7967 21.8151 20.8357 21.6478 20.8278C21.4131 20.8278 21.2958 20.8278 21.1785 20.7131H21.0612C20.9583 20.6272 20.8742 20.5221 20.8137 20.4038C20.7532 20.2855 20.7177 20.1566 20.7092 20.0246C20.7076 19.9037 20.7308 19.7836 20.7774 19.6715C20.824 19.5595 20.8931 19.4577 20.9806 19.3721C21.068 19.2866 21.1721 19.219 21.2867 19.1734C21.4013 19.1278 21.5241 19.1051 21.6478 19.1067C21.8913 19.1228 22.1205 19.2247 22.2931 19.3935C22.4657 19.5622 22.5699 19.7865 22.5863 20.0246C22.594 20.0869 22.5874 20.1501 22.5672 20.2096C22.5469 20.2691 22.5133 20.3235 22.469 20.3688ZM21.2958 32.0726C20.3693 32.9543 19.1276 33.4477 17.8348 33.4477C16.5421 33.4477 15.3004 32.9543 14.3739 32.0726L9.09445 26.9092L12.7314 23.3522C13.1084 23.6217 13.556 23.7808 14.0219 23.8111C14.2575 23.8231 14.4931 23.7887 14.7148 23.7098C14.9365 23.631 15.1398 23.5094 15.3124 23.3522L16.0164 24.0406C15.8827 24.3705 15.8035 24.7191 15.7817 25.0733C15.7383 25.3621 15.756 25.6566 15.8336 25.9385C15.9112 26.2204 16.0471 26.4838 16.233 26.7122C16.4188 26.9407 16.6506 27.1295 16.914 27.2668C17.1774 27.4042 17.4668 27.4872 17.7643 27.5108C18.0619 27.5344 18.3612 27.4981 18.6438 27.404C18.9264 27.3099 19.1862 27.1602 19.4073 26.964C19.6283 26.7677 19.8058 26.5293 19.9289 26.2633C20.0519 25.9973 20.1178 25.7094 20.1226 25.4175V25.0733C20.1349 24.8429 20.0996 24.6124 20.019 24.3956C19.9384 24.1788 19.814 23.98 19.6533 23.8111L21.1785 21.7458C21.4001 21.8392 21.6417 21.8786 21.8824 21.8605C22.3008 21.8697 22.7115 21.7492 23.0556 21.5163L28.2177 25.4175L21.2958 32.0726ZM32.6759 20.9426L28.9216 24.6143L23.6422 20.5983C23.7471 20.3438 23.7873 20.0682 23.7595 19.7951C23.7595 19.2474 23.537 18.722 23.141 18.3347C22.745 17.9474 22.2078 17.7298 21.6478 17.7298C21.0877 17.7298 20.5505 17.9474 20.1545 18.3347C19.7585 18.722 19.536 19.2474 19.536 19.7951C19.5237 20.0255 19.5589 20.256 19.6396 20.4728C19.7202 20.6897 19.8445 20.8884 20.0053 21.0573L18.4801 23.1227C18.2584 23.0292 18.0169 22.9898 17.7762 23.0079C17.414 23.0293 17.0576 23.1067 16.7203 23.2374L15.7817 22.4342C15.9866 21.9158 15.9789 21.34 15.7603 20.827C15.5418 20.3139 15.1291 19.9032 14.6085 19.6804C14.346 19.5863 14.0662 19.5472 13.7873 19.5657C13.5095 19.5641 13.2342 19.6165 12.9773 19.7198C12.7204 19.823 12.487 19.9751 12.2906 20.1672C12.0941 20.3593 11.9387 20.5876 11.8331 20.8388C11.7275 21.0901 11.6739 21.3594 11.6755 21.631C11.657 21.8664 11.6973 22.1027 11.7928 22.3195L8.03856 25.9912L2.87645 20.8278C1.97489 19.9217 1.47044 18.7073 1.47044 17.4429C1.47044 16.1786 1.97489 14.9641 2.87645 14.058L6.51339 10.6157L7.33464 13.0253C6.97523 13.3998 6.76682 13.889 6.74803 14.4022C6.70463 14.6911 6.72229 14.9856 6.7999 15.2675C6.87752 15.5494 7.01345 15.8127 7.19928 16.0412C7.38511 16.2697 7.6169 16.4584 7.8803 16.5958C8.14371 16.7331 8.43313 16.8162 8.73066 16.8398C9.02819 16.8634 9.3275 16.827 9.61009 16.7329C9.89268 16.6389 10.1525 16.4891 10.3736 16.2929C10.5946 16.0967 10.7721 15.8582 10.8952 15.5922C11.0182 15.3262 11.0842 15.0384 11.0889 14.7465V14.058L14.0219 12.4516C14.2509 12.6611 14.5233 12.8198 14.8206 12.917C15.118 13.0142 15.4332 13.0476 15.745 13.015C16.0567 12.9823 16.3576 12.8843 16.6271 12.7277C16.8966 12.5711 17.1285 12.3595 17.3069 12.1074L21.1785 13.4843C21.2407 14.0321 21.5229 14.5332 21.9629 14.8775C22.403 15.2218 22.9648 15.381 23.5249 15.3202C24.085 15.2593 24.5974 14.9833 24.9494 14.553C25.3014 14.1226 25.4642 13.5731 25.402 13.0253C25.379 12.745 25.2992 12.472 25.1674 12.2221L27.6311 9.00934L32.6759 13.9433C33.5823 14.893 34.0863 16.1438 34.0863 17.4429C34.0863 18.7421 33.5823 19.9928 32.6759 20.9426Z" fill="white"/>
</svg>
