<svg width="48" height="46" viewBox="0 0 48 46" fill="none" xmlns="http://www.w3.org/2000/svg">
<path d="M40.2415 39.2571C31.2715 48.2267 16.7285 48.2267 7.75858 39.2571C-1.21103 30.2871 -1.21103 15.7442 7.75858 6.7742C16.7285 -2.1954 31.2715 -2.1954 40.2415 6.7742C49.2111 15.7442 49.2111 30.2871 40.2415 39.2571Z" fill="url(#paint0_linear)"/>
<path d="M35.1423 43.1075C26.4056 47.9579 15.1761 46.6747 7.75855 39.2571C7.50183 39.0001 10.9259 35.5764 11.1826 35.8331C17.6927 42.3428 26.7415 44.7672 35.1423 43.1075Z" fill="#F3F4FC"/>
<path d="M31.5952 39.36C30.8631 40.0924 29.6759 40.0924 28.9438 39.36L21.052 31.4685C20.3199 30.7361 20.3199 29.5488 21.052 28.8168L22.3777 27.4911C23.1101 26.7587 24.2973 26.7587 25.0294 27.4911L29.9381 32.3994C30.1212 32.5825 30.4178 32.5825 30.6009 32.3994L43.4732 19.5275C44.2057 18.795 45.3925 18.795 46.125 19.5275L47.4507 20.8531C48.1831 21.5852 48.1831 22.7725 47.4507 23.5049L31.5952 39.36Z" fill="#A8ABC1"/>
<path opacity="0.5" d="M32.859 38.0966L31.5952 39.36C30.8632 40.0924 29.6759 40.0924 28.9438 39.36L21.052 31.4685C20.3196 30.7361 20.3196 29.5488 21.052 28.8168L22.3158 27.553C22.1375 28.203 22.3022 28.9277 22.8131 29.4382L30.9738 37.5992C31.4846 38.1097 32.209 38.2745 32.859 38.0966Z" fill="white"/>
<path d="M40.5044 7.04155L8.02591 39.5197C7.93619 39.4329 7.8472 39.3457 7.75858 39.2571C-1.21103 30.2872 -1.21103 15.7442 7.75858 6.77422C16.7285 -2.19539 31.2715 -2.19576 40.2415 6.77422C40.3301 6.86284 40.4173 6.95183 40.5044 7.04155Z" fill="#F5F6FA"/>
<path d="M40.5044 7.04155L11.4511 36.0945C11.3613 36.0074 -0.468731 24.6094 3.90822 11.8741C4.92336 10.0459 6.20656 8.32658 7.75856 6.77422C16.7285 -2.19539 31.2715 -2.19576 40.2415 6.77422C40.3301 6.86284 40.4173 6.95183 40.5044 7.04155Z" fill="url(#paint1_linear)"/>
<path d="M14.7744 16.919L20.3818 22.5265C21.1143 23.2585 21.1143 24.4458 20.3818 25.1782L19.0562 26.5039C18.3237 27.2363 17.1365 27.2363 16.4044 26.5039L10.797 20.8965C10.6139 20.7133 10.3173 20.7133 10.1342 20.8965L4.52673 26.5039C3.79431 27.2363 2.60706 27.2363 1.875 26.5039L0.549316 25.1782C-0.183105 24.4458 -0.183105 23.2585 0.549316 22.5265L6.15674 16.919C6.33984 16.7359 6.33984 16.4393 6.15674 16.2562L0.549316 10.6488C-0.183105 9.91635 -0.183105 8.7291 0.549316 7.99704L1.875 6.67099C2.60706 5.93893 3.79431 5.93893 4.52673 6.67099L10.1342 12.2784C10.3173 12.4615 10.6139 12.4615 10.797 12.2784L16.4044 6.67099C17.1368 5.93893 18.3237 5.93893 19.0562 6.67099L20.3818 7.99704C21.1139 8.7291 21.1139 9.91635 20.3818 10.6488L14.7744 16.2562C14.5913 16.4393 14.5913 16.7359 14.7744 16.919Z" fill="#2C4EA2"/>
<path d="M2.1958 26.7601C2.08228 26.6876 1.97424 26.603 1.875 26.5038L0.549316 25.1781C-0.183105 24.4457 -0.183105 23.2584 0.549316 22.5264L6.15674 16.9189C6.33984 16.7358 6.33984 16.4392 6.15674 16.2561L0.549316 10.6487C-0.183105 9.91626 -0.183105 8.729 0.549316 7.99695L1.86804 6.67822C1.83325 7.19897 2.01306 7.73145 2.41113 8.12952L9.54346 15.2618C10.2759 15.9939 10.2759 17.1812 9.54346 17.9132L2.63892 24.8181C2.1134 25.3433 1.96729 26.1021 2.1958 26.7601Z" fill="#0095D6"/>
<defs>
<linearGradient id="paint0_linear" x1="40.5831" y1="6.978" x2="7.87053" y2="39.7244" gradientUnits="userSpaceOnUse">
<stop stop-color="#CCCDDD"/>
<stop offset="1" stop-color="#EEF0FD"/>
</linearGradient>
<linearGradient id="paint1_linear" x1="40.5044" y1="7.54307" x2="8.85609" y2="39.0229" gradientUnits="userSpaceOnUse">
<stop stop-color="#DDDEEE"/>
<stop offset="1" stop-color="#EEEFF8"/>
</linearGradient>
</defs>
</svg>
