<svg width="48" height="47" viewBox="0 0 48 47" fill="none" xmlns="http://www.w3.org/2000/svg">
<path d="M46.946 23.5199C46.946 36.4838 36.4369 46.9929 23.473 46.9929C11.6312 46.9929 1.83069 38.176 0.224121 26.7773C0.307617 25.9717 0.359619 25.2019 0.359619 24.3743C0.359619 23.2522 0.282715 22.1089 0.130737 21.0289C1.35608 9.2168 11.3368 0.046875 23.473 0.046875C36.4369 0.046875 46.946 10.556 46.946 23.5199Z" fill="url(#paint0_linear)"/>
<path d="M11.4075 36.3582H43.1287C41.718 38.6019 39.9379 40.5099 37.8124 42.1066H11.4027C9.81519 42.1066 8.52832 40.8197 8.52832 39.2325C8.52832 37.645 9.81519 36.3582 11.4075 36.3582ZM11.4027 11.4481H43.6084C42.4193 9.29224 40.6787 7.24036 38.7517 5.69971H11.4027C9.81519 5.69971 8.52832 6.98657 8.52832 8.57373C8.52832 10.1613 9.81519 11.4481 11.4027 11.4481Z" fill="#F4F4F4"/>
<path d="M33.6668 23.9084C33.6661 23.9326 33.6661 23.9568 33.6658 23.9806C33.6416 25.5319 32.3789 26.7773 30.8276 26.7773H0.224121C0.0765381 25.7128 0 24.6255 0 23.5199C0 22.6783 0.0443115 21.8474 0.130737 21.0289H30.8287C32.4122 21.0289 33.6896 22.325 33.6668 23.9084ZM23.5635 8.57373C23.5635 6.98657 22.2766 5.69971 20.6891 5.69971H8.17419C6.24573 7.30444 4.62524 9.27942 3.3219 11.4481H20.6891C22.2762 11.4481 23.5635 10.1613 23.5635 8.57373ZM20.6891 36.3582H3.81885C5.23352 38.5917 7.05872 40.5029 9.1355 42.1066H25.3766C26.9641 42.1066 28.251 40.8197 28.251 39.2325C28.251 37.645 26.9637 36.3582 25.3766 36.3582H20.6891Z" fill="#A8ABC1"/>
<path opacity="0.5" d="M31.9776 26.7778H8.52687C6.91261 26.7778 5.60927 25.447 5.65395 23.8228C5.69679 22.2573 7.02065 21.0294 8.58693 21.0294H31.9783C33.5622 21.0294 34.8395 22.3254 34.8164 23.9089C34.8161 23.9331 34.8157 23.9572 34.8153 23.981C34.7912 25.5323 33.5288 26.7778 31.9776 26.7778ZM20.6294 5.69971H11.8803C10.2927 5.69971 9.00588 6.98621 9.00588 8.57373C9.00588 10.1613 10.2927 11.4481 11.8803 11.4481H20.6891C22.3034 11.4481 23.6067 10.1173 23.562 8.4928C23.5192 6.92761 22.1953 5.69971 20.6294 5.69971ZM11.8803 36.359C10.2927 36.359 9.00588 37.6459 9.00588 39.2334C9.00588 40.8209 10.2927 42.1074 11.8803 42.1074H26.9557C28.57 42.1074 29.8737 40.777 29.829 39.1525C29.7861 37.5869 28.4623 36.359 26.896 36.359H11.8803Z" fill="white"/>
<path d="M47.2471 23.6477C47.2471 29.0801 42.8434 33.4841 37.4106 33.4841C31.9783 33.4841 27.5746 29.0801 27.5746 23.6477C27.5746 18.215 31.9783 13.8113 37.4106 13.8113C42.8434 13.8113 47.2471 18.2153 47.2471 23.6477Z" fill="#2C4EA2"/>
<path d="M45.7441 28.8746C44.0039 31.6436 40.9226 33.4841 37.4106 33.4841C31.9783 33.4841 27.5746 29.0801 27.5746 23.6477C27.5746 20.1361 29.4152 17.0548 32.1837 15.3142C31.2316 16.8289 30.6808 18.6207 30.6808 20.5415C30.6808 25.9739 35.0845 30.3776 40.5168 30.3776C42.438 30.3779 44.2295 29.8268 45.7441 28.8746Z" fill="#0095D6"/>
<path d="M47.5792 19.5542L37.3209 29.8125C36.7595 30.3736 35.8499 30.3736 35.2885 29.8125L30.7786 25.3026C30.2175 24.7412 30.2175 23.8316 30.7786 23.2702L31.4561 22.5927C32.0175 22.0316 32.9271 22.0316 33.4885 22.5927L35.9659 25.0701C36.1531 25.2572 36.4563 25.2572 36.6434 25.0701L44.8693 16.8443C45.4307 16.2829 46.3403 16.2829 46.9017 16.8443L47.5792 17.5218C48.1403 18.0828 48.1403 18.9928 47.5792 19.5542Z" fill="white"/>
<path d="M38.2874 28.8457C35.2709 27.8005 32.9205 25.329 32.0442 22.2378C32.5378 22.084 33.0974 22.2019 33.4885 22.5927L35.9659 25.0701C36.1531 25.2572 36.4563 25.2572 36.6434 25.0701L44.8693 16.8442C45.4303 16.2832 46.3403 16.2832 46.9017 16.8442L47.5789 17.5217C48.1403 18.0828 48.1403 18.9928 47.5792 19.5542L38.2874 28.8457ZM22.8344 39.2325C22.8344 41.3489 24.55 43.0649 26.6667 43.0649C28.7831 43.0649 30.4991 41.3489 30.4991 39.2325C30.4991 37.1158 28.7831 35.4001 26.6667 35.4001C24.55 35.4001 22.8344 37.1158 22.8344 39.2325ZM21.9401 4.74133C19.8237 4.74133 18.1077 6.4574 18.1077 8.57373C18.1077 10.6904 19.8237 12.4061 21.9401 12.4061C24.0568 12.4061 25.7725 10.6904 25.7725 8.57373C25.7725 6.4574 24.0568 4.74133 21.9401 4.74133Z" fill="white"/>
<path d="M18.1077 8.57373C18.1077 6.9386 19.1323 5.5437 20.5737 4.99329C20.4115 5.41772 20.3221 5.87805 20.3221 6.35962C20.3221 8.47595 22.0378 10.192 24.1542 10.192C24.6357 10.192 25.0961 10.1023 25.5205 9.94006C24.9701 11.3818 23.5752 12.4061 21.9401 12.4061C19.8237 12.4061 18.1077 10.6904 18.1077 8.57373ZM25.0485 37.0184C25.0485 36.5369 25.1382 36.0765 25.3 35.6521C23.8586 36.2025 22.8344 37.5974 22.8344 39.2325C22.8344 41.3489 24.55 43.0649 26.6667 43.0649C28.3019 43.0649 29.6968 42.0403 30.2472 40.5989C29.8228 40.7611 29.3624 40.8505 28.8809 40.8505C26.7645 40.8505 25.0485 39.1348 25.0485 37.0184Z" fill="#F4F4F4"/>
<defs>
<linearGradient id="paint0_linear" x1="23.5384" y1="0.046875" x2="23.5384" y2="46.9929" gradientUnits="userSpaceOnUse">
<stop stop-color="#DDDEEE"/>
<stop offset="1" stop-color="#EEEFF8"/>
</linearGradient>
</defs>
</svg>
