<svg width="346" height="488" viewBox="0 0 346 488" fill="none" xmlns="http://www.w3.org/2000/svg">
<g filter="url(#filter0_d)">
<rect x="35" y="25" width="236" height="80" rx="8" fill="white"/>
</g>
<path d="M121.444 58.18C119.728 58.18 118.378 57.766 117.394 56.938C116.422 56.11 115.906 54.898 115.846 53.302C115.834 52.978 115.828 52.45 115.828 51.718C115.828 50.974 115.834 50.434 115.846 50.098C115.906 48.538 116.428 47.338 117.412 46.498C118.408 45.646 119.752 45.22 121.444 45.22C122.512 45.22 123.466 45.394 124.306 45.742C125.158 46.09 125.83 46.594 126.322 47.254C126.814 47.914 127.072 48.694 127.096 49.594C127.096 49.702 127.054 49.792 126.97 49.864C126.898 49.936 126.808 49.972 126.7 49.972H124.144C123.976 49.972 123.85 49.942 123.766 49.882C123.694 49.81 123.628 49.684 123.568 49.504C123.4 48.916 123.142 48.508 122.794 48.28C122.458 48.04 122.008 47.92 121.444 47.92C120.088 47.92 119.386 48.676 119.338 50.188C119.326 50.512 119.32 51.01 119.32 51.682C119.32 52.354 119.326 52.864 119.338 53.212C119.386 54.724 120.088 55.48 121.444 55.48C121.996 55.48 122.446 55.36 122.794 55.12C123.154 54.88 123.412 54.472 123.568 53.896C123.616 53.716 123.682 53.596 123.766 53.536C123.85 53.464 123.976 53.428 124.144 53.428H126.7C126.808 53.428 126.898 53.464 126.97 53.536C127.054 53.608 127.096 53.698 127.096 53.806C127.072 54.706 126.814 55.486 126.322 56.146C125.83 56.806 125.158 57.31 124.306 57.658C123.466 58.006 122.512 58.18 121.444 58.18ZM131.561 58.18C130.925 58.18 130.343 58.06 129.815 57.82C129.299 57.568 128.891 57.226 128.591 56.794C128.303 56.362 128.159 55.888 128.159 55.372C128.159 54.556 128.495 53.896 129.167 53.392C129.851 52.876 130.787 52.522 131.975 52.33L134.207 51.988V51.772C134.207 51.328 134.117 51.004 133.937 50.8C133.757 50.596 133.451 50.494 133.019 50.494C132.779 50.494 132.575 50.536 132.407 50.62C132.251 50.704 132.071 50.83 131.867 50.998C131.711 51.13 131.573 51.226 131.453 51.286C131.405 51.37 131.345 51.412 131.273 51.412H129.185C129.065 51.412 128.963 51.376 128.879 51.304C128.807 51.22 128.777 51.124 128.789 51.016C128.801 50.692 128.963 50.332 129.275 49.936C129.587 49.528 130.061 49.18 130.697 48.892C131.333 48.604 132.119 48.46 133.055 48.46C134.543 48.46 135.647 48.79 136.367 49.45C137.087 50.098 137.447 50.98 137.447 52.096V57.55C137.447 57.67 137.405 57.778 137.321 57.874C137.237 57.958 137.129 58 136.997 58H134.783C134.663 58 134.555 57.958 134.459 57.874C134.375 57.778 134.333 57.67 134.333 57.55V56.92C134.069 57.292 133.703 57.598 133.235 57.838C132.767 58.066 132.209 58.18 131.561 58.18ZM132.461 56.056C132.989 56.056 133.415 55.882 133.739 55.534C134.075 55.186 134.243 54.682 134.243 54.022V53.806L132.749 54.058C131.741 54.25 131.237 54.61 131.237 55.138C131.237 55.414 131.351 55.636 131.579 55.804C131.819 55.972 132.113 56.056 132.461 56.056ZM139.873 61.42C139.741 61.42 139.627 61.378 139.531 61.294C139.447 61.21 139.405 61.102 139.405 60.97V49.09C139.405 48.958 139.447 48.85 139.531 48.766C139.627 48.682 139.741 48.64 139.873 48.64H142.015C142.147 48.64 142.255 48.682 142.339 48.766C142.423 48.85 142.465 48.958 142.465 49.09V49.738C143.113 48.886 144.043 48.46 145.255 48.46C146.419 48.46 147.331 48.826 147.991 49.558C148.663 50.278 149.023 51.31 149.071 52.654C149.083 52.81 149.089 53.032 149.089 53.32C149.089 53.608 149.083 53.836 149.071 54.004C149.023 55.3 148.663 56.32 147.991 57.064C147.319 57.808 146.407 58.18 145.255 58.18C144.091 58.18 143.221 57.784 142.645 56.992V60.97C142.645 61.102 142.603 61.21 142.519 61.294C142.435 61.378 142.327 61.42 142.195 61.42H139.873ZM144.211 55.678C144.751 55.678 145.135 55.522 145.363 55.21C145.603 54.886 145.741 54.442 145.777 53.878C145.789 53.758 145.795 53.572 145.795 53.32C145.795 53.068 145.789 52.882 145.777 52.762C145.741 52.198 145.603 51.76 145.363 51.448C145.135 51.124 144.751 50.962 144.211 50.962C143.695 50.962 143.311 51.13 143.059 51.466C142.807 51.79 142.669 52.204 142.645 52.708C142.633 52.864 142.627 53.092 142.627 53.392C142.627 53.68 142.633 53.902 142.645 54.058C142.669 54.526 142.807 54.916 143.059 55.228C143.323 55.528 143.707 55.678 144.211 55.678ZM155.692 58C153.148 58 151.876 56.806 151.876 54.418V51.088H150.454C150.334 51.088 150.226 51.046 150.13 50.962C150.046 50.866 150.004 50.758 150.004 50.638V49.09C150.004 48.958 150.046 48.85 150.13 48.766C150.226 48.682 150.334 48.64 150.454 48.64H151.876V45.67C151.876 45.538 151.918 45.43 152.002 45.346C152.098 45.262 152.206 45.22 152.326 45.22H154.54C154.672 45.22 154.78 45.262 154.864 45.346C154.948 45.43 154.99 45.538 154.99 45.67V48.64H157.24C157.372 48.64 157.48 48.682 157.564 48.766C157.66 48.85 157.708 48.958 157.708 49.09V50.638C157.708 50.77 157.66 50.878 157.564 50.962C157.48 51.046 157.372 51.088 157.24 51.088H154.99V54.148C154.99 54.568 155.068 54.886 155.224 55.102C155.38 55.318 155.632 55.426 155.98 55.426H157.402C157.534 55.426 157.642 55.474 157.726 55.57C157.81 55.654 157.852 55.762 157.852 55.894V57.55C157.852 57.67 157.81 57.778 157.726 57.874C157.642 57.958 157.534 58 157.402 58H155.692ZM162.741 58.18C161.685 58.18 160.833 57.826 160.185 57.118C159.537 56.41 159.213 55.408 159.213 54.112V49.09C159.213 48.958 159.255 48.85 159.339 48.766C159.435 48.682 159.543 48.64 159.663 48.64H162.057C162.189 48.64 162.297 48.682 162.381 48.766C162.477 48.85 162.525 48.958 162.525 49.09V54.004C162.525 55.12 163.023 55.678 164.019 55.678C164.499 55.678 164.871 55.534 165.135 55.246C165.411 54.946 165.549 54.532 165.549 54.004V49.09C165.549 48.958 165.591 48.85 165.675 48.766C165.771 48.682 165.885 48.64 166.017 48.64H168.393C168.525 48.64 168.633 48.682 168.717 48.766C168.801 48.85 168.843 48.958 168.843 49.09V57.55C168.843 57.67 168.801 57.778 168.717 57.874C168.633 57.958 168.525 58 168.393 58H166.197C166.065 58 165.951 57.958 165.855 57.874C165.771 57.79 165.729 57.682 165.729 57.55V56.866C165.105 57.742 164.109 58.18 162.741 58.18ZM171.337 58C171.217 58 171.109 57.958 171.013 57.874C170.929 57.778 170.887 57.67 170.887 57.55V49.108C170.887 48.976 170.929 48.868 171.013 48.784C171.097 48.688 171.205 48.64 171.337 48.64H173.533C173.665 48.64 173.773 48.688 173.857 48.784C173.953 48.868 174.001 48.976 174.001 49.108V49.792C174.337 49.42 174.727 49.138 175.171 48.946C175.627 48.742 176.131 48.64 176.683 48.64H177.493C177.625 48.64 177.733 48.682 177.817 48.766C177.901 48.85 177.943 48.958 177.943 49.09V51.052C177.943 51.172 177.901 51.28 177.817 51.376C177.733 51.46 177.625 51.502 177.493 51.502H175.675C175.195 51.502 174.823 51.634 174.559 51.898C174.307 52.162 174.181 52.534 174.181 53.014V57.55C174.181 57.682 174.133 57.79 174.037 57.874C173.953 57.958 173.845 58 173.713 58H171.337ZM183.506 58.18C182.042 58.18 180.89 57.79 180.05 57.01C179.21 56.218 178.778 55.072 178.754 53.572V53.014C178.802 51.586 179.246 50.47 180.086 49.666C180.926 48.862 182.06 48.46 183.488 48.46C184.52 48.46 185.39 48.67 186.098 49.09C186.818 49.498 187.352 50.068 187.7 50.8C188.06 51.52 188.24 52.342 188.24 53.266V53.716C188.24 53.848 188.192 53.962 188.096 54.058C188.012 54.142 187.904 54.184 187.772 54.184H182.066V54.292C182.078 54.832 182.204 55.27 182.444 55.606C182.684 55.93 183.026 56.092 183.47 56.092C183.758 56.092 183.986 56.038 184.154 55.93C184.334 55.81 184.502 55.66 184.658 55.48C184.766 55.36 184.85 55.288 184.91 55.264C184.982 55.228 185.09 55.21 185.234 55.21H187.592C187.7 55.21 187.79 55.246 187.862 55.318C187.946 55.378 187.988 55.456 187.988 55.552C187.988 55.864 187.808 56.23 187.448 56.65C187.1 57.07 186.584 57.43 185.9 57.73C185.228 58.03 184.43 58.18 183.506 58.18ZM184.928 52.348V52.312C184.928 51.736 184.802 51.292 184.55 50.98C184.298 50.656 183.944 50.494 183.488 50.494C183.032 50.494 182.678 50.656 182.426 50.98C182.186 51.292 182.066 51.736 182.066 52.312V52.348H184.928ZM194.281 58C194.161 58 194.053 57.958 193.957 57.874C193.873 57.778 193.831 57.67 193.831 57.55V45.868C193.831 45.736 193.873 45.628 193.957 45.544C194.041 45.448 194.149 45.4 194.281 45.4H199.015C200.791 45.4 202.171 45.826 203.155 46.678C204.139 47.518 204.655 48.73 204.703 50.314C204.715 50.662 204.721 51.124 204.721 51.7C204.721 52.276 204.715 52.732 204.703 53.068C204.583 56.356 202.717 58 199.105 58H194.281ZM199.015 55.3C199.771 55.3 200.329 55.12 200.689 54.76C201.049 54.4 201.241 53.824 201.265 53.032C201.289 52.684 201.301 52.234 201.301 51.682C201.301 51.13 201.289 50.686 201.265 50.35C201.241 49.582 201.031 49.018 200.635 48.658C200.251 48.286 199.681 48.1 198.925 48.1H197.215V55.3H199.015ZM209.397 58.18C208.761 58.18 208.179 58.06 207.651 57.82C207.135 57.568 206.727 57.226 206.427 56.794C206.139 56.362 205.995 55.888 205.995 55.372C205.995 54.556 206.331 53.896 207.003 53.392C207.687 52.876 208.623 52.522 209.811 52.33L212.043 51.988V51.772C212.043 51.328 211.953 51.004 211.773 50.8C211.593 50.596 211.287 50.494 210.855 50.494C210.615 50.494 210.411 50.536 210.243 50.62C210.087 50.704 209.907 50.83 209.703 50.998C209.547 51.13 209.409 51.226 209.289 51.286C209.241 51.37 209.181 51.412 209.109 51.412H207.021C206.901 51.412 206.799 51.376 206.715 51.304C206.643 51.22 206.613 51.124 206.625 51.016C206.637 50.692 206.799 50.332 207.111 49.936C207.423 49.528 207.897 49.18 208.533 48.892C209.169 48.604 209.955 48.46 210.891 48.46C212.379 48.46 213.483 48.79 214.203 49.45C214.923 50.098 215.283 50.98 215.283 52.096V57.55C215.283 57.67 215.241 57.778 215.157 57.874C215.073 57.958 214.965 58 214.833 58H212.619C212.499 58 212.391 57.958 212.295 57.874C212.211 57.778 212.169 57.67 212.169 57.55V56.92C211.905 57.292 211.539 57.598 211.071 57.838C210.603 58.066 210.045 58.18 209.397 58.18ZM210.297 56.056C210.825 56.056 211.251 55.882 211.575 55.534C211.911 55.186 212.079 54.682 212.079 54.022V53.806L210.585 54.058C209.577 54.25 209.073 54.61 209.073 55.138C209.073 55.414 209.187 55.636 209.415 55.804C209.655 55.972 209.949 56.056 210.297 56.056ZM222.085 58C219.541 58 218.269 56.806 218.269 54.418V51.088H216.847C216.727 51.088 216.619 51.046 216.523 50.962C216.439 50.866 216.397 50.758 216.397 50.638V49.09C216.397 48.958 216.439 48.85 216.523 48.766C216.619 48.682 216.727 48.64 216.847 48.64H218.269V45.67C218.269 45.538 218.311 45.43 218.395 45.346C218.491 45.262 218.599 45.22 218.719 45.22H220.933C221.065 45.22 221.173 45.262 221.257 45.346C221.341 45.43 221.383 45.538 221.383 45.67V48.64H223.633C223.765 48.64 223.873 48.682 223.957 48.766C224.053 48.85 224.101 48.958 224.101 49.09V50.638C224.101 50.77 224.053 50.878 223.957 50.962C223.873 51.046 223.765 51.088 223.633 51.088H221.383V54.148C221.383 54.568 221.461 54.886 221.617 55.102C221.773 55.318 222.025 55.426 222.373 55.426H223.795C223.927 55.426 224.035 55.474 224.119 55.57C224.203 55.654 224.245 55.762 224.245 55.894V57.55C224.245 57.67 224.203 57.778 224.119 57.874C224.035 57.958 223.927 58 223.795 58H222.085ZM228.522 58.18C227.886 58.18 227.304 58.06 226.776 57.82C226.26 57.568 225.852 57.226 225.552 56.794C225.264 56.362 225.12 55.888 225.12 55.372C225.12 54.556 225.456 53.896 226.128 53.392C226.812 52.876 227.748 52.522 228.936 52.33L231.168 51.988V51.772C231.168 51.328 231.078 51.004 230.898 50.8C230.718 50.596 230.412 50.494 229.98 50.494C229.74 50.494 229.536 50.536 229.368 50.62C229.212 50.704 229.032 50.83 228.828 50.998C228.672 51.13 228.534 51.226 228.414 51.286C228.366 51.37 228.306 51.412 228.234 51.412H226.146C226.026 51.412 225.924 51.376 225.84 51.304C225.768 51.22 225.738 51.124 225.75 51.016C225.762 50.692 225.924 50.332 226.236 49.936C226.548 49.528 227.022 49.18 227.658 48.892C228.294 48.604 229.08 48.46 230.016 48.46C231.504 48.46 232.608 48.79 233.328 49.45C234.048 50.098 234.408 50.98 234.408 52.096V57.55C234.408 57.67 234.366 57.778 234.282 57.874C234.198 57.958 234.09 58 233.958 58H231.744C231.624 58 231.516 57.958 231.42 57.874C231.336 57.778 231.294 57.67 231.294 57.55V56.92C231.03 57.292 230.664 57.598 230.196 57.838C229.728 58.066 229.17 58.18 228.522 58.18ZM229.422 56.056C229.95 56.056 230.376 55.882 230.7 55.534C231.036 55.186 231.204 54.682 231.204 54.022V53.806L229.71 54.058C228.702 54.25 228.198 54.61 228.198 55.138C228.198 55.414 228.312 55.636 228.54 55.804C228.78 55.972 229.074 56.056 229.422 56.056Z" fill="#303037"/>
<path d="M116.477 85H120.383C122.664 85 124.102 83.8828 124.102 82.0078C124.102 80.5078 123.195 79.5625 121.781 79.375V79.3125C122.867 78.9844 123.5 78.1797 123.5 76.9609C123.5 75.3438 122.344 74.3359 120.523 74.3359H116.477V85ZM117.906 75.5859H120.273C121.398 75.5859 122.055 76.1875 122.055 77.2109C122.055 78.3672 121.273 78.9062 119.516 78.9062H117.906V75.5859ZM117.906 80.1172H120.422C121.828 80.1172 122.633 80.8125 122.633 82C122.633 83.2266 121.797 83.75 119.734 83.75H117.906V80.1172ZM126.586 85H128V76.7812H126.586V85ZM126.289 74.25C126.289 74.8125 126.719 75.2266 127.281 75.2266C127.875 75.2266 128.305 74.8125 128.305 74.25C128.305 73.6797 127.875 73.2656 127.281 73.2656C126.719 73.2656 126.289 73.6797 126.289 74.25ZM133.953 86.8125C132.875 86.8125 132.211 86.3281 132.102 85.75H130.664C130.773 86.9453 131.805 88.0078 133.906 88.0078C136.008 88.0078 137.523 87.0234 137.523 84.7578V76.7812H136.172V78.0156H136.102C135.828 77.3438 134.953 76.6562 133.719 76.6562C131.898 76.6562 130.484 77.9609 130.484 80.1328V81.3906C130.484 83.5625 131.906 84.8516 133.727 84.8516C134.867 84.8516 135.711 84.2734 136.031 83.5625H136.109V84.75C136.109 86.0391 135.398 86.8125 133.953 86.8125ZM134.07 77.8828C135.359 77.8828 136.109 78.9688 136.109 80.1719V81.3984C136.109 82.5703 135.398 83.6484 134.086 83.6484C132.812 83.6484 131.906 82.6484 131.906 81.1562V80.3906C131.906 78.8906 132.734 77.8828 134.07 77.8828ZM143.883 74.3359V85H147.352C150.461 85 152.047 83.1406 152.047 79.6641C152.047 76.1875 150.461 74.3359 147.352 74.3359H143.883ZM145.32 75.6172H147.25C149.469 75.6172 150.555 76.9688 150.555 79.6719C150.555 82.375 149.477 83.7109 147.25 83.7109H145.32V75.6172ZM156.547 85.1328C157.758 85.1328 158.5 84.5703 158.898 83.9141H158.961V85H160.32V79.3906C160.32 77.375 158.922 76.6484 157.227 76.6484C155.391 76.6484 154.297 77.4375 154.172 78.8281H155.539C155.703 78.2578 156.141 77.8594 157.18 77.8594C158.234 77.8594 158.898 78.3359 158.898 79.3828V80.1953H156.75C154.859 80.1953 153.859 81.1719 153.859 82.6094C153.859 84.1328 154.953 85.1328 156.547 85.1328ZM156.938 83.9375C156.086 83.9375 155.305 83.5 155.305 82.5625C155.305 81.8281 155.758 81.2734 156.867 81.2734H158.898V82.1953C158.898 83.1875 158.047 83.9375 156.938 83.9375ZM163.523 76.8047H162.258V77.9688H163.516V82.6953C163.516 84.3203 163.938 85.0703 165.891 85.0703C166.203 85.0703 166.781 85.0234 166.898 85V83.8516C166.766 83.8672 166.453 83.8828 166.25 83.8828C165.25 83.8828 164.922 83.6328 164.922 82.6719V77.9688H166.781V76.8047H164.922V74.7422H163.523V76.8047ZM171.312 85.1328C172.523 85.1328 173.266 84.5703 173.664 83.9141H173.727V85H175.086V79.3906C175.086 77.375 173.688 76.6484 171.992 76.6484C170.156 76.6484 169.062 77.4375 168.938 78.8281H170.305C170.469 78.2578 170.906 77.8594 171.945 77.8594C173 77.8594 173.664 78.3359 173.664 79.3828V80.1953H171.516C169.625 80.1953 168.625 81.1719 168.625 82.6094C168.625 84.1328 169.719 85.1328 171.312 85.1328ZM171.703 83.9375C170.852 83.9375 170.07 83.5 170.07 82.5625C170.07 81.8281 170.523 81.2734 171.633 81.2734H173.664V82.1953C173.664 83.1875 172.812 83.9375 171.703 83.9375ZM182.562 78.9531C182.562 76.7266 183.602 75.4141 185.359 75.4141C186.711 75.4141 187.703 76.2812 187.844 77.4844H189.266V77.4297C189.117 75.5 187.5 74.1172 185.352 74.1172C182.688 74.1172 181.117 75.9219 181.117 78.9297V80.4609C181.117 83.4766 182.648 85.2188 185.352 85.2188C187.484 85.2188 189.109 83.8984 189.266 82.0625V82.0156H187.844C187.703 83.1484 186.734 83.9219 185.359 83.9219C183.578 83.9219 182.562 82.6641 182.562 80.4531V78.9531ZM194.812 76.6406C192.758 76.6406 191.258 78.0625 191.258 80.2812V81.4844C191.258 83.8281 192.734 85.1328 194.812 85.1328C196.852 85.1328 198.359 83.8125 198.359 81.4844V80.2812C198.359 77.9844 196.852 76.6406 194.812 76.6406ZM194.82 77.8594C196.141 77.8594 196.938 78.9062 196.938 80.3984V81.3828C196.938 82.8984 196.18 83.9219 194.82 83.9219C193.445 83.9219 192.672 82.8984 192.672 81.3828V80.3984C192.672 78.9141 193.5 77.8594 194.82 77.8594ZM200.781 85H202.195V73.7734H200.781V85ZM205.078 85H206.492V73.7734H205.078V85ZM212.445 85.1328C214.523 85.1328 215.516 83.8438 215.641 82.9531H214.188C214.047 83.4609 213.398 83.9219 212.438 83.9219C211.07 83.9219 210.336 82.9453 210.336 81.6719V81.2578H215.75V80.2734C215.75 78.0547 214.328 76.6406 212.336 76.6406C210.367 76.6406 208.93 78.0234 208.93 80.2734V81.5078C208.93 83.7344 210.234 85.1328 212.445 85.1328ZM210.336 80.2344V80.1016C210.336 78.7422 211.141 77.8516 212.344 77.8516C213.547 77.8516 214.344 78.7422 214.344 80.1016V80.2344H210.336ZM217.695 81.5391C217.695 83.75 219.008 85.1328 221.125 85.1328C223.297 85.1328 224.289 83.9297 224.336 82.7031H222.961C222.812 83.3359 222.359 83.8828 221.148 83.8828C219.883 83.8828 219.109 82.9766 219.109 81.5469V80.2578C219.109 78.8203 219.805 77.8984 221.148 77.8984C222.43 77.8984 222.812 78.6797 222.898 79.1719H224.281C224.242 77.9141 223.18 76.6406 221.125 76.6406C219.016 76.6406 217.695 78.0469 217.695 80.2031V81.5391ZM227.008 76.8047H225.742V77.9688H227V82.6953C227 84.3203 227.422 85.0703 229.375 85.0703C229.688 85.0703 230.266 85.0234 230.383 85V83.8516C230.25 83.8672 229.938 83.8828 229.734 83.8828C228.734 83.8828 228.406 83.6328 228.406 82.6719V77.9688H230.266V76.8047H228.406V74.7422H227.008V76.8047ZM232.773 85H234.188V76.7812H232.773V85ZM232.477 74.25C232.477 74.8125 232.906 75.2266 233.469 75.2266C234.062 75.2266 234.492 74.8125 234.492 74.25C234.492 73.6797 234.062 73.2656 233.469 73.2656C232.906 73.2656 232.477 73.6797 232.477 74.25ZM240.328 76.6406C238.273 76.6406 236.773 78.0625 236.773 80.2812V81.4844C236.773 83.8281 238.25 85.1328 240.328 85.1328C242.367 85.1328 243.875 83.8125 243.875 81.4844V80.2812C243.875 77.9844 242.367 76.6406 240.328 76.6406ZM240.336 77.8594C241.656 77.8594 242.453 78.9062 242.453 80.3984V81.3828C242.453 82.8984 241.695 83.9219 240.336 83.9219C238.961 83.9219 238.188 82.8984 238.188 81.3828V80.3984C238.188 78.9141 239.016 77.8594 240.336 77.8594ZM246.25 85H247.664V80.4219C247.664 79.0078 248.367 77.8984 249.812 77.8984C250.93 77.8984 251.594 78.5547 251.594 79.8438V85H253.008V79.3906C253.008 77.5469 251.875 76.6484 250.219 76.6484C248.5 76.6484 247.93 77.625 247.727 78.2734H247.648V76.7812H246.25V85Z" fill="#A7A9C0"/>
<circle cx="75" cy="65" r="24" fill="#2C4EA2"/>
<path d="M76.0009 72C75.8676 72 75.7476 71.9533 75.6409 71.86C75.5476 71.7533 75.5009 71.6333 75.5009 71.5V62.14L72.8209 64.2C72.7143 64.2667 72.6143 64.3 72.5209 64.3C72.3609 64.3 72.2209 64.22 72.1009 64.06L70.8609 62.46C70.8076 62.3667 70.7809 62.2667 70.7809 62.16C70.7809 61.9733 70.8543 61.8267 71.0009 61.72L75.6409 58.14C75.7743 58.0467 75.9276 58 76.1009 58H78.7409C78.8876 58 79.0076 58.0467 79.1009 58.14C79.2076 58.2333 79.2609 58.3533 79.2609 58.5V71.5C79.2609 71.6467 79.2076 71.7667 79.1009 71.86C79.0076 71.9533 78.8876 72 78.7409 72H76.0009Z" fill="white"/>
<g filter="url(#filter1_d)">
<rect x="35" y="176" width="236" height="80" rx="8" fill="white"/>
</g>
<path d="M116.674 209C116.554 209 116.446 208.958 116.35 208.874C116.266 208.778 116.224 208.67 116.224 208.55V196.868C116.224 196.736 116.266 196.628 116.35 196.544C116.434 196.448 116.542 196.4 116.674 196.4H122.236C123.76 196.4 124.894 196.712 125.638 197.336C126.382 197.96 126.754 198.848 126.754 200C126.754 200.576 126.598 201.074 126.286 201.494C125.986 201.914 125.65 202.22 125.278 202.412C125.77 202.628 126.184 202.988 126.52 203.492C126.856 203.984 127.024 204.542 127.024 205.166C127.024 206.378 126.622 207.32 125.818 207.992C125.026 208.664 123.886 209 122.398 209H116.674ZM121.858 201.386C122.302 201.386 122.644 201.266 122.884 201.026C123.124 200.786 123.244 200.474 123.244 200.09C123.244 199.718 123.124 199.418 122.884 199.19C122.656 198.95 122.314 198.83 121.858 198.83H119.608V201.386H121.858ZM122.02 206.57C122.488 206.57 122.848 206.438 123.1 206.174C123.364 205.898 123.496 205.562 123.496 205.166C123.496 204.758 123.364 204.422 123.1 204.158C122.836 203.882 122.476 203.744 122.02 203.744H119.608V206.57H122.02ZM132.191 209.18C131.135 209.18 130.283 208.826 129.635 208.118C128.987 207.41 128.663 206.408 128.663 205.112V200.09C128.663 199.958 128.705 199.85 128.789 199.766C128.885 199.682 128.993 199.64 129.113 199.64H131.507C131.639 199.64 131.747 199.682 131.831 199.766C131.927 199.85 131.975 199.958 131.975 200.09V205.004C131.975 206.12 132.473 206.678 133.469 206.678C133.949 206.678 134.321 206.534 134.585 206.246C134.861 205.946 134.999 205.532 134.999 205.004V200.09C134.999 199.958 135.041 199.85 135.125 199.766C135.221 199.682 135.335 199.64 135.467 199.64H137.843C137.975 199.64 138.083 199.682 138.167 199.766C138.251 199.85 138.293 199.958 138.293 200.09V208.55C138.293 208.67 138.251 208.778 138.167 208.874C138.083 208.958 137.975 209 137.843 209H135.647C135.515 209 135.401 208.958 135.305 208.874C135.221 208.79 135.179 208.682 135.179 208.55V207.866C134.555 208.742 133.559 209.18 132.191 209.18ZM140.787 198.344C140.655 198.344 140.547 198.302 140.463 198.218C140.379 198.122 140.337 198.008 140.337 197.876V196.202C140.337 196.07 140.379 195.962 140.463 195.878C140.559 195.782 140.667 195.734 140.787 195.734H143.037C143.169 195.734 143.277 195.782 143.361 195.878C143.457 195.962 143.505 196.07 143.505 196.202V197.876C143.505 198.008 143.457 198.122 143.361 198.218C143.277 198.302 143.169 198.344 143.037 198.344H140.787ZM140.787 209C140.667 209 140.559 208.958 140.463 208.874C140.379 208.778 140.337 208.67 140.337 208.55V200.09C140.337 199.958 140.379 199.85 140.463 199.766C140.559 199.682 140.667 199.64 140.787 199.64H143.037C143.169 199.64 143.277 199.682 143.361 199.766C143.457 199.85 143.505 199.958 143.505 200.09V208.55C143.505 208.682 143.457 208.79 143.361 208.874C143.277 208.958 143.169 209 143.037 209H140.787ZM146.025 209C145.893 209 145.779 208.958 145.683 208.874C145.599 208.79 145.557 208.682 145.557 208.55V196.67C145.557 196.538 145.599 196.43 145.683 196.346C145.779 196.262 145.893 196.22 146.025 196.22H148.275C148.407 196.22 148.515 196.262 148.599 196.346C148.683 196.43 148.725 196.538 148.725 196.67V208.55C148.725 208.67 148.683 208.778 148.599 208.874C148.515 208.958 148.407 209 148.275 209H146.025ZM154.288 209.18C153.124 209.18 152.206 208.814 151.534 208.082C150.874 207.35 150.52 206.306 150.472 204.95L150.454 204.32L150.472 203.672C150.52 202.364 150.88 201.338 151.552 200.594C152.224 199.838 153.136 199.46 154.288 199.46C155.368 199.46 156.238 199.808 156.898 200.504V196.67C156.898 196.538 156.94 196.43 157.024 196.346C157.12 196.262 157.228 196.22 157.348 196.22H159.67C159.802 196.22 159.91 196.262 159.994 196.346C160.09 196.43 160.138 196.538 160.138 196.67V208.55C160.138 208.682 160.09 208.79 159.994 208.874C159.91 208.958 159.802 209 159.67 209H157.528C157.408 209 157.3 208.958 157.204 208.874C157.12 208.778 157.078 208.67 157.078 208.55V207.992C156.43 208.784 155.5 209.18 154.288 209.18ZM155.332 206.678C155.848 206.678 156.232 206.516 156.484 206.192C156.736 205.856 156.874 205.436 156.898 204.932C156.922 204.596 156.934 204.368 156.934 204.248C156.934 204.116 156.922 203.894 156.898 203.582C156.874 203.114 156.73 202.73 156.466 202.43C156.214 202.118 155.836 201.962 155.332 201.962C154.792 201.962 154.402 202.124 154.162 202.448C153.934 202.76 153.802 203.198 153.766 203.762L153.748 204.32L153.766 204.878C153.802 205.442 153.934 205.886 154.162 206.21C154.402 206.522 154.792 206.678 155.332 206.678ZM166.631 209C166.499 209 166.385 208.958 166.289 208.874C166.205 208.79 166.163 208.682 166.163 208.55V196.868C166.163 196.736 166.205 196.628 166.289 196.544C166.385 196.448 166.499 196.4 166.631 196.4H168.665C168.965 196.4 169.181 196.532 169.313 196.796L172.409 202.34L175.523 196.796C175.655 196.532 175.871 196.4 176.171 196.4H178.205C178.337 196.4 178.445 196.448 178.529 196.544C178.625 196.628 178.673 196.736 178.673 196.868V208.55C178.673 208.682 178.625 208.79 178.529 208.874C178.445 208.958 178.337 209 178.205 209H175.919C175.799 209 175.691 208.958 175.595 208.874C175.511 208.778 175.469 208.67 175.469 208.55V201.998L173.525 205.562C173.369 205.838 173.159 205.976 172.895 205.976H171.923C171.683 205.976 171.473 205.838 171.293 205.562L169.367 201.998V208.55C169.367 208.682 169.319 208.79 169.223 208.874C169.139 208.958 169.031 209 168.899 209H166.631ZM185.424 209.18C183.912 209.18 182.748 208.832 181.932 208.136C181.128 207.428 180.69 206.426 180.618 205.13C180.606 204.974 180.6 204.704 180.6 204.32C180.6 203.936 180.606 203.666 180.618 203.51C180.69 202.238 181.14 201.248 181.968 200.54C182.808 199.82 183.96 199.46 185.424 199.46C186.888 199.46 188.034 199.82 188.862 200.54C189.702 201.248 190.158 202.238 190.23 203.51C190.254 203.822 190.266 204.092 190.266 204.32C190.266 204.548 190.254 204.818 190.23 205.13C190.158 206.426 189.714 207.428 188.898 208.136C188.094 208.832 186.936 209.18 185.424 209.18ZM185.424 206.912C185.916 206.912 186.282 206.762 186.522 206.462C186.762 206.15 186.9 205.676 186.936 205.04C186.948 204.92 186.954 204.68 186.954 204.32C186.954 203.96 186.948 203.72 186.936 203.6C186.9 202.976 186.762 202.508 186.522 202.196C186.282 201.884 185.916 201.728 185.424 201.728C184.932 201.728 184.566 201.884 184.326 202.196C184.086 202.508 183.948 202.976 183.912 203.6L183.894 204.32L183.912 205.04C183.948 205.676 184.086 206.15 184.326 206.462C184.566 206.762 184.932 206.912 185.424 206.912ZM195.491 209.18C194.327 209.18 193.409 208.814 192.737 208.082C192.077 207.35 191.723 206.306 191.675 204.95L191.657 204.32L191.675 203.672C191.723 202.364 192.083 201.338 192.755 200.594C193.427 199.838 194.339 199.46 195.491 199.46C196.571 199.46 197.441 199.808 198.101 200.504V196.67C198.101 196.538 198.143 196.43 198.227 196.346C198.323 196.262 198.431 196.22 198.551 196.22H200.873C201.005 196.22 201.113 196.262 201.197 196.346C201.293 196.43 201.341 196.538 201.341 196.67V208.55C201.341 208.682 201.293 208.79 201.197 208.874C201.113 208.958 201.005 209 200.873 209H198.731C198.611 209 198.503 208.958 198.407 208.874C198.323 208.778 198.281 208.67 198.281 208.55V207.992C197.633 208.784 196.703 209.18 195.491 209.18ZM196.535 206.678C197.051 206.678 197.435 206.516 197.687 206.192C197.939 205.856 198.077 205.436 198.101 204.932C198.125 204.596 198.137 204.368 198.137 204.248C198.137 204.116 198.125 203.894 198.101 203.582C198.077 203.114 197.933 202.73 197.669 202.43C197.417 202.118 197.039 201.962 196.535 201.962C195.995 201.962 195.605 202.124 195.365 202.448C195.137 202.76 195.005 203.198 194.969 203.762L194.951 204.32L194.969 204.878C195.005 205.442 195.137 205.886 195.365 206.21C195.605 206.522 195.995 206.678 196.535 206.678ZM207.781 209.18C206.317 209.18 205.165 208.79 204.325 208.01C203.485 207.218 203.053 206.072 203.029 204.572V204.014C203.077 202.586 203.521 201.47 204.361 200.666C205.201 199.862 206.335 199.46 207.763 199.46C208.795 199.46 209.665 199.67 210.373 200.09C211.093 200.498 211.627 201.068 211.975 201.8C212.335 202.52 212.515 203.342 212.515 204.266V204.716C212.515 204.848 212.467 204.962 212.371 205.058C212.287 205.142 212.179 205.184 212.047 205.184H206.341V205.292C206.353 205.832 206.479 206.27 206.719 206.606C206.959 206.93 207.301 207.092 207.745 207.092C208.033 207.092 208.261 207.038 208.429 206.93C208.609 206.81 208.777 206.66 208.933 206.48C209.041 206.36 209.125 206.288 209.185 206.264C209.257 206.228 209.365 206.21 209.509 206.21H211.867C211.975 206.21 212.065 206.246 212.137 206.318C212.221 206.378 212.263 206.456 212.263 206.552C212.263 206.864 212.083 207.23 211.723 207.65C211.375 208.07 210.859 208.43 210.175 208.73C209.503 209.03 208.705 209.18 207.781 209.18ZM209.203 203.348V203.312C209.203 202.736 209.077 202.292 208.825 201.98C208.573 201.656 208.219 201.494 207.763 201.494C207.307 201.494 206.953 201.656 206.701 201.98C206.461 202.292 206.341 202.736 206.341 203.312V203.348H209.203ZM214.598 209C214.466 209 214.352 208.958 214.256 208.874C214.172 208.79 214.13 208.682 214.13 208.55V196.67C214.13 196.538 214.172 196.43 214.256 196.346C214.352 196.262 214.466 196.22 214.598 196.22H216.848C216.98 196.22 217.088 196.262 217.172 196.346C217.256 196.43 217.298 196.538 217.298 196.67V208.55C217.298 208.67 217.256 208.778 217.172 208.874C217.088 208.958 216.98 209 216.848 209H214.598Z" fill="#303037"/>
<path d="M117.812 236V228.273H117.883L120.828 235.047H122L124.938 228.273H125.016V236H126.32V225.336H124.914L121.445 233.461H121.398L117.922 225.336H116.508V236H117.812ZM131.453 236.133C132.664 236.133 133.406 235.57 133.805 234.914H133.867V236H135.227V230.391C135.227 228.375 133.828 227.648 132.133 227.648C130.297 227.648 129.203 228.438 129.078 229.828H130.445C130.609 229.258 131.047 228.859 132.086 228.859C133.141 228.859 133.805 229.336 133.805 230.383V231.195H131.656C129.766 231.195 128.766 232.172 128.766 233.609C128.766 235.133 129.859 236.133 131.453 236.133ZM131.844 234.938C130.992 234.938 130.211 234.5 130.211 233.562C130.211 232.828 130.664 232.273 131.773 232.273H133.805V233.195C133.805 234.188 132.953 234.938 131.844 234.938ZM137.57 232.539C137.57 234.75 138.883 236.133 141 236.133C143.172 236.133 144.164 234.93 144.211 233.703H142.836C142.688 234.336 142.234 234.883 141.023 234.883C139.758 234.883 138.984 233.977 138.984 232.547V231.258C138.984 229.82 139.68 228.898 141.023 228.898C142.305 228.898 142.688 229.68 142.773 230.172H144.156C144.117 228.914 143.055 227.641 141 227.641C138.891 227.641 137.57 229.047 137.57 231.203V232.539ZM146.477 236H147.891V231.422C147.891 230 148.625 228.898 150.031 228.898C151.141 228.898 151.852 229.57 151.852 230.859V236H153.266V230.406C153.266 228.562 152.094 227.648 150.508 227.648C148.797 227.648 148.125 228.703 147.961 229.273H147.891V224.773H146.477V236ZM156.195 236H157.609V227.781H156.195V236ZM155.898 225.25C155.898 225.812 156.328 226.227 156.891 226.227C157.484 226.227 157.914 225.812 157.914 225.25C157.914 224.68 157.484 224.266 156.891 224.266C156.328 224.266 155.898 224.68 155.898 225.25ZM160.594 236H162.008V231.422C162.008 230.008 162.711 228.898 164.156 228.898C165.273 228.898 165.938 229.555 165.938 230.844V236H167.352V230.391C167.352 228.547 166.219 227.648 164.562 227.648C162.844 227.648 162.273 228.625 162.07 229.273H161.992V227.781H160.594V236ZM173.211 236.133C175.289 236.133 176.281 234.844 176.406 233.953H174.953C174.812 234.461 174.164 234.922 173.203 234.922C171.836 234.922 171.102 233.945 171.102 232.672V232.258H176.516V231.273C176.516 229.055 175.094 227.641 173.102 227.641C171.133 227.641 169.695 229.023 169.695 231.273V232.508C169.695 234.734 171 236.133 173.211 236.133ZM171.102 231.234V231.102C171.102 229.742 171.906 228.852 173.109 228.852C174.312 228.852 175.109 229.742 175.109 231.102V231.234H171.102ZM188.883 234.695H184.008V225.336H182.57V236H188.883V234.695ZM193.773 236.133C195.852 236.133 196.844 234.844 196.969 233.953H195.516C195.375 234.461 194.727 234.922 193.766 234.922C192.398 234.922 191.664 233.945 191.664 232.672V232.258H197.078V231.273C197.078 229.055 195.656 227.641 193.664 227.641C191.695 227.641 190.258 229.023 190.258 231.273V232.508C190.258 234.734 191.562 236.133 193.773 236.133ZM191.664 231.234V231.102C191.664 229.742 192.469 228.852 193.672 228.852C194.875 228.852 195.672 229.742 195.672 231.102V231.234H191.664ZM201.641 236.133C202.852 236.133 203.594 235.57 203.992 234.914H204.055V236H205.414V230.391C205.414 228.375 204.016 227.648 202.32 227.648C200.484 227.648 199.391 228.438 199.266 229.828H200.633C200.797 229.258 201.234 228.859 202.273 228.859C203.328 228.859 203.992 229.336 203.992 230.383V231.195H201.844C199.953 231.195 198.953 232.172 198.953 233.609C198.953 235.133 200.047 236.133 201.641 236.133ZM202.031 234.938C201.18 234.938 200.398 234.5 200.398 233.562C200.398 232.828 200.852 232.273 201.961 232.273H203.992V233.195C203.992 234.188 203.141 234.938 202.031 234.938ZM208.281 236H209.703V230.93C209.703 229.82 210.422 228.953 211.867 228.953C212.117 228.953 212.398 228.969 212.531 229V227.695C212.367 227.672 212.195 227.656 212.016 227.656C210.562 227.656 209.969 228.5 209.766 229.047H209.695V227.781H208.281V236ZM214.422 236H215.836V231.422C215.836 230.008 216.539 228.898 217.984 228.898C219.102 228.898 219.766 229.555 219.766 230.844V236H221.18V230.391C221.18 228.547 220.047 227.648 218.391 227.648C216.672 227.648 216.102 228.625 215.898 229.273H215.82V227.781H214.422V236ZM224.117 236H225.531V227.781H224.117V236ZM223.82 225.25C223.82 225.812 224.25 226.227 224.812 226.227C225.406 226.227 225.836 225.812 225.836 225.25C225.836 224.68 225.406 224.266 224.812 224.266C224.25 224.266 223.82 224.68 223.82 225.25ZM228.516 236H229.93V231.422C229.93 230.008 230.633 228.898 232.078 228.898C233.195 228.898 233.859 229.555 233.859 230.844V236H235.273V230.391C235.273 228.547 234.141 227.648 232.484 227.648C230.766 227.648 230.195 228.625 229.992 229.273H229.914V227.781H228.516V236ZM240.984 237.812C239.906 237.812 239.242 237.328 239.133 236.75H237.695C237.805 237.945 238.836 239.008 240.938 239.008C243.039 239.008 244.555 238.023 244.555 235.758V227.781H243.203V229.016H243.133C242.859 228.344 241.984 227.656 240.75 227.656C238.93 227.656 237.516 228.961 237.516 231.133V232.391C237.516 234.562 238.938 235.852 240.758 235.852C241.898 235.852 242.742 235.273 243.062 234.562H243.141V235.75C243.141 237.039 242.43 237.812 240.984 237.812ZM241.102 228.883C242.391 228.883 243.141 229.969 243.141 231.172V232.398C243.141 233.57 242.43 234.648 241.117 234.648C239.844 234.648 238.938 233.648 238.938 232.156V231.391C238.938 229.891 239.766 228.883 241.102 228.883Z" fill="#A7A9C0"/>
<circle cx="75" cy="216" r="24" fill="#2C4EA2"/>
<path d="M69.7575 223C69.6242 223 69.5042 222.953 69.3975 222.86C69.3042 222.753 69.2575 222.633 69.2575 222.5V221C69.2575 220.6 69.4242 220.267 69.7575 220L71.6175 218.18C72.8842 217.22 73.8375 216.473 74.4775 215.94C75.1308 215.407 75.6242 214.927 75.9575 214.5C76.3042 214.06 76.4775 213.647 76.4775 213.26C76.4775 212.273 75.9842 211.78 74.9975 211.78C74.4775 211.78 74.0775 211.94 73.7975 212.26C73.5175 212.567 73.3308 212.953 73.2375 213.42C73.1575 213.727 72.9308 213.88 72.5575 213.88H69.9175C69.7975 213.88 69.6908 213.84 69.5975 213.76C69.5175 213.667 69.4775 213.567 69.4775 213.46C69.5042 212.58 69.7442 211.787 70.1975 211.08C70.6642 210.36 71.3108 209.793 72.1375 209.38C72.9642 208.953 73.9175 208.74 74.9975 208.74C76.1175 208.74 77.0842 208.92 77.8975 209.28C78.7108 209.64 79.3242 210.147 79.7375 210.8C80.1642 211.453 80.3775 212.213 80.3775 213.08C80.3775 214.04 80.0775 214.907 79.4775 215.68C78.8908 216.453 77.9908 217.293 76.7775 218.2L75.1175 219.86H80.1775C80.3242 219.86 80.4442 219.907 80.5375 220C80.6308 220.093 80.6775 220.213 80.6775 220.36V222.5C80.6775 222.633 80.6308 222.753 80.5375 222.86C80.4442 222.953 80.3242 223 80.1775 223H69.7575Z" fill="white"/>
<g filter="url(#filter2_d)">
<rect x="33" y="324" width="238" height="109" rx="8" fill="white"/>
</g>
<path d="M114.692 357C114.56 357 114.446 356.958 114.35 356.874C114.266 356.79 114.224 356.682 114.224 356.55V344.868C114.224 344.736 114.266 344.628 114.35 344.544C114.446 344.448 114.56 344.4 114.692 344.4H116.726C117.026 344.4 117.242 344.532 117.374 344.796L120.47 350.34L123.584 344.796C123.716 344.532 123.932 344.4 124.232 344.4H126.266C126.398 344.4 126.506 344.448 126.59 344.544C126.686 344.628 126.734 344.736 126.734 344.868V356.55C126.734 356.682 126.686 356.79 126.59 356.874C126.506 356.958 126.398 357 126.266 357H123.98C123.86 357 123.752 356.958 123.656 356.874C123.572 356.778 123.53 356.67 123.53 356.55V349.998L121.586 353.562C121.43 353.838 121.22 353.976 120.956 353.976H119.984C119.744 353.976 119.534 353.838 119.354 353.562L117.428 349.998V356.55C117.428 356.682 117.38 356.79 117.284 356.874C117.2 356.958 117.092 357 116.96 357H114.692ZM133.377 357.18C131.913 357.18 130.761 356.79 129.921 356.01C129.081 355.218 128.649 354.072 128.625 352.572V352.014C128.673 350.586 129.117 349.47 129.957 348.666C130.797 347.862 131.931 347.46 133.359 347.46C134.391 347.46 135.261 347.67 135.969 348.09C136.689 348.498 137.223 349.068 137.571 349.8C137.931 350.52 138.111 351.342 138.111 352.266V352.716C138.111 352.848 138.063 352.962 137.967 353.058C137.883 353.142 137.775 353.184 137.643 353.184H131.937V353.292C131.949 353.832 132.075 354.27 132.315 354.606C132.555 354.93 132.897 355.092 133.341 355.092C133.629 355.092 133.857 355.038 134.025 354.93C134.205 354.81 134.373 354.66 134.529 354.48C134.637 354.36 134.721 354.288 134.781 354.264C134.853 354.228 134.961 354.21 135.105 354.21H137.463C137.571 354.21 137.661 354.246 137.733 354.318C137.817 354.378 137.859 354.456 137.859 354.552C137.859 354.864 137.679 355.23 137.319 355.65C136.971 356.07 136.455 356.43 135.771 356.73C135.099 357.03 134.301 357.18 133.377 357.18ZM134.799 351.348V351.312C134.799 350.736 134.673 350.292 134.421 349.98C134.169 349.656 133.815 349.494 133.359 349.494C132.903 349.494 132.549 349.656 132.297 349.98C132.057 350.292 131.937 350.736 131.937 351.312V351.348H134.799ZM142.551 357.18C141.915 357.18 141.333 357.06 140.805 356.82C140.289 356.568 139.881 356.226 139.581 355.794C139.293 355.362 139.149 354.888 139.149 354.372C139.149 353.556 139.485 352.896 140.157 352.392C140.841 351.876 141.777 351.522 142.965 351.33L145.197 350.988V350.772C145.197 350.328 145.107 350.004 144.927 349.8C144.747 349.596 144.441 349.494 144.009 349.494C143.769 349.494 143.565 349.536 143.397 349.62C143.241 349.704 143.061 349.83 142.857 349.998C142.701 350.13 142.563 350.226 142.443 350.286C142.395 350.37 142.335 350.412 142.263 350.412H140.175C140.055 350.412 139.953 350.376 139.869 350.304C139.797 350.22 139.767 350.124 139.779 350.016C139.791 349.692 139.953 349.332 140.265 348.936C140.577 348.528 141.051 348.18 141.687 347.892C142.323 347.604 143.109 347.46 144.045 347.46C145.533 347.46 146.637 347.79 147.357 348.45C148.077 349.098 148.437 349.98 148.437 351.096V356.55C148.437 356.67 148.395 356.778 148.311 356.874C148.227 356.958 148.119 357 147.987 357H145.773C145.653 357 145.545 356.958 145.449 356.874C145.365 356.778 145.323 356.67 145.323 356.55V355.92C145.059 356.292 144.693 356.598 144.225 356.838C143.757 357.066 143.199 357.18 142.551 357.18ZM143.451 355.056C143.979 355.056 144.405 354.882 144.729 354.534C145.065 354.186 145.233 353.682 145.233 353.022V352.806L143.739 353.058C142.731 353.25 142.227 353.61 142.227 354.138C142.227 354.414 142.341 354.636 142.569 354.804C142.809 354.972 143.103 355.056 143.451 355.056ZM154.319 357.18C153.335 357.18 152.513 357.042 151.853 356.766C151.193 356.49 150.701 356.16 150.377 355.776C150.065 355.392 149.909 355.044 149.909 354.732C149.909 354.612 149.951 354.516 150.035 354.444C150.131 354.36 150.233 354.318 150.341 354.318H152.519C152.591 354.318 152.651 354.342 152.699 354.39C152.903 354.522 153.017 354.6 153.041 354.624C153.269 354.792 153.479 354.924 153.671 355.02C153.875 355.104 154.115 355.146 154.391 355.146C154.715 355.146 154.979 355.086 155.183 354.966C155.399 354.834 155.507 354.654 155.507 354.426C155.507 354.234 155.447 354.078 155.327 353.958C155.219 353.838 155.003 353.724 154.679 353.616C154.367 353.496 153.887 353.376 153.239 353.256C151.163 352.836 150.125 351.876 150.125 350.376C150.125 349.884 150.281 349.416 150.593 348.972C150.917 348.516 151.385 348.15 151.997 347.874C152.621 347.598 153.365 347.46 154.229 347.46C155.105 347.46 155.861 347.598 156.497 347.874C157.145 348.138 157.637 348.462 157.973 348.846C158.309 349.218 158.477 349.56 158.477 349.872C158.477 349.98 158.435 350.076 158.351 350.16C158.279 350.244 158.189 350.286 158.081 350.286H156.101C155.993 350.286 155.909 350.262 155.849 350.214C155.705 350.142 155.561 350.052 155.417 349.944C155.201 349.8 155.009 349.692 154.841 349.62C154.685 349.536 154.481 349.494 154.229 349.494C153.929 349.494 153.695 349.56 153.527 349.692C153.359 349.824 153.275 349.992 153.275 350.196C153.275 350.376 153.323 350.526 153.419 350.646C153.527 350.754 153.737 350.862 154.049 350.97C154.373 351.078 154.859 351.192 155.507 351.312C156.683 351.516 157.535 351.882 158.063 352.41C158.603 352.926 158.873 353.532 158.873 354.228C158.873 355.128 158.471 355.848 157.667 356.388C156.875 356.916 155.759 357.18 154.319 357.18ZM163.853 357.18C162.797 357.18 161.945 356.826 161.297 356.118C160.649 355.41 160.325 354.408 160.325 353.112V348.09C160.325 347.958 160.367 347.85 160.451 347.766C160.547 347.682 160.655 347.64 160.775 347.64H163.169C163.301 347.64 163.409 347.682 163.493 347.766C163.589 347.85 163.637 347.958 163.637 348.09V353.004C163.637 354.12 164.135 354.678 165.131 354.678C165.611 354.678 165.983 354.534 166.247 354.246C166.523 353.946 166.661 353.532 166.661 353.004V348.09C166.661 347.958 166.703 347.85 166.787 347.766C166.883 347.682 166.997 347.64 167.129 347.64H169.505C169.637 347.64 169.745 347.682 169.829 347.766C169.913 347.85 169.955 347.958 169.955 348.09V356.55C169.955 356.67 169.913 356.778 169.829 356.874C169.745 356.958 169.637 357 169.505 357H167.309C167.177 357 167.063 356.958 166.967 356.874C166.883 356.79 166.841 356.682 166.841 356.55V355.866C166.217 356.742 165.221 357.18 163.853 357.18ZM172.449 357C172.329 357 172.221 356.958 172.125 356.874C172.041 356.778 171.999 356.67 171.999 356.55V348.108C171.999 347.976 172.041 347.868 172.125 347.784C172.209 347.688 172.317 347.64 172.449 347.64H174.645C174.777 347.64 174.885 347.688 174.969 347.784C175.065 347.868 175.113 347.976 175.113 348.108V348.792C175.449 348.42 175.839 348.138 176.283 347.946C176.739 347.742 177.243 347.64 177.795 347.64H178.605C178.737 347.64 178.845 347.682 178.929 347.766C179.013 347.85 179.055 347.958 179.055 348.09V350.052C179.055 350.172 179.013 350.28 178.929 350.376C178.845 350.46 178.737 350.502 178.605 350.502H176.787C176.307 350.502 175.935 350.634 175.671 350.898C175.419 351.162 175.293 351.534 175.293 352.014V356.55C175.293 356.682 175.245 356.79 175.149 356.874C175.065 356.958 174.957 357 174.825 357H172.449ZM184.617 357.18C183.153 357.18 182.001 356.79 181.161 356.01C180.321 355.218 179.889 354.072 179.865 352.572V352.014C179.913 350.586 180.357 349.47 181.197 348.666C182.037 347.862 183.171 347.46 184.599 347.46C185.631 347.46 186.501 347.67 187.209 348.09C187.929 348.498 188.463 349.068 188.811 349.8C189.171 350.52 189.351 351.342 189.351 352.266V352.716C189.351 352.848 189.303 352.962 189.207 353.058C189.123 353.142 189.015 353.184 188.883 353.184H183.177V353.292C183.189 353.832 183.315 354.27 183.555 354.606C183.795 354.93 184.137 355.092 184.581 355.092C184.869 355.092 185.097 355.038 185.265 354.93C185.445 354.81 185.613 354.66 185.769 354.48C185.877 354.36 185.961 354.288 186.021 354.264C186.093 354.228 186.201 354.21 186.345 354.21H188.703C188.811 354.21 188.901 354.246 188.973 354.318C189.057 354.378 189.099 354.456 189.099 354.552C189.099 354.864 188.919 355.23 188.559 355.65C188.211 356.07 187.695 356.43 187.011 356.73C186.339 357.03 185.541 357.18 184.617 357.18ZM186.039 351.348V351.312C186.039 350.736 185.913 350.292 185.661 349.98C185.409 349.656 185.055 349.494 184.599 349.494C184.143 349.494 183.789 349.656 183.537 349.98C183.297 350.292 183.177 350.736 183.177 351.312V351.348H186.039Z" fill="#303037"/>
<path d="M115.812 387V379.273H115.883L118.828 386.047H120L122.938 379.273H123.016V387H124.32V376.336H122.914L119.445 384.461H119.398L115.922 376.336H114.508V387H115.812ZM130.391 378.641C128.336 378.641 126.836 380.062 126.836 382.281V383.484C126.836 385.828 128.312 387.133 130.391 387.133C132.43 387.133 133.938 385.812 133.938 383.484V382.281C133.938 379.984 132.43 378.641 130.391 378.641ZM130.398 379.859C131.719 379.859 132.516 380.906 132.516 382.398V383.383C132.516 384.898 131.758 385.922 130.398 385.922C129.023 385.922 128.25 384.898 128.25 383.383V382.398C128.25 380.914 129.078 379.859 130.398 379.859ZM136.312 387H137.727V382.422C137.727 381.008 138.43 379.898 139.875 379.898C140.992 379.898 141.656 380.555 141.656 381.844V387H143.07V381.391C143.07 379.547 141.938 378.648 140.281 378.648C138.562 378.648 137.992 379.625 137.789 380.273H137.711V378.781H136.312V387ZM146.008 387H147.422V378.781H146.008V387ZM145.711 376.25C145.711 376.812 146.141 377.227 146.703 377.227C147.297 377.227 147.727 376.812 147.727 376.25C147.727 375.68 147.297 375.266 146.703 375.266C146.141 375.266 145.711 375.68 145.711 376.25ZM150.867 378.805H149.602V379.969H150.859V384.695C150.859 386.32 151.281 387.07 153.234 387.07C153.547 387.07 154.125 387.023 154.242 387V385.852C154.109 385.867 153.797 385.883 153.594 385.883C152.594 385.883 152.266 385.633 152.266 384.672V379.969H154.125V378.805H152.266V376.742H150.867V378.805ZM159.594 378.641C157.539 378.641 156.039 380.062 156.039 382.281V383.484C156.039 385.828 157.516 387.133 159.594 387.133C161.633 387.133 163.141 385.812 163.141 383.484V382.281C163.141 379.984 161.633 378.641 159.594 378.641ZM159.602 379.859C160.922 379.859 161.719 380.906 161.719 382.398V383.383C161.719 384.898 160.961 385.922 159.602 385.922C158.227 385.922 157.453 384.898 157.453 383.383V382.398C157.453 380.914 158.281 379.859 159.602 379.859ZM165.641 387H167.062V381.93C167.062 380.82 167.781 379.953 169.227 379.953C169.477 379.953 169.758 379.969 169.891 380V378.695C169.727 378.672 169.555 378.656 169.375 378.656C167.922 378.656 167.328 379.5 167.125 380.047H167.055V378.781H165.641V387ZM171.977 387H173.391V378.781H171.977V387ZM171.68 376.25C171.68 376.812 172.109 377.227 172.672 377.227C173.266 377.227 173.695 376.812 173.695 376.25C173.695 375.68 173.266 375.266 172.672 375.266C172.109 375.266 171.68 375.68 171.68 376.25ZM176.375 387H177.789V382.422C177.789 381.008 178.492 379.898 179.938 379.898C181.055 379.898 181.719 380.555 181.719 381.844V387H183.133V381.391C183.133 379.547 182 378.648 180.344 378.648C178.625 378.648 178.055 379.625 177.852 380.273H177.773V378.781H176.375V387ZM188.844 388.812C187.766 388.812 187.102 388.328 186.992 387.75H185.555C185.664 388.945 186.695 390.008 188.797 390.008C190.898 390.008 192.414 389.023 192.414 386.758V378.781H191.062V380.016H190.992C190.719 379.344 189.844 378.656 188.609 378.656C186.789 378.656 185.375 379.961 185.375 382.133V383.391C185.375 385.562 186.797 386.852 188.617 386.852C189.758 386.852 190.602 386.273 190.922 385.562H191V386.75C191 388.039 190.289 388.812 188.844 388.812ZM188.961 379.883C190.25 379.883 191 380.969 191 382.172V383.398C191 384.57 190.289 385.648 188.977 385.648C187.703 385.648 186.797 384.648 186.797 383.156V382.391C186.797 380.891 187.625 379.883 188.961 379.883ZM206.039 387H207.789L205.938 385.031C206.539 384.117 206.797 382.859 206.797 381.297V380.93H205.508V381.281C205.508 382.5 205.375 383.445 205.031 384.094L202.484 381.336C203.711 380.688 204.742 379.945 204.742 378.633C204.742 377.203 203.547 376.242 202.023 376.242C200.422 376.242 199.305 377.297 199.305 378.617C199.305 379.594 199.93 380.336 200.617 381.062C200.477 381.125 200.344 381.195 200.211 381.273C199.016 381.93 198.141 382.797 198.141 384.195C198.141 386.07 199.719 387.203 201.719 387.203C202.758 387.203 204.039 386.898 205.086 385.977L206.039 387ZM201.023 382.078C201.133 382.016 201.25 381.953 201.367 381.898L204.281 385.094C203.633 385.773 202.633 386.039 201.844 386.039C200.656 386.039 199.531 385.414 199.531 384.102C199.531 383.141 200.125 382.562 201.023 382.078ZM201.742 380.562C200.898 379.719 200.633 379.25 200.633 378.695C200.633 377.906 201.195 377.328 202.031 377.328C202.836 377.328 203.438 377.867 203.438 378.68C203.438 379.578 202.719 380.062 201.742 380.562ZM115.5 404.953C115.5 402.727 116.539 401.414 118.297 401.414C119.648 401.414 120.641 402.281 120.781 403.484H122.203V403.43C122.055 401.5 120.438 400.117 118.289 400.117C115.625 400.117 114.055 401.922 114.055 404.93V406.461C114.055 409.477 115.586 411.219 118.289 411.219C120.422 411.219 122.047 409.898 122.203 408.062V408.016H120.781C120.641 409.148 119.672 409.922 118.297 409.922C116.516 409.922 115.5 408.664 115.5 406.453V404.953ZM127.75 402.641C125.695 402.641 124.195 404.062 124.195 406.281V407.484C124.195 409.828 125.672 411.133 127.75 411.133C129.789 411.133 131.297 409.812 131.297 407.484V406.281C131.297 403.984 129.789 402.641 127.75 402.641ZM127.758 403.859C129.078 403.859 129.875 404.906 129.875 406.398V407.383C129.875 408.898 129.117 409.922 127.758 409.922C126.383 409.922 125.609 408.898 125.609 407.383V406.398C125.609 404.914 126.438 403.859 127.758 403.859ZM133.719 411H135.133V399.773H133.719V411ZM138.016 411H139.43V399.773H138.016V411ZM144.484 411.133C145.695 411.133 146.438 410.57 146.836 409.914H146.898V411H148.258V405.391C148.258 403.375 146.859 402.648 145.164 402.648C143.328 402.648 142.234 403.438 142.109 404.828H143.477C143.641 404.258 144.078 403.859 145.117 403.859C146.172 403.859 146.836 404.336 146.836 405.383V406.195H144.688C142.797 406.195 141.797 407.172 141.797 408.609C141.797 410.133 142.891 411.133 144.484 411.133ZM144.875 409.938C144.023 409.938 143.242 409.5 143.242 408.562C143.242 407.828 143.695 407.273 144.805 407.273H146.836V408.195C146.836 409.188 145.984 409.938 144.875 409.938ZM154.875 411.125C156.836 411.125 158.062 409.773 158.062 407.586V406.188C158.062 404.008 156.852 402.656 154.914 402.656C153.727 402.656 152.75 403.227 152.492 404.078H152.422V399.773H151.008V411H152.367V409.781H152.438C152.805 410.625 153.719 411.125 154.875 411.125ZM154.602 409.898C153.336 409.898 152.422 408.961 152.422 407.641V406.297C152.422 404.812 153.25 403.883 154.562 403.883C155.883 403.883 156.641 404.836 156.641 406.477V407.344C156.641 408.961 155.891 409.898 154.602 409.898ZM163.609 402.641C161.555 402.641 160.055 404.062 160.055 406.281V407.484C160.055 409.828 161.531 411.133 163.609 411.133C165.648 411.133 167.156 409.812 167.156 407.484V406.281C167.156 403.984 165.648 402.641 163.609 402.641ZM163.617 403.859C164.938 403.859 165.734 404.906 165.734 406.398V407.383C165.734 408.898 164.977 409.922 163.617 409.922C162.242 409.922 161.469 408.898 161.469 407.383V406.398C161.469 404.914 162.297 403.859 163.617 403.859ZM169.656 411H171.078V405.93C171.078 404.82 171.797 403.953 173.242 403.953C173.492 403.953 173.773 403.969 173.906 404V402.695C173.742 402.672 173.57 402.656 173.391 402.656C171.938 402.656 171.344 403.5 171.141 404.047H171.07V402.781H169.656V411ZM178.016 411.133C179.227 411.133 179.969 410.57 180.367 409.914H180.43V411H181.789V405.391C181.789 403.375 180.391 402.648 178.695 402.648C176.859 402.648 175.766 403.438 175.641 404.828H177.008C177.172 404.258 177.609 403.859 178.648 403.859C179.703 403.859 180.367 404.336 180.367 405.383V406.195H178.219C176.328 406.195 175.328 407.172 175.328 408.609C175.328 410.133 176.422 411.133 178.016 411.133ZM178.406 409.938C177.555 409.938 176.773 409.5 176.773 408.562C176.773 407.828 177.227 407.273 178.336 407.273H180.367V408.195C180.367 409.188 179.516 409.938 178.406 409.938ZM184.992 402.805H183.727V403.969H184.984V408.695C184.984 410.32 185.406 411.07 187.359 411.07C187.672 411.07 188.25 411.023 188.367 411V409.852C188.234 409.867 187.922 409.883 187.719 409.883C186.719 409.883 186.391 409.633 186.391 408.672V403.969H188.25V402.805H186.391V400.742H184.992V402.805ZM190.758 411H192.172V402.781H190.758V411ZM190.461 400.25C190.461 400.812 190.891 401.227 191.453 401.227C192.047 401.227 192.477 400.812 192.477 400.25C192.477 399.68 192.047 399.266 191.453 399.266C190.891 399.266 190.461 399.68 190.461 400.25ZM198.312 402.641C196.258 402.641 194.758 404.062 194.758 406.281V407.484C194.758 409.828 196.234 411.133 198.312 411.133C200.352 411.133 201.859 409.812 201.859 407.484V406.281C201.859 403.984 200.352 402.641 198.312 402.641ZM198.32 403.859C199.641 403.859 200.438 404.906 200.438 406.398V407.383C200.438 408.898 199.68 409.922 198.32 409.922C196.945 409.922 196.172 408.898 196.172 407.383V406.398C196.172 404.914 197 403.859 198.32 403.859ZM204.234 411H205.648V406.422C205.648 405.008 206.352 403.898 207.797 403.898C208.914 403.898 209.578 404.555 209.578 405.844V411H210.992V405.391C210.992 403.547 209.859 402.648 208.203 402.648C206.484 402.648 205.914 403.625 205.711 404.273H205.633V402.781H204.234V411Z" fill="#A7A9C0"/>
<circle cx="73" cy="364" r="24" fill="#2C4EA2"/>
<path d="M72.8896 371.2C71.5829 371.2 70.4829 371 69.5896 370.6C68.7096 370.187 68.0563 369.68 67.6296 369.08C67.2163 368.48 66.9963 367.88 66.9696 367.28C66.9696 367.16 67.0096 367.06 67.0896 366.98C67.1829 366.9 67.2896 366.86 67.4096 366.86H70.1696C70.3296 366.86 70.4563 366.893 70.5496 366.96C70.6429 367.013 70.7296 367.107 70.8096 367.24C71.0629 367.893 71.7629 368.22 72.9096 368.22C73.5629 368.22 74.0696 368.067 74.4296 367.76C74.7896 367.453 74.9696 367.04 74.9696 366.52C74.9696 365.52 74.3029 365.02 72.9696 365.02H70.7296C70.5829 365.02 70.4563 364.973 70.3496 364.88C70.2563 364.773 70.2096 364.647 70.2096 364.5V363.32C70.2096 363.013 70.3229 362.787 70.5496 362.64L73.7696 360H68.2496C68.1163 360 67.9963 359.953 67.8896 359.86C67.7963 359.753 67.7496 359.633 67.7496 359.5V357.52C67.7496 357.373 67.7963 357.253 67.8896 357.16C67.9829 357.053 68.1029 357 68.2496 357H77.5696C77.7163 357 77.8363 357.053 77.9296 357.16C78.0229 357.253 78.0696 357.373 78.0696 357.52V359.3C78.0696 359.58 77.9629 359.8 77.7496 359.96L74.7896 362.66L74.9296 362.7C76.1296 362.873 77.0829 363.287 77.7896 363.94C78.4963 364.593 78.8496 365.533 78.8496 366.76C78.8496 367.653 78.5896 368.44 78.0696 369.12C77.5629 369.787 76.8563 370.3 75.9496 370.66C75.0563 371.02 74.0363 371.2 72.8896 371.2Z" fill="white"/>
<path d="M157 118C157 116.895 156.105 116 155 116C153.895 116 153 116.895 153 118L157 118ZM153.586 169.414C154.367 170.195 155.633 170.195 156.414 169.414L169.142 156.686C169.923 155.905 169.923 154.639 169.142 153.858C168.361 153.077 167.095 153.077 166.314 153.858L155 165.172L143.686 153.858C142.905 153.077 141.639 153.077 140.858 153.858C140.077 154.639 140.077 155.905 140.858 156.686L153.586 169.414ZM153 118L153 168L157 168L157 118L153 118Z" fill="#EFEFF0"/>
<path d="M157 266C157 264.895 156.105 264 155 264C153.895 264 153 264.895 153 266L157 266ZM153.586 317.414C154.367 318.195 155.633 318.195 156.414 317.414L169.142 304.686C169.923 303.905 169.923 302.639 169.142 301.858C168.361 301.077 167.095 301.077 166.314 301.858L155 313.172L143.686 301.858C142.905 301.077 141.639 301.077 140.858 301.858C140.077 302.639 140.077 303.905 140.858 304.686L153.586 317.414ZM153 266L153 316L157 316L157 266L153 266Z" fill="#EFEFF0"/>
<path d="M287.586 57.5858C286.805 58.3668 286.805 59.6332 287.586 60.4142L300.314 73.1422C301.095 73.9232 302.361 73.9232 303.142 73.1422C303.923 72.3611 303.923 71.0948 303.142 70.3137L291.828 59L303.142 47.6863C303.923 46.9052 303.923 45.6389 303.142 44.8578C302.361 44.0768 301.095 44.0768 300.314 44.8578L287.586 57.5858ZM289 379C287.895 379 287 379.895 287 381C287 382.105 287.895 383 289 383L289 379ZM346 377L346 63L342 63L342 377L346 377ZM340 57L289 57L289 61L340 61L340 57ZM340 379L289 379L289 383L340 383L340 379ZM346 63C346 59.6863 343.314 57 340 57L340 61C341.105 61 342 61.8954 342 63L346 63ZM342 377C342 378.105 341.105 379 340 379L340 383C343.314 383 346 380.314 346 377L342 377Z" fill="#EFEFF0"/>
<defs>
<filter id="filter0_d" x="-5" y="0" width="316" height="160" filterUnits="userSpaceOnUse" color-interpolation-filters="sRGB">
<feFlood flood-opacity="0" result="BackgroundImageFix"/>
<feColorMatrix in="SourceAlpha" type="matrix" values="0 0 0 0 0 0 0 0 0 0 0 0 0 0 0 0 0 0 127 0"/>
<feOffset dy="15"/>
<feGaussianBlur stdDeviation="20"/>
<feColorMatrix type="matrix" values="0 0 0 0 0.105882 0 0 0 0 0.117647 0 0 0 0 0.305882 0 0 0 0.08 0"/>
<feBlend mode="normal" in2="BackgroundImageFix" result="effect1_dropShadow"/>
<feBlend mode="normal" in="SourceGraphic" in2="effect1_dropShadow" result="shape"/>
</filter>
<filter id="filter1_d" x="-5" y="151" width="316" height="160" filterUnits="userSpaceOnUse" color-interpolation-filters="sRGB">
<feFlood flood-opacity="0" result="BackgroundImageFix"/>
<feColorMatrix in="SourceAlpha" type="matrix" values="0 0 0 0 0 0 0 0 0 0 0 0 0 0 0 0 0 0 127 0"/>
<feOffset dy="15"/>
<feGaussianBlur stdDeviation="20"/>
<feColorMatrix type="matrix" values="0 0 0 0 0.105882 0 0 0 0 0.117647 0 0 0 0 0.305882 0 0 0 0.08 0"/>
<feBlend mode="normal" in2="BackgroundImageFix" result="effect1_dropShadow"/>
<feBlend mode="normal" in="SourceGraphic" in2="effect1_dropShadow" result="shape"/>
</filter>
<filter id="filter2_d" x="-7" y="299" width="318" height="189" filterUnits="userSpaceOnUse" color-interpolation-filters="sRGB">
<feFlood flood-opacity="0" result="BackgroundImageFix"/>
<feColorMatrix in="SourceAlpha" type="matrix" values="0 0 0 0 0 0 0 0 0 0 0 0 0 0 0 0 0 0 127 0"/>
<feOffset dy="15"/>
<feGaussianBlur stdDeviation="20"/>
<feColorMatrix type="matrix" values="0 0 0 0 0.105882 0 0 0 0 0.117647 0 0 0 0 0.305882 0 0 0 0.08 0"/>
<feBlend mode="normal" in2="BackgroundImageFix" result="effect1_dropShadow"/>
<feBlend mode="normal" in="SourceGraphic" in2="effect1_dropShadow" result="shape"/>
</filter>
</defs>
</svg>
