<svg width="200" height="40" viewBox="0 0 200 40" fill="none" xmlns="http://www.w3.org/2000/svg">
<g clip-path="url(#clip0)">
<path d="M54.2676 11.5789H57.3907L64.2509 26.8992H60.7007L59.0724 23.0945H52.5192L50.8909 26.8992H47.4207L54.2676 11.5789ZM57.8579 20.2917L55.8025 14.7115L53.7471 20.2917H57.8579Z" fill="#45454B"/>
<path d="M67.0537 13.7096C67.8029 12.9833 68.7015 12.4114 69.6935 12.0296C70.6854 11.6478 71.7496 11.4641 72.8195 11.4902C74.9946 11.4528 77.1067 12.1851 78.7454 13.5447L76.6099 15.7895C75.5405 14.9601 74.1998 14.5116 72.8195 14.5212C72.1725 14.4961 71.5269 14.5955 70.9214 14.8135C70.3159 15.0314 69.763 15.3634 69.2959 15.7895C68.8501 16.222 68.5018 16.7363 68.2723 17.3011C68.0428 17.8659 67.937 18.4692 67.9613 19.0742C67.9296 19.699 68.0316 20.3235 68.261 20.9098C68.4903 21.4962 68.8424 22.0323 69.2959 22.4857C69.7621 22.913 70.3149 23.2458 70.9206 23.4638C71.5263 23.6818 72.1724 23.7805 72.8195 23.754C74.197 23.7704 75.5358 23.3209 76.5966 22.4857L78.7454 24.8446C77.1046 26.2178 74.9786 26.9516 72.7928 26.8992C71.7195 26.9201 70.6528 26.734 69.6573 26.3521C68.6618 25.9702 67.7581 25.4005 67.0009 24.6774C66.2437 23.9543 65.6486 23.0928 65.2516 22.145C64.8546 21.1972 64.6641 20.1827 64.6913 19.163C64.6711 18.1487 64.8703 17.1413 65.2767 16.2032C65.6831 15.2651 66.2879 14.4164 67.0537 13.7096Z" fill="#45454B"/>
<path d="M85.2586 11.4902V20.3678C85.219 20.8413 85.296 21.3171 85.4837 21.7574C85.6714 22.1977 85.9644 22.5904 86.3397 22.9042C87.1033 23.4624 88.046 23.7535 89.009 23.7286C89.9713 23.7484 90.9122 23.4578 91.6783 22.9042C92.0511 22.5885 92.3425 22.1956 92.53 21.7557C92.7175 21.3159 92.7959 20.841 92.7594 20.3678V11.4902H96.0961V21.2429C96.0998 22.0126 95.9219 22.7733 95.5755 23.469C95.229 24.1648 94.7228 24.7778 94.0941 25.2632C92.6546 26.3245 90.8844 26.9005 89.0624 26.9005C87.2404 26.9005 85.4702 26.3245 84.0307 25.2632C83.4041 24.776 82.8995 24.1626 82.5532 23.4673C82.207 22.7719 82.0278 22.0121 82.0287 21.2429V11.4902H85.2586Z" fill="#45454B"/>
<path d="M99.673 11.5789H106.773C107.595 11.526 108.419 11.6313 109.196 11.8885C109.974 12.1456 110.689 12.5494 111.298 13.0755C111.749 13.5199 112.1 14.0472 112.33 14.6251C112.559 15.203 112.662 15.8193 112.633 16.4363C112.681 17.4381 112.383 18.4275 111.782 19.2523C111.182 20.0771 110.313 20.6918 109.309 21.0019L113.313 26.8484H109.029L105.759 21.1921H103.09V26.8484H99.673V11.5789ZM106.533 18.7318C108.228 18.7318 109.203 17.9074 109.203 16.6519C109.203 15.2441 108.202 14.5593 106.533 14.5593H103.076V18.7825L106.533 18.7318Z" fill="#45454B"/>
<path d="M121.375 11.5789H124.525L131.371 26.8992H127.808L126.179 23.0945H119.626L117.998 26.8992H114.515L121.375 11.5789ZM124.965 20.2917L122.896 14.7115L120.841 20.2917H124.965Z" fill="#45454B"/>
<path d="M143.891 11.4902V24.0203H152.539V26.8992H140.647V11.4902H143.891Z" fill="#45454B"/>
<path d="M161.014 11.5789H164.164L171.011 26.8992H167.447L165.819 23.0945H159.266L157.638 26.8992H154.154L161.014 11.5789ZM164.605 20.2917L162.536 14.7495L160.48 20.2917H164.605Z" fill="#45454B"/>
<path d="M173.2 11.5789H180.407C181.129 11.53 181.855 11.6169 182.542 11.8345C183.229 12.0521 183.864 12.3962 184.411 12.8472C184.763 13.1772 185.04 13.5729 185.224 14.0094C185.408 14.4459 185.494 14.9138 185.479 15.3836C185.5 16.0688 185.321 16.7462 184.963 17.3413C184.606 17.9365 184.082 18.4263 183.45 18.7571C185.239 19.4039 186.346 20.2156 186.346 22.1687C186.346 24.87 184.077 26.7977 180.567 26.7977H173.187L173.2 11.5789ZM179.673 17.5396C181.168 17.5396 182.115 17.0704 182.115 15.9797C182.115 14.9905 181.328 14.4578 179.887 14.4578H176.523V17.5777L179.673 17.5396ZM180.594 24.0076C182.102 24.0076 183.01 23.513 183.01 22.4096C183.01 21.4204 182.249 20.8117 180.487 20.8117H176.483V24.0457L180.594 24.0076Z" fill="#45454B"/>
<path d="M197.624 15.5992C197.256 15.1809 196.791 14.8489 196.265 14.6289C195.74 14.409 195.168 14.307 194.595 14.331C193.26 14.331 192.459 14.61 192.099 15.1934C191.932 15.4106 191.842 15.6726 191.842 15.9417C191.842 16.2107 191.932 16.4727 192.099 16.6899C192.794 17.2617 193.675 17.5886 194.595 17.6157C195.924 17.7511 197.201 18.1858 198.318 18.884C198.886 19.2736 199.34 19.7955 199.634 20.3997C199.929 21.0038 200.055 21.6698 200 22.3335C199.987 22.962 199.817 23.5785 199.504 24.1321C199.191 24.6857 198.743 25.1603 198.198 25.5168C197.013 26.4037 195.542 26.8742 194.034 26.8484C192.748 26.8877 191.467 26.6762 190.27 26.227C189.298 25.8491 188.414 25.2932 187.668 24.591L189.83 22.5365C190.299 23.0204 190.871 23.4033 191.509 23.6592C192.147 23.9152 192.835 24.0383 193.527 24.0203C194.955 24.0203 195.863 23.7413 196.196 23.1452C196.373 22.8865 196.466 22.5848 196.466 22.2765C196.466 21.9682 196.373 21.6665 196.196 21.4077C195.849 20.8117 194.942 20.4692 193.527 20.3297C192.26 20.207 191.038 19.817 189.95 19.1883C189.399 18.8494 188.958 18.3732 188.673 17.8118C188.388 17.2504 188.271 16.6254 188.335 16.0051C188.312 15.3483 188.468 14.6971 188.789 14.1148C189.109 13.5325 189.583 13.039 190.163 12.6823C191.252 11.885 192.58 11.4405 193.954 11.4141C195.143 11.3623 196.332 11.5347 197.451 11.9214C198.327 12.2887 199.121 12.8142 199.786 13.4686L197.624 15.5992Z" fill="#45454B"/>
<path d="M21.048 40.0004C19.9821 40.0014 18.9265 39.8025 17.9417 39.4151C16.9569 39.0277 16.0622 38.4595 15.3089 37.743L2.37595 25.4411C1.62252 24.7262 1.02481 23.8771 0.616995 22.9424C0.209183 22.0078 -0.000724792 21.0059 -0.000724792 19.9941C-0.000724792 18.9823 0.209183 17.9804 0.616995 17.0457C1.02481 16.1111 1.62252 15.262 2.37595 14.547L15.3089 2.25787C16.0625 1.54155 16.9571 0.973325 17.9419 0.585641C18.9266 0.197958 19.9821 -0.0015831 21.048 -0.0015831C22.1139 -0.0015831 23.1693 0.197958 24.154 0.585641C25.1388 0.973325 26.0335 1.54155 26.787 2.25787L39.72 14.547C40.4738 15.2631 41.0718 16.1132 41.4798 17.049C41.8878 17.9847 42.0978 18.9876 42.0978 20.0004C42.0978 21.0133 41.8878 22.0162 41.4798 22.9519C41.0718 23.8876 40.4738 24.7378 39.72 25.4538L26.7737 37.743C26.0251 38.4619 25.1331 39.0319 24.15 39.4195C23.1669 39.8071 22.1123 40.0046 21.048 40.0004ZM17.5778 35.587C18.0329 36.021 18.5737 36.3655 19.1692 36.6005C19.7647 36.8355 20.4031 36.9565 21.048 36.9565C21.6928 36.9565 22.3312 36.8355 22.9267 36.6005C23.5222 36.3655 24.063 36.021 24.5181 35.587L31.6986 28.7512L26.8404 25.1621C26.426 25.3612 25.97 25.4695 25.5057 25.4792C25.3284 25.4986 25.1492 25.4986 24.9719 25.4792L23.8107 27.0137C24.0731 27.4456 24.2112 27.9355 24.2111 28.4342C24.1593 29.1861 23.8084 29.8911 23.2297 30.4062C22.6509 30.9213 21.8877 31.2079 21.0947 31.2079C20.3017 31.2079 19.5384 30.9213 18.9597 30.4062C18.3809 29.8911 18.03 29.1861 17.9782 28.4342C17.9763 28.1016 18.035 27.7712 18.1517 27.4576L18.0183 27.3308C17.6013 27.5199 17.1456 27.6194 16.6836 27.6225C16.2212 27.6224 15.7649 27.5227 15.3489 27.3308L12.0123 30.3492L17.5778 35.587ZM21.048 27.9776C20.9447 27.9781 20.8451 28.0141 20.7677 28.079C20.6857 28.1566 20.638 28.2609 20.6342 28.3707C20.6342 28.475 20.6778 28.575 20.7554 28.6487C20.833 28.7225 20.9382 28.7639 21.048 28.7639C21.1028 28.7657 21.1574 28.7567 21.2085 28.7376C21.2595 28.7184 21.3059 28.6895 21.3447 28.6527C21.3835 28.6158 21.4139 28.5718 21.434 28.5233C21.4541 28.4748 21.4636 28.4228 21.4617 28.3707C21.4591 28.3103 21.4436 28.251 21.4161 28.1965C21.3885 28.142 21.3496 28.0934 21.3015 28.0537C21.2243 28.0118 21.1369 27.9899 21.048 27.9903V27.9776ZM4.64489 16.703C4.18808 17.1355 3.82561 17.6493 3.57829 18.2152C3.33097 18.781 3.20365 19.3877 3.20365 20.0004C3.20365 20.6131 3.33097 21.2198 3.57829 21.7857C3.82561 22.3515 4.18808 22.8654 4.64489 23.2978L10.1571 28.5356L13.6005 25.2636C13.5476 25.0516 13.5207 24.8346 13.5204 24.6168C13.4925 24.2116 13.5524 23.8053 13.6964 23.423C13.8404 23.0407 14.0654 22.6905 14.3575 22.3941C14.6496 22.0978 15.0026 21.8616 15.3947 21.7001C15.7868 21.5385 16.2096 21.4552 16.6369 21.4552C17.0642 21.4552 17.487 21.5385 17.879 21.7001C18.2711 21.8616 18.6241 22.0978 18.9163 22.3941C19.2084 22.6905 19.4334 23.0407 19.5774 23.423C19.7214 23.8053 19.7812 24.2116 19.7533 24.6168C19.7531 24.8346 19.7262 25.0516 19.6732 25.2636L20.0203 25.5933C20.3502 25.4824 20.6979 25.4266 21.048 25.4284C21.2257 25.4159 21.4041 25.4159 21.5818 25.4284L22.6896 23.9319C22.4342 23.498 22.3009 23.0087 22.3025 22.5115C22.3544 21.7596 22.7052 21.0546 23.284 20.5395C23.8627 20.0244 24.626 19.7378 25.419 19.7378C26.212 19.7378 26.9753 20.0244 27.554 20.5395C28.1328 21.0546 28.4836 21.7596 28.5354 22.5115C28.5337 22.7202 28.5114 22.9282 28.4687 23.1329L33.5938 26.9376L37.411 23.3105C37.8678 22.8781 38.2303 22.3642 38.4776 21.7983C38.7249 21.2325 38.8522 20.6258 38.8522 20.0131C38.8522 19.4004 38.7249 18.7937 38.4776 18.2279C38.2303 17.662 37.8678 17.1481 37.411 16.7157L32.2058 11.7696L30.097 14.3061C30.2289 14.6429 30.2967 14.9993 30.2972 15.3587C30.302 16.077 30.0314 16.7723 29.5358 17.3147C29.0403 17.8571 28.3537 18.2095 27.6047 18.3058C26.8556 18.4022 26.0952 18.236 25.4657 17.8383C24.8362 17.4406 24.3807 16.8386 24.1844 16.145L20.5541 14.8768C20.2692 15.154 19.9287 15.3743 19.5528 15.5246C19.1769 15.6749 18.7731 15.7521 18.3653 15.7518C17.7197 15.7522 17.0899 15.5616 16.5635 15.2065L13.9876 16.5762C13.9358 17.3281 13.5849 18.0331 13.0061 18.5482C12.4274 19.0633 11.6641 19.35 10.8711 19.35C10.0781 19.35 9.31485 19.0633 8.7361 18.5482C8.15735 18.0331 7.80648 17.3281 7.75466 16.5762C7.75259 15.9664 7.95347 15.3716 8.32857 14.8768L7.88813 13.5071L4.64489 16.703ZM16.3099 24.8577C16.3518 24.9023 16.4033 24.9378 16.4608 24.9618C16.5184 24.9859 16.5807 24.998 16.6436 24.9972C16.7046 24.9987 16.7652 24.987 16.8207 24.9628C16.8763 24.9386 16.9252 24.9027 16.9639 24.8577C16.9831 24.787 16.9831 24.7129 16.9639 24.6421C16.9604 24.5401 16.9153 24.4433 16.8381 24.3723C16.7608 24.3013 16.6576 24.2616 16.5501 24.2617C16.4953 24.2599 16.4407 24.2689 16.3896 24.288C16.3386 24.3071 16.2922 24.336 16.2534 24.3729C16.2146 24.4098 16.1842 24.4538 16.1641 24.5023C16.1439 24.5508 16.1345 24.6027 16.1364 24.6548C16.1183 24.7214 16.1183 24.7912 16.1364 24.8577H16.3099ZM25.2388 22.8286C25.3123 22.8527 25.3922 22.8527 25.4657 22.8286C25.5233 22.8289 25.5804 22.8178 25.6333 22.796C25.6862 22.7741 25.7336 22.742 25.7727 22.7018C25.7938 22.6313 25.7938 22.5566 25.7727 22.4862C25.7553 22.3956 25.7051 22.3136 25.6307 22.2546C25.5563 22.1956 25.4625 22.1633 25.3656 22.1633C25.2687 22.1633 25.1749 22.1956 25.1005 22.2546C25.0261 22.3136 24.9759 22.3956 24.9585 22.4862C24.957 22.5442 24.9694 22.6018 24.9948 22.6545C25.0203 22.7073 25.0581 22.7538 25.1053 22.7905L25.2388 22.8286ZM10.6776 16.3479C10.6303 16.3847 10.5925 16.4312 10.5671 16.4839C10.5416 16.5367 10.5292 16.5943 10.5308 16.6523C10.5308 16.7566 10.5744 16.8566 10.652 16.9303C10.7296 17.004 10.8348 17.0454 10.9445 17.0454C11.0543 17.0454 11.1595 17.004 11.2371 16.9303C11.3147 16.8566 11.3583 16.7566 11.3583 16.6523C11.3647 16.6017 11.3647 16.5506 11.3583 16.5001C11.3236 16.4298 11.2691 16.37 11.2007 16.3274C11.1324 16.2849 11.0529 16.2612 10.9712 16.2591C10.9014 16.2401 10.8274 16.2401 10.7577 16.2591L10.6776 16.3479ZM26.8671 15.3207V15.4728C26.8909 15.5634 26.9459 15.6437 27.0233 15.7012C27.1006 15.7586 27.196 15.7899 27.2942 15.7899C27.4029 15.7867 27.5062 15.7443 27.5831 15.6712C27.6599 15.5982 27.7046 15.5 27.7079 15.3967C27.708 15.3046 27.6751 15.2151 27.6145 15.1431C27.5773 15.1093 27.5333 15.0829 27.4851 15.0655C27.437 15.0481 27.3857 15.04 27.3342 15.0416C27.2364 15.0373 27.1403 15.0671 27.064 15.1255C26.9878 15.184 26.9367 15.2669 26.9205 15.3587L26.8671 15.3207ZM10.9045 13.6846C11.6134 13.6907 12.2997 13.923 12.8531 14.3441L15.2955 13.0759C15.2955 13.0759 15.2955 12.9617 15.2955 12.8983C15.3098 12.1493 15.6217 11.4331 16.1686 10.8935C16.7155 10.3538 17.457 10.0307 18.2442 9.989C19.0314 9.94726 19.806 10.19 20.4127 10.6684C21.0194 11.1469 21.4132 11.8257 21.5151 12.5686L24.745 13.6466C25.1296 13.1529 25.6671 12.7859 26.2822 12.5971C26.8974 12.4083 27.5593 12.4072 28.1751 12.594L30.3372 9.95603L24.5181 4.41387C24.063 3.97979 23.5222 3.63537 22.9267 3.40036C22.3312 3.16535 21.6928 3.04437 21.048 3.04437C20.4031 3.04437 19.7647 3.16535 19.1692 3.40036C18.5737 3.63537 18.0329 3.97979 17.5778 4.41387L10.0903 11.5286L10.7844 13.6846H10.9045ZM18.0583 13.0886C18.0941 13.145 18.1452 13.1912 18.2062 13.2225C18.2673 13.2537 18.336 13.2688 18.4053 13.2661C18.484 13.2658 18.561 13.2441 18.6271 13.2037C18.6933 13.1632 18.746 13.1057 18.779 13.0378C18.779 12.7081 18.6189 12.5432 18.392 12.5432C18.3371 12.5415 18.2825 12.5504 18.2315 12.5695C18.1804 12.5887 18.1341 12.6176 18.0953 12.6544C18.0565 12.6913 18.0261 12.7354 18.0059 12.7839C17.9858 12.8324 17.9764 12.8843 17.9782 12.9364C17.966 12.9907 17.966 13.0469 17.9782 13.1012L18.0583 13.0886Z" fill="url(#paint0_linear)"/>
<path d="M10.9042 17.9074C11.634 17.9074 12.2256 17.3453 12.2256 16.6519C12.2256 15.9584 11.634 15.3963 10.9042 15.3963C10.1745 15.3963 9.58292 15.9584 9.58292 16.6519C9.58292 17.3453 10.1745 17.9074 10.9042 17.9074Z" fill="white"/>
<path d="M18.4051 14.1281C19.1348 14.1281 19.7264 13.566 19.7264 12.8725C19.7264 12.1791 19.1348 11.617 18.4051 11.617C17.6753 11.617 17.0838 12.1791 17.0838 12.8725C17.0838 13.566 17.6753 14.1281 18.4051 14.1281Z" fill="white"/>
<path d="M27.2272 16.6519C27.957 16.6519 28.5485 16.0897 28.5485 15.3963C28.5485 14.7029 27.957 14.1408 27.2272 14.1408C26.4975 14.1408 25.9059 14.7029 25.9059 15.3963C25.9059 16.0897 26.4975 16.6519 27.2272 16.6519Z" fill="white"/>
<path d="M25.4655 23.7666C26.1952 23.7666 26.7868 23.2045 26.7868 22.5111C26.7868 21.8177 26.1952 21.2555 25.4655 21.2555C24.7357 21.2555 24.1441 21.8177 24.1441 22.5111C24.1441 23.2045 24.7357 23.7666 25.4655 23.7666Z" fill="white"/>
<path d="M21.0477 29.6386C21.7775 29.6386 22.369 29.0764 22.369 28.383C22.369 27.6896 21.7775 27.1275 21.0477 27.1275C20.318 27.1275 19.7264 27.6896 19.7264 28.383C19.7264 29.0764 20.318 29.6386 21.0477 29.6386Z" fill="white"/>
<path d="M16.6433 25.8719C17.3731 25.8719 17.9646 25.3098 17.9646 24.6164C17.9646 23.9229 17.3731 23.3608 16.6433 23.3608C15.9136 23.3608 15.322 23.9229 15.322 24.6164C15.322 25.3098 15.9136 25.8719 16.6433 25.8719Z" fill="white"/>
</g>
<defs>
<linearGradient id="paint0_linear" x1="21.048" y1="40.0004" x2="21.048" y2="0.000424385" gradientUnits="userSpaceOnUse">
<stop stop-color="#2C4EA2"/>
<stop offset="0.56" stop-color="#3FBEAD"/>
<stop offset="1" stop-color="#1496B4"/>
</linearGradient>
<clipPath id="clip0">
<rect width="200" height="40" fill="white"/>
</clipPath>
</defs>
</svg>
