<svg width="2247" height="1998" viewBox="0 0 2247 1998" fill="none" xmlns="http://www.w3.org/2000/svg">
<path d="M3.12915 1015.44C379.756 464.047 1132.07 322.368 1683.46 698.994L1376.97 1147.71C1073.4 940.352 659.2 1018.36 451.845 1321.93L3.12915 1015.44Z" fill="#313896"/>
<path d="M2243.83 1061.71C1867.59 1572.08 1148.85 1680.82 638.481 1304.59L944.651 889.26C1225.64 1096.4 1621.36 1036.53 1828.5 755.538L2243.83 1061.71Z" fill="#313896"/>
<path d="M1672 1081C1673.1 1081 1674 1080.1 1674 1079C1674 1077.9 1673.1 1077 1672 1077C1670.9 1077 1670 1077.9 1670 1079C1670 1080.1 1670.9 1081 1672 1081Z" fill="white"/>
<path d="M1722 1081C1723.1 1081 1724 1080.1 1724 1079C1724 1077.9 1723.1 1077 1722 1077C1720.9 1077 1720 1077.9 1720 1079C1720 1080.1 1720.9 1081 1722 1081Z" fill="white"/>
<path d="M1772 1081C1773.1 1081 1774 1080.1 1774 1079C1774 1077.9 1773.1 1077 1772 1077C1770.9 1077 1770 1077.9 1770 1079C1770 1080.1 1770.9 1081 1772 1081Z" fill="white"/>
<path d="M1822 1081C1823.1 1081 1824 1080.1 1824 1079C1824 1077.9 1823.1 1077 1822 1077C1820.9 1077 1820 1077.9 1820 1079C1820 1080.1 1820.9 1081 1822 1081Z" fill="white"/>
<path d="M1872 1081C1873.1 1081 1874 1080.1 1874 1079C1874 1077.9 1873.1 1077 1872 1077C1870.9 1077 1870 1077.9 1870 1079C1870 1080.1 1870.9 1081 1872 1081Z" fill="white"/>
<path d="M1922 1081C1923.1 1081 1924 1080.1 1924 1079C1924 1077.9 1923.1 1077 1922 1077C1920.9 1077 1920 1077.9 1920 1079C1920 1080.1 1920.9 1081 1922 1081Z" fill="white"/>
<path d="M1672 1131C1673.1 1131 1674 1130.1 1674 1129C1674 1127.9 1673.1 1127 1672 1127C1670.9 1127 1670 1127.9 1670 1129C1670 1130.1 1670.9 1131 1672 1131Z" fill="white"/>
<path d="M1722 1131C1723.1 1131 1724 1130.1 1724 1129C1724 1127.9 1723.1 1127 1722 1127C1720.9 1127 1720 1127.9 1720 1129C1720 1130.1 1720.9 1131 1722 1131Z" fill="white"/>
<path d="M1772 1131C1773.1 1131 1774 1130.1 1774 1129C1774 1127.9 1773.1 1127 1772 1127C1770.9 1127 1770 1127.9 1770 1129C1770 1130.1 1770.9 1131 1772 1131Z" fill="white"/>
<path d="M1822 1131C1823.1 1131 1824 1130.1 1824 1129C1824 1127.9 1823.1 1127 1822 1127C1820.9 1127 1820 1127.9 1820 1129C1820 1130.1 1820.9 1131 1822 1131Z" fill="white"/>
<path d="M1872 1131C1873.1 1131 1874 1130.1 1874 1129C1874 1127.9 1873.1 1127 1872 1127C1870.9 1127 1870 1127.9 1870 1129C1870 1130.1 1870.9 1131 1872 1131Z" fill="white"/>
<path d="M1922 1131C1923.1 1131 1924 1130.1 1924 1129C1924 1127.9 1923.1 1127 1922 1127C1920.9 1127 1920 1127.9 1920 1129C1920 1130.1 1920.9 1131 1922 1131Z" fill="white"/>
<path d="M1672 1181C1673.1 1181 1674 1180.1 1674 1179C1674 1177.9 1673.1 1177 1672 1177C1670.9 1177 1670 1177.9 1670 1179C1670 1180.1 1670.9 1181 1672 1181Z" fill="white"/>
<path d="M1722 1181C1723.1 1181 1724 1180.1 1724 1179C1724 1177.9 1723.1 1177 1722 1177C1720.9 1177 1720 1177.9 1720 1179C1720 1180.1 1720.9 1181 1722 1181Z" fill="white"/>
<path d="M1772 1181C1773.1 1181 1774 1180.1 1774 1179C1774 1177.9 1773.1 1177 1772 1177C1770.9 1177 1770 1177.9 1770 1179C1770 1180.1 1770.9 1181 1772 1181Z" fill="white"/>
<path d="M1822 1181C1823.1 1181 1824 1180.1 1824 1179C1824 1177.9 1823.1 1177 1822 1177C1820.9 1177 1820 1177.9 1820 1179C1820 1180.1 1820.9 1181 1822 1181Z" fill="white"/>
<path d="M1872 1181C1873.1 1181 1874 1180.1 1874 1179C1874 1177.9 1873.1 1177 1872 1177C1870.9 1177 1870 1177.9 1870 1179C1870 1180.1 1870.9 1181 1872 1181Z" fill="white"/>
<path d="M1922 1181C1923.1 1181 1924 1180.1 1924 1179C1924 1177.9 1923.1 1177 1922 1177C1920.9 1177 1920 1177.9 1920 1179C1920 1180.1 1920.9 1181 1922 1181Z" fill="white"/>
<path d="M1672 1231C1673.1 1231 1674 1230.1 1674 1229C1674 1227.9 1673.1 1227 1672 1227C1670.9 1227 1670 1227.9 1670 1229C1670 1230.1 1670.9 1231 1672 1231Z" fill="white"/>
<path d="M1722 1231C1723.1 1231 1724 1230.1 1724 1229C1724 1227.9 1723.1 1227 1722 1227C1720.9 1227 1720 1227.9 1720 1229C1720 1230.1 1720.9 1231 1722 1231Z" fill="white"/>
<path d="M1772 1231C1773.1 1231 1774 1230.1 1774 1229C1774 1227.9 1773.1 1227 1772 1227C1770.9 1227 1770 1227.9 1770 1229C1770 1230.1 1770.9 1231 1772 1231Z" fill="white"/>
<path d="M1822 1231C1823.1 1231 1824 1230.1 1824 1229C1824 1227.9 1823.1 1227 1822 1227C1820.9 1227 1820 1227.9 1820 1229C1820 1230.1 1820.9 1231 1822 1231Z" fill="white"/>
<path d="M1872 1231C1873.1 1231 1874 1230.1 1874 1229C1874 1227.9 1873.1 1227 1872 1227C1870.9 1227 1870 1227.9 1870 1229C1870 1230.1 1870.9 1231 1872 1231Z" fill="white"/>
<path d="M1922 1231C1923.1 1231 1924 1230.1 1924 1229C1924 1227.9 1923.1 1227 1922 1227C1920.9 1227 1920 1227.9 1920 1229C1920 1230.1 1920.9 1231 1922 1231Z" fill="white"/>
<path d="M1672 1281C1673.1 1281 1674 1280.1 1674 1279C1674 1277.9 1673.1 1277 1672 1277C1670.9 1277 1670 1277.9 1670 1279C1670 1280.1 1670.9 1281 1672 1281Z" fill="white"/>
<path d="M1722 1281C1723.1 1281 1724 1280.1 1724 1279C1724 1277.9 1723.1 1277 1722 1277C1720.9 1277 1720 1277.9 1720 1279C1720 1280.1 1720.9 1281 1722 1281Z" fill="white"/>
<path d="M1772 1281C1773.1 1281 1774 1280.1 1774 1279C1774 1277.9 1773.1 1277 1772 1277C1770.9 1277 1770 1277.9 1770 1279C1770 1280.1 1770.9 1281 1772 1281Z" fill="white"/>
<path d="M1822 1281C1823.1 1281 1824 1280.1 1824 1279C1824 1277.9 1823.1 1277 1822 1277C1820.9 1277 1820 1277.9 1820 1279C1820 1280.1 1820.9 1281 1822 1281Z" fill="white"/>
<path d="M1872 1281C1873.1 1281 1874 1280.1 1874 1279C1874 1277.9 1873.1 1277 1872 1277C1870.9 1277 1870 1277.9 1870 1279C1870 1280.1 1870.9 1281 1872 1281Z" fill="white"/>
<path d="M1922 1281C1923.1 1281 1924 1280.1 1924 1279C1924 1277.9 1923.1 1277 1922 1277C1920.9 1277 1920 1277.9 1920 1279C1920 1280.1 1920.9 1281 1922 1281Z" fill="white"/>
<path d="M1672 1331C1673.1 1331 1674 1330.1 1674 1329C1674 1327.9 1673.1 1327 1672 1327C1670.9 1327 1670 1327.9 1670 1329C1670 1330.1 1670.9 1331 1672 1331Z" fill="white"/>
<path d="M1722 1331C1723.1 1331 1724 1330.1 1724 1329C1724 1327.9 1723.1 1327 1722 1327C1720.9 1327 1720 1327.9 1720 1329C1720 1330.1 1720.9 1331 1722 1331Z" fill="white"/>
<path d="M1772 1331C1773.1 1331 1774 1330.1 1774 1329C1774 1327.9 1773.1 1327 1772 1327C1770.9 1327 1770 1327.9 1770 1329C1770 1330.1 1770.9 1331 1772 1331Z" fill="white"/>
<path d="M1822 1331C1823.1 1331 1824 1330.1 1824 1329C1824 1327.9 1823.1 1327 1822 1327C1820.9 1327 1820 1327.9 1820 1329C1820 1330.1 1820.9 1331 1822 1331Z" fill="white"/>
<path d="M1872 1331C1873.1 1331 1874 1330.1 1874 1329C1874 1327.9 1873.1 1327 1872 1327C1870.9 1327 1870 1327.9 1870 1329C1870 1330.1 1870.9 1331 1872 1331Z" fill="white"/>
<path d="M1922 1331C1923.1 1331 1924 1330.1 1924 1329C1924 1327.9 1923.1 1327 1922 1327C1920.9 1327 1920 1327.9 1920 1329C1920 1330.1 1920.9 1331 1922 1331Z" fill="white"/>
<path fill-rule="evenodd" clip-rule="evenodd" d="M1531.92 646.233C1527.48 649.702 1524.88 653.619 1522.99 659.727L1495 651.027C1498.42 640.034 1504.1 630.769 1513.89 623.131C1523.13 615.914 1535.27 610.766 1550.44 606.184C1564 602.084 1572.55 597.45 1577.57 592.75C1582.09 588.527 1584.1 583.994 1584.16 578L1613.47 578.322C1613.31 592.508 1607.81 604.598 1597.59 614.154C1587.89 623.234 1574.47 629.535 1558.91 634.237C1544.95 638.457 1536.91 642.342 1531.92 646.233Z" fill="#00D7FF"/>
<path fill-rule="evenodd" clip-rule="evenodd" d="M361.109 748.318C332.26 745.623 293.695 759.823 276.933 799.735C273.314 808.354 270.781 815.821 268.756 821.982C268.457 822.892 268.175 823.755 267.906 824.576C266.261 829.604 265.137 833.037 263.912 835.903C262.585 839.006 261.769 839.838 261.52 840.062C261.517 840.064 261.515 840.067 261.511 840.07C261.408 840.166 260.724 840.799 258 841.343L264.554 874.132C271.765 872.691 278.337 869.904 283.869 864.934C289.224 860.122 292.402 854.324 294.658 849.047C296.513 844.707 298.166 839.64 299.752 834.777C300.011 833.985 300.267 833.198 300.523 832.421C302.454 826.544 304.661 820.069 307.763 812.683C317.886 788.577 340.996 780.023 357.998 781.611L361.109 748.318Z" fill="white"/>
<path fill-rule="evenodd" clip-rule="evenodd" d="M1573.15 1386.02C1568.27 1414.59 1579.5 1454.12 1618.02 1473.86C1626.34 1478.12 1633.6 1481.22 1639.58 1483.7C1640.47 1484.07 1641.31 1484.42 1642.11 1484.75C1647 1486.77 1650.33 1488.15 1653.1 1489.59C1656.09 1491.15 1656.86 1492.03 1657.06 1492.29C1657.07 1492.29 1657.07 1492.3 1657.07 1492.3C1657.16 1492.41 1657.74 1493.14 1658.07 1495.9L1691.27 1491.85C1690.38 1484.55 1688.1 1477.79 1683.56 1471.9C1679.17 1466.19 1673.63 1462.58 1668.54 1459.93C1664.35 1457.75 1659.43 1455.72 1654.7 1453.77C1653.93 1453.45 1653.16 1453.13 1652.41 1452.82C1646.69 1450.45 1640.4 1447.76 1633.27 1444.1C1610.01 1432.18 1603.23 1408.49 1606.11 1391.65L1573.15 1386.02Z" fill="white"/>
<path d="M899 325C900.105 325 901 324.105 901 323C901 321.895 900.105 321 899 321C897.895 321 897 321.895 897 323C897 324.105 897.895 325 899 325Z" fill="white"/>
<path d="M949 325C950.105 325 951 324.105 951 323C951 321.895 950.105 321 949 321C947.895 321 947 321.895 947 323C947 324.105 947.895 325 949 325Z" fill="white"/>
<path d="M999 325C1000.1 325 1001 324.105 1001 323C1001 321.895 1000.1 321 999 321C997.895 321 997 321.895 997 323C997 324.105 997.895 325 999 325Z" fill="white"/>
<path d="M1049 325C1050.1 325 1051 324.105 1051 323C1051 321.895 1050.1 321 1049 321C1047.9 321 1047 321.895 1047 323C1047 324.105 1047.9 325 1049 325Z" fill="white"/>
<path d="M1099 325C1100.1 325 1101 324.105 1101 323C1101 321.895 1100.1 321 1099 321C1097.9 321 1097 321.895 1097 323C1097 324.105 1097.9 325 1099 325Z" fill="white"/>
<path d="M1149 325C1150.1 325 1151 324.105 1151 323C1151 321.895 1150.1 321 1149 321C1147.9 321 1147 321.895 1147 323C1147 324.105 1147.9 325 1149 325Z" fill="white"/>
<path d="M899 375C900.105 375 901 374.105 901 373C901 371.895 900.105 371 899 371C897.895 371 897 371.895 897 373C897 374.105 897.895 375 899 375Z" fill="white"/>
<path d="M949 375C950.105 375 951 374.105 951 373C951 371.895 950.105 371 949 371C947.895 371 947 371.895 947 373C947 374.105 947.895 375 949 375Z" fill="white"/>
<path d="M999 375C1000.1 375 1001 374.105 1001 373C1001 371.895 1000.1 371 999 371C997.895 371 997 371.895 997 373C997 374.105 997.895 375 999 375Z" fill="white"/>
<path d="M1049 375C1050.1 375 1051 374.105 1051 373C1051 371.895 1050.1 371 1049 371C1047.9 371 1047 371.895 1047 373C1047 374.105 1047.9 375 1049 375Z" fill="white"/>
<path d="M1099 375C1100.1 375 1101 374.105 1101 373C1101 371.895 1100.1 371 1099 371C1097.9 371 1097 371.895 1097 373C1097 374.105 1097.9 375 1099 375Z" fill="white"/>
<path d="M1149 375C1150.1 375 1151 374.105 1151 373C1151 371.895 1150.1 371 1149 371C1147.9 371 1147 371.895 1147 373C1147 374.105 1147.9 375 1149 375Z" fill="white"/>
<path d="M899 425C900.105 425 901 424.105 901 423C901 421.895 900.105 421 899 421C897.895 421 897 421.895 897 423C897 424.105 897.895 425 899 425Z" fill="white"/>
<path d="M949 425C950.105 425 951 424.105 951 423C951 421.895 950.105 421 949 421C947.895 421 947 421.895 947 423C947 424.105 947.895 425 949 425Z" fill="white"/>
<path d="M999 425C1000.1 425 1001 424.105 1001 423C1001 421.895 1000.1 421 999 421C997.895 421 997 421.895 997 423C997 424.105 997.895 425 999 425Z" fill="white"/>
<path d="M1049 425C1050.1 425 1051 424.105 1051 423C1051 421.895 1050.1 421 1049 421C1047.9 421 1047 421.895 1047 423C1047 424.105 1047.9 425 1049 425Z" fill="white"/>
<path d="M1099 425C1100.1 425 1101 424.105 1101 423C1101 421.895 1100.1 421 1099 421C1097.9 421 1097 421.895 1097 423C1097 424.105 1097.9 425 1099 425Z" fill="white"/>
<path d="M1149 425C1150.1 425 1151 424.105 1151 423C1151 421.895 1150.1 421 1149 421C1147.9 421 1147 421.895 1147 423C1147 424.105 1147.9 425 1149 425Z" fill="white"/>
<path d="M899 475C900.105 475 901 474.105 901 473C901 471.895 900.105 471 899 471C897.895 471 897 471.895 897 473C897 474.105 897.895 475 899 475Z" fill="white"/>
<path d="M949 475C950.105 475 951 474.105 951 473C951 471.895 950.105 471 949 471C947.895 471 947 471.895 947 473C947 474.105 947.895 475 949 475Z" fill="white"/>
<path d="M999 475C1000.1 475 1001 474.105 1001 473C1001 471.895 1000.1 471 999 471C997.895 471 997 471.895 997 473C997 474.105 997.895 475 999 475Z" fill="white"/>
<path d="M1049 475C1050.1 475 1051 474.105 1051 473C1051 471.895 1050.1 471 1049 471C1047.9 471 1047 471.895 1047 473C1047 474.105 1047.9 475 1049 475Z" fill="white"/>
<path d="M1099 475C1100.1 475 1101 474.105 1101 473C1101 471.895 1100.1 471 1099 471C1097.9 471 1097 471.895 1097 473C1097 474.105 1097.9 475 1099 475Z" fill="white"/>
<path d="M1149 475C1150.1 475 1151 474.105 1151 473C1151 471.895 1150.1 471 1149 471C1147.9 471 1147 471.895 1147 473C1147 474.105 1147.9 475 1149 475Z" fill="white"/>
<path d="M899 525C900.105 525 901 524.105 901 523C901 521.895 900.105 521 899 521C897.895 521 897 521.895 897 523C897 524.105 897.895 525 899 525Z" fill="white"/>
<path d="M949 525C950.105 525 951 524.105 951 523C951 521.895 950.105 521 949 521C947.895 521 947 521.895 947 523C947 524.105 947.895 525 949 525Z" fill="white"/>
<path d="M999 525C1000.1 525 1001 524.105 1001 523C1001 521.895 1000.1 521 999 521C997.895 521 997 521.895 997 523C997 524.105 997.895 525 999 525Z" fill="white"/>
<path d="M1049 525C1050.1 525 1051 524.105 1051 523C1051 521.895 1050.1 521 1049 521C1047.9 521 1047 521.895 1047 523C1047 524.105 1047.9 525 1049 525Z" fill="white"/>
<path d="M1099 525C1100.1 525 1101 524.105 1101 523C1101 521.895 1100.1 521 1099 521C1097.9 521 1097 521.895 1097 523C1097 524.105 1097.9 525 1099 525Z" fill="white"/>
<path d="M1149 525C1150.1 525 1151 524.105 1151 523C1151 521.895 1150.1 521 1149 521C1147.9 521 1147 521.895 1147 523C1147 524.105 1147.9 525 1149 525Z" fill="white"/>
<path d="M899 575C900.105 575 901 574.105 901 573C901 571.895 900.105 571 899 571C897.895 571 897 571.895 897 573C897 574.105 897.895 575 899 575Z" fill="white"/>
<path d="M949 575C950.105 575 951 574.105 951 573C951 571.895 950.105 571 949 571C947.895 571 947 571.895 947 573C947 574.105 947.895 575 949 575Z" fill="white"/>
<path d="M999 575C1000.1 575 1001 574.105 1001 573C1001 571.895 1000.1 571 999 571C997.895 571 997 571.895 997 573C997 574.105 997.895 575 999 575Z" fill="white"/>
<path d="M1049 575C1050.1 575 1051 574.105 1051 573C1051 571.895 1050.1 571 1049 571C1047.9 571 1047 571.895 1047 573C1047 574.105 1047.9 575 1049 575Z" fill="white"/>
<path d="M1099 575C1100.1 575 1101 574.105 1101 573C1101 571.895 1100.1 571 1099 571C1097.9 571 1097 571.895 1097 573C1097 574.105 1097.9 575 1099 575Z" fill="white"/>
<path d="M1149 575C1150.1 575 1151 574.105 1151 573C1151 571.895 1150.1 571 1149 571C1147.9 571 1147 571.895 1147 573C1147 574.105 1147.9 575 1149 575Z" fill="white"/>
</svg>
