<svg width="175" height="35" viewBox="0 0 175 35" fill="none" xmlns="http://www.w3.org/2000/svg">
<g clip-path="url(#clip0)">
<path d="M47.4842 10.1318H50.2169L56.2196 23.537H53.1131L51.6884 20.2079H45.9543L44.5295 23.537H41.4932L47.4842 10.1318ZM50.6256 17.7555L48.8272 12.8728L47.0287 17.7555H50.6256Z" fill="white"/>
<path d="M58.672 11.9959C59.3276 11.3604 60.1138 10.86 60.9818 10.5259C61.8498 10.1918 62.7809 10.0311 63.7171 10.0539C65.6203 10.0212 67.4684 10.6619 68.9022 11.8516L67.0337 13.8158C66.0979 13.0901 64.9249 12.6976 63.7171 12.7061C63.151 12.6841 62.5861 12.7711 62.0563 12.9618C61.5265 13.1525 61.0427 13.443 60.634 13.8158C60.2439 14.1942 59.9391 14.6443 59.7383 15.1385C59.5375 15.6326 59.4449 16.1605 59.4661 16.6899C59.4384 17.2366 59.5276 17.783 59.7283 18.2961C59.9291 18.8091 60.2371 19.2782 60.634 19.675C61.0419 20.0489 61.5255 20.34 62.0555 20.5308C62.5855 20.7216 63.1508 20.808 63.7171 20.7847C64.9224 20.7991 66.0938 20.4058 67.022 19.675L68.9022 21.739C67.4665 22.9406 65.6063 23.5826 63.6937 23.5368C62.7545 23.555 61.8212 23.3922 60.9502 23.0581C60.0791 22.7239 59.2884 22.2254 58.6258 21.5927C57.9632 20.96 57.4425 20.2062 57.0952 19.3769C56.7478 18.5475 56.5811 17.6599 56.6049 16.7676C56.5872 15.8801 56.7615 14.9986 57.1171 14.1778C57.4727 13.357 58.0019 12.6143 58.672 11.9959Z" fill="white"/>
<path d="M74.6013 10.0542V17.8221C74.5666 18.2365 74.634 18.6528 74.7982 19.038C74.9624 19.4233 75.2189 19.7669 75.5472 20.0415C76.2154 20.5299 77.0402 20.7846 77.8829 20.7628C78.7248 20.7802 79.5482 20.5259 80.2185 20.0415C80.5447 19.7653 80.7997 19.4214 80.9637 19.0366C81.1278 18.6517 81.1964 18.2362 81.1645 17.8221V10.0542H84.0841V18.5878C84.0873 19.2613 83.9317 19.9269 83.6285 20.5357C83.3254 21.1445 82.8824 21.6809 82.3323 22.1056C81.0727 23.0342 79.5238 23.5382 77.9296 23.5382C76.3353 23.5382 74.7864 23.0342 73.5268 22.1056C72.9786 21.6793 72.537 21.1426 72.234 20.5341C71.9311 19.9257 71.7743 19.2609 71.7751 18.5878V10.0542H74.6013Z" fill="white"/>
<path d="M87.2139 10.1318H93.4268C94.1454 10.0855 94.8666 10.1776 95.5469 10.4026C96.2272 10.6276 96.8526 10.9809 97.3857 11.4412C97.7806 11.8301 98.0879 12.2915 98.2887 12.7971C98.4895 13.3028 98.5796 13.842 98.5535 14.3819C98.5962 15.2585 98.3348 16.1242 97.8095 16.8459C97.2841 17.5677 96.5239 18.1055 95.6456 18.3768L99.1491 23.4926H95.4004L92.5392 18.5433H90.2035V23.4926H87.2139V10.1318ZM93.2165 16.3905C94.6997 16.3905 95.5522 15.6692 95.5522 14.5706C95.5522 13.3388 94.6763 12.7396 93.2165 12.7396H90.1919V16.4349L93.2165 16.3905Z" fill="white"/>
<path d="M106.203 10.1318H108.959L114.95 23.537H111.832L110.407 20.2079H104.673L103.248 23.537H100.2L106.203 10.1318ZM109.344 17.7555L107.534 12.8728L105.736 17.7555H109.344Z" fill="white"/>
<path d="M125.904 10.0542V21.0181H133.472V23.5371H123.066V10.0542H125.904Z" fill="white"/>
<path d="M140.888 10.1318H143.644L149.635 23.537H146.517L145.092 20.2079H139.358L137.933 23.537H134.885L140.888 10.1318ZM144.029 17.7555L142.219 12.9061L140.42 17.7555H144.029Z" fill="white"/>
<path d="M151.55 10.1317H157.856C158.488 10.0889 159.123 10.1649 159.724 10.3553C160.325 10.5457 160.881 10.8468 161.36 11.2414C161.668 11.5302 161.91 11.8764 162.071 12.2584C162.232 12.6403 162.308 13.0497 162.294 13.4608C162.312 14.0603 162.156 14.653 161.843 15.1738C161.53 15.6945 161.072 16.1232 160.519 16.4126C162.084 16.9786 163.053 17.6888 163.053 19.3977C163.053 21.7614 161.068 23.4481 157.996 23.4481H151.538L151.55 10.1317ZM157.214 15.3473C158.522 15.3473 159.351 14.9367 159.351 13.9824C159.351 13.1168 158.662 12.6507 157.401 12.6507H154.458V15.3806L157.214 15.3473ZM158.02 21.0068C159.339 21.0068 160.133 20.574 160.133 19.6086C160.133 18.743 159.468 18.2103 157.926 18.2103H154.423V21.0401L158.02 21.0068Z" fill="white"/>
<path d="M172.921 13.6494C172.599 13.2833 172.192 12.9928 171.732 12.8004C171.272 12.6079 170.772 12.5187 170.27 12.5397C169.102 12.5397 168.402 12.7838 168.086 13.2943C167.94 13.4843 167.862 13.7136 167.862 13.949C167.862 14.1844 167.94 14.4137 168.086 14.6037C168.695 15.104 169.466 15.3901 170.27 15.4138C171.434 15.5322 172.551 15.9127 173.529 16.5235C174.026 16.8644 174.422 17.3211 174.68 17.8498C174.938 18.3784 175.048 18.9611 175 19.5419C174.989 20.0918 174.84 20.6312 174.566 21.1156C174.292 21.6 173.9 22.0153 173.423 22.3272C172.387 23.1033 171.099 23.5149 169.78 23.4924C168.654 23.5268 167.534 23.3417 166.487 22.9487C165.636 22.618 164.862 22.1316 164.209 21.5172L166.101 19.7194C166.511 20.1429 167.012 20.4779 167.57 20.7019C168.128 20.9258 168.73 21.0336 169.336 21.0178C170.586 21.0178 171.38 20.7737 171.672 20.2521C171.826 20.0257 171.908 19.7617 171.908 19.492C171.908 19.2222 171.826 18.9582 171.672 18.7318C171.368 18.2103 170.574 17.9106 169.336 17.7886C168.228 17.6811 167.158 17.3399 166.206 16.7898C165.725 16.4933 165.338 16.0766 165.089 15.5854C164.84 15.0941 164.737 14.5472 164.793 14.0045C164.773 13.4298 164.91 12.86 165.19 12.3505C165.47 11.841 165.885 11.4091 166.393 11.0971C167.345 10.3994 168.508 10.0105 169.71 9.98736C170.75 9.94203 171.79 10.0929 172.769 10.4312C173.536 10.7527 174.23 11.2125 174.813 11.7851L172.921 13.6494Z" fill="white"/>
<path d="M18.4169 35.0003C17.4842 35.0011 16.5606 34.8271 15.6989 34.4881C14.8372 34.1492 14.0543 33.652 13.3952 33.025L2.07886 22.2609C1.41961 21.6353 0.896607 20.8923 0.539772 20.0745C0.182937 19.2567 -0.000732422 18.3801 -0.000732422 17.4947C-0.000732422 16.6094 0.182937 15.7328 0.539772 14.915C0.896607 14.0971 1.41961 13.3542 2.07886 12.7286L13.3952 1.97556C14.0545 1.34878 14.8374 0.85158 15.699 0.512357C16.5607 0.173133 17.4842 -0.00146484 18.4169 -0.00146484C19.3495 -0.00146484 20.2731 0.173133 21.1347 0.512357C21.9963 0.85158 22.7792 1.34878 23.4386 1.97556L34.7549 12.7286C35.4145 13.3551 35.9377 14.099 36.2947 14.9178C36.6517 15.7365 36.8355 16.6141 36.8355 17.5003C36.8355 18.3865 36.6517 19.2641 36.2947 20.0828C35.9377 20.9016 35.4145 21.6455 34.7549 22.272L23.4269 33.025C22.7718 33.6541 21.9914 34.1528 21.1312 34.492C20.2709 34.8311 19.3482 35.0039 18.4169 35.0003ZM15.3805 31.1385C15.7787 31.5183 16.2519 31.8197 16.7729 32.0253C17.294 32.231 17.8527 32.3368 18.4169 32.3368C18.9811 32.3368 19.5397 32.231 20.0608 32.0253C20.5818 31.8197 21.055 31.5183 21.4532 31.1385L27.7362 25.1572L23.4853 22.0168C23.1227 22.1909 22.7236 22.2857 22.3174 22.2942C22.1622 22.3112 22.0055 22.3112 21.8503 22.2942L20.8343 23.6369C21.0638 24.0148 21.1847 24.4435 21.1846 24.8798C21.1393 25.5377 20.8323 26.1546 20.3259 26.6053C19.8195 27.056 19.1516 27.3068 18.4577 27.3068C17.7639 27.3068 17.096 27.056 16.5896 26.6053C16.0832 26.1546 15.7762 25.5377 15.7308 24.8798C15.7291 24.5888 15.7805 24.2997 15.8827 24.0253L15.7659 23.9144C15.401 24.0798 15.0023 24.1669 14.598 24.1696C14.1935 24.1696 13.7942 24.0823 13.4302 23.9144L10.5106 26.5555L15.3805 31.1385ZM18.4169 24.4803C18.3265 24.4808 18.2394 24.5123 18.1716 24.5691C18.0999 24.6369 18.0581 24.7282 18.0548 24.8243C18.0548 24.9156 18.093 25.0031 18.1609 25.0676C18.2288 25.1321 18.3209 25.1683 18.4169 25.1683C18.4648 25.1699 18.5127 25.162 18.5573 25.1453C18.602 25.1286 18.6425 25.1033 18.6765 25.071C18.7104 25.0388 18.737 25.0002 18.7547 24.9578C18.7723 24.9153 18.7805 24.8699 18.7789 24.8243C18.7767 24.7714 18.7631 24.7196 18.739 24.6719C18.7149 24.6242 18.6808 24.5816 18.6388 24.5469C18.5712 24.5102 18.4947 24.4911 18.4169 24.4914V24.4803ZM4.06418 14.6151C3.66447 14.9934 3.34731 15.4431 3.1309 15.9382C2.9145 16.4333 2.8031 16.9642 2.8031 17.5003C2.8031 18.0364 2.9145 18.5673 3.1309 19.0624C3.34731 19.5575 3.66447 20.0071 4.06418 20.3855L8.88734 24.9686L11.9003 22.1056C11.854 21.9201 11.8305 21.7302 11.8303 21.5396C11.8058 21.1851 11.8582 20.8295 11.9842 20.495C12.1102 20.1605 12.3071 19.8541 12.5627 19.5948C12.8183 19.3355 13.1272 19.1288 13.4703 18.9875C13.8133 18.8462 14.1833 18.7732 14.5572 18.7732C14.9311 18.7732 15.301 18.8462 15.6441 18.9875C15.9871 19.1288 16.296 19.3355 16.5516 19.5948C16.8072 19.8541 17.0041 20.1605 17.1301 20.495C17.2561 20.8295 17.3085 21.1851 17.2841 21.5396C17.2838 21.7302 17.2603 21.9201 17.214 22.1056L17.5176 22.3941C17.8064 22.297 18.1106 22.2482 18.4169 22.2498C18.5724 22.2388 18.7285 22.2388 18.884 22.2498L19.8533 20.9404C19.6298 20.5606 19.5132 20.1326 19.5146 19.6975C19.56 19.0396 19.867 18.4227 20.3734 17.972C20.8798 17.5213 21.5477 17.2705 22.2415 17.2705C22.9354 17.2705 23.6033 17.5213 24.1097 17.972C24.6161 18.4227 24.9231 19.0396 24.9684 19.6975C24.9669 19.8801 24.9473 20.0621 24.91 20.2413L29.3945 23.5704L32.7345 20.3966C33.1342 20.0182 33.4514 19.5686 33.6678 19.0735C33.8842 18.5784 33.9956 18.0475 33.9956 17.5114C33.9956 16.9753 33.8842 16.4444 33.6678 15.9493C33.4514 15.4542 33.1342 15.0045 32.7345 14.6262L28.18 10.2983L26.3348 12.5177C26.4502 12.8124 26.5095 13.1243 26.51 13.4388C26.5142 14.0673 26.2773 14.6757 25.8437 15.1503C25.4101 15.6249 24.8094 15.9332 24.154 16.0175C23.4985 16.1018 22.8332 15.9564 22.2824 15.6084C21.7316 15.2604 21.3331 14.7337 21.1613 14.1268L17.9848 13.0171C17.7354 13.2597 17.4375 13.4524 17.1086 13.5839C16.7797 13.7154 16.4264 13.783 16.0695 13.7828C15.5046 13.7831 14.9536 13.6163 14.4929 13.3056L12.239 14.5041C12.1937 15.162 11.8867 15.7789 11.3803 16.2296C10.8739 16.6803 10.206 16.9311 9.51213 16.9311C8.81827 16.9311 8.15039 16.6803 7.64399 16.2296C7.13758 15.7789 6.83057 15.162 6.78523 14.5041C6.78342 13.9705 6.95919 13.45 7.2874 13.0171L6.90202 11.8186L4.06418 14.6151ZM14.2711 21.7504C14.3077 21.7894 14.3528 21.8205 14.4031 21.8415C14.4535 21.8626 14.508 21.8731 14.563 21.8725C14.6164 21.8738 14.6695 21.8635 14.718 21.8424C14.7666 21.8212 14.8095 21.7898 14.8433 21.7504C14.8601 21.6886 14.8601 21.6237 14.8433 21.5618C14.8403 21.4725 14.8008 21.3878 14.7332 21.3257C14.6656 21.2636 14.5753 21.2288 14.4813 21.2289C14.4333 21.2273 14.3855 21.2352 14.3408 21.2519C14.2962 21.2687 14.2556 21.2939 14.2216 21.3262C14.1877 21.3585 14.1611 21.397 14.1435 21.4394C14.1259 21.4819 14.1176 21.5273 14.1192 21.5729C14.1034 21.6311 14.1034 21.6922 14.1192 21.7504H14.2711ZM22.0839 19.9749C22.1482 19.9961 22.2181 19.9961 22.2824 19.9749C22.3328 19.9752 22.3828 19.9655 22.429 19.9464C22.4753 19.9273 22.5168 19.8992 22.551 19.864C22.5695 19.8023 22.5695 19.737 22.551 19.6753C22.5358 19.596 22.4919 19.5243 22.4268 19.4727C22.3617 19.4211 22.2796 19.3928 22.1948 19.3928C22.11 19.3928 22.0279 19.4211 21.9628 19.4727C21.8977 19.5243 21.8538 19.596 21.8386 19.6753C21.8372 19.7261 21.8481 19.7765 21.8704 19.8226C21.8926 19.8688 21.9257 19.9095 21.9671 19.9416L22.0839 19.9749ZM9.34279 14.3043C9.30142 14.3365 9.26834 14.3772 9.24607 14.4234C9.22381 14.4695 9.21295 14.5199 9.21433 14.5707C9.21433 14.6619 9.25247 14.7494 9.32036 14.8139C9.38826 14.8784 9.48034 14.9147 9.57636 14.9147C9.67237 14.9147 9.76446 14.8784 9.83235 14.8139C9.90024 14.7494 9.93839 14.6619 9.93839 14.5707C9.94401 14.5264 9.94401 14.4817 9.93839 14.4375C9.90808 14.376 9.86035 14.3237 9.80054 14.2864C9.74073 14.2492 9.67119 14.2285 9.59972 14.2267C9.53866 14.21 9.47391 14.21 9.41286 14.2267L9.34279 14.3043ZM23.5086 13.4055V13.5387C23.5295 13.6179 23.5775 13.6882 23.6453 13.7385C23.713 13.7887 23.7964 13.816 23.8823 13.8161C23.9774 13.8133 24.0678 13.7762 24.1351 13.7122C24.2023 13.6483 24.2414 13.5624 24.2444 13.4721C24.2444 13.3914 24.2156 13.3131 24.1626 13.2501C24.13 13.2206 24.0915 13.1975 24.0494 13.1823C24.0073 13.167 23.9624 13.1599 23.9174 13.1614C23.8318 13.1575 23.7476 13.1836 23.6809 13.2348C23.6142 13.2859 23.5695 13.3585 23.5553 13.4388L23.5086 13.4055ZM9.54132 11.974C10.1617 11.9793 10.7621 12.1825 11.2464 12.551L13.3835 11.4413C13.3835 11.4413 13.3835 11.3414 13.3835 11.286C13.396 10.6305 13.6689 10.0039 14.1474 9.53169C14.626 9.05952 15.2748 8.77681 15.9635 8.74029C16.6523 8.70378 17.3302 8.91616 17.861 9.33481C18.3919 9.75346 18.7365 10.3474 18.8256 10.9974L21.6518 11.9407C21.9883 11.5087 22.4586 11.1876 22.9969 11.0224C23.5351 10.8572 24.1142 10.8563 24.6531 11.0196L26.545 8.71145L21.4532 3.86205C21.055 3.48224 20.5818 3.18087 20.0608 2.97523C19.5397 2.7696 18.9811 2.66375 18.4169 2.66375C17.8527 2.66375 17.294 2.7696 16.7729 2.97523C16.2519 3.18087 15.7787 3.48224 15.3805 3.86205L8.82894 10.0875L9.43622 11.974H9.54132ZM15.8009 11.4524C15.8322 11.5018 15.877 11.5422 15.9304 11.5696C15.9838 11.5969 16.0439 11.6101 16.1046 11.6078C16.1734 11.6075 16.2407 11.5885 16.2987 11.5531C16.3566 11.5178 16.4027 11.4674 16.4315 11.408C16.4315 11.1195 16.2914 10.9752 16.0929 10.9752C16.0449 10.9737 15.9971 10.9815 15.9524 10.9983C15.9078 11.015 15.8672 11.0403 15.8333 11.0726C15.7993 11.1048 15.7727 11.1434 15.7551 11.1858C15.7375 11.2282 15.7292 11.2737 15.7308 11.3193C15.7201 11.3668 15.7201 11.416 15.7308 11.4635L15.8009 11.4524Z" fill="white"/>
<path d="M9.5412 15.6689C10.1797 15.6689 10.6974 15.177 10.6974 14.5703C10.6974 13.9635 10.1797 13.4717 9.5412 13.4717C8.90267 13.4717 8.38504 13.9635 8.38504 14.5703C8.38504 15.177 8.90267 15.6689 9.5412 15.6689Z" fill="#2C4EA2"/>
<path d="M16.1044 12.3623C16.743 12.3623 17.2606 11.8704 17.2606 11.2636C17.2606 10.6569 16.743 10.165 16.1044 10.165C15.4659 10.165 14.9483 10.6569 14.9483 11.2636C14.9483 11.8704 15.4659 12.3623 16.1044 12.3623Z" fill="#2C4EA2"/>
<path d="M23.8238 14.5703C24.4623 14.5703 24.98 14.0784 24.98 13.4717C24.98 12.8649 24.4623 12.373 23.8238 12.373C23.1853 12.373 22.6677 12.8649 22.6677 13.4717C22.6677 14.0784 23.1853 14.5703 23.8238 14.5703Z" fill="#2C4EA2"/>
<path d="M22.2823 20.7958C22.9208 20.7958 23.4384 20.304 23.4384 19.6972C23.4384 19.0905 22.9208 18.5986 22.2823 18.5986C21.6438 18.5986 21.1261 19.0905 21.1261 19.6972C21.1261 20.304 21.6438 20.7958 22.2823 20.7958Z" fill="#2C4EA2"/>
<path d="M18.4167 25.934C19.0553 25.934 19.5729 25.4422 19.5729 24.8354C19.5729 24.2287 19.0553 23.7368 18.4167 23.7368C17.7782 23.7368 17.2606 24.2287 17.2606 24.8354C17.2606 25.4422 17.7782 25.934 18.4167 25.934Z" fill="#2C4EA2"/>
<path d="M14.5629 22.6381C15.2014 22.6381 15.7191 22.1463 15.7191 21.5395C15.7191 20.9328 15.2014 20.4409 14.5629 20.4409C13.9244 20.4409 13.4067 20.9328 13.4067 21.5395C13.4067 22.1463 13.9244 22.6381 14.5629 22.6381Z" fill="#2C4EA2"/>
</g>
<defs>
<clipPath id="clip0">
<rect width="175" height="35" fill="white"/>
</clipPath>
</defs>
</svg>
