<svg width="785" height="628" viewBox="0 0 785 628" fill="none" xmlns="http://www.w3.org/2000/svg">
<circle opacity="0.4" cx="354" cy="278" r="236.5" stroke="#EFEFF0" stroke-opacity="0.9" stroke-width="5"/>
<circle opacity="0.4" cx="353" cy="279" r="192.5" stroke="#EFEFF0" stroke-opacity="0.8" stroke-width="5"/>
<circle opacity="0.4" cx="354.5" cy="280.5" r="130" stroke="#EFEFF0" stroke-opacity="0.7" stroke-width="5"/>
<circle opacity="0.4" cx="353.5" cy="278.5" r="73" stroke="#EFEFF0" stroke-opacity="0.6" stroke-width="5"/>
<path d="M620.807 356.344C621.273 354.754 620.362 353.087 618.772 352.621C617.182 352.155 615.516 353.066 615.05 354.656L620.807 356.344ZM489.598 514.867C489.178 516.469 490.136 518.11 491.738 518.53L517.853 525.387C519.456 525.807 521.096 524.849 521.517 523.247C521.937 521.644 520.979 520.004 519.377 519.583L496.163 513.489L502.258 490.275C502.679 488.673 501.721 487.033 500.118 486.612C498.516 486.191 496.875 487.149 496.455 488.752L489.598 514.867ZM615.05 354.656C595.329 421.923 550.309 478.388 490.987 513.038L494.013 518.219C554.635 482.81 600.648 425.107 620.807 356.344L615.05 354.656Z" fill="#EFEFF0"/>
<path d="M191.747 52.2358C190.403 53.2038 190.097 55.0787 191.065 56.4233C192.033 57.7679 193.908 58.0732 195.253 57.1051L191.747 52.2358ZM617.455 206.613C618.898 207.427 620.728 206.917 621.542 205.474L634.807 181.957C635.621 180.514 635.111 178.684 633.668 177.87C632.225 177.056 630.395 177.566 629.581 179.009L617.79 199.913L596.886 188.122C595.443 187.308 593.613 187.818 592.799 189.261C591.985 190.704 592.495 192.534 593.938 193.348L617.455 206.613ZM195.253 57.1051C239.926 24.9435 294.746 6 354 6V0C293.447 0 237.407 19.3635 191.747 52.2358L195.253 57.1051ZM354 6C478.859 6 584.077 90.1324 616.039 204.805L621.819 203.195C589.152 85.9948 481.622 0 354 0V6Z" fill="#EFEFF0"/>
<circle cx="354" cy="279" r="12" fill="#EFEFF0"/>
<path d="M91.4015 203.516C90.582 202.076 88.7504 201.573 87.3104 202.393L63.844 215.747C62.404 216.566 61.901 218.398 62.7205 219.838C63.5399 221.278 65.3716 221.781 66.8116 220.961L87.6706 209.091L99.5409 229.95C100.36 231.39 102.192 231.893 103.632 231.074C105.072 230.254 105.575 228.423 104.756 226.983L91.4015 203.516ZM148.769 465.524C149.887 466.747 151.785 466.832 153.008 465.714C154.231 464.596 154.316 462.699 153.198 461.476L148.769 465.524ZM82 278C82 252.996 85.373 228.785 91.687 205.794L85.9013 204.206C79.4464 227.709 76 252.454 76 278H82ZM153.198 461.476C108.974 413.103 82 348.705 82 278H76C76 350.261 103.574 416.089 148.769 465.524L153.198 461.476Z" fill="#EFEFF0"/>
<g filter="url(#filter0_d)">
<rect x="40" y="68" width="285" height="96" rx="8" fill="white"/>
</g>
<path d="M136.592 109.24C134.304 109.24 132.504 108.688 131.192 107.584C129.896 106.48 129.208 104.864 129.128 102.736C129.112 102.304 129.104 101.6 129.104 100.624C129.104 99.632 129.112 98.912 129.128 98.464C129.208 96.384 129.904 94.784 131.216 93.664C132.544 92.528 134.336 91.96 136.592 91.96C138.016 91.96 139.288 92.192 140.408 92.656C141.544 93.12 142.44 93.792 143.096 94.672C143.752 95.552 144.096 96.592 144.128 97.792C144.128 97.936 144.072 98.056 143.96 98.152C143.864 98.248 143.744 98.296 143.6 98.296H140.192C139.968 98.296 139.8 98.256 139.688 98.176C139.592 98.08 139.504 97.912 139.424 97.672C139.2 96.888 138.856 96.344 138.392 96.04C137.944 95.72 137.344 95.56 136.592 95.56C134.784 95.56 133.848 96.568 133.784 98.584C133.768 99.016 133.76 99.68 133.76 100.576C133.76 101.472 133.768 102.152 133.784 102.616C133.848 104.632 134.784 105.64 136.592 105.64C137.328 105.64 137.928 105.48 138.392 105.16C138.872 104.84 139.216 104.296 139.424 103.528C139.488 103.288 139.576 103.128 139.688 103.048C139.8 102.952 139.968 102.904 140.192 102.904H143.6C143.744 102.904 143.864 102.952 143.96 103.048C144.072 103.144 144.128 103.264 144.128 103.408C144.096 104.608 143.752 105.648 143.096 106.528C142.44 107.408 141.544 108.08 140.408 108.544C139.288 109.008 138.016 109.24 136.592 109.24ZM150.081 109.24C149.233 109.24 148.457 109.08 147.753 108.76C147.065 108.424 146.521 107.968 146.121 107.392C145.737 106.816 145.545 106.184 145.545 105.496C145.545 104.408 145.993 103.528 146.889 102.856C147.801 102.168 149.049 101.696 150.633 101.44L153.609 100.984V100.696C153.609 100.104 153.489 99.672 153.249 99.4C153.009 99.128 152.601 98.992 152.025 98.992C151.705 98.992 151.433 99.048 151.209 99.16C151.001 99.272 150.761 99.44 150.489 99.664C150.281 99.84 150.097 99.968 149.937 100.048C149.873 100.16 149.793 100.216 149.697 100.216H146.913C146.753 100.216 146.617 100.168 146.505 100.072C146.409 99.96 146.369 99.832 146.385 99.688C146.401 99.256 146.617 98.776 147.033 98.248C147.449 97.704 148.081 97.24 148.929 96.856C149.777 96.472 150.825 96.28 152.073 96.28C154.057 96.28 155.529 96.72 156.489 97.6C157.449 98.464 157.929 99.64 157.929 101.128V108.4C157.929 108.56 157.873 108.704 157.761 108.832C157.649 108.944 157.505 109 157.329 109H154.377C154.217 109 154.073 108.944 153.945 108.832C153.833 108.704 153.777 108.56 153.777 108.4V107.56C153.425 108.056 152.937 108.464 152.313 108.784C151.689 109.088 150.945 109.24 150.081 109.24ZM151.281 106.408C151.985 106.408 152.553 106.176 152.985 105.712C153.433 105.248 153.657 104.576 153.657 103.696V103.408L151.665 103.744C150.321 104 149.649 104.48 149.649 105.184C149.649 105.552 149.801 105.848 150.105 106.072C150.425 106.296 150.817 106.408 151.281 106.408ZM161.164 113.56C160.988 113.56 160.836 113.504 160.708 113.392C160.596 113.28 160.54 113.136 160.54 112.96V97.12C160.54 96.944 160.596 96.8 160.708 96.688C160.836 96.576 160.988 96.52 161.164 96.52H164.02C164.196 96.52 164.34 96.576 164.452 96.688C164.564 96.8 164.62 96.944 164.62 97.12V97.984C165.484 96.848 166.724 96.28 168.34 96.28C169.892 96.28 171.108 96.768 171.988 97.744C172.884 98.704 173.364 100.08 173.428 101.872C173.444 102.08 173.452 102.376 173.452 102.76C173.452 103.144 173.444 103.448 173.428 103.672C173.364 105.4 172.884 106.76 171.988 107.752C171.092 108.744 169.876 109.24 168.34 109.24C166.788 109.24 165.628 108.712 164.86 107.656V112.96C164.86 113.136 164.804 113.28 164.692 113.392C164.58 113.504 164.436 113.56 164.26 113.56H161.164ZM166.948 105.904C167.668 105.904 168.18 105.696 168.484 105.28C168.804 104.848 168.988 104.256 169.036 103.504C169.052 103.344 169.06 103.096 169.06 102.76C169.06 102.424 169.052 102.176 169.036 102.016C168.988 101.264 168.804 100.68 168.484 100.264C168.18 99.832 167.668 99.616 166.948 99.616C166.26 99.616 165.748 99.84 165.412 100.288C165.076 100.72 164.892 101.272 164.86 101.944C164.844 102.152 164.836 102.456 164.836 102.856C164.836 103.24 164.844 103.536 164.86 103.744C164.892 104.368 165.076 104.888 165.412 105.304C165.764 105.704 166.276 105.904 166.948 105.904ZM182.256 109C178.864 109 177.168 107.408 177.168 104.224V99.784H175.272C175.112 99.784 174.968 99.728 174.84 99.616C174.728 99.488 174.672 99.344 174.672 99.184V97.12C174.672 96.944 174.728 96.8 174.84 96.688C174.968 96.576 175.112 96.52 175.272 96.52H177.168V92.56C177.168 92.384 177.224 92.24 177.336 92.128C177.464 92.016 177.608 91.96 177.768 91.96H180.72C180.896 91.96 181.04 92.016 181.152 92.128C181.264 92.24 181.32 92.384 181.32 92.56V96.52H184.32C184.496 96.52 184.64 96.576 184.752 96.688C184.88 96.8 184.944 96.944 184.944 97.12V99.184C184.944 99.36 184.88 99.504 184.752 99.616C184.64 99.728 184.496 99.784 184.32 99.784H181.32V103.864C181.32 104.424 181.424 104.848 181.632 105.136C181.84 105.424 182.176 105.568 182.64 105.568H184.536C184.712 105.568 184.856 105.632 184.968 105.76C185.08 105.872 185.136 106.016 185.136 106.192V108.4C185.136 108.56 185.08 108.704 184.968 108.832C184.856 108.944 184.712 109 184.536 109H182.256ZM191.655 109.24C190.247 109.24 189.111 108.768 188.247 107.824C187.383 106.88 186.951 105.544 186.951 103.816V97.12C186.951 96.944 187.007 96.8 187.119 96.688C187.247 96.576 187.391 96.52 187.551 96.52H190.743C190.919 96.52 191.063 96.576 191.175 96.688C191.303 96.8 191.367 96.944 191.367 97.12V103.672C191.367 105.16 192.031 105.904 193.359 105.904C193.999 105.904 194.495 105.712 194.847 105.328C195.215 104.928 195.399 104.376 195.399 103.672V97.12C195.399 96.944 195.455 96.8 195.567 96.688C195.695 96.576 195.847 96.52 196.023 96.52H199.191C199.367 96.52 199.511 96.576 199.623 96.688C199.735 96.8 199.791 96.944 199.791 97.12V108.4C199.791 108.56 199.735 108.704 199.623 108.832C199.511 108.944 199.367 109 199.191 109H196.263C196.087 109 195.935 108.944 195.807 108.832C195.695 108.72 195.639 108.576 195.639 108.4V107.488C194.807 108.656 193.479 109.24 191.655 109.24ZM203.116 109C202.956 109 202.812 108.944 202.684 108.832C202.572 108.704 202.516 108.56 202.516 108.4V97.144C202.516 96.968 202.572 96.824 202.684 96.712C202.796 96.584 202.94 96.52 203.116 96.52H206.044C206.22 96.52 206.364 96.584 206.476 96.712C206.604 96.824 206.668 96.968 206.668 97.144V98.056C207.116 97.56 207.636 97.184 208.228 96.928C208.836 96.656 209.508 96.52 210.244 96.52H211.324C211.5 96.52 211.644 96.576 211.756 96.688C211.868 96.8 211.924 96.944 211.924 97.12V99.736C211.924 99.896 211.868 100.04 211.756 100.168C211.644 100.28 211.5 100.336 211.324 100.336H208.9C208.26 100.336 207.764 100.512 207.412 100.864C207.076 101.216 206.908 101.712 206.908 102.352V108.4C206.908 108.576 206.844 108.72 206.716 108.832C206.604 108.944 206.46 109 206.284 109H203.116ZM219.341 109.24C217.389 109.24 215.853 108.72 214.733 107.68C213.613 106.624 213.037 105.096 213.005 103.096V102.352C213.069 100.448 213.661 98.96 214.781 97.888C215.901 96.816 217.413 96.28 219.317 96.28C220.693 96.28 221.853 96.56 222.797 97.12C223.757 97.664 224.469 98.424 224.933 99.4C225.413 100.36 225.653 101.456 225.653 102.688V103.288C225.653 103.464 225.589 103.616 225.461 103.744C225.349 103.856 225.205 103.912 225.029 103.912H217.421V104.056C217.437 104.776 217.605 105.36 217.925 105.808C218.245 106.24 218.701 106.456 219.293 106.456C219.677 106.456 219.981 106.384 220.205 106.24C220.445 106.08 220.669 105.88 220.877 105.64C221.021 105.48 221.133 105.384 221.213 105.352C221.309 105.304 221.453 105.28 221.645 105.28H224.789C224.933 105.28 225.053 105.328 225.149 105.424C225.261 105.504 225.317 105.608 225.317 105.736C225.317 106.152 225.077 106.64 224.597 107.2C224.133 107.76 223.445 108.24 222.533 108.64C221.637 109.04 220.573 109.24 219.341 109.24ZM221.237 101.464V101.416C221.237 100.648 221.069 100.056 220.733 99.64C220.397 99.208 219.925 98.992 219.317 98.992C218.709 98.992 218.237 99.208 217.901 99.64C217.581 100.056 217.421 100.648 217.421 101.416V101.464H221.237ZM233.709 109C233.549 109 233.405 108.944 233.277 108.832C233.165 108.704 233.109 108.56 233.109 108.4V92.824C233.109 92.648 233.165 92.504 233.277 92.392C233.389 92.264 233.533 92.2 233.709 92.2H240.021C242.389 92.2 244.229 92.768 245.541 93.904C246.853 95.024 247.541 96.64 247.605 98.752C247.621 99.216 247.629 99.832 247.629 100.6C247.629 101.368 247.621 101.976 247.605 102.424C247.445 106.808 244.957 109 240.141 109H233.709ZM240.021 105.4C241.029 105.4 241.773 105.16 242.253 104.68C242.733 104.2 242.989 103.432 243.021 102.376C243.053 101.912 243.069 101.312 243.069 100.576C243.069 99.84 243.053 99.248 243.021 98.8C242.989 97.776 242.709 97.024 242.181 96.544C241.669 96.048 240.909 95.8 239.901 95.8H237.621V105.4H240.021ZM253.863 109.24C253.015 109.24 252.239 109.08 251.535 108.76C250.847 108.424 250.303 107.968 249.903 107.392C249.519 106.816 249.327 106.184 249.327 105.496C249.327 104.408 249.775 103.528 250.671 102.856C251.583 102.168 252.831 101.696 254.415 101.44L257.391 100.984V100.696C257.391 100.104 257.271 99.672 257.031 99.4C256.791 99.128 256.383 98.992 255.807 98.992C255.487 98.992 255.215 99.048 254.991 99.16C254.783 99.272 254.543 99.44 254.271 99.664C254.063 99.84 253.879 99.968 253.719 100.048C253.655 100.16 253.575 100.216 253.479 100.216H250.695C250.535 100.216 250.399 100.168 250.287 100.072C250.191 99.96 250.151 99.832 250.167 99.688C250.183 99.256 250.399 98.776 250.815 98.248C251.231 97.704 251.863 97.24 252.711 96.856C253.559 96.472 254.607 96.28 255.855 96.28C257.839 96.28 259.311 96.72 260.271 97.6C261.231 98.464 261.711 99.64 261.711 101.128V108.4C261.711 108.56 261.655 108.704 261.543 108.832C261.431 108.944 261.287 109 261.111 109H258.159C257.999 109 257.855 108.944 257.727 108.832C257.615 108.704 257.559 108.56 257.559 108.4V107.56C257.207 108.056 256.719 108.464 256.095 108.784C255.471 109.088 254.727 109.24 253.863 109.24ZM255.063 106.408C255.767 106.408 256.335 106.176 256.767 105.712C257.215 105.248 257.439 104.576 257.439 103.696V103.408L255.447 103.744C254.103 104 253.431 104.48 253.431 105.184C253.431 105.552 253.583 105.848 253.887 106.072C254.207 106.296 254.599 106.408 255.063 106.408ZM270.779 109C267.387 109 265.691 107.408 265.691 104.224V99.784H263.795C263.635 99.784 263.491 99.728 263.363 99.616C263.251 99.488 263.195 99.344 263.195 99.184V97.12C263.195 96.944 263.251 96.8 263.363 96.688C263.491 96.576 263.635 96.52 263.795 96.52H265.691V92.56C265.691 92.384 265.747 92.24 265.859 92.128C265.987 92.016 266.131 91.96 266.291 91.96H269.243C269.419 91.96 269.563 92.016 269.675 92.128C269.787 92.24 269.843 92.384 269.843 92.56V96.52H272.843C273.019 96.52 273.163 96.576 273.275 96.688C273.403 96.8 273.467 96.944 273.467 97.12V99.184C273.467 99.36 273.403 99.504 273.275 99.616C273.163 99.728 273.019 99.784 272.843 99.784H269.843V103.864C269.843 104.424 269.947 104.848 270.155 105.136C270.363 105.424 270.699 105.568 271.163 105.568H273.059C273.235 105.568 273.379 105.632 273.491 105.76C273.603 105.872 273.659 106.016 273.659 106.192V108.4C273.659 108.56 273.603 108.704 273.491 108.832C273.379 108.944 273.235 109 273.059 109H270.779ZM279.363 109.24C278.515 109.24 277.739 109.08 277.035 108.76C276.347 108.424 275.803 107.968 275.403 107.392C275.019 106.816 274.827 106.184 274.827 105.496C274.827 104.408 275.275 103.528 276.171 102.856C277.083 102.168 278.331 101.696 279.915 101.44L282.891 100.984V100.696C282.891 100.104 282.771 99.672 282.531 99.4C282.291 99.128 281.883 98.992 281.307 98.992C280.987 98.992 280.715 99.048 280.491 99.16C280.283 99.272 280.043 99.44 279.771 99.664C279.563 99.84 279.379 99.968 279.219 100.048C279.155 100.16 279.075 100.216 278.979 100.216H276.195C276.035 100.216 275.899 100.168 275.787 100.072C275.691 99.96 275.651 99.832 275.667 99.688C275.683 99.256 275.899 98.776 276.315 98.248C276.731 97.704 277.363 97.24 278.211 96.856C279.059 96.472 280.107 96.28 281.355 96.28C283.339 96.28 284.811 96.72 285.771 97.6C286.731 98.464 287.211 99.64 287.211 101.128V108.4C287.211 108.56 287.155 108.704 287.043 108.832C286.931 108.944 286.787 109 286.611 109H283.659C283.499 109 283.355 108.944 283.227 108.832C283.115 108.704 283.059 108.56 283.059 108.4V107.56C282.707 108.056 282.219 108.464 281.595 108.784C280.971 109.088 280.227 109.24 279.363 109.24ZM280.563 106.408C281.267 106.408 281.835 106.176 282.267 105.712C282.715 105.248 282.939 104.576 282.939 103.696V103.408L280.947 103.744C279.603 104 278.931 104.48 278.931 105.184C278.931 105.552 279.083 105.848 279.387 106.072C279.707 106.296 280.099 106.408 280.563 106.408Z" fill="#303037"/>
<path d="M129.661 136H134.056C136.622 136 138.239 134.743 138.239 132.634C138.239 130.946 137.22 129.883 135.629 129.672V129.602C136.851 129.232 137.562 128.327 137.562 126.956C137.562 125.137 136.262 124.003 134.214 124.003H129.661V136ZM131.27 125.409H133.933C135.198 125.409 135.937 126.086 135.937 127.237C135.937 128.538 135.058 129.145 133.08 129.145H131.27V125.409ZM131.27 130.507H134.1C135.682 130.507 136.587 131.289 136.587 132.625C136.587 134.005 135.646 134.594 133.326 134.594H131.27V130.507ZM141.034 136H142.625V126.754H141.034V136ZM140.7 123.906C140.7 124.539 141.184 125.005 141.816 125.005C142.484 125.005 142.968 124.539 142.968 123.906C142.968 123.265 142.484 122.799 141.816 122.799C141.184 122.799 140.7 123.265 140.7 123.906ZM149.322 138.039C148.109 138.039 147.362 137.494 147.239 136.844H145.622C145.745 138.188 146.905 139.384 149.27 139.384C151.634 139.384 153.339 138.276 153.339 135.728V126.754H151.818V128.143H151.739C151.432 127.387 150.447 126.613 149.059 126.613C147.011 126.613 145.42 128.081 145.42 130.524V131.939C145.42 134.383 147.02 135.833 149.067 135.833C150.351 135.833 151.3 135.183 151.66 134.383H151.748V135.719C151.748 137.169 150.948 138.039 149.322 138.039ZM149.454 127.993C150.904 127.993 151.748 129.215 151.748 130.568V131.948C151.748 133.267 150.948 134.479 149.472 134.479C148.039 134.479 147.02 133.354 147.02 131.676V130.814C147.02 129.127 147.951 127.993 149.454 127.993ZM160.493 124.003V136H164.396C167.894 136 169.678 133.908 169.678 129.997C169.678 126.086 167.894 124.003 164.396 124.003H160.493ZM162.11 125.444H164.281C166.777 125.444 167.999 126.965 167.999 130.006C167.999 133.047 166.786 134.55 164.281 134.55H162.11V125.444ZM174.74 136.149C176.103 136.149 176.938 135.517 177.386 134.778H177.456V136H178.985V129.689C178.985 127.422 177.412 126.604 175.505 126.604C173.439 126.604 172.209 127.492 172.068 129.057H173.606C173.791 128.415 174.283 127.967 175.452 127.967C176.639 127.967 177.386 128.503 177.386 129.681V130.595H174.969C172.842 130.595 171.717 131.693 171.717 133.311C171.717 135.024 172.947 136.149 174.74 136.149ZM175.18 134.805C174.222 134.805 173.343 134.312 173.343 133.258C173.343 132.432 173.853 131.808 175.101 131.808H177.386V132.845C177.386 133.961 176.428 134.805 175.18 134.805ZM182.589 126.78H181.165V128.09H182.58V133.407C182.58 135.235 183.055 136.079 185.252 136.079C185.604 136.079 186.254 136.026 186.386 136V134.708C186.236 134.726 185.885 134.743 185.656 134.743C184.531 134.743 184.162 134.462 184.162 133.381V128.09H186.254V126.78H184.162V124.46H182.589V126.78ZM191.352 136.149C192.714 136.149 193.549 135.517 193.997 134.778H194.067V136H195.597V129.689C195.597 127.422 194.023 126.604 192.116 126.604C190.051 126.604 188.82 127.492 188.68 129.057H190.218C190.402 128.415 190.895 127.967 192.063 127.967C193.25 127.967 193.997 128.503 193.997 129.681V130.595H191.58C189.453 130.595 188.328 131.693 188.328 133.311C188.328 135.024 189.559 136.149 191.352 136.149ZM191.791 134.805C190.833 134.805 189.954 134.312 189.954 133.258C189.954 132.432 190.464 131.808 191.712 131.808H193.997V132.845C193.997 133.961 193.039 134.805 191.791 134.805ZM204.008 129.197C204.008 126.692 205.177 125.216 207.154 125.216C208.675 125.216 209.791 126.191 209.949 127.545H211.549V127.483C211.382 125.312 209.562 123.757 207.146 123.757C204.148 123.757 202.382 125.787 202.382 129.171V130.894C202.382 134.286 204.104 136.246 207.146 136.246C209.545 136.246 211.373 134.761 211.549 132.695V132.643H209.949C209.791 133.917 208.701 134.787 207.154 134.787C205.15 134.787 204.008 133.372 204.008 130.885V129.197ZM217.789 126.596C215.478 126.596 213.79 128.195 213.79 130.691V132.045C213.79 134.682 215.451 136.149 217.789 136.149C220.083 136.149 221.779 134.664 221.779 132.045V130.691C221.779 128.107 220.083 126.596 217.789 126.596ZM217.798 127.967C219.283 127.967 220.18 129.145 220.18 130.823V131.931C220.18 133.636 219.327 134.787 217.798 134.787C216.251 134.787 215.381 133.636 215.381 131.931V130.823C215.381 129.153 216.312 127.967 217.798 127.967ZM224.504 136H226.095V123.37H224.504V136ZM229.338 136H230.929V123.37H229.338V136ZM237.626 136.149C239.964 136.149 241.08 134.699 241.221 133.697H239.586C239.428 134.269 238.698 134.787 237.617 134.787C236.079 134.787 235.253 133.688 235.253 132.256V131.79H241.344V130.683C241.344 128.187 239.744 126.596 237.503 126.596C235.288 126.596 233.671 128.151 233.671 130.683V132.071C233.671 134.576 235.139 136.149 237.626 136.149ZM235.253 130.639V130.489C235.253 128.96 236.158 127.958 237.512 127.958C238.865 127.958 239.762 128.96 239.762 130.489V130.639H235.253ZM243.532 132.106C243.532 134.594 245.009 136.149 247.391 136.149C249.834 136.149 250.95 134.796 251.003 133.416H249.456C249.289 134.128 248.779 134.743 247.417 134.743C245.993 134.743 245.123 133.724 245.123 132.115V130.665C245.123 129.048 245.905 128.011 247.417 128.011C248.858 128.011 249.289 128.89 249.386 129.443H250.941C250.897 128.028 249.702 126.596 247.391 126.596C245.018 126.596 243.532 128.178 243.532 130.604V132.106ZM254.009 126.78H252.585V128.09H254V133.407C254 135.235 254.475 136.079 256.672 136.079C257.023 136.079 257.674 136.026 257.806 136V134.708C257.656 134.726 257.305 134.743 257.076 134.743C255.951 134.743 255.582 134.462 255.582 133.381V128.09H257.674V126.78H255.582V124.46H254.009V126.78ZM260.495 136H262.086V126.754H260.495V136ZM260.161 123.906C260.161 124.539 260.645 125.005 261.277 125.005C261.945 125.005 262.429 124.539 262.429 123.906C262.429 123.265 261.945 122.799 261.277 122.799C260.645 122.799 260.161 123.265 260.161 123.906ZM268.994 126.596C266.683 126.596 264.995 128.195 264.995 130.691V132.045C264.995 134.682 266.656 136.149 268.994 136.149C271.288 136.149 272.984 134.664 272.984 132.045V130.691C272.984 128.107 271.288 126.596 268.994 126.596ZM269.003 127.967C270.488 127.967 271.385 129.145 271.385 130.823V131.931C271.385 133.636 270.532 134.787 269.003 134.787C267.456 134.787 266.586 133.636 266.586 131.931V130.823C266.586 129.153 267.518 127.967 269.003 127.967ZM275.656 136H277.247V130.85C277.247 129.259 278.038 128.011 279.664 128.011C280.921 128.011 281.668 128.749 281.668 130.199V136H283.259V129.689C283.259 127.615 281.984 126.604 280.121 126.604C278.188 126.604 277.546 127.703 277.317 128.433H277.229V126.754H275.656V136Z" fill="#A7A9C0"/>
<circle cx="88" cy="114" r="24" fill="#2C4EA2"/>
<path d="M89.0009 121C88.8676 121 88.7476 120.953 88.6409 120.86C88.5476 120.753 88.5009 120.633 88.5009 120.5V111.14L85.8209 113.2C85.7143 113.267 85.6143 113.3 85.5209 113.3C85.3609 113.3 85.2209 113.22 85.1009 113.06L83.8609 111.46C83.8076 111.367 83.7809 111.267 83.7809 111.16C83.7809 110.973 83.8543 110.827 84.0009 110.72L88.6409 107.14C88.7743 107.047 88.9276 107 89.1009 107H91.7409C91.8876 107 92.0076 107.047 92.1009 107.14C92.2076 107.233 92.2609 107.353 92.2609 107.5V120.5C92.2609 120.647 92.2076 120.767 92.1009 120.86C92.0076 120.953 91.8876 121 91.7409 121H89.0009Z" fill="white"/>
<g filter="url(#filter1_d)">
<rect x="460" y="230" width="285" height="96" rx="8" fill="white"/>
</g>
<path d="M550.232 271C550.072 271 549.928 270.944 549.8 270.832C549.688 270.704 549.632 270.56 549.632 270.4V254.824C549.632 254.648 549.688 254.504 549.8 254.392C549.912 254.264 550.056 254.2 550.232 254.2H557.648C559.68 254.2 561.192 254.616 562.184 255.448C563.176 256.28 563.672 257.464 563.672 259C563.672 259.768 563.464 260.432 563.048 260.992C562.648 261.552 562.2 261.96 561.704 262.216C562.36 262.504 562.912 262.984 563.36 263.656C563.808 264.312 564.032 265.056 564.032 265.888C564.032 267.504 563.496 268.76 562.424 269.656C561.368 270.552 559.848 271 557.864 271H550.232ZM557.144 260.848C557.736 260.848 558.192 260.688 558.512 260.368C558.832 260.048 558.992 259.632 558.992 259.12C558.992 258.624 558.832 258.224 558.512 257.92C558.208 257.6 557.752 257.44 557.144 257.44H554.144V260.848H557.144ZM557.36 267.76C557.984 267.76 558.464 267.584 558.8 267.232C559.152 266.864 559.328 266.416 559.328 265.888C559.328 265.344 559.152 264.896 558.8 264.544C558.448 264.176 557.968 263.992 557.36 263.992H554.144V267.76H557.36ZM570.921 271.24C569.513 271.24 568.377 270.768 567.513 269.824C566.649 268.88 566.217 267.544 566.217 265.816V259.12C566.217 258.944 566.273 258.8 566.385 258.688C566.513 258.576 566.657 258.52 566.817 258.52H570.009C570.185 258.52 570.329 258.576 570.441 258.688C570.569 258.8 570.633 258.944 570.633 259.12V265.672C570.633 267.16 571.297 267.904 572.625 267.904C573.265 267.904 573.761 267.712 574.113 267.328C574.481 266.928 574.665 266.376 574.665 265.672V259.12C574.665 258.944 574.721 258.8 574.833 258.688C574.961 258.576 575.113 258.52 575.289 258.52H578.457C578.633 258.52 578.777 258.576 578.889 258.688C579.001 258.8 579.057 258.944 579.057 259.12V270.4C579.057 270.56 579.001 270.704 578.889 270.832C578.777 270.944 578.633 271 578.457 271H575.529C575.353 271 575.201 270.944 575.073 270.832C574.961 270.72 574.905 270.576 574.905 270.4V269.488C574.073 270.656 572.745 271.24 570.921 271.24ZM582.382 256.792C582.206 256.792 582.062 256.736 581.95 256.624C581.838 256.496 581.782 256.344 581.782 256.168V253.936C581.782 253.76 581.838 253.616 581.95 253.504C582.078 253.376 582.222 253.312 582.382 253.312H585.382C585.558 253.312 585.702 253.376 585.814 253.504C585.942 253.616 586.006 253.76 586.006 253.936V256.168C586.006 256.344 585.942 256.496 585.814 256.624C585.702 256.736 585.558 256.792 585.382 256.792H582.382ZM582.382 271C582.222 271 582.078 270.944 581.95 270.832C581.838 270.704 581.782 270.56 581.782 270.4V259.12C581.782 258.944 581.838 258.8 581.95 258.688C582.078 258.576 582.222 258.52 582.382 258.52H585.382C585.558 258.52 585.702 258.576 585.814 258.688C585.942 258.8 586.006 258.944 586.006 259.12V270.4C586.006 270.576 585.942 270.72 585.814 270.832C585.702 270.944 585.558 271 585.382 271H582.382ZM589.367 271C589.191 271 589.039 270.944 588.911 270.832C588.799 270.72 588.743 270.576 588.743 270.4V254.56C588.743 254.384 588.799 254.24 588.911 254.128C589.039 254.016 589.191 253.96 589.367 253.96H592.367C592.543 253.96 592.687 254.016 592.799 254.128C592.911 254.24 592.967 254.384 592.967 254.56V270.4C592.967 270.56 592.911 270.704 592.799 270.832C592.687 270.944 592.543 271 592.367 271H589.367ZM600.384 271.24C598.832 271.24 597.608 270.752 596.712 269.776C595.832 268.8 595.36 267.408 595.296 265.6L595.272 264.76L595.296 263.896C595.36 262.152 595.84 260.784 596.736 259.792C597.632 258.784 598.848 258.28 600.384 258.28C601.824 258.28 602.984 258.744 603.864 259.672V254.56C603.864 254.384 603.92 254.24 604.032 254.128C604.16 254.016 604.304 253.96 604.464 253.96H607.56C607.736 253.96 607.88 254.016 607.992 254.128C608.12 254.24 608.184 254.384 608.184 254.56V270.4C608.184 270.576 608.12 270.72 607.992 270.832C607.88 270.944 607.736 271 607.56 271H604.704C604.544 271 604.4 270.944 604.272 270.832C604.16 270.704 604.104 270.56 604.104 270.4V269.656C603.24 270.712 602 271.24 600.384 271.24ZM601.776 267.904C602.464 267.904 602.976 267.688 603.312 267.256C603.648 266.808 603.832 266.248 603.864 265.576C603.896 265.128 603.912 264.824 603.912 264.664C603.912 264.488 603.896 264.192 603.864 263.776C603.832 263.152 603.64 262.64 603.288 262.24C602.952 261.824 602.448 261.616 601.776 261.616C601.056 261.616 600.536 261.832 600.216 262.264C599.912 262.68 599.736 263.264 599.688 264.016L599.664 264.76L599.688 265.504C599.736 266.256 599.912 266.848 600.216 267.28C600.536 267.696 601.056 267.904 601.776 267.904ZM616.842 271C616.666 271 616.514 270.944 616.386 270.832C616.274 270.72 616.218 270.576 616.218 270.4V254.824C616.218 254.648 616.274 254.504 616.386 254.392C616.514 254.264 616.666 254.2 616.842 254.2H619.554C619.954 254.2 620.242 254.376 620.418 254.728L624.546 262.12L628.698 254.728C628.874 254.376 629.162 254.2 629.562 254.2H632.274C632.45 254.2 632.594 254.264 632.706 254.392C632.834 254.504 632.898 254.648 632.898 254.824V270.4C632.898 270.576 632.834 270.72 632.706 270.832C632.594 270.944 632.45 271 632.274 271H629.226C629.066 271 628.922 270.944 628.794 270.832C628.682 270.704 628.626 270.56 628.626 270.4V261.664L626.034 266.416C625.826 266.784 625.546 266.968 625.194 266.968H623.898C623.578 266.968 623.298 266.784 623.058 266.416L620.49 261.664V270.4C620.49 270.576 620.426 270.72 620.298 270.832C620.186 270.944 620.042 271 619.866 271H616.842ZM641.899 271.24C639.883 271.24 638.331 270.776 637.243 269.848C636.171 268.904 635.587 267.568 635.491 265.84C635.475 265.632 635.467 265.272 635.467 264.76C635.467 264.248 635.475 263.888 635.491 263.68C635.587 261.984 636.187 260.664 637.291 259.72C638.411 258.76 639.947 258.28 641.899 258.28C643.851 258.28 645.379 258.76 646.483 259.72C647.603 260.664 648.211 261.984 648.307 263.68C648.339 264.096 648.355 264.456 648.355 264.76C648.355 265.064 648.339 265.424 648.307 265.84C648.211 267.568 647.619 268.904 646.531 269.848C645.459 270.776 643.915 271.24 641.899 271.24ZM641.899 268.216C642.555 268.216 643.043 268.016 643.363 267.616C643.683 267.2 643.867 266.568 643.915 265.72C643.931 265.56 643.939 265.24 643.939 264.76C643.939 264.28 643.931 263.96 643.915 263.8C643.867 262.968 643.683 262.344 643.363 261.928C643.043 261.512 642.555 261.304 641.899 261.304C641.243 261.304 640.755 261.512 640.435 261.928C640.115 262.344 639.931 262.968 639.883 263.8L639.859 264.76L639.883 265.72C639.931 266.568 640.115 267.2 640.435 267.616C640.755 268.016 641.243 268.216 641.899 268.216ZM655.321 271.24C653.769 271.24 652.545 270.752 651.649 269.776C650.769 268.8 650.297 267.408 650.233 265.6L650.209 264.76L650.233 263.896C650.297 262.152 650.777 260.784 651.673 259.792C652.569 258.784 653.785 258.28 655.321 258.28C656.761 258.28 657.921 258.744 658.801 259.672V254.56C658.801 254.384 658.857 254.24 658.969 254.128C659.097 254.016 659.241 253.96 659.401 253.96H662.497C662.673 253.96 662.817 254.016 662.929 254.128C663.057 254.24 663.121 254.384 663.121 254.56V270.4C663.121 270.576 663.057 270.72 662.929 270.832C662.817 270.944 662.673 271 662.497 271H659.641C659.481 271 659.337 270.944 659.209 270.832C659.097 270.704 659.041 270.56 659.041 270.4V269.656C658.177 270.712 656.937 271.24 655.321 271.24ZM656.713 267.904C657.401 267.904 657.913 267.688 658.249 267.256C658.585 266.808 658.769 266.248 658.801 265.576C658.833 265.128 658.849 264.824 658.849 264.664C658.849 264.488 658.833 264.192 658.801 263.776C658.769 263.152 658.577 262.64 658.225 262.24C657.889 261.824 657.385 261.616 656.713 261.616C655.993 261.616 655.473 261.832 655.153 262.264C654.849 262.68 654.673 263.264 654.625 264.016L654.601 264.76L654.625 265.504C654.673 266.256 654.849 266.848 655.153 267.28C655.473 267.696 655.993 267.904 656.713 267.904ZM671.708 271.24C669.756 271.24 668.22 270.72 667.1 269.68C665.98 268.624 665.404 267.096 665.372 265.096V264.352C665.436 262.448 666.028 260.96 667.148 259.888C668.268 258.816 669.78 258.28 671.684 258.28C673.06 258.28 674.22 258.56 675.164 259.12C676.124 259.664 676.836 260.424 677.3 261.4C677.78 262.36 678.02 263.456 678.02 264.688V265.288C678.02 265.464 677.956 265.616 677.828 265.744C677.716 265.856 677.572 265.912 677.396 265.912H669.788V266.056C669.804 266.776 669.972 267.36 670.292 267.808C670.612 268.24 671.068 268.456 671.66 268.456C672.044 268.456 672.348 268.384 672.572 268.24C672.812 268.08 673.036 267.88 673.244 267.64C673.388 267.48 673.5 267.384 673.58 267.352C673.676 267.304 673.82 267.28 674.012 267.28H677.156C677.3 267.28 677.42 267.328 677.516 267.424C677.628 267.504 677.684 267.608 677.684 267.736C677.684 268.152 677.444 268.64 676.964 269.2C676.5 269.76 675.812 270.24 674.9 270.64C674.004 271.04 672.94 271.24 671.708 271.24ZM673.604 263.464V263.416C673.604 262.648 673.436 262.056 673.1 261.64C672.764 261.208 672.292 260.992 671.684 260.992C671.076 260.992 670.604 261.208 670.268 261.64C669.948 262.056 669.788 262.648 669.788 263.416V263.464H673.604ZM680.797 271C680.621 271 680.469 270.944 680.341 270.832C680.229 270.72 680.173 270.576 680.173 270.4V254.56C680.173 254.384 680.229 254.24 680.341 254.128C680.469 254.016 680.621 253.96 680.797 253.96H683.797C683.973 253.96 684.117 254.016 684.229 254.128C684.341 254.24 684.397 254.384 684.397 254.56V270.4C684.397 270.56 684.341 270.704 684.229 270.832C684.117 270.944 683.973 271 683.797 271H680.797Z" fill="#303037"/>
<path d="M551.164 298V289.308H551.243L554.557 296.928H555.875L559.18 289.308H559.268V298H560.735V286.003H559.153L555.251 295.144H555.198L551.287 286.003H549.696V298H551.164ZM566.51 298.149C567.872 298.149 568.707 297.517 569.155 296.778H569.226V298H570.755V291.689C570.755 289.422 569.182 288.604 567.274 288.604C565.209 288.604 563.979 289.492 563.838 291.057H565.376C565.561 290.415 566.053 289.967 567.222 289.967C568.408 289.967 569.155 290.503 569.155 291.681V292.595H566.738C564.611 292.595 563.486 293.693 563.486 295.311C563.486 297.024 564.717 298.149 566.51 298.149ZM566.949 296.805C565.991 296.805 565.112 296.312 565.112 295.258C565.112 294.432 565.622 293.808 566.87 293.808H569.155V294.845C569.155 295.961 568.197 296.805 566.949 296.805ZM573.392 294.106C573.392 296.594 574.868 298.149 577.25 298.149C579.693 298.149 580.81 296.796 580.862 295.416H579.315C579.148 296.128 578.639 296.743 577.276 296.743C575.853 296.743 574.982 295.724 574.982 294.115V292.665C574.982 291.048 575.765 290.011 577.276 290.011C578.718 290.011 579.148 290.89 579.245 291.443H580.801C580.757 290.028 579.562 288.596 577.25 288.596C574.877 288.596 573.392 290.178 573.392 292.604V294.106ZM583.411 298H585.002V292.85C585.002 291.25 585.828 290.011 587.41 290.011C588.658 290.011 589.458 290.767 589.458 292.217V298H591.049V291.707C591.049 289.633 589.73 288.604 587.946 288.604C586.021 288.604 585.266 289.791 585.081 290.433H585.002V285.37H583.411V298ZM594.345 298H595.936V288.754H594.345V298ZM594.011 285.906C594.011 286.539 594.494 287.005 595.127 287.005C595.795 287.005 596.278 286.539 596.278 285.906C596.278 285.265 595.795 284.799 595.127 284.799C594.494 284.799 594.011 285.265 594.011 285.906ZM599.293 298H600.884V292.85C600.884 291.259 601.675 290.011 603.301 290.011C604.558 290.011 605.305 290.749 605.305 292.199V298H606.896V291.689C606.896 289.615 605.621 288.604 603.758 288.604C601.824 288.604 601.183 289.703 600.954 290.433H600.866V288.754H599.293V298ZM613.487 298.149C615.825 298.149 616.941 296.699 617.082 295.697H615.447C615.289 296.269 614.56 296.787 613.479 296.787C611.94 296.787 611.114 295.688 611.114 294.256V293.79H617.205V292.683C617.205 290.187 615.605 288.596 613.364 288.596C611.149 288.596 609.532 290.151 609.532 292.683V294.071C609.532 296.576 611 298.149 613.487 298.149ZM611.114 292.639V292.489C611.114 290.96 612.02 289.958 613.373 289.958C614.727 289.958 615.623 290.96 615.623 292.489V292.639H611.114ZM631.118 296.532H625.634V286.003H624.017V298H631.118V296.532ZM636.62 298.149C638.958 298.149 640.074 296.699 640.215 295.697H638.58C638.422 296.269 637.692 296.787 636.611 296.787C635.073 296.787 634.247 295.688 634.247 294.256V293.79H640.338V292.683C640.338 290.187 638.738 288.596 636.497 288.596C634.282 288.596 632.665 290.151 632.665 292.683V294.071C632.665 296.576 634.133 298.149 636.62 298.149ZM634.247 292.639V292.489C634.247 290.96 635.152 289.958 636.506 289.958C637.859 289.958 638.756 290.96 638.756 292.489V292.639H634.247ZM645.471 298.149C646.833 298.149 647.668 297.517 648.116 296.778H648.187V298H649.716V291.689C649.716 289.422 648.143 288.604 646.235 288.604C644.17 288.604 642.939 289.492 642.799 291.057H644.337C644.521 290.415 645.014 289.967 646.183 289.967C647.369 289.967 648.116 290.503 648.116 291.681V292.595H645.699C643.572 292.595 642.447 293.693 642.447 295.311C642.447 297.024 643.678 298.149 645.471 298.149ZM645.91 296.805C644.952 296.805 644.073 296.312 644.073 295.258C644.073 294.432 644.583 293.808 645.831 293.808H648.116V294.845C648.116 295.961 647.158 296.805 645.91 296.805ZM652.941 298H654.541V292.296C654.541 291.048 655.35 290.072 656.976 290.072C657.257 290.072 657.573 290.09 657.723 290.125V288.657C657.538 288.631 657.345 288.613 657.143 288.613C655.508 288.613 654.84 289.562 654.611 290.178H654.532V288.754H652.941V298ZM659.85 298H661.44V292.85C661.44 291.259 662.231 290.011 663.857 290.011C665.114 290.011 665.861 290.749 665.861 292.199V298H667.452V291.689C667.452 289.615 666.178 288.604 664.314 288.604C662.381 288.604 661.739 289.703 661.511 290.433H661.423V288.754H659.85V298ZM670.757 298H672.348V288.754H670.757V298ZM670.423 285.906C670.423 286.539 670.906 287.005 671.539 287.005C672.207 287.005 672.69 286.539 672.69 285.906C672.69 285.265 672.207 284.799 671.539 284.799C670.906 284.799 670.423 285.265 670.423 285.906ZM675.705 298H677.296V292.85C677.296 291.259 678.087 290.011 679.713 290.011C680.97 290.011 681.717 290.749 681.717 292.199V298H683.308V291.689C683.308 289.615 682.033 288.604 680.17 288.604C678.236 288.604 677.595 289.703 677.366 290.433H677.278V288.754H675.705V298ZM689.732 300.039C688.52 300.039 687.772 299.494 687.649 298.844H686.032C686.155 300.188 687.315 301.384 689.68 301.384C692.044 301.384 693.749 300.276 693.749 297.728V288.754H692.229V290.143H692.149C691.842 289.387 690.857 288.613 689.469 288.613C687.421 288.613 685.83 290.081 685.83 292.524V293.939C685.83 296.383 687.43 297.833 689.478 297.833C690.761 297.833 691.71 297.183 692.07 296.383H692.158V297.719C692.158 299.169 691.358 300.039 689.732 300.039ZM689.864 289.993C691.314 289.993 692.158 291.215 692.158 292.568V293.948C692.158 295.267 691.358 296.479 689.882 296.479C688.449 296.479 687.43 295.354 687.43 293.676V292.814C687.43 291.127 688.361 289.993 689.864 289.993Z" fill="#A7A9C0"/>
<circle cx="508" cy="276" r="24" fill="#2C4EA2"/>
<path d="M502.757 283C502.624 283 502.504 282.953 502.398 282.86C502.304 282.753 502.258 282.633 502.258 282.5V281C502.258 280.6 502.424 280.267 502.757 280L504.618 278.18C505.884 277.22 506.838 276.473 507.478 275.94C508.131 275.407 508.624 274.927 508.958 274.5C509.304 274.06 509.478 273.647 509.478 273.26C509.478 272.273 508.984 271.78 507.998 271.78C507.478 271.78 507.078 271.94 506.798 272.26C506.518 272.567 506.331 272.953 506.238 273.42C506.158 273.727 505.931 273.88 505.558 273.88H502.918C502.798 273.88 502.691 273.84 502.598 273.76C502.518 273.667 502.478 273.567 502.478 273.46C502.504 272.58 502.744 271.787 503.198 271.08C503.664 270.36 504.311 269.793 505.138 269.38C505.964 268.953 506.918 268.74 507.998 268.74C509.118 268.74 510.084 268.92 510.898 269.28C511.711 269.64 512.324 270.147 512.737 270.8C513.164 271.453 513.378 272.213 513.378 273.08C513.378 274.04 513.078 274.907 512.478 275.68C511.891 276.453 510.991 277.293 509.778 278.2L508.118 279.86H513.178C513.324 279.86 513.444 279.907 513.538 280C513.631 280.093 513.678 280.213 513.678 280.36V282.5C513.678 282.633 513.631 282.753 513.538 282.86C513.444 282.953 513.324 283 513.178 283H502.757Z" fill="white"/>
<g filter="url(#filter2_d)">
<rect x="134" y="477" width="335" height="96" rx="8" fill="white"/>
</g>
<path d="M224.256 518C224.08 518 223.928 517.944 223.8 517.832C223.688 517.72 223.632 517.576 223.632 517.4V501.824C223.632 501.648 223.688 501.504 223.8 501.392C223.928 501.264 224.08 501.2 224.256 501.2H226.968C227.368 501.2 227.656 501.376 227.832 501.728L231.96 509.12L236.112 501.728C236.288 501.376 236.576 501.2 236.976 501.2H239.688C239.864 501.2 240.008 501.264 240.12 501.392C240.248 501.504 240.312 501.648 240.312 501.824V517.4C240.312 517.576 240.248 517.72 240.12 517.832C240.008 517.944 239.864 518 239.688 518H236.64C236.48 518 236.336 517.944 236.208 517.832C236.096 517.704 236.04 517.56 236.04 517.4V508.664L233.448 513.416C233.24 513.784 232.96 513.968 232.608 513.968H231.312C230.992 513.968 230.712 513.784 230.472 513.416L227.904 508.664V517.4C227.904 517.576 227.84 517.72 227.712 517.832C227.6 517.944 227.456 518 227.28 518H224.256ZM249.169 518.24C247.217 518.24 245.681 517.72 244.561 516.68C243.441 515.624 242.865 514.096 242.833 512.096V511.352C242.897 509.448 243.489 507.96 244.609 506.888C245.729 505.816 247.241 505.28 249.145 505.28C250.521 505.28 251.681 505.56 252.625 506.12C253.585 506.664 254.297 507.424 254.761 508.4C255.241 509.36 255.481 510.456 255.481 511.688V512.288C255.481 512.464 255.417 512.616 255.289 512.744C255.177 512.856 255.033 512.912 254.857 512.912H247.249V513.056C247.265 513.776 247.433 514.36 247.753 514.808C248.073 515.24 248.529 515.456 249.121 515.456C249.505 515.456 249.809 515.384 250.033 515.24C250.273 515.08 250.497 514.88 250.705 514.64C250.849 514.48 250.961 514.384 251.041 514.352C251.137 514.304 251.281 514.28 251.473 514.28H254.617C254.761 514.28 254.881 514.328 254.977 514.424C255.089 514.504 255.145 514.608 255.145 514.736C255.145 515.152 254.905 515.64 254.425 516.2C253.961 516.76 253.273 517.24 252.361 517.64C251.465 518.04 250.401 518.24 249.169 518.24ZM251.065 510.464V510.416C251.065 509.648 250.897 509.056 250.561 508.64C250.225 508.208 249.753 507.992 249.145 507.992C248.537 507.992 248.065 508.208 247.729 508.64C247.409 509.056 247.249 509.648 247.249 510.416V510.464H251.065ZM261.402 518.24C260.554 518.24 259.778 518.08 259.074 517.76C258.386 517.424 257.842 516.968 257.442 516.392C257.058 515.816 256.866 515.184 256.866 514.496C256.866 513.408 257.314 512.528 258.21 511.856C259.122 511.168 260.37 510.696 261.954 510.44L264.93 509.984V509.696C264.93 509.104 264.81 508.672 264.57 508.4C264.33 508.128 263.922 507.992 263.346 507.992C263.026 507.992 262.754 508.048 262.53 508.16C262.322 508.272 262.082 508.44 261.81 508.664C261.602 508.84 261.418 508.968 261.258 509.048C261.194 509.16 261.114 509.216 261.018 509.216H258.234C258.074 509.216 257.938 509.168 257.826 509.072C257.73 508.96 257.69 508.832 257.706 508.688C257.722 508.256 257.938 507.776 258.354 507.248C258.77 506.704 259.402 506.24 260.25 505.856C261.098 505.472 262.146 505.28 263.394 505.28C265.378 505.28 266.85 505.72 267.81 506.6C268.77 507.464 269.25 508.64 269.25 510.128V517.4C269.25 517.56 269.194 517.704 269.082 517.832C268.97 517.944 268.826 518 268.65 518H265.698C265.538 518 265.394 517.944 265.266 517.832C265.154 517.704 265.098 517.56 265.098 517.4V516.56C264.746 517.056 264.258 517.464 263.634 517.784C263.01 518.088 262.266 518.24 261.402 518.24ZM262.602 515.408C263.306 515.408 263.874 515.176 264.306 514.712C264.754 514.248 264.978 513.576 264.978 512.696V512.408L262.986 512.744C261.642 513 260.97 513.48 260.97 514.184C260.97 514.552 261.122 514.848 261.426 515.072C261.746 515.296 262.138 515.408 262.602 515.408ZM277.092 518.24C275.78 518.24 274.684 518.056 273.804 517.688C272.924 517.32 272.268 516.88 271.836 516.368C271.42 515.856 271.212 515.392 271.212 514.976C271.212 514.816 271.268 514.688 271.38 514.592C271.508 514.48 271.644 514.424 271.788 514.424H274.692C274.788 514.424 274.868 514.456 274.932 514.52C275.204 514.696 275.356 514.8 275.388 514.832C275.692 515.056 275.972 515.232 276.228 515.36C276.5 515.472 276.82 515.528 277.188 515.528C277.62 515.528 277.972 515.448 278.244 515.288C278.532 515.112 278.676 514.872 278.676 514.568C278.676 514.312 278.596 514.104 278.436 513.944C278.292 513.784 278.004 513.632 277.572 513.488C277.156 513.328 276.516 513.168 275.652 513.008C272.884 512.448 271.5 511.168 271.5 509.168C271.5 508.512 271.708 507.888 272.124 507.296C272.556 506.688 273.18 506.2 273.996 505.832C274.828 505.464 275.82 505.28 276.972 505.28C278.14 505.28 279.148 505.464 279.996 505.832C280.86 506.184 281.516 506.616 281.964 507.128C282.412 507.624 282.636 508.08 282.636 508.496C282.636 508.64 282.58 508.768 282.468 508.88C282.372 508.992 282.252 509.048 282.108 509.048H279.468C279.324 509.048 279.212 509.016 279.132 508.952C278.94 508.856 278.748 508.736 278.556 508.592C278.268 508.4 278.012 508.256 277.788 508.16C277.58 508.048 277.308 507.992 276.972 507.992C276.572 507.992 276.26 508.08 276.036 508.256C275.812 508.432 275.7 508.656 275.7 508.928C275.7 509.168 275.764 509.368 275.892 509.528C276.036 509.672 276.316 509.816 276.732 509.96C277.164 510.104 277.812 510.256 278.676 510.416C280.244 510.688 281.38 511.176 282.084 511.88C282.804 512.568 283.164 513.376 283.164 514.304C283.164 515.504 282.628 516.464 281.556 517.184C280.5 517.888 279.012 518.24 277.092 518.24ZM289.804 518.24C288.396 518.24 287.26 517.768 286.396 516.824C285.532 515.88 285.1 514.544 285.1 512.816V506.12C285.1 505.944 285.156 505.8 285.268 505.688C285.396 505.576 285.54 505.52 285.7 505.52H288.892C289.068 505.52 289.212 505.576 289.324 505.688C289.452 505.8 289.516 505.944 289.516 506.12V512.672C289.516 514.16 290.18 514.904 291.508 514.904C292.148 514.904 292.644 514.712 292.996 514.328C293.364 513.928 293.548 513.376 293.548 512.672V506.12C293.548 505.944 293.604 505.8 293.716 505.688C293.844 505.576 293.996 505.52 294.172 505.52H297.34C297.516 505.52 297.66 505.576 297.772 505.688C297.884 505.8 297.94 505.944 297.94 506.12V517.4C297.94 517.56 297.884 517.704 297.772 517.832C297.66 517.944 297.516 518 297.34 518H294.412C294.236 518 294.084 517.944 293.956 517.832C293.844 517.72 293.788 517.576 293.788 517.4V516.488C292.956 517.656 291.628 518.24 289.804 518.24ZM301.265 518C301.105 518 300.961 517.944 300.833 517.832C300.721 517.704 300.665 517.56 300.665 517.4V506.144C300.665 505.968 300.721 505.824 300.833 505.712C300.945 505.584 301.089 505.52 301.265 505.52H304.193C304.369 505.52 304.513 505.584 304.625 505.712C304.753 505.824 304.817 505.968 304.817 506.144V507.056C305.265 506.56 305.785 506.184 306.377 505.928C306.985 505.656 307.657 505.52 308.393 505.52H309.473C309.649 505.52 309.793 505.576 309.905 505.688C310.017 505.8 310.073 505.944 310.073 506.12V508.736C310.073 508.896 310.017 509.04 309.905 509.168C309.793 509.28 309.649 509.336 309.473 509.336H307.049C306.409 509.336 305.913 509.512 305.561 509.864C305.225 510.216 305.057 510.712 305.057 511.352V517.4C305.057 517.576 304.993 517.72 304.865 517.832C304.753 517.944 304.609 518 304.433 518H301.265ZM317.49 518.24C315.538 518.24 314.002 517.72 312.882 516.68C311.762 515.624 311.186 514.096 311.154 512.096V511.352C311.218 509.448 311.81 507.96 312.93 506.888C314.05 505.816 315.562 505.28 317.466 505.28C318.842 505.28 320.002 505.56 320.946 506.12C321.906 506.664 322.618 507.424 323.082 508.4C323.562 509.36 323.802 510.456 323.802 511.688V512.288C323.802 512.464 323.738 512.616 323.61 512.744C323.498 512.856 323.354 512.912 323.178 512.912H315.57V513.056C315.586 513.776 315.754 514.36 316.074 514.808C316.394 515.24 316.85 515.456 317.442 515.456C317.826 515.456 318.13 515.384 318.354 515.24C318.594 515.08 318.818 514.88 319.026 514.64C319.17 514.48 319.282 514.384 319.362 514.352C319.458 514.304 319.602 514.28 319.794 514.28H322.938C323.082 514.28 323.202 514.328 323.298 514.424C323.41 514.504 323.466 514.608 323.466 514.736C323.466 515.152 323.226 515.64 322.746 516.2C322.282 516.76 321.594 517.24 320.682 517.64C319.786 518.04 318.722 518.24 317.49 518.24ZM319.386 510.464V510.416C319.386 509.648 319.218 509.056 318.882 508.64C318.546 508.208 318.074 507.992 317.466 507.992C316.858 507.992 316.386 508.208 316.05 508.64C315.73 509.056 315.57 509.648 315.57 510.416V510.464H319.386Z" fill="#303037"/>
<path d="M225.164 545V536.308H225.243L228.557 543.928H229.875L233.18 536.308H233.268V545H234.735V533.003H233.153L229.251 542.144H229.198L225.287 533.003H223.696V545H225.164ZM241.564 535.596C239.253 535.596 237.565 537.195 237.565 539.691V541.045C237.565 543.682 239.227 545.149 241.564 545.149C243.858 545.149 245.555 543.664 245.555 541.045V539.691C245.555 537.107 243.858 535.596 241.564 535.596ZM241.573 536.967C243.059 536.967 243.955 538.145 243.955 539.823V540.931C243.955 542.636 243.103 543.787 241.573 543.787C240.026 543.787 239.156 542.636 239.156 540.931V539.823C239.156 538.153 240.088 536.967 241.573 536.967ZM248.227 545H249.817V539.85C249.817 538.259 250.608 537.011 252.234 537.011C253.491 537.011 254.238 537.749 254.238 539.199V545H255.829V538.689C255.829 536.615 254.555 535.604 252.691 535.604C250.758 535.604 250.116 536.703 249.888 537.433H249.8V535.754H248.227V545ZM259.134 545H260.725V535.754H259.134V545ZM258.8 532.906C258.8 533.539 259.283 534.005 259.916 534.005C260.584 534.005 261.067 533.539 261.067 532.906C261.067 532.265 260.584 531.799 259.916 531.799C259.283 531.799 258.8 532.265 258.8 532.906ZM264.601 535.78H263.177V537.09H264.592V542.407C264.592 544.235 265.066 545.079 267.264 545.079C267.615 545.079 268.266 545.026 268.397 545V543.708C268.248 543.726 267.896 543.743 267.668 543.743C266.543 543.743 266.174 543.462 266.174 542.381V537.09H268.266V535.78H266.174V533.46H264.601V535.78ZM274.418 535.596C272.106 535.596 270.419 537.195 270.419 539.691V541.045C270.419 543.682 272.08 545.149 274.418 545.149C276.712 545.149 278.408 543.664 278.408 541.045V539.691C278.408 537.107 276.712 535.596 274.418 535.596ZM274.427 536.967C275.912 536.967 276.809 538.145 276.809 539.823V540.931C276.809 542.636 275.956 543.787 274.427 543.787C272.88 543.787 272.01 542.636 272.01 540.931V539.823C272.01 538.153 272.941 536.967 274.427 536.967ZM281.221 545H282.82V539.296C282.82 538.048 283.629 537.072 285.255 537.072C285.536 537.072 285.853 537.09 286.002 537.125V535.657C285.817 535.631 285.624 535.613 285.422 535.613C283.787 535.613 283.119 536.562 282.891 537.178H282.812V535.754H281.221V545ZM288.349 545H289.939V535.754H288.349V545ZM288.015 532.906C288.015 533.539 288.498 534.005 289.131 534.005C289.799 534.005 290.282 533.539 290.282 532.906C290.282 532.265 289.799 531.799 289.131 531.799C288.498 531.799 288.015 532.265 288.015 532.906ZM293.297 545H294.888V539.85C294.888 538.259 295.679 537.011 297.305 537.011C298.562 537.011 299.309 537.749 299.309 539.199V545H300.899V538.689C300.899 536.615 299.625 535.604 297.762 535.604C295.828 535.604 295.187 536.703 294.958 537.433H294.87V535.754H293.297V545ZM307.324 547.039C306.111 547.039 305.364 546.494 305.241 545.844H303.624C303.747 547.188 304.907 548.384 307.271 548.384C309.636 548.384 311.341 547.276 311.341 544.728V535.754H309.82V537.143H309.741C309.434 536.387 308.449 535.613 307.061 535.613C305.013 535.613 303.422 537.081 303.422 539.524V540.939C303.422 543.383 305.021 544.833 307.069 544.833C308.353 544.833 309.302 544.183 309.662 543.383H309.75V544.719C309.75 546.169 308.95 547.039 307.324 547.039ZM307.456 536.993C308.906 536.993 309.75 538.215 309.75 539.568V540.948C309.75 542.267 308.95 543.479 307.474 543.479C306.041 543.479 305.021 542.354 305.021 540.676V539.814C305.021 538.127 305.953 536.993 307.456 536.993ZM326.669 545H328.638L326.555 542.785C327.231 541.757 327.521 540.342 327.521 538.584V538.171H326.071V538.566C326.071 539.938 325.922 541.001 325.535 541.73L322.67 538.628C324.05 537.898 325.21 537.063 325.21 535.587C325.21 533.979 323.865 532.897 322.151 532.897C320.35 532.897 319.093 534.084 319.093 535.569C319.093 536.668 319.796 537.503 320.569 538.32C320.411 538.391 320.262 538.47 320.112 538.558C318.768 539.296 317.783 540.271 317.783 541.845C317.783 543.954 319.559 545.229 321.809 545.229C322.978 545.229 324.419 544.886 325.597 543.849L326.669 545ZM321.026 539.463C321.149 539.393 321.281 539.322 321.413 539.261L324.691 542.855C323.962 543.62 322.837 543.919 321.949 543.919C320.613 543.919 319.348 543.216 319.348 541.739C319.348 540.658 320.016 540.008 321.026 539.463ZM321.835 537.758C320.886 536.809 320.587 536.281 320.587 535.657C320.587 534.77 321.22 534.119 322.16 534.119C323.065 534.119 323.742 534.726 323.742 535.64C323.742 536.65 322.934 537.195 321.835 537.758ZM335.66 538.197C335.66 535.692 336.829 534.216 338.807 534.216C340.327 534.216 341.443 535.191 341.602 536.545H343.201V536.483C343.034 534.312 341.215 532.757 338.798 532.757C335.801 532.757 334.034 534.787 334.034 538.171V539.894C334.034 543.286 335.757 545.246 338.798 545.246C341.197 545.246 343.025 543.761 343.201 541.695V541.643H341.602C341.443 542.917 340.354 543.787 338.807 543.787C336.803 543.787 335.66 542.372 335.66 539.885V538.197ZM349.441 535.596C347.13 535.596 345.442 537.195 345.442 539.691V541.045C345.442 543.682 347.104 545.149 349.441 545.149C351.735 545.149 353.432 543.664 353.432 541.045V539.691C353.432 537.107 351.735 535.596 349.441 535.596ZM349.45 536.967C350.936 536.967 351.832 538.145 351.832 539.823V540.931C351.832 542.636 350.979 543.787 349.45 543.787C347.903 543.787 347.033 542.636 347.033 540.931V539.823C347.033 538.153 347.965 536.967 349.45 536.967ZM356.156 545H357.747V532.37H356.156V545ZM360.99 545H362.581V532.37H360.99V545ZM368.268 545.149C369.63 545.149 370.465 544.517 370.913 543.778H370.983V545H372.513V538.689C372.513 536.422 370.939 535.604 369.032 535.604C366.967 535.604 365.736 536.492 365.596 538.057H367.134C367.318 537.415 367.811 536.967 368.979 536.967C370.166 536.967 370.913 537.503 370.913 538.681V539.595H368.496C366.369 539.595 365.244 540.693 365.244 542.311C365.244 544.024 366.475 545.149 368.268 545.149ZM368.707 543.805C367.749 543.805 366.87 543.312 366.87 542.258C366.87 541.432 367.38 540.808 368.628 540.808H370.913V541.845C370.913 542.961 369.955 543.805 368.707 543.805ZM379.957 545.141C382.163 545.141 383.543 543.62 383.543 541.159V539.586C383.543 537.134 382.181 535.613 380.001 535.613C378.665 535.613 377.566 536.255 377.276 537.213H377.197V532.37H375.606V545H377.136V543.629H377.215C377.628 544.578 378.656 545.141 379.957 545.141ZM379.649 543.761C378.226 543.761 377.197 542.706 377.197 541.221V539.709C377.197 538.039 378.129 536.993 379.605 536.993C381.091 536.993 381.943 538.065 381.943 539.911V540.887C381.943 542.706 381.1 543.761 379.649 543.761ZM389.783 535.596C387.472 535.596 385.784 537.195 385.784 539.691V541.045C385.784 543.682 387.445 545.149 389.783 545.149C392.077 545.149 393.773 543.664 393.773 541.045V539.691C393.773 537.107 392.077 535.596 389.783 535.596ZM389.792 536.967C391.277 536.967 392.174 538.145 392.174 539.823V540.931C392.174 542.636 391.321 543.787 389.792 543.787C388.245 543.787 387.375 542.636 387.375 540.931V539.823C387.375 538.153 388.307 536.967 389.792 536.967ZM396.586 545H398.186V539.296C398.186 538.048 398.994 537.072 400.62 537.072C400.901 537.072 401.218 537.09 401.367 537.125V535.657C401.183 535.631 400.989 535.613 400.787 535.613C399.152 535.613 398.484 536.562 398.256 537.178H398.177V535.754H396.586V545ZM405.99 545.149C407.353 545.149 408.188 544.517 408.636 543.778H408.706V545H410.235V538.689C410.235 536.422 408.662 535.604 406.755 535.604C404.689 535.604 403.459 536.492 403.318 538.057H404.856C405.041 537.415 405.533 536.967 406.702 536.967C407.889 536.967 408.636 537.503 408.636 538.681V539.595H406.219C404.092 539.595 402.967 540.693 402.967 542.311C402.967 544.024 404.197 545.149 405.99 545.149ZM406.43 543.805C405.472 543.805 404.593 543.312 404.593 542.258C404.593 541.432 405.103 540.808 406.351 540.808H408.636V541.845C408.636 542.961 407.678 543.805 406.43 543.805ZM413.839 535.78H412.415V537.09H413.83V542.407C413.83 544.235 414.305 545.079 416.502 545.079C416.854 545.079 417.504 545.026 417.636 545V543.708C417.486 543.726 417.135 543.743 416.906 543.743C415.781 543.743 415.412 543.462 415.412 542.381V537.09H417.504V535.78H415.412V533.46H413.839V535.78ZM420.325 545H421.916V535.754H420.325V545ZM419.991 532.906C419.991 533.539 420.475 534.005 421.107 534.005C421.775 534.005 422.259 533.539 422.259 532.906C422.259 532.265 421.775 531.799 421.107 531.799C420.475 531.799 419.991 532.265 419.991 532.906ZM428.824 535.596C426.513 535.596 424.825 537.195 424.825 539.691V541.045C424.825 543.682 426.486 545.149 428.824 545.149C431.118 545.149 432.814 543.664 432.814 541.045V539.691C432.814 537.107 431.118 535.596 428.824 535.596ZM428.833 536.967C430.318 536.967 431.215 538.145 431.215 539.823V540.931C431.215 542.636 430.362 543.787 428.833 543.787C427.286 543.787 426.416 542.636 426.416 540.931V539.823C426.416 538.153 427.348 536.967 428.833 536.967ZM435.486 545H437.077V539.85C437.077 538.259 437.868 537.011 439.494 537.011C440.751 537.011 441.498 537.749 441.498 539.199V545H443.089V538.689C443.089 536.615 441.814 535.604 439.951 535.604C438.018 535.604 437.376 536.703 437.147 537.433H437.06V535.754H435.486V545Z" fill="#A7A9C0"/>
<circle cx="182" cy="523" r="24" fill="#2C4EA2"/>
<path d="M181.89 530.2C180.583 530.2 179.483 530 178.59 529.6C177.71 529.187 177.056 528.68 176.63 528.08C176.216 527.48 175.996 526.88 175.97 526.28C175.97 526.16 176.01 526.06 176.09 525.98C176.183 525.9 176.29 525.86 176.41 525.86H179.17C179.33 525.86 179.456 525.893 179.55 525.96C179.643 526.013 179.73 526.107 179.81 526.24C180.063 526.893 180.763 527.22 181.91 527.22C182.563 527.22 183.07 527.067 183.43 526.76C183.79 526.453 183.97 526.04 183.97 525.52C183.97 524.52 183.303 524.02 181.97 524.02H179.73C179.583 524.02 179.456 523.973 179.35 523.88C179.256 523.773 179.21 523.647 179.21 523.5V522.32C179.21 522.013 179.323 521.787 179.55 521.64L182.77 519H177.25C177.116 519 176.996 518.953 176.89 518.86C176.796 518.753 176.75 518.633 176.75 518.5V516.52C176.75 516.373 176.796 516.253 176.89 516.16C176.983 516.053 177.103 516 177.25 516H186.57C186.716 516 186.836 516.053 186.93 516.16C187.023 516.253 187.07 516.373 187.07 516.52V518.3C187.07 518.58 186.963 518.8 186.75 518.96L183.79 521.66L183.93 521.7C185.13 521.873 186.083 522.287 186.79 522.94C187.496 523.593 187.85 524.533 187.85 525.76C187.85 526.653 187.59 527.44 187.07 528.12C186.563 528.787 185.856 529.3 184.95 529.66C184.056 530.02 183.036 530.2 181.89 530.2Z" fill="white"/>
<defs>
<filter id="filter0_d" x="0" y="43" width="365" height="176" filterUnits="userSpaceOnUse" color-interpolation-filters="sRGB">
<feFlood flood-opacity="0" result="BackgroundImageFix"/>
<feColorMatrix in="SourceAlpha" type="matrix" values="0 0 0 0 0 0 0 0 0 0 0 0 0 0 0 0 0 0 127 0"/>
<feOffset dy="15"/>
<feGaussianBlur stdDeviation="20"/>
<feColorMatrix type="matrix" values="0 0 0 0 0.105882 0 0 0 0 0.117647 0 0 0 0 0.305882 0 0 0 0.08 0"/>
<feBlend mode="normal" in2="BackgroundImageFix" result="effect1_dropShadow"/>
<feBlend mode="normal" in="SourceGraphic" in2="effect1_dropShadow" result="shape"/>
</filter>
<filter id="filter1_d" x="420" y="205" width="365" height="176" filterUnits="userSpaceOnUse" color-interpolation-filters="sRGB">
<feFlood flood-opacity="0" result="BackgroundImageFix"/>
<feColorMatrix in="SourceAlpha" type="matrix" values="0 0 0 0 0 0 0 0 0 0 0 0 0 0 0 0 0 0 127 0"/>
<feOffset dy="15"/>
<feGaussianBlur stdDeviation="20"/>
<feColorMatrix type="matrix" values="0 0 0 0 0.105882 0 0 0 0 0.117647 0 0 0 0 0.305882 0 0 0 0.08 0"/>
<feBlend mode="normal" in2="BackgroundImageFix" result="effect1_dropShadow"/>
<feBlend mode="normal" in="SourceGraphic" in2="effect1_dropShadow" result="shape"/>
</filter>
<filter id="filter2_d" x="94" y="452" width="415" height="176" filterUnits="userSpaceOnUse" color-interpolation-filters="sRGB">
<feFlood flood-opacity="0" result="BackgroundImageFix"/>
<feColorMatrix in="SourceAlpha" type="matrix" values="0 0 0 0 0 0 0 0 0 0 0 0 0 0 0 0 0 0 127 0"/>
<feOffset dy="15"/>
<feGaussianBlur stdDeviation="20"/>
<feColorMatrix type="matrix" values="0 0 0 0 0.105882 0 0 0 0 0.117647 0 0 0 0 0.305882 0 0 0 0.08 0"/>
<feBlend mode="normal" in2="BackgroundImageFix" result="effect1_dropShadow"/>
<feBlend mode="normal" in="SourceGraphic" in2="effect1_dropShadow" result="shape"/>
</filter>
</defs>
</svg>
