<svg width="1783" height="1617" viewBox="0 0 1783 1617" fill="none" xmlns="http://www.w3.org/2000/svg">
<path d="M3.16351 761.898C285.633 348.355 849.865 242.096 1263.41 524.564L1033.54 861.099C805.862 705.582 495.216 764.086 339.7 991.769L3.16351 761.898Z" fill="#313896"/>
<path d="M1780.71 914.518C1498.54 1297.3 959.482 1378.85 576.702 1096.68L806.33 785.178C1017.07 940.533 1313.86 895.63 1469.21 684.885L1780.71 914.518Z" fill="#313896"/>
<path d="M855 306C855.552 306 856 305.552 856 305C856 304.448 855.552 304 855 304C854.448 304 854 304.448 854 305C854 305.552 854.448 306 855 306Z" fill="white"/>
<path d="M880 306C880.552 306 881 305.552 881 305C881 304.448 880.552 304 880 304C879.448 304 879 304.448 879 305C879 305.552 879.448 306 880 306Z" fill="white"/>
<path d="M905 306C905.552 306 906 305.552 906 305C906 304.448 905.552 304 905 304C904.448 304 904 304.448 904 305C904 305.552 904.448 306 905 306Z" fill="white"/>
<path d="M930 306C930.552 306 931 305.552 931 305C931 304.448 930.552 304 930 304C929.448 304 929 304.448 929 305C929 305.552 929.448 306 930 306Z" fill="white"/>
<path d="M955 306C955.552 306 956 305.552 956 305C956 304.448 955.552 304 955 304C954.448 304 954 304.448 954 305C954 305.552 954.448 306 955 306Z" fill="white"/>
<path d="M980 306C980.552 306 981 305.552 981 305C981 304.448 980.552 304 980 304C979.448 304 979 304.448 979 305C979 305.552 979.448 306 980 306Z" fill="white"/>
<path d="M855 331C855.552 331 856 330.552 856 330C856 329.448 855.552 329 855 329C854.448 329 854 329.448 854 330C854 330.552 854.448 331 855 331Z" fill="white"/>
<path d="M880 331C880.552 331 881 330.552 881 330C881 329.448 880.552 329 880 329C879.448 329 879 329.448 879 330C879 330.552 879.448 331 880 331Z" fill="white"/>
<path d="M905 331C905.552 331 906 330.552 906 330C906 329.448 905.552 329 905 329C904.448 329 904 329.448 904 330C904 330.552 904.448 331 905 331Z" fill="white"/>
<path d="M930 331C930.552 331 931 330.552 931 330C931 329.448 930.552 329 930 329C929.448 329 929 329.448 929 330C929 330.552 929.448 331 930 331Z" fill="white"/>
<path d="M955 331C955.552 331 956 330.552 956 330C956 329.448 955.552 329 955 329C954.448 329 954 329.448 954 330C954 330.552 954.448 331 955 331Z" fill="white"/>
<path d="M980 331C980.552 331 981 330.552 981 330C981 329.448 980.552 329 980 329C979.448 329 979 329.448 979 330C979 330.552 979.448 331 980 331Z" fill="white"/>
<path d="M855 356C855.552 356 856 355.552 856 355C856 354.448 855.552 354 855 354C854.448 354 854 354.448 854 355C854 355.552 854.448 356 855 356Z" fill="white"/>
<path d="M880 356C880.552 356 881 355.552 881 355C881 354.448 880.552 354 880 354C879.448 354 879 354.448 879 355C879 355.552 879.448 356 880 356Z" fill="white"/>
<path d="M905 356C905.552 356 906 355.552 906 355C906 354.448 905.552 354 905 354C904.448 354 904 354.448 904 355C904 355.552 904.448 356 905 356Z" fill="white"/>
<path d="M930 356C930.552 356 931 355.552 931 355C931 354.448 930.552 354 930 354C929.448 354 929 354.448 929 355C929 355.552 929.448 356 930 356Z" fill="white"/>
<path d="M955 356C955.552 356 956 355.552 956 355C956 354.448 955.552 354 955 354C954.448 354 954 354.448 954 355C954 355.552 954.448 356 955 356Z" fill="white"/>
<path d="M980 356C980.552 356 981 355.552 981 355C981 354.448 980.552 354 980 354C979.448 354 979 354.448 979 355C979 355.552 979.448 356 980 356Z" fill="white"/>
<path d="M855 381C855.552 381 856 380.552 856 380C856 379.448 855.552 379 855 379C854.448 379 854 379.448 854 380C854 380.552 854.448 381 855 381Z" fill="white"/>
<path d="M880 381C880.552 381 881 380.552 881 380C881 379.448 880.552 379 880 379C879.448 379 879 379.448 879 380C879 380.552 879.448 381 880 381Z" fill="white"/>
<path d="M905 381C905.552 381 906 380.552 906 380C906 379.448 905.552 379 905 379C904.448 379 904 379.448 904 380C904 380.552 904.448 381 905 381Z" fill="white"/>
<path d="M930 381C930.552 381 931 380.552 931 380C931 379.448 930.552 379 930 379C929.448 379 929 379.448 929 380C929 380.552 929.448 381 930 381Z" fill="white"/>
<path d="M955 381C955.552 381 956 380.552 956 380C956 379.448 955.552 379 955 379C954.448 379 954 379.448 954 380C954 380.552 954.448 381 955 381Z" fill="white"/>
<path d="M980 381C980.552 381 981 380.552 981 380C981 379.448 980.552 379 980 379C979.448 379 979 379.448 979 380C979 380.552 979.448 381 980 381Z" fill="white"/>
<path d="M855 406C855.552 406 856 405.552 856 405C856 404.448 855.552 404 855 404C854.448 404 854 404.448 854 405C854 405.552 854.448 406 855 406Z" fill="white"/>
<path d="M880 406C880.552 406 881 405.552 881 405C881 404.448 880.552 404 880 404C879.448 404 879 404.448 879 405C879 405.552 879.448 406 880 406Z" fill="white"/>
<path d="M905 406C905.552 406 906 405.552 906 405C906 404.448 905.552 404 905 404C904.448 404 904 404.448 904 405C904 405.552 904.448 406 905 406Z" fill="white"/>
<path d="M930 406C930.552 406 931 405.552 931 405C931 404.448 930.552 404 930 404C929.448 404 929 404.448 929 405C929 405.552 929.448 406 930 406Z" fill="white"/>
<path d="M955 406C955.552 406 956 405.552 956 405C956 404.448 955.552 404 955 404C954.448 404 954 404.448 954 405C954 405.552 954.448 406 955 406Z" fill="white"/>
<path d="M980 406C980.552 406 981 405.552 981 405C981 404.448 980.552 404 980 404C979.448 404 979 404.448 979 405C979 405.552 979.448 406 980 406Z" fill="white"/>
<path d="M855 431C855.552 431 856 430.552 856 430C856 429.448 855.552 429 855 429C854.448 429 854 429.448 854 430C854 430.552 854.448 431 855 431Z" fill="white"/>
<path d="M880 431C880.552 431 881 430.552 881 430C881 429.448 880.552 429 880 429C879.448 429 879 429.448 879 430C879 430.552 879.448 431 880 431Z" fill="white"/>
<path d="M905 431C905.552 431 906 430.552 906 430C906 429.448 905.552 429 905 429C904.448 429 904 429.448 904 430C904 430.552 904.448 431 905 431Z" fill="white"/>
<path d="M930 431C930.552 431 931 430.552 931 430C931 429.448 930.552 429 930 429C929.448 429 929 429.448 929 430C929 430.552 929.448 431 930 431Z" fill="white"/>
<path d="M955 431C955.552 431 956 430.552 956 430C956 429.448 955.552 429 955 429C954.448 429 954 429.448 954 430C954 430.552 954.448 431 955 431Z" fill="white"/>
<path d="M980 431C980.552 431 981 430.552 981 430C981 429.448 980.552 429 980 429C979.448 429 979 429.448 979 430C979 430.552 979.448 431 980 431Z" fill="white"/>
<path fill-rule="evenodd" clip-rule="evenodd" d="M1063.64 1241.43C1075.6 1249.61 1095.9 1252.75 1112.91 1239.37C1116.59 1236.48 1119.51 1233.83 1121.89 1231.62C1122.24 1231.3 1122.57 1230.99 1122.89 1230.7C1124.83 1228.9 1126.15 1227.67 1127.38 1226.71C1128.71 1225.68 1129.27 1225.51 1129.43 1225.47C1129.44 1225.47 1129.44 1225.47 1129.44 1225.47C1129.51 1225.46 1129.96 1225.35 1131.28 1225.77L1136.37 1209.84C1132.87 1208.72 1129.32 1208.35 1125.7 1209.18C1122.19 1209.98 1119.39 1211.75 1117.13 1213.51C1115.26 1214.96 1113.31 1216.77 1111.44 1218.51C1111.13 1218.8 1110.83 1219.08 1110.53 1219.36C1108.26 1221.46 1105.72 1223.75 1102.57 1226.23C1092.3 1234.31 1080.12 1232.45 1073.07 1227.63L1063.64 1241.43Z" fill="white"/>
<path fill-rule="evenodd" clip-rule="evenodd" d="M765.768 400.93C752.685 394.707 732.137 394.747 717.407 410.607C714.227 414.032 711.754 417.103 709.745 419.647C709.448 420.023 709.167 420.38 708.9 420.719C707.263 422.797 706.146 424.216 705.078 425.352C703.922 426.58 703.395 426.831 703.24 426.893C703.238 426.894 703.237 426.895 703.235 426.896C703.169 426.923 702.739 427.102 701.367 426.89L698.81 443.412C702.443 443.975 706.008 443.796 709.459 442.413C712.801 441.073 715.289 438.897 717.256 436.807C718.873 435.088 720.519 432.993 722.1 430.982C722.357 430.655 722.613 430.329 722.867 430.008C724.783 427.581 726.932 424.919 729.658 421.984C738.554 412.405 750.876 412.36 758.586 416.028L765.768 400.93Z" fill="white"/>
<path fill-rule="evenodd" clip-rule="evenodd" d="M1050.46 424.117C1048.24 425.852 1046.94 427.81 1045.99 430.864L1032 426.514C1033.71 421.018 1036.55 416.385 1041.44 412.566C1046.07 408.958 1052.14 406.383 1059.72 404.092C1066.5 402.043 1070.78 399.725 1073.29 397.375C1075.55 395.264 1076.55 392.997 1076.58 390L1091.23 390.161C1091.16 397.254 1088.41 403.299 1083.3 408.077C1078.44 412.617 1071.74 415.768 1063.96 418.119C1056.97 420.229 1052.95 422.172 1050.46 424.117Z" fill="#00D7FF"/>
</svg>
