<svg width="32" height="32" viewBox="0 0 32 32" fill="none" xmlns="http://www.w3.org/2000/svg">
<path d="M30.6666 24H25.3333M27.9999 26.6667V21.3333V26.6667Z" stroke="#313896" stroke-width="2" stroke-linecap="round" stroke-linejoin="round"/>
<path d="M18.6667 24H5.33333C4.97971 24 4.64057 23.8595 4.39052 23.6095C4.14048 23.3594 4 23.0203 4 22.6667V8C4 7.64638 4.14048 7.30724 4.39052 7.05719C4.64057 6.80714 4.97971 6.66667 5.33333 6.66667H26.6667C27.0203 6.66667 27.3594 6.80714 27.6095 7.05719C27.8595 7.30724 28 7.64638 28 8V14.6667" stroke="#313896" stroke-width="2" stroke-linecap="round"/>
<path d="M5.33325 8L15.1213 16.5653C15.3644 16.7784 15.6767 16.8958 15.9999 16.8958C16.3232 16.8958 16.6354 16.7784 16.8786 16.5653L26.6666 8" stroke="#313896" stroke-width="2" stroke-linecap="round"/>
</svg>
