<svg width="750" height="628" viewBox="0 0 750 628" fill="none" xmlns="http://www.w3.org/2000/svg">
<circle opacity="0.4" cx="376" cy="278" r="236.5" stroke="#EFEFF0" stroke-opacity="0.9" stroke-width="5"/>
<circle opacity="0.4" cx="375" cy="279" r="192.5" stroke="#EFEFF0" stroke-opacity="0.8" stroke-width="5"/>
<circle opacity="0.4" cx="376.5" cy="280.5" r="130" stroke="#EFEFF0" stroke-opacity="0.7" stroke-width="5"/>
<circle opacity="0.4" cx="375.5" cy="278.5" r="73" stroke="#EFEFF0" stroke-opacity="0.6" stroke-width="5"/>
<path d="M629.407 385L626.644 383.832L629.407 385ZM511.598 514.867C511.178 516.469 512.136 518.109 513.738 518.53L539.853 525.386C541.456 525.807 543.096 524.849 543.517 523.247C543.937 521.644 542.979 520.004 541.377 519.583L518.163 513.489L524.258 490.275C524.679 488.673 523.721 487.033 522.118 486.612C520.516 486.191 518.875 487.149 518.455 488.752L511.598 514.867ZM637.825 371.667C638.383 370.107 637.571 368.39 636.011 367.832C634.451 367.273 632.733 368.086 632.175 369.646L637.825 371.667ZM626.644 383.832C603.663 438.19 563.511 483.527 512.987 513.038L516.013 518.219C567.647 488.06 608.681 441.729 632.17 386.168L626.644 383.832ZM632.175 369.646C630.461 374.438 628.616 379.168 626.644 383.832L632.17 386.168C634.186 381.401 636.072 376.566 637.825 371.667L632.175 369.646Z" fill="#EFEFF0"/>
<path d="M213.747 52.2358C212.403 53.2038 212.097 55.0787 213.065 56.4233C214.033 57.7679 215.908 58.0732 217.253 57.1051L213.747 52.2358ZM639.455 206.613C640.898 207.427 642.728 206.917 643.542 205.474L656.807 181.957C657.621 180.514 657.111 178.684 655.668 177.87C654.225 177.056 652.395 177.566 651.581 179.009L639.79 199.913L618.886 188.122C617.443 187.308 615.613 187.818 614.799 189.261C613.985 190.704 614.495 192.534 615.938 193.348L639.455 206.613ZM217.253 57.1051C261.926 24.9435 316.746 6 376 6V0C315.447 0 259.407 19.3635 213.747 52.2358L217.253 57.1051ZM376 6C500.859 6 606.077 90.1324 638.039 204.805L643.819 203.195C611.152 85.9948 503.622 0 376 0V6Z" fill="#EFEFF0"/>
<circle cx="376" cy="279" r="12" fill="#EFEFF0"/>
<path d="M113.402 203.516C112.582 202.076 110.75 201.573 109.31 202.393L85.844 215.747C84.404 216.566 83.901 218.398 84.7205 219.838C85.5399 221.278 87.3716 221.781 88.8116 220.961L109.671 209.091L121.541 229.95C122.36 231.39 124.192 231.893 125.632 231.074C127.072 230.254 127.575 228.423 126.756 226.983L113.402 203.516ZM170.769 465.524C171.887 466.747 173.785 466.832 175.008 465.714C176.231 464.596 176.316 462.699 175.198 461.476L170.769 465.524ZM104 278C104 252.996 107.373 228.785 113.687 205.794L107.901 204.206C101.446 227.709 98 252.454 98 278H104ZM175.198 461.476C130.974 413.103 104 348.705 104 278H98C98 350.261 125.574 416.089 170.769 465.524L175.198 461.476Z" fill="#EFEFF0"/>
<g filter="url(#filter0_d)">
<rect x="40" y="68" width="273" height="101" rx="8" fill="white"/>
</g>
<path d="M136.592 114.24C134.304 114.24 132.504 113.688 131.192 112.584C129.896 111.48 129.208 109.864 129.128 107.736C129.112 107.304 129.104 106.6 129.104 105.624C129.104 104.632 129.112 103.912 129.128 103.464C129.208 101.384 129.904 99.784 131.216 98.664C132.544 97.528 134.336 96.96 136.592 96.96C138.016 96.96 139.288 97.192 140.408 97.656C141.544 98.12 142.44 98.792 143.096 99.672C143.752 100.552 144.096 101.592 144.128 102.792C144.128 102.936 144.072 103.056 143.96 103.152C143.864 103.248 143.744 103.296 143.6 103.296H140.192C139.968 103.296 139.8 103.256 139.688 103.176C139.592 103.08 139.504 102.912 139.424 102.672C139.2 101.888 138.856 101.344 138.392 101.04C137.944 100.72 137.344 100.56 136.592 100.56C134.784 100.56 133.848 101.568 133.784 103.584C133.768 104.016 133.76 104.68 133.76 105.576C133.76 106.472 133.768 107.152 133.784 107.616C133.848 109.632 134.784 110.64 136.592 110.64C137.328 110.64 137.928 110.48 138.392 110.16C138.872 109.84 139.216 109.296 139.424 108.528C139.488 108.288 139.576 108.128 139.688 108.048C139.8 107.952 139.968 107.904 140.192 107.904H143.6C143.744 107.904 143.864 107.952 143.96 108.048C144.072 108.144 144.128 108.264 144.128 108.408C144.096 109.608 143.752 110.648 143.096 111.528C142.44 112.408 141.544 113.08 140.408 113.544C139.288 114.008 138.016 114.24 136.592 114.24ZM150.081 114.24C149.233 114.24 148.457 114.08 147.753 113.76C147.065 113.424 146.521 112.968 146.121 112.392C145.737 111.816 145.545 111.184 145.545 110.496C145.545 109.408 145.993 108.528 146.889 107.856C147.801 107.168 149.049 106.696 150.633 106.44L153.609 105.984V105.696C153.609 105.104 153.489 104.672 153.249 104.4C153.009 104.128 152.601 103.992 152.025 103.992C151.705 103.992 151.433 104.048 151.209 104.16C151.001 104.272 150.761 104.44 150.489 104.664C150.281 104.84 150.097 104.968 149.937 105.048C149.873 105.16 149.793 105.216 149.697 105.216H146.913C146.753 105.216 146.617 105.168 146.505 105.072C146.409 104.96 146.369 104.832 146.385 104.688C146.401 104.256 146.617 103.776 147.033 103.248C147.449 102.704 148.081 102.24 148.929 101.856C149.777 101.472 150.825 101.28 152.073 101.28C154.057 101.28 155.529 101.72 156.489 102.6C157.449 103.464 157.929 104.64 157.929 106.128V113.4C157.929 113.56 157.873 113.704 157.761 113.832C157.649 113.944 157.505 114 157.329 114H154.377C154.217 114 154.073 113.944 153.945 113.832C153.833 113.704 153.777 113.56 153.777 113.4V112.56C153.425 113.056 152.937 113.464 152.313 113.784C151.689 114.088 150.945 114.24 150.081 114.24ZM151.281 111.408C151.985 111.408 152.553 111.176 152.985 110.712C153.433 110.248 153.657 109.576 153.657 108.696V108.408L151.665 108.744C150.321 109 149.649 109.48 149.649 110.184C149.649 110.552 149.801 110.848 150.105 111.072C150.425 111.296 150.817 111.408 151.281 111.408ZM161.164 118.56C160.988 118.56 160.836 118.504 160.708 118.392C160.596 118.28 160.54 118.136 160.54 117.96V102.12C160.54 101.944 160.596 101.8 160.708 101.688C160.836 101.576 160.988 101.52 161.164 101.52H164.02C164.196 101.52 164.34 101.576 164.452 101.688C164.564 101.8 164.62 101.944 164.62 102.12V102.984C165.484 101.848 166.724 101.28 168.34 101.28C169.892 101.28 171.108 101.768 171.988 102.744C172.884 103.704 173.364 105.08 173.428 106.872C173.444 107.08 173.452 107.376 173.452 107.76C173.452 108.144 173.444 108.448 173.428 108.672C173.364 110.4 172.884 111.76 171.988 112.752C171.092 113.744 169.876 114.24 168.34 114.24C166.788 114.24 165.628 113.712 164.86 112.656V117.96C164.86 118.136 164.804 118.28 164.692 118.392C164.58 118.504 164.436 118.56 164.26 118.56H161.164ZM166.948 110.904C167.668 110.904 168.18 110.696 168.484 110.28C168.804 109.848 168.988 109.256 169.036 108.504C169.052 108.344 169.06 108.096 169.06 107.76C169.06 107.424 169.052 107.176 169.036 107.016C168.988 106.264 168.804 105.68 168.484 105.264C168.18 104.832 167.668 104.616 166.948 104.616C166.26 104.616 165.748 104.84 165.412 105.288C165.076 105.72 164.892 106.272 164.86 106.944C164.844 107.152 164.836 107.456 164.836 107.856C164.836 108.24 164.844 108.536 164.86 108.744C164.892 109.368 165.076 109.888 165.412 110.304C165.764 110.704 166.276 110.904 166.948 110.904ZM182.256 114C178.864 114 177.168 112.408 177.168 109.224V104.784H175.272C175.112 104.784 174.968 104.728 174.84 104.616C174.728 104.488 174.672 104.344 174.672 104.184V102.12C174.672 101.944 174.728 101.8 174.84 101.688C174.968 101.576 175.112 101.52 175.272 101.52H177.168V97.56C177.168 97.384 177.224 97.24 177.336 97.128C177.464 97.016 177.608 96.96 177.768 96.96H180.72C180.896 96.96 181.04 97.016 181.152 97.128C181.264 97.24 181.32 97.384 181.32 97.56V101.52H184.32C184.496 101.52 184.64 101.576 184.752 101.688C184.88 101.8 184.944 101.944 184.944 102.12V104.184C184.944 104.36 184.88 104.504 184.752 104.616C184.64 104.728 184.496 104.784 184.32 104.784H181.32V108.864C181.32 109.424 181.424 109.848 181.632 110.136C181.84 110.424 182.176 110.568 182.64 110.568H184.536C184.712 110.568 184.856 110.632 184.968 110.76C185.08 110.872 185.136 111.016 185.136 111.192V113.4C185.136 113.56 185.08 113.704 184.968 113.832C184.856 113.944 184.712 114 184.536 114H182.256ZM191.655 114.24C190.247 114.24 189.111 113.768 188.247 112.824C187.383 111.88 186.951 110.544 186.951 108.816V102.12C186.951 101.944 187.007 101.8 187.119 101.688C187.247 101.576 187.391 101.52 187.551 101.52H190.743C190.919 101.52 191.063 101.576 191.175 101.688C191.303 101.8 191.367 101.944 191.367 102.12V108.672C191.367 110.16 192.031 110.904 193.359 110.904C193.999 110.904 194.495 110.712 194.847 110.328C195.215 109.928 195.399 109.376 195.399 108.672V102.12C195.399 101.944 195.455 101.8 195.567 101.688C195.695 101.576 195.847 101.52 196.023 101.52H199.191C199.367 101.52 199.511 101.576 199.623 101.688C199.735 101.8 199.791 101.944 199.791 102.12V113.4C199.791 113.56 199.735 113.704 199.623 113.832C199.511 113.944 199.367 114 199.191 114H196.263C196.087 114 195.935 113.944 195.807 113.832C195.695 113.72 195.639 113.576 195.639 113.4V112.488C194.807 113.656 193.479 114.24 191.655 114.24ZM203.116 114C202.956 114 202.812 113.944 202.684 113.832C202.572 113.704 202.516 113.56 202.516 113.4V102.144C202.516 101.968 202.572 101.824 202.684 101.712C202.796 101.584 202.94 101.52 203.116 101.52H206.044C206.22 101.52 206.364 101.584 206.476 101.712C206.604 101.824 206.668 101.968 206.668 102.144V103.056C207.116 102.56 207.636 102.184 208.228 101.928C208.836 101.656 209.508 101.52 210.244 101.52H211.324C211.5 101.52 211.644 101.576 211.756 101.688C211.868 101.8 211.924 101.944 211.924 102.12V104.736C211.924 104.896 211.868 105.04 211.756 105.168C211.644 105.28 211.5 105.336 211.324 105.336H208.9C208.26 105.336 207.764 105.512 207.412 105.864C207.076 106.216 206.908 106.712 206.908 107.352V113.4C206.908 113.576 206.844 113.72 206.716 113.832C206.604 113.944 206.46 114 206.284 114H203.116ZM219.341 114.24C217.389 114.24 215.853 113.72 214.733 112.68C213.613 111.624 213.037 110.096 213.005 108.096V107.352C213.069 105.448 213.661 103.96 214.781 102.888C215.901 101.816 217.413 101.28 219.317 101.28C220.693 101.28 221.853 101.56 222.797 102.12C223.757 102.664 224.469 103.424 224.933 104.4C225.413 105.36 225.653 106.456 225.653 107.688V108.288C225.653 108.464 225.589 108.616 225.461 108.744C225.349 108.856 225.205 108.912 225.029 108.912H217.421V109.056C217.437 109.776 217.605 110.36 217.925 110.808C218.245 111.24 218.701 111.456 219.293 111.456C219.677 111.456 219.981 111.384 220.205 111.24C220.445 111.08 220.669 110.88 220.877 110.64C221.021 110.48 221.133 110.384 221.213 110.352C221.309 110.304 221.453 110.28 221.645 110.28H224.789C224.933 110.28 225.053 110.328 225.149 110.424C225.261 110.504 225.317 110.608 225.317 110.736C225.317 111.152 225.077 111.64 224.597 112.2C224.133 112.76 223.445 113.24 222.533 113.64C221.637 114.04 220.573 114.24 219.341 114.24ZM221.237 106.464V106.416C221.237 105.648 221.069 105.056 220.733 104.64C220.397 104.208 219.925 103.992 219.317 103.992C218.709 103.992 218.237 104.208 217.901 104.64C217.581 105.056 217.421 105.648 217.421 106.416V106.464H221.237ZM233.709 114C233.549 114 233.405 113.944 233.277 113.832C233.165 113.704 233.109 113.56 233.109 113.4V97.824C233.109 97.648 233.165 97.504 233.277 97.392C233.389 97.264 233.533 97.2 233.709 97.2H240.021C242.389 97.2 244.229 97.768 245.541 98.904C246.853 100.024 247.541 101.64 247.605 103.752C247.621 104.216 247.629 104.832 247.629 105.6C247.629 106.368 247.621 106.976 247.605 107.424C247.445 111.808 244.957 114 240.141 114H233.709ZM240.021 110.4C241.029 110.4 241.773 110.16 242.253 109.68C242.733 109.2 242.989 108.432 243.021 107.376C243.053 106.912 243.069 106.312 243.069 105.576C243.069 104.84 243.053 104.248 243.021 103.8C242.989 102.776 242.709 102.024 242.181 101.544C241.669 101.048 240.909 100.8 239.901 100.8H237.621V110.4H240.021ZM253.863 114.24C253.015 114.24 252.239 114.08 251.535 113.76C250.847 113.424 250.303 112.968 249.903 112.392C249.519 111.816 249.327 111.184 249.327 110.496C249.327 109.408 249.775 108.528 250.671 107.856C251.583 107.168 252.831 106.696 254.415 106.44L257.391 105.984V105.696C257.391 105.104 257.271 104.672 257.031 104.4C256.791 104.128 256.383 103.992 255.807 103.992C255.487 103.992 255.215 104.048 254.991 104.16C254.783 104.272 254.543 104.44 254.271 104.664C254.063 104.84 253.879 104.968 253.719 105.048C253.655 105.16 253.575 105.216 253.479 105.216H250.695C250.535 105.216 250.399 105.168 250.287 105.072C250.191 104.96 250.151 104.832 250.167 104.688C250.183 104.256 250.399 103.776 250.815 103.248C251.231 102.704 251.863 102.24 252.711 101.856C253.559 101.472 254.607 101.28 255.855 101.28C257.839 101.28 259.311 101.72 260.271 102.6C261.231 103.464 261.711 104.64 261.711 106.128V113.4C261.711 113.56 261.655 113.704 261.543 113.832C261.431 113.944 261.287 114 261.111 114H258.159C257.999 114 257.855 113.944 257.727 113.832C257.615 113.704 257.559 113.56 257.559 113.4V112.56C257.207 113.056 256.719 113.464 256.095 113.784C255.471 114.088 254.727 114.24 253.863 114.24ZM255.063 111.408C255.767 111.408 256.335 111.176 256.767 110.712C257.215 110.248 257.439 109.576 257.439 108.696V108.408L255.447 108.744C254.103 109 253.431 109.48 253.431 110.184C253.431 110.552 253.583 110.848 253.887 111.072C254.207 111.296 254.599 111.408 255.063 111.408ZM270.779 114C267.387 114 265.691 112.408 265.691 109.224V104.784H263.795C263.635 104.784 263.491 104.728 263.363 104.616C263.251 104.488 263.195 104.344 263.195 104.184V102.12C263.195 101.944 263.251 101.8 263.363 101.688C263.491 101.576 263.635 101.52 263.795 101.52H265.691V97.56C265.691 97.384 265.747 97.24 265.859 97.128C265.987 97.016 266.131 96.96 266.291 96.96H269.243C269.419 96.96 269.563 97.016 269.675 97.128C269.787 97.24 269.843 97.384 269.843 97.56V101.52H272.843C273.019 101.52 273.163 101.576 273.275 101.688C273.403 101.8 273.467 101.944 273.467 102.12V104.184C273.467 104.36 273.403 104.504 273.275 104.616C273.163 104.728 273.019 104.784 272.843 104.784H269.843V108.864C269.843 109.424 269.947 109.848 270.155 110.136C270.363 110.424 270.699 110.568 271.163 110.568H273.059C273.235 110.568 273.379 110.632 273.491 110.76C273.603 110.872 273.659 111.016 273.659 111.192V113.4C273.659 113.56 273.603 113.704 273.491 113.832C273.379 113.944 273.235 114 273.059 114H270.779ZM279.363 114.24C278.515 114.24 277.739 114.08 277.035 113.76C276.347 113.424 275.803 112.968 275.403 112.392C275.019 111.816 274.827 111.184 274.827 110.496C274.827 109.408 275.275 108.528 276.171 107.856C277.083 107.168 278.331 106.696 279.915 106.44L282.891 105.984V105.696C282.891 105.104 282.771 104.672 282.531 104.4C282.291 104.128 281.883 103.992 281.307 103.992C280.987 103.992 280.715 104.048 280.491 104.16C280.283 104.272 280.043 104.44 279.771 104.664C279.563 104.84 279.379 104.968 279.219 105.048C279.155 105.16 279.075 105.216 278.979 105.216H276.195C276.035 105.216 275.899 105.168 275.787 105.072C275.691 104.96 275.651 104.832 275.667 104.688C275.683 104.256 275.899 103.776 276.315 103.248C276.731 102.704 277.363 102.24 278.211 101.856C279.059 101.472 280.107 101.28 281.355 101.28C283.339 101.28 284.811 101.72 285.771 102.6C286.731 103.464 287.211 104.64 287.211 106.128V113.4C287.211 113.56 287.155 113.704 287.043 113.832C286.931 113.944 286.787 114 286.611 114H283.659C283.499 114 283.355 113.944 283.227 113.832C283.115 113.704 283.059 113.56 283.059 113.4V112.56C282.707 113.056 282.219 113.464 281.595 113.784C280.971 114.088 280.227 114.24 279.363 114.24ZM280.563 111.408C281.267 111.408 281.835 111.176 282.267 110.712C282.715 110.248 282.939 109.576 282.939 108.696V108.408L280.947 108.744C279.603 109 278.931 109.48 278.931 110.184C278.931 110.552 279.083 110.848 279.387 111.072C279.707 111.296 280.099 111.408 280.563 111.408Z" fill="#303037"/>
<path d="M129.661 141H134.056C136.622 141 138.239 139.743 138.239 137.634C138.239 135.946 137.22 134.883 135.629 134.672V134.602C136.851 134.232 137.562 133.327 137.562 131.956C137.562 130.137 136.262 129.003 134.214 129.003H129.661V141ZM131.27 130.409H133.933C135.198 130.409 135.937 131.086 135.937 132.237C135.937 133.538 135.058 134.145 133.08 134.145H131.27V130.409ZM131.27 135.507H134.1C135.682 135.507 136.587 136.289 136.587 137.625C136.587 139.005 135.646 139.594 133.326 139.594H131.27V135.507ZM141.034 141H142.625V131.754H141.034V141ZM140.7 128.906C140.7 129.539 141.184 130.005 141.816 130.005C142.484 130.005 142.968 129.539 142.968 128.906C142.968 128.265 142.484 127.799 141.816 127.799C141.184 127.799 140.7 128.265 140.7 128.906ZM149.322 143.039C148.109 143.039 147.362 142.494 147.239 141.844H145.622C145.745 143.188 146.905 144.384 149.27 144.384C151.634 144.384 153.339 143.276 153.339 140.728V131.754H151.818V133.143H151.739C151.432 132.387 150.447 131.613 149.059 131.613C147.011 131.613 145.42 133.081 145.42 135.524V136.939C145.42 139.383 147.02 140.833 149.067 140.833C150.351 140.833 151.3 140.183 151.66 139.383H151.748V140.719C151.748 142.169 150.948 143.039 149.322 143.039ZM149.454 132.993C150.904 132.993 151.748 134.215 151.748 135.568V136.948C151.748 138.267 150.948 139.479 149.472 139.479C148.039 139.479 147.02 138.354 147.02 136.676V135.814C147.02 134.127 147.951 132.993 149.454 132.993ZM160.493 129.003V141H164.396C167.894 141 169.678 138.908 169.678 134.997C169.678 131.086 167.894 129.003 164.396 129.003H160.493ZM162.11 130.444H164.281C166.777 130.444 167.999 131.965 167.999 135.006C167.999 138.047 166.786 139.55 164.281 139.55H162.11V130.444ZM174.74 141.149C176.103 141.149 176.938 140.517 177.386 139.778H177.456V141H178.985V134.689C178.985 132.422 177.412 131.604 175.505 131.604C173.439 131.604 172.209 132.492 172.068 134.057H173.606C173.791 133.415 174.283 132.967 175.452 132.967C176.639 132.967 177.386 133.503 177.386 134.681V135.595H174.969C172.842 135.595 171.717 136.693 171.717 138.311C171.717 140.024 172.947 141.149 174.74 141.149ZM175.18 139.805C174.222 139.805 173.343 139.312 173.343 138.258C173.343 137.432 173.853 136.808 175.101 136.808H177.386V137.845C177.386 138.961 176.428 139.805 175.18 139.805ZM182.589 131.78H181.165V133.09H182.58V138.407C182.58 140.235 183.055 141.079 185.252 141.079C185.604 141.079 186.254 141.026 186.386 141V139.708C186.236 139.726 185.885 139.743 185.656 139.743C184.531 139.743 184.162 139.462 184.162 138.381V133.09H186.254V131.78H184.162V129.46H182.589V131.78ZM191.352 141.149C192.714 141.149 193.549 140.517 193.997 139.778H194.067V141H195.597V134.689C195.597 132.422 194.023 131.604 192.116 131.604C190.051 131.604 188.82 132.492 188.68 134.057H190.218C190.402 133.415 190.895 132.967 192.063 132.967C193.25 132.967 193.997 133.503 193.997 134.681V135.595H191.58C189.453 135.595 188.328 136.693 188.328 138.311C188.328 140.024 189.559 141.149 191.352 141.149ZM191.791 139.805C190.833 139.805 189.954 139.312 189.954 138.258C189.954 137.432 190.464 136.808 191.712 136.808H193.997V137.845C193.997 138.961 193.039 139.805 191.791 139.805ZM204.008 134.197C204.008 131.692 205.177 130.216 207.154 130.216C208.675 130.216 209.791 131.191 209.949 132.545H211.549V132.483C211.382 130.312 209.562 128.757 207.146 128.757C204.148 128.757 202.382 130.787 202.382 134.171V135.894C202.382 139.286 204.104 141.246 207.146 141.246C209.545 141.246 211.373 139.761 211.549 137.695V137.643H209.949C209.791 138.917 208.701 139.787 207.154 139.787C205.15 139.787 204.008 138.372 204.008 135.885V134.197ZM217.789 131.596C215.478 131.596 213.79 133.195 213.79 135.691V137.045C213.79 139.682 215.451 141.149 217.789 141.149C220.083 141.149 221.779 139.664 221.779 137.045V135.691C221.779 133.107 220.083 131.596 217.789 131.596ZM217.798 132.967C219.283 132.967 220.18 134.145 220.18 135.823V136.931C220.18 138.636 219.327 139.787 217.798 139.787C216.251 139.787 215.381 138.636 215.381 136.931V135.823C215.381 134.153 216.312 132.967 217.798 132.967ZM224.504 141H226.095V128.37H224.504V141ZM229.338 141H230.929V128.37H229.338V141ZM237.626 141.149C239.964 141.149 241.08 139.699 241.221 138.697H239.586C239.428 139.269 238.698 139.787 237.617 139.787C236.079 139.787 235.253 138.688 235.253 137.256V136.79H241.344V135.683C241.344 133.187 239.744 131.596 237.503 131.596C235.288 131.596 233.671 133.151 233.671 135.683V137.071C233.671 139.576 235.139 141.149 237.626 141.149ZM235.253 135.639V135.489C235.253 133.96 236.158 132.958 237.512 132.958C238.865 132.958 239.762 133.96 239.762 135.489V135.639H235.253ZM243.532 137.106C243.532 139.594 245.009 141.149 247.391 141.149C249.834 141.149 250.95 139.796 251.003 138.416H249.456C249.289 139.128 248.779 139.743 247.417 139.743C245.993 139.743 245.123 138.724 245.123 137.115V135.665C245.123 134.048 245.905 133.011 247.417 133.011C248.858 133.011 249.289 133.89 249.386 134.443H250.941C250.897 133.028 249.702 131.596 247.391 131.596C245.018 131.596 243.532 133.178 243.532 135.604V137.106ZM254.009 131.78H252.585V133.09H254V138.407C254 140.235 254.475 141.079 256.672 141.079C257.023 141.079 257.674 141.026 257.806 141V139.708C257.656 139.726 257.305 139.743 257.076 139.743C255.951 139.743 255.582 139.462 255.582 138.381V133.09H257.674V131.78H255.582V129.46H254.009V131.78ZM260.495 141H262.086V131.754H260.495V141ZM260.161 128.906C260.161 129.539 260.645 130.005 261.277 130.005C261.945 130.005 262.429 129.539 262.429 128.906C262.429 128.265 261.945 127.799 261.277 127.799C260.645 127.799 260.161 128.265 260.161 128.906ZM268.994 131.596C266.683 131.596 264.995 133.195 264.995 135.691V137.045C264.995 139.682 266.656 141.149 268.994 141.149C271.288 141.149 272.984 139.664 272.984 137.045V135.691C272.984 133.107 271.288 131.596 268.994 131.596ZM269.003 132.967C270.488 132.967 271.385 134.145 271.385 135.823V136.931C271.385 138.636 270.532 139.787 269.003 139.787C267.456 139.787 266.586 138.636 266.586 136.931V135.823C266.586 134.153 267.518 132.967 269.003 132.967ZM275.656 141H277.247V135.85C277.247 134.259 278.038 133.011 279.664 133.011C280.921 133.011 281.668 133.749 281.668 135.199V141H283.259V134.689C283.259 132.615 281.984 131.604 280.121 131.604C278.188 131.604 277.546 132.703 277.317 133.433H277.229V131.754H275.656V141Z" fill="#A7A9C0"/>
<circle cx="88" cy="119" r="24" fill="#2C4EA2"/>
<path d="M89.0009 126C88.8676 126 88.7476 125.953 88.6409 125.86C88.5476 125.753 88.5009 125.633 88.5009 125.5V116.14L85.8209 118.2C85.7143 118.267 85.6143 118.3 85.5209 118.3C85.3609 118.3 85.2209 118.22 85.1009 118.06L83.8609 116.46C83.8076 116.367 83.7809 116.267 83.7809 116.16C83.7809 115.973 83.8543 115.827 84.0009 115.72L88.6409 112.14C88.7743 112.047 88.9276 112 89.1009 112H91.7409C91.8876 112 92.0076 112.047 92.1009 112.14C92.2076 112.233 92.2609 112.353 92.2609 112.5V125.5C92.2609 125.647 92.2076 125.767 92.1009 125.86C92.0076 125.953 91.8876 126 91.7409 126H89.0009Z" fill="white"/>
<g filter="url(#filter1_d)">
<rect x="437" y="213" width="273" height="134" rx="8" fill="white"/>
</g>
<path d="M527.232 259C527.072 259 526.928 258.944 526.8 258.832C526.688 258.704 526.632 258.56 526.632 258.4V242.824C526.632 242.648 526.688 242.504 526.8 242.392C526.912 242.264 527.056 242.2 527.232 242.2H534.648C536.68 242.2 538.192 242.616 539.184 243.448C540.176 244.28 540.672 245.464 540.672 247C540.672 247.768 540.464 248.432 540.048 248.992C539.648 249.552 539.2 249.96 538.704 250.216C539.36 250.504 539.912 250.984 540.36 251.656C540.808 252.312 541.032 253.056 541.032 253.888C541.032 255.504 540.496 256.76 539.424 257.656C538.368 258.552 536.848 259 534.864 259H527.232ZM534.144 248.848C534.736 248.848 535.192 248.688 535.512 248.368C535.832 248.048 535.992 247.632 535.992 247.12C535.992 246.624 535.832 246.224 535.512 245.92C535.208 245.6 534.752 245.44 534.144 245.44H531.144V248.848H534.144ZM534.36 255.76C534.984 255.76 535.464 255.584 535.8 255.232C536.152 254.864 536.328 254.416 536.328 253.888C536.328 253.344 536.152 252.896 535.8 252.544C535.448 252.176 534.968 251.992 534.36 251.992H531.144V255.76H534.36ZM547.921 259.24C546.513 259.24 545.377 258.768 544.513 257.824C543.649 256.88 543.217 255.544 543.217 253.816V247.12C543.217 246.944 543.273 246.8 543.385 246.688C543.513 246.576 543.657 246.52 543.817 246.52H547.009C547.185 246.52 547.329 246.576 547.441 246.688C547.569 246.8 547.633 246.944 547.633 247.12V253.672C547.633 255.16 548.297 255.904 549.625 255.904C550.265 255.904 550.761 255.712 551.113 255.328C551.481 254.928 551.665 254.376 551.665 253.672V247.12C551.665 246.944 551.721 246.8 551.833 246.688C551.961 246.576 552.113 246.52 552.289 246.52H555.457C555.633 246.52 555.777 246.576 555.889 246.688C556.001 246.8 556.057 246.944 556.057 247.12V258.4C556.057 258.56 556.001 258.704 555.889 258.832C555.777 258.944 555.633 259 555.457 259H552.529C552.353 259 552.201 258.944 552.073 258.832C551.961 258.72 551.905 258.576 551.905 258.4V257.488C551.073 258.656 549.745 259.24 547.921 259.24ZM559.382 244.792C559.206 244.792 559.062 244.736 558.95 244.624C558.838 244.496 558.782 244.344 558.782 244.168V241.936C558.782 241.76 558.838 241.616 558.95 241.504C559.078 241.376 559.222 241.312 559.382 241.312H562.382C562.558 241.312 562.702 241.376 562.814 241.504C562.942 241.616 563.006 241.76 563.006 241.936V244.168C563.006 244.344 562.942 244.496 562.814 244.624C562.702 244.736 562.558 244.792 562.382 244.792H559.382ZM559.382 259C559.222 259 559.078 258.944 558.95 258.832C558.838 258.704 558.782 258.56 558.782 258.4V247.12C558.782 246.944 558.838 246.8 558.95 246.688C559.078 246.576 559.222 246.52 559.382 246.52H562.382C562.558 246.52 562.702 246.576 562.814 246.688C562.942 246.8 563.006 246.944 563.006 247.12V258.4C563.006 258.576 562.942 258.72 562.814 258.832C562.702 258.944 562.558 259 562.382 259H559.382ZM566.367 259C566.191 259 566.039 258.944 565.911 258.832C565.799 258.72 565.743 258.576 565.743 258.4V242.56C565.743 242.384 565.799 242.24 565.911 242.128C566.039 242.016 566.191 241.96 566.367 241.96H569.367C569.543 241.96 569.687 242.016 569.799 242.128C569.911 242.24 569.967 242.384 569.967 242.56V258.4C569.967 258.56 569.911 258.704 569.799 258.832C569.687 258.944 569.543 259 569.367 259H566.367ZM577.384 259.24C575.832 259.24 574.608 258.752 573.712 257.776C572.832 256.8 572.36 255.408 572.296 253.6L572.272 252.76L572.296 251.896C572.36 250.152 572.84 248.784 573.736 247.792C574.632 246.784 575.848 246.28 577.384 246.28C578.824 246.28 579.984 246.744 580.864 247.672V242.56C580.864 242.384 580.92 242.24 581.032 242.128C581.16 242.016 581.304 241.96 581.464 241.96H584.56C584.736 241.96 584.88 242.016 584.992 242.128C585.12 242.24 585.184 242.384 585.184 242.56V258.4C585.184 258.576 585.12 258.72 584.992 258.832C584.88 258.944 584.736 259 584.56 259H581.704C581.544 259 581.4 258.944 581.272 258.832C581.16 258.704 581.104 258.56 581.104 258.4V257.656C580.24 258.712 579 259.24 577.384 259.24ZM578.776 255.904C579.464 255.904 579.976 255.688 580.312 255.256C580.648 254.808 580.832 254.248 580.864 253.576C580.896 253.128 580.912 252.824 580.912 252.664C580.912 252.488 580.896 252.192 580.864 251.776C580.832 251.152 580.64 250.64 580.288 250.24C579.952 249.824 579.448 249.616 578.776 249.616C578.056 249.616 577.536 249.832 577.216 250.264C576.912 250.68 576.736 251.264 576.688 252.016L576.664 252.76L576.688 253.504C576.736 254.256 576.912 254.848 577.216 255.28C577.536 255.696 578.056 255.904 578.776 255.904ZM593.842 259C593.666 259 593.514 258.944 593.386 258.832C593.274 258.72 593.218 258.576 593.218 258.4V242.824C593.218 242.648 593.274 242.504 593.386 242.392C593.514 242.264 593.666 242.2 593.842 242.2H596.554C596.954 242.2 597.242 242.376 597.418 242.728L601.546 250.12L605.698 242.728C605.874 242.376 606.162 242.2 606.562 242.2H609.274C609.45 242.2 609.594 242.264 609.706 242.392C609.834 242.504 609.898 242.648 609.898 242.824V258.4C609.898 258.576 609.834 258.72 609.706 258.832C609.594 258.944 609.45 259 609.274 259H606.226C606.066 259 605.922 258.944 605.794 258.832C605.682 258.704 605.626 258.56 605.626 258.4V249.664L603.034 254.416C602.826 254.784 602.546 254.968 602.194 254.968H600.898C600.578 254.968 600.298 254.784 600.058 254.416L597.49 249.664V258.4C597.49 258.576 597.426 258.72 597.298 258.832C597.186 258.944 597.042 259 596.866 259H593.842ZM618.899 259.24C616.883 259.24 615.331 258.776 614.243 257.848C613.171 256.904 612.587 255.568 612.491 253.84C612.475 253.632 612.467 253.272 612.467 252.76C612.467 252.248 612.475 251.888 612.491 251.68C612.587 249.984 613.187 248.664 614.291 247.72C615.411 246.76 616.947 246.28 618.899 246.28C620.851 246.28 622.379 246.76 623.483 247.72C624.603 248.664 625.211 249.984 625.307 251.68C625.339 252.096 625.355 252.456 625.355 252.76C625.355 253.064 625.339 253.424 625.307 253.84C625.211 255.568 624.619 256.904 623.531 257.848C622.459 258.776 620.915 259.24 618.899 259.24ZM618.899 256.216C619.555 256.216 620.043 256.016 620.363 255.616C620.683 255.2 620.867 254.568 620.915 253.72C620.931 253.56 620.939 253.24 620.939 252.76C620.939 252.28 620.931 251.96 620.915 251.8C620.867 250.968 620.683 250.344 620.363 249.928C620.043 249.512 619.555 249.304 618.899 249.304C618.243 249.304 617.755 249.512 617.435 249.928C617.115 250.344 616.931 250.968 616.883 251.8L616.859 252.76L616.883 253.72C616.931 254.568 617.115 255.2 617.435 255.616C617.755 256.016 618.243 256.216 618.899 256.216ZM632.321 259.24C630.769 259.24 629.545 258.752 628.649 257.776C627.769 256.8 627.297 255.408 627.233 253.6L627.209 252.76L627.233 251.896C627.297 250.152 627.777 248.784 628.673 247.792C629.569 246.784 630.785 246.28 632.321 246.28C633.761 246.28 634.921 246.744 635.801 247.672V242.56C635.801 242.384 635.857 242.24 635.969 242.128C636.097 242.016 636.241 241.96 636.401 241.96H639.497C639.673 241.96 639.817 242.016 639.929 242.128C640.057 242.24 640.121 242.384 640.121 242.56V258.4C640.121 258.576 640.057 258.72 639.929 258.832C639.817 258.944 639.673 259 639.497 259H636.641C636.481 259 636.337 258.944 636.209 258.832C636.097 258.704 636.041 258.56 636.041 258.4V257.656C635.177 258.712 633.937 259.24 632.321 259.24ZM633.713 255.904C634.401 255.904 634.913 255.688 635.249 255.256C635.585 254.808 635.769 254.248 635.801 253.576C635.833 253.128 635.849 252.824 635.849 252.664C635.849 252.488 635.833 252.192 635.801 251.776C635.769 251.152 635.577 250.64 635.225 250.24C634.889 249.824 634.385 249.616 633.713 249.616C632.993 249.616 632.473 249.832 632.153 250.264C631.849 250.68 631.673 251.264 631.625 252.016L631.601 252.76L631.625 253.504C631.673 254.256 631.849 254.848 632.153 255.28C632.473 255.696 632.993 255.904 633.713 255.904ZM648.708 259.24C646.756 259.24 645.22 258.72 644.1 257.68C642.98 256.624 642.404 255.096 642.372 253.096V252.352C642.436 250.448 643.028 248.96 644.148 247.888C645.268 246.816 646.78 246.28 648.684 246.28C650.06 246.28 651.22 246.56 652.164 247.12C653.124 247.664 653.836 248.424 654.3 249.4C654.78 250.36 655.02 251.456 655.02 252.688V253.288C655.02 253.464 654.956 253.616 654.828 253.744C654.716 253.856 654.572 253.912 654.396 253.912H646.788V254.056C646.804 254.776 646.972 255.36 647.292 255.808C647.612 256.24 648.068 256.456 648.66 256.456C649.044 256.456 649.348 256.384 649.572 256.24C649.812 256.08 650.036 255.88 650.244 255.64C650.388 255.48 650.5 255.384 650.58 255.352C650.676 255.304 650.82 255.28 651.012 255.28H654.156C654.3 255.28 654.42 255.328 654.516 255.424C654.628 255.504 654.684 255.608 654.684 255.736C654.684 256.152 654.444 256.64 653.964 257.2C653.5 257.76 652.812 258.24 651.9 258.64C651.004 259.04 649.94 259.24 648.708 259.24ZM650.604 251.464V251.416C650.604 250.648 650.436 250.056 650.1 249.64C649.764 249.208 649.292 248.992 648.684 248.992C648.076 248.992 647.604 249.208 647.268 249.64C646.948 250.056 646.788 250.648 646.788 251.416V251.464H650.604ZM657.797 259C657.621 259 657.469 258.944 657.341 258.832C657.229 258.72 657.173 258.576 657.173 258.4V242.56C657.173 242.384 657.229 242.24 657.341 242.128C657.469 242.016 657.621 241.96 657.797 241.96H660.797C660.973 241.96 661.117 242.016 661.229 242.128C661.341 242.24 661.397 242.384 661.397 242.56V258.4C661.397 258.56 661.341 258.704 661.229 258.832C661.117 258.944 660.973 259 660.797 259H657.797Z" fill="#303037"/>
<path d="M528.164 289V280.308H528.243L531.557 287.928H532.875L536.18 280.308H536.268V289H537.735V277.003H536.153L532.251 286.144H532.198L528.287 277.003H526.696V289H528.164ZM543.51 289.149C544.872 289.149 545.707 288.517 546.155 287.778H546.226V289H547.755V282.689C547.755 280.422 546.182 279.604 544.274 279.604C542.209 279.604 540.979 280.492 540.838 282.057H542.376C542.561 281.415 543.053 280.967 544.222 280.967C545.408 280.967 546.155 281.503 546.155 282.681V283.595H543.738C541.611 283.595 540.486 284.693 540.486 286.311C540.486 288.024 541.717 289.149 543.51 289.149ZM543.949 287.805C542.991 287.805 542.112 287.312 542.112 286.258C542.112 285.432 542.622 284.808 543.87 284.808H546.155V285.845C546.155 286.961 545.197 287.805 543.949 287.805ZM550.392 285.106C550.392 287.594 551.868 289.149 554.25 289.149C556.693 289.149 557.81 287.796 557.862 286.416H556.315C556.148 287.128 555.639 287.743 554.276 287.743C552.853 287.743 551.982 286.724 551.982 285.115V283.665C551.982 282.048 552.765 281.011 554.276 281.011C555.718 281.011 556.148 281.89 556.245 282.443H557.801C557.757 281.028 556.562 279.596 554.25 279.596C551.877 279.596 550.392 281.178 550.392 283.604V285.106ZM560.411 289H562.002V283.85C562.002 282.25 562.828 281.011 564.41 281.011C565.658 281.011 566.458 281.767 566.458 283.217V289H568.049V282.707C568.049 280.633 566.73 279.604 564.946 279.604C563.021 279.604 562.266 280.791 562.081 281.433H562.002V276.37H560.411V289ZM571.345 289H572.936V279.754H571.345V289ZM571.011 276.906C571.011 277.539 571.494 278.005 572.127 278.005C572.795 278.005 573.278 277.539 573.278 276.906C573.278 276.265 572.795 275.799 572.127 275.799C571.494 275.799 571.011 276.265 571.011 276.906ZM576.293 289H577.884V283.85C577.884 282.259 578.675 281.011 580.301 281.011C581.558 281.011 582.305 281.749 582.305 283.199V289H583.896V282.689C583.896 280.615 582.621 279.604 580.758 279.604C578.824 279.604 578.183 280.703 577.954 281.433H577.866V279.754H576.293V289ZM590.487 289.149C592.825 289.149 593.941 287.699 594.082 286.697H592.447C592.289 287.269 591.56 287.787 590.479 287.787C588.94 287.787 588.114 286.688 588.114 285.256V284.79H594.205V283.683C594.205 281.187 592.605 279.596 590.364 279.596C588.149 279.596 586.532 281.151 586.532 283.683V285.071C586.532 287.576 588 289.149 590.487 289.149ZM588.114 283.639V283.489C588.114 281.96 589.02 280.958 590.373 280.958C591.727 280.958 592.623 281.96 592.623 283.489V283.639H588.114ZM608.118 287.532H602.634V277.003H601.017V289H608.118V287.532ZM613.62 289.149C615.958 289.149 617.074 287.699 617.215 286.697H615.58C615.422 287.269 614.692 287.787 613.611 287.787C612.073 287.787 611.247 286.688 611.247 285.256V284.79H617.338V283.683C617.338 281.187 615.738 279.596 613.497 279.596C611.282 279.596 609.665 281.151 609.665 283.683V285.071C609.665 287.576 611.133 289.149 613.62 289.149ZM611.247 283.639V283.489C611.247 281.96 612.152 280.958 613.506 280.958C614.859 280.958 615.756 281.96 615.756 283.489V283.639H611.247ZM622.471 289.149C623.833 289.149 624.668 288.517 625.116 287.778H625.187V289H626.716V282.689C626.716 280.422 625.143 279.604 623.235 279.604C621.17 279.604 619.939 280.492 619.799 282.057H621.337C621.521 281.415 622.014 280.967 623.183 280.967C624.369 280.967 625.116 281.503 625.116 282.681V283.595H622.699C620.572 283.595 619.447 284.693 619.447 286.311C619.447 288.024 620.678 289.149 622.471 289.149ZM622.91 287.805C621.952 287.805 621.073 287.312 621.073 286.258C621.073 285.432 621.583 284.808 622.831 284.808H625.116V285.845C625.116 286.961 624.158 287.805 622.91 287.805ZM629.941 289H631.541V283.296C631.541 282.048 632.35 281.072 633.976 281.072C634.257 281.072 634.573 281.09 634.723 281.125V279.657C634.538 279.631 634.345 279.613 634.143 279.613C632.508 279.613 631.84 280.562 631.611 281.178H631.532V279.754H629.941V289ZM636.85 289H638.44V283.85C638.44 282.259 639.231 281.011 640.857 281.011C642.114 281.011 642.861 281.749 642.861 283.199V289H644.452V282.689C644.452 280.615 643.178 279.604 641.314 279.604C639.381 279.604 638.739 280.703 638.511 281.433H638.423V279.754H636.85V289ZM647.757 289H649.348V279.754H647.757V289ZM647.423 276.906C647.423 277.539 647.906 278.005 648.539 278.005C649.207 278.005 649.69 277.539 649.69 276.906C649.69 276.265 649.207 275.799 648.539 275.799C647.906 275.799 647.423 276.265 647.423 276.906ZM652.705 289H654.296V283.85C654.296 282.259 655.087 281.011 656.713 281.011C657.97 281.011 658.717 281.749 658.717 283.199V289H660.308V282.689C660.308 280.615 659.033 279.604 657.17 279.604C655.236 279.604 654.595 280.703 654.366 281.433H654.278V279.754H652.705V289ZM666.732 291.039C665.52 291.039 664.772 290.494 664.649 289.844H663.032C663.155 291.188 664.315 292.384 666.68 292.384C669.044 292.384 670.749 291.276 670.749 288.728V279.754H669.229V281.143H669.149C668.842 280.387 667.857 279.613 666.469 279.613C664.421 279.613 662.83 281.081 662.83 283.524V284.939C662.83 287.383 664.43 288.833 666.478 288.833C667.761 288.833 668.71 288.183 669.07 287.383H669.158V288.719C669.158 290.169 668.358 291.039 666.732 291.039ZM666.864 280.993C668.314 280.993 669.158 282.215 669.158 283.568V284.948C669.158 286.267 668.358 287.479 666.882 287.479C665.449 287.479 664.43 286.354 664.43 284.676V283.814C664.43 282.127 665.361 280.993 666.864 280.993ZM530.651 316V305.453H534.264V304.003H525.413V305.453H529.034V316H530.651ZM538.702 316.149C541.04 316.149 542.156 314.699 542.297 313.697H540.662C540.504 314.269 539.774 314.787 538.693 314.787C537.155 314.787 536.329 313.688 536.329 312.256V311.79H542.42V310.683C542.42 308.187 540.82 306.596 538.579 306.596C536.364 306.596 534.747 308.151 534.747 310.683V312.071C534.747 314.576 536.215 316.149 538.702 316.149ZM536.329 310.639V310.489C536.329 308.96 537.234 307.958 538.588 307.958C539.941 307.958 540.838 308.96 540.838 310.489V310.639H536.329ZM544.608 312.106C544.608 314.594 546.085 316.149 548.467 316.149C550.91 316.149 552.026 314.796 552.079 313.416H550.532C550.365 314.128 549.855 314.743 548.493 314.743C547.069 314.743 546.199 313.724 546.199 312.115V310.665C546.199 309.048 546.981 308.011 548.493 308.011C549.935 308.011 550.365 308.89 550.462 309.443H552.018C551.974 308.028 550.778 306.596 548.467 306.596C546.094 306.596 544.608 308.178 544.608 310.604V312.106ZM554.628 316H556.219V310.85C556.219 309.25 557.045 308.011 558.627 308.011C559.875 308.011 560.675 308.767 560.675 310.217V316H562.266V309.707C562.266 307.633 560.947 306.604 559.163 306.604C557.238 306.604 556.482 307.791 556.298 308.433H556.219V303.37H554.628V316ZM565.342 316H566.933V310.85C566.933 309.259 567.724 308.011 569.35 308.011C570.606 308.011 571.354 308.749 571.354 310.199V316H572.944V309.689C572.944 307.615 571.67 306.604 569.807 306.604C567.873 306.604 567.231 307.703 567.003 308.433H566.915V306.754H565.342V316ZM576.249 316H577.84V306.754H576.249V316ZM575.915 303.906C575.915 304.539 576.398 305.005 577.031 305.005C577.699 305.005 578.183 304.539 578.183 303.906C578.183 303.265 577.699 302.799 577.031 302.799C576.398 302.799 575.915 303.265 575.915 303.906ZM584.291 306.613C582.146 306.613 580.749 308.169 580.749 310.568V312.194C580.749 314.62 582.111 316.141 584.265 316.141C585.565 316.141 586.594 315.561 586.989 314.603H587.068V319.067H588.659V306.754H587.139V308.204H587.06C586.629 307.202 585.592 306.613 584.291 306.613ZM584.66 308.002C586.075 308.002 587.068 309.03 587.068 310.498V312.089C587.068 313.732 586.163 314.77 584.695 314.77C583.219 314.77 582.349 313.724 582.349 311.939V310.814C582.349 309.065 583.228 308.002 584.66 308.002ZM599.303 306.754H597.712V312.572C597.712 313.759 596.684 314.743 595.33 314.743C594.231 314.743 593.317 314.26 593.317 312.73V306.754H591.727V313.161C591.727 315.314 593.036 316.149 594.891 316.149C596.508 316.149 597.378 315.218 597.642 314.462H597.729V316H599.303V306.754ZM605.938 316.149C608.276 316.149 609.393 314.699 609.533 313.697H607.898C607.74 314.269 607.011 314.787 605.93 314.787C604.392 314.787 603.565 313.688 603.565 312.256V311.79H609.656V310.683C609.656 308.187 608.057 306.596 605.815 306.596C603.601 306.596 601.983 308.151 601.983 310.683V312.071C601.983 314.576 603.451 316.149 605.938 316.149ZM603.565 310.639V310.489C603.565 308.96 604.471 307.958 605.824 307.958C607.178 307.958 608.074 308.96 608.074 310.489V310.639H603.565ZM611.854 309.408C611.854 311.228 613.251 311.632 614.974 311.983C616.257 312.238 617.285 312.423 617.285 313.451C617.285 314.242 616.688 314.893 615.229 314.893C613.937 314.893 613.365 314.383 613.242 313.565H611.687C611.687 315.227 613.102 316.149 615.158 316.149C617.373 316.149 618.85 315.104 618.85 313.258C618.85 311.465 617.417 310.981 615.686 310.674C614.64 310.489 613.392 310.34 613.392 309.241C613.392 308.362 614.165 307.861 615.246 307.861C616.485 307.861 617.083 308.547 617.136 309.197H618.612C618.612 307.633 617.294 306.596 615.299 306.596C613.497 306.596 611.854 307.439 611.854 309.408Z" fill="#A7A9C0"/>
<circle cx="485" cy="264" r="24" fill="#2C4EA2"/>
<path d="M479.757 271C479.624 271 479.504 270.953 479.398 270.86C479.304 270.753 479.258 270.633 479.258 270.5V269C479.258 268.6 479.424 268.267 479.757 268L481.618 266.18C482.884 265.22 483.838 264.473 484.478 263.94C485.131 263.407 485.624 262.927 485.958 262.5C486.304 262.06 486.478 261.647 486.478 261.26C486.478 260.273 485.984 259.78 484.998 259.78C484.478 259.78 484.078 259.94 483.798 260.26C483.518 260.567 483.331 260.953 483.238 261.42C483.158 261.727 482.931 261.88 482.558 261.88H479.918C479.798 261.88 479.691 261.84 479.598 261.76C479.518 261.667 479.478 261.567 479.478 261.46C479.504 260.58 479.744 259.787 480.198 259.08C480.664 258.36 481.311 257.793 482.138 257.38C482.964 256.953 483.918 256.74 484.998 256.74C486.118 256.74 487.084 256.92 487.898 257.28C488.711 257.64 489.324 258.147 489.737 258.8C490.164 259.453 490.378 260.213 490.378 261.08C490.378 262.04 490.078 262.907 489.478 263.68C488.891 264.453 487.991 265.293 486.778 266.2L485.118 267.86H490.178C490.324 267.86 490.444 267.907 490.538 268C490.631 268.093 490.678 268.213 490.678 268.36V270.5C490.678 270.633 490.631 270.753 490.538 270.86C490.444 270.953 490.324 271 490.178 271H479.757Z" fill="white"/>
<g filter="url(#filter2_d)">
<rect x="177" y="477" width="315" height="96" rx="8" fill="white"/>
</g>
<path d="M267.256 518C267.08 518 266.928 517.944 266.8 517.832C266.688 517.72 266.632 517.576 266.632 517.4V501.824C266.632 501.648 266.688 501.504 266.8 501.392C266.928 501.264 267.08 501.2 267.256 501.2H269.968C270.368 501.2 270.656 501.376 270.832 501.728L274.96 509.12L279.112 501.728C279.288 501.376 279.576 501.2 279.976 501.2H282.688C282.864 501.2 283.008 501.264 283.12 501.392C283.248 501.504 283.312 501.648 283.312 501.824V517.4C283.312 517.576 283.248 517.72 283.12 517.832C283.008 517.944 282.864 518 282.688 518H279.64C279.48 518 279.336 517.944 279.208 517.832C279.096 517.704 279.04 517.56 279.04 517.4V508.664L276.448 513.416C276.24 513.784 275.96 513.968 275.608 513.968H274.312C273.992 513.968 273.712 513.784 273.472 513.416L270.904 508.664V517.4C270.904 517.576 270.84 517.72 270.712 517.832C270.6 517.944 270.456 518 270.28 518H267.256ZM292.169 518.24C290.217 518.24 288.681 517.72 287.561 516.68C286.441 515.624 285.865 514.096 285.833 512.096V511.352C285.897 509.448 286.489 507.96 287.609 506.888C288.729 505.816 290.241 505.28 292.145 505.28C293.521 505.28 294.681 505.56 295.625 506.12C296.585 506.664 297.297 507.424 297.761 508.4C298.241 509.36 298.481 510.456 298.481 511.688V512.288C298.481 512.464 298.417 512.616 298.289 512.744C298.177 512.856 298.033 512.912 297.857 512.912H290.249V513.056C290.265 513.776 290.433 514.36 290.753 514.808C291.073 515.24 291.529 515.456 292.121 515.456C292.505 515.456 292.809 515.384 293.033 515.24C293.273 515.08 293.497 514.88 293.705 514.64C293.849 514.48 293.961 514.384 294.041 514.352C294.137 514.304 294.281 514.28 294.473 514.28H297.617C297.761 514.28 297.881 514.328 297.977 514.424C298.089 514.504 298.145 514.608 298.145 514.736C298.145 515.152 297.905 515.64 297.425 516.2C296.961 516.76 296.273 517.24 295.361 517.64C294.465 518.04 293.401 518.24 292.169 518.24ZM294.065 510.464V510.416C294.065 509.648 293.897 509.056 293.561 508.64C293.225 508.208 292.753 507.992 292.145 507.992C291.537 507.992 291.065 508.208 290.729 508.64C290.409 509.056 290.249 509.648 290.249 510.416V510.464H294.065ZM304.402 518.24C303.554 518.24 302.778 518.08 302.074 517.76C301.386 517.424 300.842 516.968 300.442 516.392C300.058 515.816 299.866 515.184 299.866 514.496C299.866 513.408 300.314 512.528 301.21 511.856C302.122 511.168 303.37 510.696 304.954 510.44L307.93 509.984V509.696C307.93 509.104 307.81 508.672 307.57 508.4C307.33 508.128 306.922 507.992 306.346 507.992C306.026 507.992 305.754 508.048 305.53 508.16C305.322 508.272 305.082 508.44 304.81 508.664C304.602 508.84 304.418 508.968 304.258 509.048C304.194 509.16 304.114 509.216 304.018 509.216H301.234C301.074 509.216 300.938 509.168 300.826 509.072C300.73 508.96 300.69 508.832 300.706 508.688C300.722 508.256 300.938 507.776 301.354 507.248C301.77 506.704 302.402 506.24 303.25 505.856C304.098 505.472 305.146 505.28 306.394 505.28C308.378 505.28 309.85 505.72 310.81 506.6C311.77 507.464 312.25 508.64 312.25 510.128V517.4C312.25 517.56 312.194 517.704 312.082 517.832C311.97 517.944 311.826 518 311.65 518H308.698C308.538 518 308.394 517.944 308.266 517.832C308.154 517.704 308.098 517.56 308.098 517.4V516.56C307.746 517.056 307.258 517.464 306.634 517.784C306.01 518.088 305.266 518.24 304.402 518.24ZM305.602 515.408C306.306 515.408 306.874 515.176 307.306 514.712C307.754 514.248 307.978 513.576 307.978 512.696V512.408L305.986 512.744C304.642 513 303.97 513.48 303.97 514.184C303.97 514.552 304.122 514.848 304.426 515.072C304.746 515.296 305.138 515.408 305.602 515.408ZM320.092 518.24C318.78 518.24 317.684 518.056 316.804 517.688C315.924 517.32 315.268 516.88 314.836 516.368C314.42 515.856 314.212 515.392 314.212 514.976C314.212 514.816 314.268 514.688 314.38 514.592C314.508 514.48 314.644 514.424 314.788 514.424H317.692C317.788 514.424 317.868 514.456 317.932 514.52C318.204 514.696 318.356 514.8 318.388 514.832C318.692 515.056 318.972 515.232 319.228 515.36C319.5 515.472 319.82 515.528 320.188 515.528C320.62 515.528 320.972 515.448 321.244 515.288C321.532 515.112 321.676 514.872 321.676 514.568C321.676 514.312 321.596 514.104 321.436 513.944C321.292 513.784 321.004 513.632 320.572 513.488C320.156 513.328 319.516 513.168 318.652 513.008C315.884 512.448 314.5 511.168 314.5 509.168C314.5 508.512 314.708 507.888 315.124 507.296C315.556 506.688 316.18 506.2 316.996 505.832C317.828 505.464 318.82 505.28 319.972 505.28C321.14 505.28 322.148 505.464 322.996 505.832C323.86 506.184 324.516 506.616 324.964 507.128C325.412 507.624 325.636 508.08 325.636 508.496C325.636 508.64 325.58 508.768 325.468 508.88C325.372 508.992 325.252 509.048 325.108 509.048H322.468C322.324 509.048 322.212 509.016 322.132 508.952C321.94 508.856 321.748 508.736 321.556 508.592C321.268 508.4 321.012 508.256 320.788 508.16C320.58 508.048 320.308 507.992 319.972 507.992C319.572 507.992 319.26 508.08 319.036 508.256C318.812 508.432 318.7 508.656 318.7 508.928C318.7 509.168 318.764 509.368 318.892 509.528C319.036 509.672 319.316 509.816 319.732 509.96C320.164 510.104 320.812 510.256 321.676 510.416C323.244 510.688 324.38 511.176 325.084 511.88C325.804 512.568 326.164 513.376 326.164 514.304C326.164 515.504 325.628 516.464 324.556 517.184C323.5 517.888 322.012 518.24 320.092 518.24ZM332.804 518.24C331.396 518.24 330.26 517.768 329.396 516.824C328.532 515.88 328.1 514.544 328.1 512.816V506.12C328.1 505.944 328.156 505.8 328.268 505.688C328.396 505.576 328.54 505.52 328.7 505.52H331.892C332.068 505.52 332.212 505.576 332.324 505.688C332.452 505.8 332.516 505.944 332.516 506.12V512.672C332.516 514.16 333.18 514.904 334.508 514.904C335.148 514.904 335.644 514.712 335.996 514.328C336.364 513.928 336.548 513.376 336.548 512.672V506.12C336.548 505.944 336.604 505.8 336.716 505.688C336.844 505.576 336.996 505.52 337.172 505.52H340.34C340.516 505.52 340.66 505.576 340.772 505.688C340.884 505.8 340.94 505.944 340.94 506.12V517.4C340.94 517.56 340.884 517.704 340.772 517.832C340.66 517.944 340.516 518 340.34 518H337.412C337.236 518 337.084 517.944 336.956 517.832C336.844 517.72 336.788 517.576 336.788 517.4V516.488C335.956 517.656 334.628 518.24 332.804 518.24ZM344.265 518C344.105 518 343.961 517.944 343.833 517.832C343.721 517.704 343.665 517.56 343.665 517.4V506.144C343.665 505.968 343.721 505.824 343.833 505.712C343.945 505.584 344.089 505.52 344.265 505.52H347.193C347.369 505.52 347.513 505.584 347.625 505.712C347.753 505.824 347.817 505.968 347.817 506.144V507.056C348.265 506.56 348.785 506.184 349.377 505.928C349.985 505.656 350.657 505.52 351.393 505.52H352.473C352.649 505.52 352.793 505.576 352.905 505.688C353.017 505.8 353.073 505.944 353.073 506.12V508.736C353.073 508.896 353.017 509.04 352.905 509.168C352.793 509.28 352.649 509.336 352.473 509.336H350.049C349.409 509.336 348.913 509.512 348.561 509.864C348.225 510.216 348.057 510.712 348.057 511.352V517.4C348.057 517.576 347.993 517.72 347.865 517.832C347.753 517.944 347.609 518 347.433 518H344.265ZM360.49 518.24C358.538 518.24 357.002 517.72 355.882 516.68C354.762 515.624 354.186 514.096 354.154 512.096V511.352C354.218 509.448 354.81 507.96 355.93 506.888C357.05 505.816 358.562 505.28 360.466 505.28C361.842 505.28 363.002 505.56 363.946 506.12C364.906 506.664 365.618 507.424 366.082 508.4C366.562 509.36 366.802 510.456 366.802 511.688V512.288C366.802 512.464 366.738 512.616 366.61 512.744C366.498 512.856 366.354 512.912 366.178 512.912H358.57V513.056C358.586 513.776 358.754 514.36 359.074 514.808C359.394 515.24 359.85 515.456 360.442 515.456C360.826 515.456 361.13 515.384 361.354 515.24C361.594 515.08 361.818 514.88 362.026 514.64C362.17 514.48 362.282 514.384 362.362 514.352C362.458 514.304 362.602 514.28 362.794 514.28H365.938C366.082 514.28 366.202 514.328 366.298 514.424C366.41 514.504 366.466 514.608 366.466 514.736C366.466 515.152 366.226 515.64 365.746 516.2C365.282 516.76 364.594 517.24 363.682 517.64C362.786 518.04 361.722 518.24 360.49 518.24ZM362.386 510.464V510.416C362.386 509.648 362.218 509.056 361.882 508.64C361.546 508.208 361.074 507.992 360.466 507.992C359.858 507.992 359.386 508.208 359.05 508.64C358.73 509.056 358.57 509.648 358.57 510.416V510.464H362.386Z" fill="#303037"/>
<path d="M268.164 545V536.308H268.243L271.557 543.928H272.875L276.18 536.308H276.268V545H277.735V533.003H276.153L272.251 542.144H272.198L268.287 533.003H266.696V545H268.164ZM284.564 535.596C282.253 535.596 280.565 537.195 280.565 539.691V541.045C280.565 543.682 282.227 545.149 284.564 545.149C286.858 545.149 288.555 543.664 288.555 541.045V539.691C288.555 537.107 286.858 535.596 284.564 535.596ZM284.573 536.967C286.059 536.967 286.955 538.145 286.955 539.823V540.931C286.955 542.636 286.103 543.787 284.573 543.787C283.026 543.787 282.156 542.636 282.156 540.931V539.823C282.156 538.153 283.088 536.967 284.573 536.967ZM291.227 545H292.817V539.85C292.817 538.259 293.608 537.011 295.234 537.011C296.491 537.011 297.238 537.749 297.238 539.199V545H298.829V538.689C298.829 536.615 297.555 535.604 295.691 535.604C293.758 535.604 293.116 536.703 292.888 537.433H292.8V535.754H291.227V545ZM302.134 545H303.725V535.754H302.134V545ZM301.8 532.906C301.8 533.539 302.283 534.005 302.916 534.005C303.584 534.005 304.067 533.539 304.067 532.906C304.067 532.265 303.584 531.799 302.916 531.799C302.283 531.799 301.8 532.265 301.8 532.906ZM307.601 535.78H306.177V537.09H307.592V542.407C307.592 544.235 308.066 545.079 310.264 545.079C310.615 545.079 311.266 545.026 311.397 545V543.708C311.248 543.726 310.896 543.743 310.668 543.743C309.543 543.743 309.174 543.462 309.174 542.381V537.09H311.266V535.78H309.174V533.46H307.601V535.78ZM317.418 535.596C315.106 535.596 313.419 537.195 313.419 539.691V541.045C313.419 543.682 315.08 545.149 317.418 545.149C319.712 545.149 321.408 543.664 321.408 541.045V539.691C321.408 537.107 319.712 535.596 317.418 535.596ZM317.427 536.967C318.912 536.967 319.809 538.145 319.809 539.823V540.931C319.809 542.636 318.956 543.787 317.427 543.787C315.88 543.787 315.01 542.636 315.01 540.931V539.823C315.01 538.153 315.941 536.967 317.427 536.967ZM324.221 545H325.82V539.296C325.82 538.048 326.629 537.072 328.255 537.072C328.536 537.072 328.853 537.09 329.002 537.125V535.657C328.817 535.631 328.624 535.613 328.422 535.613C326.787 535.613 326.119 536.562 325.891 537.178H325.812V535.754H324.221V545ZM331.349 545H332.939V535.754H331.349V545ZM331.015 532.906C331.015 533.539 331.498 534.005 332.131 534.005C332.799 534.005 333.282 533.539 333.282 532.906C333.282 532.265 332.799 531.799 332.131 531.799C331.498 531.799 331.015 532.265 331.015 532.906ZM336.297 545H337.888V539.85C337.888 538.259 338.679 537.011 340.305 537.011C341.562 537.011 342.309 537.749 342.309 539.199V545H343.899V538.689C343.899 536.615 342.625 535.604 340.762 535.604C338.828 535.604 338.187 536.703 337.958 537.433H337.87V535.754H336.297V545ZM350.324 547.039C349.111 547.039 348.364 546.494 348.241 545.844H346.624C346.747 547.188 347.907 548.384 350.271 548.384C352.636 548.384 354.341 547.276 354.341 544.728V535.754H352.82V537.143H352.741C352.434 536.387 351.449 535.613 350.061 535.613C348.013 535.613 346.422 537.081 346.422 539.524V540.939C346.422 543.383 348.021 544.833 350.069 544.833C351.353 544.833 352.302 544.183 352.662 543.383H352.75V544.719C352.75 546.169 351.95 547.039 350.324 547.039ZM350.456 536.993C351.906 536.993 352.75 538.215 352.75 539.568V540.948C352.75 542.267 351.95 543.479 350.474 543.479C349.041 543.479 348.021 542.354 348.021 540.676V539.814C348.021 538.127 348.953 536.993 350.456 536.993ZM369.669 545H371.638L369.555 542.785C370.231 541.757 370.521 540.342 370.521 538.584V538.171H369.071V538.566C369.071 539.938 368.922 541.001 368.535 541.73L365.67 538.628C367.05 537.898 368.21 537.063 368.21 535.587C368.21 533.979 366.865 532.897 365.151 532.897C363.35 532.897 362.093 534.084 362.093 535.569C362.093 536.668 362.796 537.503 363.569 538.32C363.411 538.391 363.262 538.47 363.112 538.558C361.768 539.296 360.783 540.271 360.783 541.845C360.783 543.954 362.559 545.229 364.809 545.229C365.978 545.229 367.419 544.886 368.597 543.849L369.669 545ZM364.026 539.463C364.149 539.393 364.281 539.322 364.413 539.261L367.691 542.855C366.962 543.62 365.837 543.919 364.949 543.919C363.613 543.919 362.348 543.216 362.348 541.739C362.348 540.658 363.016 540.008 364.026 539.463ZM364.835 537.758C363.886 536.809 363.587 536.281 363.587 535.657C363.587 534.77 364.22 534.119 365.16 534.119C366.065 534.119 366.742 534.726 366.742 535.64C366.742 536.65 365.934 537.195 364.835 537.758ZM378.66 538.197C378.66 535.692 379.829 534.216 381.807 534.216C383.327 534.216 384.443 535.191 384.602 536.545H386.201V536.483C386.034 534.312 384.215 532.757 381.798 532.757C378.801 532.757 377.034 534.787 377.034 538.171V539.894C377.034 543.286 378.757 545.246 381.798 545.246C384.197 545.246 386.025 543.761 386.201 541.695V541.643H384.602C384.443 542.917 383.354 543.787 381.807 543.787C379.803 543.787 378.66 542.372 378.66 539.885V538.197ZM391.387 545.149C392.749 545.149 393.584 544.517 394.032 543.778H394.103V545H395.632V538.689C395.632 536.422 394.059 535.604 392.151 535.604C390.086 535.604 388.855 536.492 388.715 538.057H390.253C390.438 537.415 390.93 536.967 392.099 536.967C393.285 536.967 394.032 537.503 394.032 538.681V539.595H391.615C389.488 539.595 388.363 540.693 388.363 542.311C388.363 544.024 389.594 545.149 391.387 545.149ZM391.826 543.805C390.868 543.805 389.989 543.312 389.989 542.258C389.989 541.432 390.499 540.808 391.747 540.808H394.032V541.845C394.032 542.961 393.074 543.805 391.826 543.805ZM398.77 545H400.36V532.37H398.77V545ZM403.771 545H405.361V535.754H403.771V545ZM403.437 532.906C403.437 533.539 403.92 534.005 404.553 534.005C405.221 534.005 405.704 533.539 405.704 532.906C405.704 532.265 405.221 531.799 404.553 531.799C403.92 531.799 403.437 532.265 403.437 532.906ZM413.078 545.141C415.284 545.141 416.664 543.62 416.664 541.159V539.586C416.664 537.134 415.302 535.613 413.122 535.613C411.786 535.613 410.688 536.255 410.397 537.213H410.318V532.37H408.728V545H410.257V543.629H410.336C410.749 544.578 411.777 545.141 413.078 545.141ZM412.771 543.761C411.347 543.761 410.318 542.706 410.318 541.221V539.709C410.318 538.039 411.25 536.993 412.727 536.993C414.212 536.993 415.064 538.065 415.064 539.911V540.887C415.064 542.706 414.221 543.761 412.771 543.761ZM419.494 545H421.094V539.296C421.094 538.048 421.902 537.072 423.528 537.072C423.81 537.072 424.126 537.09 424.275 537.125V535.657C424.091 535.631 423.897 535.613 423.695 535.613C422.061 535.613 421.393 536.562 421.164 537.178H421.085V535.754H419.494V545ZM428.898 545.149C430.261 545.149 431.096 544.517 431.544 543.778H431.614V545H433.144V538.689C433.144 536.422 431.57 535.604 429.663 535.604C427.598 535.604 426.367 536.492 426.227 538.057H427.765C427.949 537.415 428.441 536.967 429.61 536.967C430.797 536.967 431.544 537.503 431.544 538.681V539.595H429.127C427 539.595 425.875 540.693 425.875 542.311C425.875 544.024 427.105 545.149 428.898 545.149ZM429.338 543.805C428.38 543.805 427.501 543.312 427.501 542.258C427.501 541.432 428.011 540.808 429.259 540.808H431.544V541.845C431.544 542.961 430.586 543.805 429.338 543.805ZM436.747 535.78H435.323V537.09H436.738V542.407C436.738 544.235 437.213 545.079 439.41 545.079C439.762 545.079 440.412 545.026 440.544 545V543.708C440.395 543.726 440.043 543.743 439.814 543.743C438.689 543.743 438.32 543.462 438.32 542.381V537.09H440.412V535.78H438.32V533.46H436.747V535.78ZM443.233 545H444.824V535.754H443.233V545ZM442.899 532.906C442.899 533.539 443.383 534.005 444.016 534.005C444.684 534.005 445.167 533.539 445.167 532.906C445.167 532.265 444.684 531.799 444.016 531.799C443.383 531.799 442.899 532.265 442.899 532.906ZM451.732 535.596C449.421 535.596 447.733 537.195 447.733 539.691V541.045C447.733 543.682 449.395 545.149 451.732 545.149C454.026 545.149 455.723 543.664 455.723 541.045V539.691C455.723 537.107 454.026 535.596 451.732 535.596ZM451.741 536.967C453.227 536.967 454.123 538.145 454.123 539.823V540.931C454.123 542.636 453.271 543.787 451.741 543.787C450.194 543.787 449.324 542.636 449.324 540.931V539.823C449.324 538.153 450.256 536.967 451.741 536.967ZM458.395 545H459.985V539.85C459.985 538.259 460.776 537.011 462.402 537.011C463.659 537.011 464.406 537.749 464.406 539.199V545H465.997V538.689C465.997 536.615 464.723 535.604 462.859 535.604C460.926 535.604 460.284 536.703 460.056 537.433H459.968V535.754H458.395V545Z" fill="#A7A9C0"/>
<circle cx="225" cy="523" r="24" fill="#2C4EA2"/>
<path d="M224.89 530.2C223.583 530.2 222.483 530 221.59 529.6C220.71 529.187 220.056 528.68 219.63 528.08C219.216 527.48 218.996 526.88 218.97 526.28C218.97 526.16 219.01 526.06 219.09 525.98C219.183 525.9 219.29 525.86 219.41 525.86H222.17C222.33 525.86 222.456 525.893 222.55 525.96C222.643 526.013 222.73 526.107 222.81 526.24C223.063 526.893 223.763 527.22 224.91 527.22C225.563 527.22 226.07 527.067 226.43 526.76C226.79 526.453 226.97 526.04 226.97 525.52C226.97 524.52 226.303 524.02 224.97 524.02H222.73C222.583 524.02 222.456 523.973 222.35 523.88C222.256 523.773 222.21 523.647 222.21 523.5V522.32C222.21 522.013 222.323 521.787 222.55 521.64L225.77 519H220.25C220.116 519 219.996 518.953 219.89 518.86C219.796 518.753 219.75 518.633 219.75 518.5V516.52C219.75 516.373 219.796 516.253 219.89 516.16C219.983 516.053 220.103 516 220.25 516H229.57C229.716 516 229.836 516.053 229.93 516.16C230.023 516.253 230.07 516.373 230.07 516.52V518.3C230.07 518.58 229.963 518.8 229.75 518.96L226.79 521.66L226.93 521.7C228.13 521.873 229.083 522.287 229.79 522.94C230.496 523.593 230.85 524.533 230.85 525.76C230.85 526.653 230.59 527.44 230.07 528.12C229.563 528.787 228.856 529.3 227.95 529.66C227.056 530.02 226.036 530.2 224.89 530.2Z" fill="white"/>
<defs>
<filter id="filter0_d" x="0" y="43" width="353" height="181" filterUnits="userSpaceOnUse" color-interpolation-filters="sRGB">
<feFlood flood-opacity="0" result="BackgroundImageFix"/>
<feColorMatrix in="SourceAlpha" type="matrix" values="0 0 0 0 0 0 0 0 0 0 0 0 0 0 0 0 0 0 127 0"/>
<feOffset dy="15"/>
<feGaussianBlur stdDeviation="20"/>
<feColorMatrix type="matrix" values="0 0 0 0 0.105882 0 0 0 0 0.117647 0 0 0 0 0.305882 0 0 0 0.08 0"/>
<feBlend mode="normal" in2="BackgroundImageFix" result="effect1_dropShadow"/>
<feBlend mode="normal" in="SourceGraphic" in2="effect1_dropShadow" result="shape"/>
</filter>
<filter id="filter1_d" x="397" y="188" width="353" height="214" filterUnits="userSpaceOnUse" color-interpolation-filters="sRGB">
<feFlood flood-opacity="0" result="BackgroundImageFix"/>
<feColorMatrix in="SourceAlpha" type="matrix" values="0 0 0 0 0 0 0 0 0 0 0 0 0 0 0 0 0 0 127 0"/>
<feOffset dy="15"/>
<feGaussianBlur stdDeviation="20"/>
<feColorMatrix type="matrix" values="0 0 0 0 0.105882 0 0 0 0 0.117647 0 0 0 0 0.305882 0 0 0 0.08 0"/>
<feBlend mode="normal" in2="BackgroundImageFix" result="effect1_dropShadow"/>
<feBlend mode="normal" in="SourceGraphic" in2="effect1_dropShadow" result="shape"/>
</filter>
<filter id="filter2_d" x="137" y="452" width="395" height="176" filterUnits="userSpaceOnUse" color-interpolation-filters="sRGB">
<feFlood flood-opacity="0" result="BackgroundImageFix"/>
<feColorMatrix in="SourceAlpha" type="matrix" values="0 0 0 0 0 0 0 0 0 0 0 0 0 0 0 0 0 0 127 0"/>
<feOffset dy="15"/>
<feGaussianBlur stdDeviation="20"/>
<feColorMatrix type="matrix" values="0 0 0 0 0.105882 0 0 0 0 0.117647 0 0 0 0 0.305882 0 0 0 0.08 0"/>
<feBlend mode="normal" in2="BackgroundImageFix" result="effect1_dropShadow"/>
<feBlend mode="normal" in="SourceGraphic" in2="effect1_dropShadow" result="shape"/>
</filter>
</defs>
</svg>
