<svg width="1440" height="850" viewBox="0 0 1440 850" fill="none" xmlns="http://www.w3.org/2000/svg">
<path d="M1440 0C1031 799.777 239.5 798.438 0 798.438C0 798.438 539 913.5 1440 799.777V0Z" fill="url(#paint0_linear)"/>
<path d="M57 591C15.5 591 -30.0536 644.066 -29.5335 695.637L-100.597 704.498C-101.542 610.826 -20 515 57 515L57 591Z" fill="url(#paint1_linear)"/>
<path d="M580 142C580.237 152.342 572.283 163.7 563 165V180C579.86 177.638 593.429 160.784 593 142H580Z" fill="url(#paint2_linear)"/>
<path d="M411 108C404.765 108.499 399.192 113.819 399 120L390 120C390.35 108.773 399.675 99.9049 411 99L411 108Z" fill="url(#paint3_linear)"/>
<path d="M715 530C708.77 530.565 703.127 536.817 703 543L694 543C694.231 531.77 703.685 522.025 715 521L715 530Z" fill="url(#paint4_linear)"/>
<path d="M62 325C62.1776 331.682 67.2476 337.01 73.0002 337L73.0002 347C62.5514 347.019 53.3221 337.139 53 325L62 325Z" fill="url(#paint5_linear)"/>
<path d="M1161.97 410.93C1161.95 410.901 1161.92 410.872 1161.9 410.843L1161.97 410.93Z" fill="#F8F8FC"/>
<defs>
<linearGradient id="paint0_linear" x1="176.546" y1="827.756" x2="1440.89" y2="886.518" gradientUnits="userSpaceOnUse">
<stop stop-color="white"/>
<stop offset="1" stop-color="#F8F8FC"/>
</linearGradient>
<linearGradient id="paint1_linear" x1="58.0895" y1="563.77" x2="-45.5099" y2="627.849" gradientUnits="userSpaceOnUse">
<stop stop-color="#EEEFF7"/>
<stop offset="1" stop-color="#F8F8FC"/>
</linearGradient>
<linearGradient id="paint2_linear" x1="587.246" y1="144.798" x2="561.681" y2="175.039" gradientUnits="userSpaceOnUse">
<stop stop-color="#EEEFF7"/>
<stop offset="1" stop-color="#F8F8FC"/>
</linearGradient>
<linearGradient id="paint3_linear" x1="409.381" y1="102.357" x2="391.31" y2="119.478" gradientUnits="userSpaceOnUse">
<stop stop-color="#EEEFF7"/>
<stop offset="1" stop-color="#F8F8FC"/>
</linearGradient>
<linearGradient id="paint4_linear" x1="713.806" y1="524.995" x2="695.918" y2="542.307" gradientUnits="userSpaceOnUse">
<stop stop-color="#EEEFF7"/>
<stop offset="1" stop-color="#F8F8FC"/>
</linearGradient>
<linearGradient id="paint5_linear" x1="69.2267" y1="345.511" x2="53.3512" y2="328.471" gradientUnits="userSpaceOnUse">
<stop stop-color="#EEEFF7"/>
<stop offset="1" stop-color="#F8F8FC"/>
</linearGradient>
</defs>
</svg>
