<svg width="683" height="703" viewBox="0 0 683 703" fill="none" xmlns="http://www.w3.org/2000/svg">
<path opacity="0.18" d="M373.709 568.631L494 0H0L97.0816 570.456C97.0816 570.456 57.0544 610.068 235.5 612C357.913 613.315 387.5 596.5 373.709 568.631Z" fill="url(#paint0_radial)"/>
<path opacity="0.18" d="M468.388 656.79C462.144 656.357 454.726 654.861 452.416 649.113C450.738 644.933 452.597 640.104 451.893 635.707C450.431 626.265 439.061 622.319 429.605 620.246L389.359 611.489C385.19 610.57 380.715 609.489 377.935 606.281C375.968 603.993 375.174 600.876 373.658 598.317C367.36 587.415 351.767 587.289 339.098 588.388C267.938 594.559 196.427 595.642 125.112 591.632C103.672 590.424 81.1313 588.947 61.7486 598.065C59.308 598.943 57.2563 600.653 55.9554 602.894C54.4034 606.335 56.4427 610.264 58.5903 613.381C76.7458 639.653 107.408 655.51 138.864 662.538C170.321 669.565 202.968 668.736 235.218 667.943L358.246 664.646C363.119 664.502 368.587 664.646 372.016 668.016C375.445 671.385 375.445 677.332 377.701 681.836C380.841 688.125 388.114 691.188 394.936 693.225C421.267 701.081 449.24 701.387 476.762 701.64C545.594 702.27 614.516 702.883 683.222 698.414C693.437 697.747 706.304 694.684 707.838 684.701C708.777 678.557 704.229 672.61 698.688 669.745C693.148 666.88 686.579 666.43 680.28 666.033L566.709 658.916C552.271 658.015 537.689 654.916 523.504 654.591C505.132 654.087 487.049 658.087 468.388 656.79Z" fill="#2C4EA2"/>
<path d="M553.995 676.485C554.116 677.091 554.046 677.721 553.796 678.287C553.512 678.617 553.161 678.883 552.766 679.066C552.37 679.25 551.94 679.346 551.504 679.35C538.995 681.082 526.33 681.402 513.75 680.305C519.966 676.074 526.998 673.184 534.395 671.818C534.928 671.888 535.47 671.842 535.984 671.684C536.498 671.526 536.971 671.259 537.372 670.902C537.773 670.544 538.092 670.104 538.307 669.612C538.522 669.121 538.628 668.588 538.619 668.052C538.893 666.156 539.371 664.295 540.044 662.502C540.161 662.073 540.415 661.693 540.766 661.421C541.141 661.259 541.553 661.203 541.957 661.258L548.49 661.601C551.089 661.763 551.197 661.601 551.847 664.177C552.856 668.223 553.574 672.336 553.995 676.485Z" fill="#3E3E54"/>
<path d="M599.401 676.485C599.525 677.093 599.449 677.725 599.185 678.286C598.901 678.617 598.55 678.883 598.154 679.066C597.759 679.25 597.329 679.346 596.893 679.35C584.39 681.082 571.731 681.402 559.156 680.305C565.373 676.074 572.404 673.184 579.802 671.818C580.511 671.791 581.206 671.617 581.843 671.307C582.48 670.996 583.045 670.557 583.502 670.016C583.797 669.405 583.974 668.745 584.025 668.07C584.291 666.172 584.769 664.311 585.451 662.52C585.562 662.088 585.816 661.707 586.173 661.438C586.541 661.276 586.947 661.219 587.346 661.276L593.879 661.619C596.496 661.781 596.586 661.619 597.254 664.195C598.253 668.237 598.971 672.344 599.401 676.485Z" fill="#3E3E54"/>
<path d="M553.995 676.485C554.116 677.091 554.046 677.721 553.796 678.287C553.512 678.617 553.161 678.883 552.766 679.066C552.37 679.25 551.94 679.346 551.504 679.35C538.995 681.082 526.33 681.402 513.75 680.305C519.966 676.074 526.998 673.184 534.395 671.818C534.928 671.888 535.47 671.842 535.984 671.684C536.498 671.526 536.971 671.259 537.372 670.902C537.773 670.544 538.092 670.104 538.307 669.612C538.522 669.121 538.628 668.588 538.619 668.052C538.893 666.156 539.371 664.295 540.044 662.502C540.161 662.073 540.415 661.693 540.766 661.421C541.141 661.259 541.553 661.203 541.957 661.258L548.49 661.601C551.089 661.763 551.197 661.601 551.847 664.177C552.856 668.223 553.574 672.336 553.995 676.485Z" fill="url(#paint1_linear)"/>
<path d="M599.401 676.485C599.525 677.093 599.449 677.725 599.185 678.286C598.901 678.617 598.55 678.883 598.154 679.066C597.759 679.25 597.329 679.346 596.893 679.35C584.39 681.082 571.731 681.402 559.156 680.305C565.373 676.074 572.404 673.184 579.802 671.818C580.511 671.791 581.206 671.617 581.843 671.307C582.48 670.996 583.045 670.557 583.502 670.016C583.797 669.405 583.974 668.745 584.025 668.07C584.291 666.172 584.769 664.311 585.451 662.52C585.562 662.088 585.816 661.707 586.173 661.438C586.541 661.276 586.947 661.219 587.346 661.276L593.879 661.619C596.496 661.781 596.586 661.619 597.254 664.195C598.253 668.237 598.971 672.344 599.401 676.485Z" fill="url(#paint2_linear)"/>
<path d="M510.88 455.983L526.148 665.132L556.72 664.79L554.085 515.23L574.569 663.961L600.358 664.195L599.383 440.756C599.383 440.756 570.959 388.158 510.88 455.983Z" fill="#3E3E54"/>
<path opacity="0.18" d="M431.833 309.684C434.486 328.136 440.586 345.921 446.65 363.562C451.469 377.545 456.72 392.212 467.91 401.907C473.414 406.7 480.543 410.646 482.528 417.674C483.683 421.89 482.636 426.377 481.607 430.629L519.128 429.782C520.304 429.866 521.481 429.636 522.539 429.116C523.675 428.261 524.479 427.038 524.812 425.656C527.718 417.385 527.538 408.412 527.989 399.654C529.072 378.031 534.684 355.759 549.357 339.902C551.37 338.064 553.017 335.864 554.211 333.415C554.973 330.938 555.206 328.33 554.897 325.757C553.766 302.008 553.513 278.246 554.139 254.473C554.268 253.07 554.121 251.656 553.706 250.31C553.217 249.266 552.559 248.31 551.757 247.481L540.929 234.868C540.316 234.057 539.565 233.362 538.709 232.814C536.236 231.372 533.096 232.543 530.479 233.733C525.697 235.913 520.553 238.436 518.279 243.157C517.111 246.075 516.564 249.205 516.673 252.346L515.861 276.168C515.59 283.772 515.699 292.295 521.095 297.647C523.495 299.989 526.78 301.557 528.314 304.53C529.294 306.914 529.563 309.53 529.09 312.062C528.585 316.57 527.574 321.007 526.076 325.289C524.465 329.683 522.597 333.979 520.481 338.154L498.824 383.203C498.301 384.248 497.471 385.491 496.316 385.275C495.637 385.054 495.073 384.575 494.746 383.941C480.019 362.318 471.988 336.352 455.331 316.135C452.732 312.981 449.104 308.639 445.026 307.323C440.496 305.81 436.417 308.35 431.833 309.684Z" fill="#313896"/>
<path d="M454.97 342.731C451.072 332.046 445.459 317.991 441.561 307.305C440.568 304.602 439.575 301.9 438.402 299.269C451.595 297.467 464.12 295.034 477.402 294.151C477.824 294.033 478.266 294.009 478.698 294.081C479.129 294.154 479.539 294.321 479.898 294.571C480.257 294.821 480.556 295.147 480.774 295.527C480.991 295.906 481.122 296.328 481.156 296.764L499.943 354.21L489.296 388.879L454.97 342.731Z" fill="#A7A9C0"/>
<path d="M557.532 539.61C572.98 539.61 588.212 537.538 602.56 531.88C604.346 531.309 605.976 530.335 607.324 529.033C609.616 526.492 609.526 522.654 609.291 519.248C605.772 467.263 598.734 415.457 598.571 363.363C598.571 353.741 598.734 344.011 596.55 334.641C594.366 325.271 589.457 316.135 581.318 310.981C572.457 305.359 561.25 305.269 550.782 306.044C541.055 306.783 530.93 308.278 522.899 313.774C504.491 326.388 512.414 359.669 511.584 378.644C510.07 406.991 506.997 435.234 502.38 463.244C499.925 479.029 497.236 494.778 494.601 510.527C493.23 518.69 492.797 528.907 499.781 533.267C502.443 534.659 505.372 535.47 508.371 535.646C520.499 537.214 532.663 538.727 544.881 539.376C547.931 539.538 550.981 539.646 554.031 539.682C557.785 539.682 557.64 539.015 559.265 535.682C561.984 529.88 564.697 524.071 567.404 518.257C568.017 525.465 568.439 532.751 568.667 540.115" fill="#2C4EA2"/>
<path d="M557.55 539.268C573.016 539.268 588.23 537.195 602.668 531.519C604.449 530.949 606.073 529.974 607.414 528.672C609.706 526.132 609.634 522.312 609.4 518.888C605.88 466.902 598.842 415.097 598.68 363.003C598.68 353.381 598.842 343.65 596.658 334.298C594.475 324.946 589.548 315.774 581.426 310.639C572.565 305.017 561.358 304.909 550.873 305.702C541.145 306.44 531.021 307.936 523.008 313.414C504.6 325.937 512.522 359.309 511.692 378.283C510.172 406.631 507.093 434.874 502.47 462.884C500.034 478.669 497.345 494.418 494.692 510.185C493.338 518.347 492.887 528.546 499.889 532.907C502.543 534.304 505.466 535.116 508.462 535.285C520.607 536.853 532.753 538.367 544.989 539.015C548.039 539.178 551.089 539.286 554.139 539.322C557.893 539.322 557.748 538.673 559.373 535.339C562.08 529.513 564.793 523.699 567.512 517.897C568.126 525.177 568.541 532.462 568.757 539.754" fill="url(#paint3_linear)"/>
<path d="M522.412 384.554C520.409 390.158 518.406 395.762 515.861 401.132C514.737 404.021 512.8 406.524 510.284 408.34C508.631 409.278 506.772 409.798 504.87 409.853C497.94 410.232 491.425 406.592 485.921 402.393C477.294 395.803 470.047 387.588 464.589 378.211C463.942 377.258 463.511 376.176 463.325 375.04C463.361 372.966 464.135 370.973 465.509 369.418L473.378 358.138C478.417 364.624 484.354 370.364 491.01 375.184C491.283 375.445 491.611 375.641 491.971 375.756C492.33 375.872 492.711 375.904 493.085 375.851C493.843 375.616 494.186 374.752 494.421 374.049L503.95 343.002C506.964 333.253 510.717 322.532 519.705 317.666C520.805 317.016 522.04 316.627 523.314 316.531C524.452 316.613 525.56 316.923 526.575 317.443C527.589 317.964 528.487 318.683 529.216 319.558C537.012 327.523 536.651 338.082 534.197 348.029C530.882 360.393 526.949 372.583 522.412 384.554Z" fill="#313896"/>
<path d="M522.358 384.14C520.355 389.744 518.351 395.348 515.807 400.717C514.683 403.607 512.746 406.11 510.23 407.925C508.547 408.875 506.658 409.4 504.726 409.457C497.814 409.817 491.299 406.177 485.794 401.979C477.164 395.393 469.916 387.176 464.462 377.797C463.821 376.846 463.385 375.772 463.181 374.643C463.219 372.562 464 370.562 465.383 369.003L473.251 357.741C478.282 364.231 484.22 369.965 490.884 374.77C491.151 375.033 491.476 375.23 491.833 375.345C492.191 375.461 492.57 375.492 492.941 375.436C493.717 375.202 494.06 374.337 494.294 373.634L503.823 342.587C506.819 332.821 510.573 322.099 519.579 317.252C520.671 316.585 521.91 316.196 523.188 316.117C524.325 316.191 525.435 316.496 526.45 317.014C527.464 317.531 528.363 318.25 529.089 319.126C536.886 327.091 536.525 337.65 534.052 347.596C530.771 359.966 526.868 372.162 522.358 384.14Z" fill="url(#paint4_linear)"/>
<path d="M546.036 299.629C546.07 298.455 545.829 297.289 545.332 296.223C544.267 294.187 541.867 293.34 539.737 292.511C535.55 290.872 531.381 288.457 529.27 284.511C526.942 280.204 527.465 274.961 528.259 270.095C528.905 264.696 530.321 259.417 532.464 254.419C534.641 249.383 538.544 245.288 543.473 242.868C549.573 240.165 556.774 241.175 562.91 243.751C565.256 244.619 567.386 245.984 569.154 247.752C572.764 251.662 573.07 257.482 572.89 262.78C572.409 277.408 569.688 291.877 564.823 305.684C564.558 306.701 564.044 307.636 563.325 308.404C562.541 309.043 561.6 309.459 560.6 309.612C557.225 310.405 550.981 311.306 547.786 309.432C544.339 307.431 546.144 303.251 546.036 299.629Z" fill="url(#paint5_linear)"/>
<path d="M534.81 242.58C536.2 248.436 540.604 253.229 545.639 256.509C547.941 257.711 550.023 259.295 551.793 261.194C554.518 264.69 554.229 269.591 553.814 274.006C555.059 274.564 556.377 273.411 557.279 272.366C558.182 271.321 559.589 270.222 560.78 270.906C561.233 271.207 561.581 271.642 561.773 272.15C562.565 274.067 562.611 276.21 561.904 278.16C561.196 280.11 559.785 281.725 557.947 282.691C557.24 282.945 556.581 283.317 555.998 283.79C555.554 284.404 555.316 285.142 555.316 285.898C555.316 286.655 555.554 287.393 555.998 288.007C556.792 289.304 557.983 290.313 558.777 291.611C560.835 294.854 560.582 299.863 563.975 301.521C565.085 301.938 566.296 302.007 567.446 301.721C568.597 301.435 569.633 300.806 570.418 299.917C571.94 298.108 573.071 296.004 573.738 293.737C578.021 282.048 582.106 270.3 585.992 258.491C586.907 256.258 587.338 253.857 587.256 251.446C587.102 250.205 586.683 249.013 586.026 247.949C585.368 246.886 584.489 245.976 583.448 245.283C582.841 244.977 582.316 244.533 581.914 243.986C581.594 243.093 581.563 242.122 581.823 241.211C581.917 239.801 581.701 238.389 581.189 237.072C580.678 235.755 579.884 234.566 578.864 233.588C576.808 231.628 574.385 230.091 571.735 229.066C563.503 225.578 554.557 224.102 545.639 224.759C537.626 225.354 533.114 235.408 534.81 242.58Z" fill="#3E3E54"/>
<path d="M526.816 373.004C529.282 421.879 525.932 470.873 516.835 518.96L526.816 373.004Z" fill="white"/>
<path d="M519.561 467.749C520.111 472.059 519.86 476.432 518.821 480.651C517.764 484.894 515.198 488.608 511.602 491.102C509.472 492.472 506.494 493.192 504.383 491.661C503.093 490.436 502.259 488.809 502.019 487.048C501.135 483.619 500.74 480.082 500.846 476.543C501.008 473.858 502.073 466.758 505.321 466.037C506.191 466.105 507.05 466.268 507.884 466.524C509.165 466.686 510.465 466.794 511.746 466.938L519.561 467.749Z" fill="url(#paint6_linear)"/>
<path d="M465.78 369.13C462.066 365.855 459.158 361.77 457.28 357.192C455.402 352.614 454.606 347.666 454.952 342.731C457.424 342.389 459.536 344.407 461.124 346.335C462.712 348.263 464.553 350.606 466.123 352.84C466.352 353.278 466.72 353.626 467.17 353.831C467.765 354.029 468.487 353.723 468.974 354.029C469.263 354.225 469.489 354.501 469.624 354.822C470.514 356.442 471.274 358.129 471.898 359.868" fill="url(#paint7_linear)"/>
<g clip-path="url(#clip0)">
<path d="M377.309 296.896C381.605 286.396 381.959 268.829 369.291 262.678C368.483 262.288 367.809 261.668 367.357 260.896C366.905 260.124 366.694 259.235 366.751 258.343C366.751 258.23 367.429 245.284 360.955 238.474C357.941 235.271 353.826 233.973 348.196 234.476C347.638 234.526 347.076 234.473 346.538 234.318C347.705 240.81 347.651 247.461 346.38 253.933C346.336 254.194 346.201 254.431 345.998 254.601C345.795 254.772 345.537 254.864 345.272 254.863C345.204 254.863 345.129 254.863 345.046 254.863C344.747 254.8 344.486 254.621 344.319 254.367C344.152 254.112 344.094 253.802 344.156 253.505C345.543 246.329 345.373 238.941 343.659 231.836V231.791C343.659 231.791 343.614 231.746 343.614 231.723C342.476 229.053 337.999 221.162 332.821 220.06C330.336 219.544 327.818 219.196 325.285 219.017C320.582 218.589 316.158 218.162 311.87 214.562C310.091 213.061 306.941 212.079 303.828 212.079C300.987 212.079 298.628 212.874 297.196 214.291C296.754 214.74 296.222 215.092 295.634 215.323C295.047 215.555 294.417 215.661 293.786 215.636C293.155 215.61 292.536 215.454 291.969 215.176C291.403 214.897 290.901 214.504 290.496 214.021C289.372 212.816 288.107 211.749 286.728 210.841C277.76 209.461 265.159 211.516 256.582 219.197C247.289 227.515 245.933 234.903 245.933 234.948C245.853 235.486 245.58 235.977 245.164 236.33C244.748 236.683 244.218 236.874 243.672 236.869C228.757 236.418 222.17 252.402 222.102 252.56C221.949 252.939 221.694 253.269 221.366 253.515C221.038 253.76 220.649 253.913 220.241 253.955C207.067 255.313 198.528 274.072 198.46 274.252C198.3 274.601 198.053 274.904 197.744 275.134C197.434 275.363 197.071 275.511 196.689 275.565C196.079 275.655 181.202 278.025 174.984 292.689C168.51 307.952 174.328 314.913 174.577 315.191C174.796 315.44 174.956 315.736 175.045 316.055C175.134 316.374 175.149 316.71 175.09 317.036C177.833 318.933 184.887 322.796 198.227 324.086C198.442 324.041 198.666 324.065 198.867 324.154C200.877 324.334 203.032 324.446 205.334 324.491C224.929 324.919 230.43 315.266 231.711 312.198C231.841 311.896 231.949 311.585 232.036 311.268C232.112 310.977 232.298 310.727 232.556 310.57C232.824 310.422 233.14 310.382 233.437 310.458C233.505 310.458 240.823 312.22 253.311 305.53C254.947 304.652 256.582 303.722 258.263 302.792C270.231 296.041 283.804 288.398 295.048 298.637C295.268 298.842 295.399 299.125 295.412 299.425C295.424 299.726 295.318 300.019 295.116 300.242C295.016 300.353 294.894 300.443 294.758 300.507C294.622 300.57 294.474 300.606 294.324 300.613C294.174 300.619 294.024 300.595 293.883 300.543C293.742 300.491 293.613 300.412 293.503 300.309C283.487 291.181 271.225 298.059 259.37 304.765C257.69 305.71 256.032 306.632 254.396 307.517C244.026 313.075 236.957 313.15 234.191 312.85C235.118 315.678 237.778 326.187 229.94 334.685C229.841 334.799 229.72 334.891 229.584 334.957C229.448 335.022 229.3 335.059 229.149 335.066C228.998 335.072 228.847 335.047 228.706 334.994C228.564 334.94 228.436 334.858 228.328 334.752C228.216 334.655 228.125 334.536 228.061 334.402C227.996 334.269 227.96 334.123 227.953 333.976C227.947 333.828 227.971 333.68 228.024 333.541C228.076 333.403 228.157 333.277 228.26 333.17C233.942 327.019 233.369 319.451 232.556 315.566C229.805 319.999 222.924 326.772 206.577 326.772C206.17 326.772 205.756 326.772 205.326 326.772C202.877 326.727 200.563 326.592 198.423 326.389C196.312 326.907 184.277 330.567 179.732 346.934C182.144 348.539 185.166 349.851 188.346 349.536C188.634 349.531 188.913 349.635 189.127 349.826C189.341 350.017 189.474 350.282 189.5 350.567C189.525 350.852 189.442 351.136 189.266 351.363C189.089 351.589 188.834 351.74 188.55 351.786C188.158 351.824 187.796 351.824 187.412 351.824C183.779 351.824 180.463 350.226 177.916 348.464C177.769 348.416 177.641 348.321 177.554 348.194C177.554 348.194 177.509 348.194 177.486 348.149C175.749 346.905 174.172 345.454 172.791 343.828C172.692 343.715 172.617 343.582 172.57 343.439C172.523 343.296 172.505 343.145 172.518 342.995C172.531 342.845 172.574 342.699 172.644 342.566C172.715 342.433 172.811 342.315 172.928 342.22C173.045 342.125 173.18 342.054 173.325 342.011C173.47 341.969 173.622 341.955 173.773 341.973C173.923 341.99 174.068 342.037 174.2 342.11C174.332 342.184 174.447 342.284 174.539 342.403C175.517 343.529 176.594 344.566 177.758 345.501C181.33 333.635 188.663 328.189 193.524 325.812C182.709 324.169 176.672 320.891 173.929 318.971C150.091 344.893 169.709 371.716 170.568 372.871C170.861 373.255 171.022 373.723 171.027 374.206C172.237 375.21 173.581 376.041 175.022 376.674C177.283 377.694 180.403 378.174 184.239 378.174C189.179 378.084 194.092 377.432 198.882 376.231C195.551 371.888 192.1 365.288 190.125 355.484C190.083 355.335 190.072 355.178 190.093 355.024C190.114 354.87 190.167 354.722 190.248 354.589C190.329 354.456 190.437 354.341 190.564 354.251C190.692 354.162 190.837 354.099 190.99 354.068C191.143 354.036 191.301 354.036 191.454 354.068C191.607 354.1 191.751 354.163 191.879 354.253C192.006 354.343 192.114 354.458 192.194 354.591C192.275 354.724 192.327 354.873 192.348 355.027C194.413 365.363 198.227 371.918 201.656 375.954C202.658 376.141 203.569 376.652 204.248 377.409C204.294 377.409 207.263 379.757 217.189 382.449C222.785 383.84 228.467 384.865 234.198 385.517C240.695 386.402 245.82 387.1 248.978 388.93C250.432 389.785 255.007 390.963 260.516 390.963C264.578 390.963 270.464 390.355 275.461 387.437C282.108 383.552 283.992 381.437 284.422 380.882C284.668 380.151 285.09 379.492 285.65 378.961C286.11 378.54 286.651 378.216 287.241 378.01C287.83 377.803 288.456 377.719 289.079 377.761C289.623 377.814 290.169 377.832 290.715 377.814C293.398 377.814 300.301 377.521 306.609 374.739C310.679 372.976 313.626 370.171 316.241 367.71C319.421 364.71 322.436 361.852 326.687 361.56C329.415 361.357 331.412 358.17 331.435 358.132C331.665 357.723 331.972 357.361 332.339 357.067C334.682 352.699 336.301 347.983 337.132 343.101C338.215 337.016 338.549 330.822 338.127 324.657C338.113 324.357 338.216 324.064 338.416 323.839C338.616 323.615 338.897 323.478 339.197 323.456C339.347 323.446 339.497 323.466 339.639 323.514C339.781 323.562 339.912 323.638 340.024 323.737C340.137 323.837 340.228 323.957 340.293 324.092C340.358 324.226 340.395 324.372 340.403 324.521C340.775 330.134 340.561 335.77 339.762 341.338C342.649 339.463 345.086 336.979 346.9 334.062C347.055 333.809 347.306 333.627 347.597 333.557C347.887 333.488 348.193 333.536 348.448 333.691C348.703 333.846 348.886 334.096 348.956 334.385C349.026 334.674 348.977 334.979 348.821 335.232C346.53 339.052 343.223 342.167 339.265 344.233C338.501 348.262 337.235 352.18 335.497 355.897H335.587C335.632 355.897 335.994 355.897 336.567 355.897C340.584 355.897 354.3 355.147 361.701 345.891C370.037 335.442 363.925 322.946 363.857 322.811C363.455 322.02 363.297 321.127 363.403 320.247C363.509 319.366 363.874 318.536 364.452 317.861C364.497 317.823 372.742 308.11 377.309 296.896ZM314.839 222.115C314.961 222.029 315.098 221.968 315.243 221.936C315.389 221.905 315.539 221.902 315.685 221.93C315.832 221.957 315.971 222.013 316.095 222.095C316.219 222.177 316.325 222.283 316.407 222.407C316.565 222.655 320.175 228.123 321.034 233.163C323.062 233.756 328.081 236.081 332.64 245.164C332.709 245.295 332.75 245.438 332.762 245.585C332.774 245.731 332.756 245.879 332.71 246.019C332.663 246.159 332.589 246.288 332.492 246.399C332.395 246.51 332.276 246.6 332.143 246.664C331.991 246.751 331.82 246.797 331.646 246.799C331.433 246.8 331.224 246.742 331.043 246.63C330.861 246.519 330.715 246.359 330.621 246.169C325.466 235.931 319.949 235.233 319.904 235.203C319.643 235.185 319.397 235.076 319.21 234.895C319.022 234.713 318.905 234.472 318.879 234.213C318.404 229.51 314.568 223.712 314.523 223.66C314.441 223.538 314.384 223.401 314.356 223.257C314.327 223.113 314.328 222.965 314.357 222.822C314.387 222.678 314.445 222.542 314.527 222.42C314.61 222.299 314.716 222.195 314.839 222.115ZM263.41 237.116C265.401 233.617 268.425 230.813 272.072 229.082C275.718 227.351 279.811 226.778 283.796 227.44C284.081 227.502 284.331 227.668 284.496 227.907C284.661 228.145 284.729 228.437 284.686 228.723C284.643 229.01 284.492 229.269 284.264 229.449C284.035 229.628 283.747 229.715 283.457 229.69C270.856 227.815 265.656 237.694 265.452 238.121C265.356 238.31 265.209 238.469 265.029 238.581C264.848 238.693 264.64 238.755 264.427 238.759C264.252 238.757 264.08 238.708 263.93 238.616C263.797 238.553 263.677 238.464 263.579 238.354C263.481 238.245 263.405 238.117 263.357 237.978C263.308 237.839 263.288 237.692 263.297 237.545C263.306 237.399 263.345 237.255 263.41 237.124V237.116ZM211.702 273.929C212.041 273.674 219.487 268.236 228.343 269.879C228.282 265.656 229.255 254.128 241.2 248.165C241.47 248.04 241.779 248.025 242.061 248.123C242.342 248.221 242.574 248.424 242.707 248.69C242.837 248.957 242.856 249.265 242.758 249.546C242.661 249.828 242.455 250.059 242.187 250.19C228.968 256.768 230.604 270.577 230.694 271.192C230.712 271.376 230.687 271.562 230.62 271.736C230.554 271.909 230.447 272.064 230.31 272.189C230.168 272.312 229.998 272.397 229.815 272.436C229.632 272.476 229.442 272.468 229.262 272.414C220.791 270.089 213.141 275.715 213.051 275.76C212.856 275.913 212.613 275.993 212.365 275.985C212.128 275.982 211.898 275.906 211.707 275.767C211.515 275.628 211.372 275.433 211.298 275.209C211.223 274.985 211.22 274.744 211.29 274.518C211.36 274.293 211.499 274.095 211.687 273.952L211.702 273.929ZM289.177 263.428C294.747 267.359 293.971 271.739 293.225 273.682C291.25 278.842 284.301 282.57 279.712 280.943C279.449 280.826 279.24 280.616 279.125 280.353C279.011 280.09 279.001 279.795 279.096 279.524C279.19 279.254 279.384 279.03 279.638 278.895C279.891 278.76 280.187 278.725 280.465 278.797C283.826 279.99 289.599 276.802 291.092 272.894C292.275 269.819 290.73 266.954 286.781 264.584C285.638 263.895 284.438 263.305 283.193 262.821C270.298 257.57 261.096 269.887 254.396 278.842C251.834 282.293 249.792 285.03 247.885 286.343C242.021 290.386 231.644 289.216 228.29 288.713C227.182 292.171 222.683 303.25 211.423 304.15C210.624 304.217 209.878 304.247 209.162 304.247C197.692 304.247 194.715 296.746 194.579 296.379C194.477 296.096 194.492 295.785 194.621 295.514C194.75 295.242 194.981 295.033 195.265 294.931C195.403 294.877 195.55 294.852 195.698 294.855C195.846 294.859 195.992 294.893 196.127 294.953C196.262 295.014 196.383 295.101 196.484 295.21C196.584 295.318 196.662 295.445 196.712 295.584C196.825 295.884 199.666 302.792 211.227 301.892C222.788 300.992 226.345 287.318 226.368 287.183C226.438 286.9 226.613 286.654 226.858 286.494C227.102 286.334 227.398 286.272 227.687 286.321C227.823 286.321 240.446 288.691 246.528 284.49C248.118 283.403 250.161 280.673 252.557 277.507C259.303 268.506 269.477 254.863 284.03 260.743C285.104 261.168 286.151 261.656 287.165 262.206C288.733 260.803 296.661 252.942 291.303 241.459C288.447 242.631 285.931 244.495 283.985 246.882C283.882 247.025 283.746 247.141 283.589 247.221C283.431 247.3 283.257 247.341 283.08 247.339C282.832 247.328 282.593 247.241 282.395 247.092C282.276 247.001 282.177 246.888 282.103 246.758C282.028 246.629 281.98 246.487 281.962 246.339C281.943 246.191 281.953 246.041 281.993 245.898C282.032 245.754 282.099 245.619 282.191 245.502C282.259 245.397 291.001 234.251 301.839 240.169C302.105 240.316 302.301 240.562 302.384 240.853C302.468 241.145 302.431 241.457 302.283 241.721C302.135 241.986 301.888 242.181 301.595 242.264C301.303 242.347 300.989 242.311 300.723 242.164C298.55 240.909 296.005 240.445 293.526 240.851C298.764 252.492 291.657 261.006 289.177 263.428ZM247.764 328.624C248.058 328.062 255.075 315.003 272.899 314.006C273.72 311.527 275.023 309.233 276.735 307.255C276.835 307.144 276.957 307.054 277.093 306.99C277.229 306.926 277.377 306.89 277.527 306.884C277.677 306.878 277.827 306.901 277.968 306.954C278.109 307.006 278.238 307.085 278.347 307.187C278.563 307.391 278.69 307.67 278.703 307.965C278.715 308.26 278.612 308.549 278.415 308.77C276.949 310.52 275.824 312.527 275.099 314.688C275.143 314.798 275.166 314.915 275.167 315.033C275.173 315.206 275.137 315.378 275.062 315.535C274.987 315.692 274.876 315.828 274.737 315.933C274.141 318.196 274.102 320.568 274.624 322.849C274.659 322.993 274.665 323.143 274.641 323.289C274.617 323.436 274.565 323.576 274.486 323.702C274.408 323.829 274.305 323.938 274.184 324.025C274.063 324.111 273.926 324.173 273.78 324.206C273.698 324.218 273.614 324.218 273.532 324.206C273.272 324.21 273.02 324.124 272.818 323.962C272.616 323.801 272.476 323.574 272.424 323.321C271.861 321.001 271.823 318.585 272.311 316.248C256.273 317.516 249.852 329.494 249.784 329.629C249.686 329.815 249.538 329.969 249.357 330.076C249.176 330.184 248.969 330.239 248.759 330.237C248.577 330.236 248.398 330.189 248.239 330.102C247.982 329.966 247.788 329.736 247.699 329.459C247.611 329.183 247.634 328.884 247.764 328.624ZM291.815 364.973C287.18 365.37 281.957 363.84 279.983 363.18C277.821 365.986 275.06 368.279 271.9 369.894C268.739 371.509 265.258 372.405 261.707 372.518H261.338C261.059 372.475 260.807 372.33 260.63 372.112C260.452 371.895 260.362 371.619 260.377 371.339C260.392 371.059 260.511 370.795 260.711 370.597C260.91 370.399 261.177 370.282 261.458 370.268C264.837 370.157 268.146 369.279 271.132 367.701C274.118 366.123 276.702 363.886 278.687 361.162C278.837 360.967 279.047 360.826 279.285 360.761C279.523 360.696 279.776 360.711 280.005 360.802C280.073 360.802 286.389 363.217 291.612 362.722C291.915 362.703 292.214 362.801 292.447 362.995C292.68 363.189 292.829 363.465 292.863 363.765C292.878 364.062 292.777 364.353 292.582 364.578C292.387 364.803 292.112 364.944 291.815 364.973ZM302.871 365.033C302.657 365.235 302.375 365.35 302.08 365.355C301.852 365.357 301.628 365.291 301.438 365.166C301.248 365.04 301.101 364.86 301.015 364.65C300.929 364.44 300.908 364.209 300.955 363.987C301.003 363.765 301.116 363.562 301.281 363.405C311.342 353.759 309.684 339.613 309.662 339.47C309.643 339.324 309.653 339.174 309.692 339.032C309.731 338.889 309.798 338.755 309.889 338.638C309.98 338.521 310.093 338.423 310.222 338.349C310.351 338.276 310.494 338.229 310.641 338.21C310.789 338.189 310.939 338.198 311.082 338.235C311.226 338.273 311.361 338.338 311.479 338.429C311.597 338.519 311.696 338.631 311.769 338.76C311.843 338.889 311.89 339.031 311.908 339.178C311.998 339.815 313.762 354.577 302.871 365.033ZM310.528 331.092C305.351 338.593 293.541 342.433 285.251 339.253C272.582 334.415 262.069 335.765 257.818 342.801C253.733 349.596 244.199 351.381 241.177 351.801C240.703 354.374 238.381 361.312 227.823 363.938C224.112 364.887 220.222 364.898 216.506 363.969C212.79 363.041 209.366 361.201 206.547 358.62C206.44 358.516 206.355 358.391 206.297 358.254C206.239 358.117 206.209 357.97 206.209 357.821C206.209 357.672 206.239 357.525 206.297 357.387C206.355 357.25 206.44 357.126 206.547 357.022C206.649 356.914 206.772 356.828 206.909 356.769C207.046 356.711 207.193 356.68 207.342 356.68C207.491 356.68 207.638 356.711 207.775 356.769C207.912 356.828 208.035 356.914 208.137 357.022C210.692 359.314 213.776 360.944 217.114 361.769C220.453 362.593 223.945 362.585 227.28 361.747C238.449 358.965 239.044 350.804 239.044 350.714C239.063 350.442 239.178 350.186 239.368 349.991C239.559 349.796 239.812 349.675 240.085 349.649C240.198 349.649 251.691 348.591 255.911 341.653C260.75 333.605 272.311 331.902 286.057 337.153C293.3 339.935 304.085 336.403 308.667 329.832C311.975 324.994 311.229 319.504 306.526 314.328C306.368 314.099 306.298 313.819 306.332 313.543C306.366 313.266 306.501 313.012 306.71 312.827C306.92 312.642 307.19 312.541 307.47 312.541C307.75 312.541 308.02 312.643 308.23 312.828C315.616 320.944 312.842 327.762 310.528 331.092ZM306.707 280.582C304.866 281.075 303.293 282.268 302.329 283.905C302.193 284.168 301.959 284.368 301.677 284.46C301.395 284.553 301.088 284.531 300.821 284.4C300.688 284.336 300.57 284.245 300.472 284.135C300.375 284.024 300.301 283.895 300.255 283.755C300.208 283.615 300.19 283.467 300.202 283.32C300.214 283.174 300.256 283.031 300.324 282.9C300.938 281.795 301.772 280.826 302.775 280.052C303.778 279.278 304.929 278.716 306.157 278.4C309.88 277.425 314.244 278.617 319.143 281.948C330.975 289.921 336.725 287.866 336.793 287.866C337.07 287.758 337.379 287.763 337.651 287.881C337.924 287.999 338.138 288.22 338.248 288.496C338.306 288.631 338.336 288.776 338.337 288.923C338.337 289.07 338.307 289.216 338.25 289.351C338.192 289.486 338.107 289.609 338.001 289.71C337.894 289.812 337.768 289.891 337.63 289.943C336.691 290.269 335.699 290.414 334.706 290.371C331.593 290.371 326.008 289.313 317.876 283.793C313.52 280.875 309.775 279.757 306.707 280.582ZM347.902 293.664C344.812 308.583 331.239 314.006 327.056 315.341C327.056 318.715 327.679 322.061 328.895 325.212C328.954 325.351 328.984 325.501 328.984 325.653C328.984 325.804 328.953 325.954 328.895 326.094C328.836 326.233 328.749 326.36 328.641 326.466C328.532 326.572 328.403 326.656 328.262 326.712C328.131 326.756 327.993 326.779 327.855 326.779C327.627 326.784 327.402 326.72 327.211 326.596C327.02 326.471 326.871 326.292 326.785 326.082C325.463 322.663 324.778 319.034 324.765 315.371C324.61 315.234 324.507 315.049 324.471 314.846C324.426 314.657 324.432 314.46 324.488 314.275C324.543 314.089 324.647 313.922 324.787 313.788C324.865 310.541 325.372 307.318 326.295 304.202C326.339 304.06 326.41 303.927 326.506 303.812C326.601 303.698 326.718 303.603 326.851 303.533C326.983 303.463 327.128 303.42 327.277 303.406C327.426 303.393 327.576 303.408 327.719 303.452C328.008 303.544 328.248 303.744 328.389 304.011C328.53 304.278 328.56 304.589 328.473 304.877C327.729 307.506 327.294 310.212 327.177 312.94C331.653 311.388 343.048 306.19 345.731 293.236C346.477 289.825 346.499 286.296 345.795 282.876C345.092 279.456 343.679 276.22 341.647 273.374C337.916 268.124 332.151 264.171 326.905 263.383C326.68 263.344 326.472 263.24 326.306 263.084C326.14 262.928 326.023 262.727 325.971 262.506C325.92 262.286 325.938 262.056 326.023 261.847C326.108 261.637 326.256 261.459 326.445 261.336C326.513 261.291 332.821 256.88 335.685 251.66C335.757 251.529 335.855 251.414 335.972 251.321C336.089 251.228 336.223 251.159 336.367 251.117C336.511 251.076 336.661 251.063 336.81 251.08C336.959 251.096 337.103 251.142 337.234 251.214C337.365 251.285 337.481 251.382 337.574 251.499C337.668 251.615 337.737 251.749 337.779 251.892C337.821 252.035 337.834 252.185 337.817 252.333C337.8 252.481 337.755 252.624 337.682 252.755C335.595 256.573 331.962 259.873 329.716 261.703C334.849 263.203 339.951 267.036 343.523 272.077C345.717 275.176 347.24 278.696 347.994 282.412C348.748 286.128 348.716 289.96 347.902 293.664ZM359.96 301.734C359.87 301.928 359.725 302.091 359.543 302.203C359.361 302.315 359.15 302.371 358.935 302.364C358.763 302.37 358.591 302.332 358.438 302.252C358.303 302.19 358.182 302.101 358.083 301.991C357.983 301.881 357.906 301.752 357.858 301.612C357.809 301.472 357.79 301.323 357.8 301.176C357.81 301.028 357.85 300.884 357.918 300.752C359.105 298.542 360.743 296.603 362.726 295.059C368.107 276.307 359.508 267.696 359.418 267.599C359.309 267.495 359.222 267.371 359.163 267.233C359.104 267.095 359.073 266.946 359.073 266.796C359.073 266.646 359.104 266.498 359.163 266.36C359.222 266.222 359.309 266.097 359.418 265.994C359.631 265.783 359.92 265.664 360.22 265.664C360.521 265.664 360.81 265.783 361.023 265.994C361.392 266.361 369.886 274.859 365.613 293.116C366.738 292.437 367.924 291.862 369.155 291.398C369.297 291.339 369.449 291.31 369.602 291.311C369.756 291.312 369.908 291.344 370.049 291.405C370.189 291.466 370.316 291.554 370.422 291.665C370.527 291.776 370.609 291.908 370.662 292.051C370.715 292.189 370.741 292.336 370.736 292.483C370.732 292.631 370.699 292.776 370.638 292.911C370.577 293.046 370.49 293.167 370.381 293.268C370.273 293.369 370.146 293.447 370.007 293.499C367.999 294.265 366.121 295.333 364.437 296.664C362.599 298.024 361.067 299.751 359.938 301.734H359.96Z" fill="#2C4EA2"/>
<path d="M169.965 316.511C168.013 313.098 164.923 304.72 170.764 290.948C176.981 276.307 190.585 272.264 194.783 271.334C196.893 267.134 205.07 252.29 217.92 249.755C216.857 247.925 213.744 243.904 206.818 242.254C206.674 242.22 206.538 242.157 206.418 242.07C206.298 241.983 206.196 241.874 206.119 241.747C206.042 241.621 205.991 241.481 205.969 241.335C205.946 241.189 205.953 241.04 205.989 240.896C206.02 240.751 206.08 240.614 206.166 240.492C206.252 240.37 206.361 240.267 206.488 240.189C206.615 240.11 206.756 240.058 206.903 240.035C207.051 240.013 207.201 240.02 207.346 240.056C214.204 241.661 217.769 245.457 219.404 247.79C222.291 242.637 229.42 232.871 242.014 232.353C242.994 229.255 245.85 222.79 253.62 215.852C258.726 211.362 264.927 208.284 271.602 206.926L271.308 206.633C271.24 206.543 263.161 198 254.163 198C252.643 197.985 251.132 198.239 249.701 198.75C249.287 198.885 248.88 199.043 248.495 199.178C248.424 199.325 248.318 199.452 248.187 199.55C248.056 199.648 247.903 199.713 247.742 199.74C247.531 199.785 228.049 204.466 218.605 219.699C220.883 220.579 222.926 221.971 224.574 223.765C224.676 223.874 224.755 224.003 224.807 224.143C224.859 224.283 224.882 224.432 224.876 224.581C224.87 224.731 224.834 224.877 224.77 225.012C224.707 225.148 224.617 225.269 224.507 225.37C224.302 225.56 224.032 225.665 223.753 225.663C223.598 225.666 223.444 225.635 223.302 225.573C223.16 225.511 223.034 225.419 222.931 225.302C221.367 223.578 219.381 222.286 217.166 221.552C217.051 221.598 216.928 221.621 216.804 221.62C216.615 221.618 216.429 221.571 216.262 221.485C216.131 221.422 216.02 221.326 215.938 221.207C213.053 220.54 210.04 220.659 207.218 221.552C206.941 221.626 206.646 221.593 206.393 221.46C206.14 221.326 205.946 221.103 205.851 220.834C205.756 220.565 205.766 220.27 205.88 220.008C205.993 219.747 206.202 219.537 206.464 219.422C209.674 218.397 213.1 218.242 216.39 218.972C220.565 212.011 226.556 207.128 232.171 203.813C227.999 204.472 223.779 204.785 219.555 204.751C218.048 204.751 216.45 204.751 214.702 204.683H213.948C202.869 204.683 198.83 210.901 198.641 211.164C198.15 211.96 197.426 212.588 196.567 212.964C195.708 213.341 194.755 213.448 193.833 213.271C191.069 212.759 188.263 212.508 185.452 212.521C178.368 212.521 168.646 214.021 162.609 221.155C152.812 232.721 155.909 240.131 156.045 240.454C156.523 241.542 156.563 242.772 156.158 243.889C162.044 245.254 169.648 248.255 175.233 254.885C175.335 254.999 175.412 255.132 175.46 255.277C175.508 255.421 175.526 255.574 175.512 255.726C175.499 255.878 175.455 256.025 175.382 256.159C175.309 256.293 175.21 256.411 175.09 256.505C174.883 256.689 174.613 256.786 174.336 256.775C174.17 256.776 174.007 256.74 173.857 256.67C173.707 256.6 173.574 256.498 173.469 256.37C168.02 249.927 160.341 247.167 154.628 245.974C154.048 246.471 153.341 246.798 152.586 246.919C152.427 246.919 136.239 249.747 131.898 262.378C127.301 275.902 127.61 280.695 127.61 280.74C127.704 281.327 127.671 281.926 127.514 282.499C127.356 283.072 127.078 283.605 126.698 284.063C128.601 284.189 130.436 284.821 132.011 285.893C133.268 284.645 134.738 283.63 136.352 282.893C136.625 282.775 136.933 282.765 137.213 282.865C137.493 282.965 137.724 283.168 137.859 283.433C137.989 283.701 138.006 284.01 137.907 284.291C137.808 284.573 137.601 284.803 137.332 284.933C130.451 288.233 131.838 292.824 131.86 292.869C131.948 293.157 131.918 293.468 131.777 293.735C131.636 294.001 131.395 294.202 131.106 294.294C130.995 294.32 130.882 294.335 130.767 294.339C130.524 294.34 130.286 294.264 130.089 294.12C129.893 293.977 129.747 293.775 129.675 293.544C129.205 291.552 129.549 289.455 130.632 287.716C127.903 285.683 122.176 286.155 120.081 286.538C119.976 286.56 119.868 286.56 119.764 286.538C117.179 287.581 114.247 290.063 113.953 295.959C115.204 300.617 117.586 306.34 122.017 310.21C122.244 310.41 122.383 310.689 122.404 310.99C122.425 311.29 122.327 311.586 122.13 311.815C122.02 311.934 121.886 312.03 121.737 312.096C121.588 312.161 121.427 312.196 121.264 312.198C120.988 312.203 120.719 312.107 120.51 311.928C117.192 308.879 114.661 305.079 113.132 300.849C111.496 303.812 100.026 325.602 107.359 339.523C113.878 351.996 124.324 352.972 127.346 352.972C127.64 352.972 127.843 352.972 127.911 352.972C128.478 352.93 129.048 352.993 129.592 353.159C133.541 350.159 137.61 344.271 136.224 333.222C133.878 332.122 131.968 330.274 130.797 327.972C130.736 327.835 130.703 327.687 130.699 327.538C130.696 327.388 130.722 327.239 130.777 327.1C130.832 326.96 130.913 326.833 131.018 326.725C131.122 326.617 131.247 326.531 131.385 326.472C131.664 326.357 131.976 326.353 132.257 326.462C132.538 326.571 132.766 326.784 132.893 327.057C133.875 329.043 135.569 330.592 137.641 331.4C137.651 331.405 137.663 331.408 137.675 331.408C137.686 331.408 137.698 331.405 137.708 331.4C139.949 332.199 142.383 332.293 144.68 331.67C144.824 331.635 144.974 331.63 145.121 331.653C145.268 331.677 145.408 331.729 145.534 331.808C145.661 331.886 145.77 331.988 145.856 332.109C145.942 332.229 146.003 332.365 146.036 332.51C146.102 332.802 146.048 333.108 145.887 333.361C145.726 333.614 145.471 333.794 145.177 333.86C143.942 334.153 142.678 334.304 141.409 334.31C140.461 334.315 139.516 334.217 138.59 334.017C139.638 344.758 135.704 350.901 131.596 354.337C132.176 354.94 132.577 355.689 132.757 356.504C133.197 358.199 134.119 359.731 135.411 360.917C136.704 362.104 138.312 362.895 140.045 363.195C141.336 363.397 142.641 363.497 143.949 363.495C148.694 363.366 153.396 362.566 157.914 361.117C158.511 360.91 159.146 360.833 159.775 360.892C156.339 349.349 155.495 332.645 169.965 316.511ZM141.718 308.56C136.013 312.895 138.221 319.811 138.311 320.111C138.36 320.255 138.379 320.407 138.368 320.558C138.356 320.709 138.313 320.857 138.243 320.991C138.173 321.126 138.076 321.245 137.958 321.341C137.84 321.437 137.704 321.509 137.558 321.551C137.447 321.58 137.333 321.597 137.219 321.604C136.982 321.605 136.751 321.534 136.556 321.4C136.362 321.266 136.214 321.075 136.133 320.854C136.133 320.764 133.315 312.108 140.309 306.775C140.547 306.593 140.848 306.512 141.146 306.55C141.443 306.588 141.714 306.742 141.899 306.977C142.078 307.214 142.16 307.51 142.126 307.805C142.093 308.099 141.946 308.37 141.718 308.56ZM170.357 233.666C170.251 233.805 170.114 233.917 169.957 233.995C169.8 234.073 169.628 234.115 169.452 234.116C169.196 234.108 168.949 234.021 168.744 233.868C168.512 233.68 168.363 233.409 168.33 233.114C168.296 232.818 168.38 232.521 168.563 232.286C170.282 230.211 172.722 228.857 175.399 228.49C176.152 226.24 178.737 219.902 185.776 217.569C185.92 217.522 186.071 217.504 186.222 217.516C186.372 217.529 186.519 217.571 186.653 217.641C186.786 217.711 186.904 217.807 187 217.924C187.095 218.04 187.166 218.175 187.208 218.319C187.254 218.462 187.27 218.612 187.257 218.762C187.243 218.911 187.2 219.056 187.13 219.188C187.06 219.321 186.964 219.438 186.848 219.534C186.732 219.629 186.599 219.701 186.455 219.744C179.189 222.16 177.411 229.773 177.351 229.87C177.294 230.116 177.156 230.336 176.959 230.495C176.763 230.654 176.519 230.743 176.265 230.748C172.738 230.725 170.372 233.643 170.349 233.666H170.357ZM152.344 300.489C152.435 300.781 152.406 301.096 152.265 301.367C152.124 301.637 151.882 301.842 151.591 301.937C151.473 301.981 151.348 302.004 151.221 302.004C150.989 302.002 150.762 301.928 150.573 301.794C150.383 301.66 150.238 301.472 150.159 301.254C150.091 301.067 144.363 283.688 160.853 273.157C176.815 262.918 183.764 257.495 183.056 248.547C182.558 241.946 184.902 235.713 189.032 232.661C190.394 231.653 191.998 231.021 193.684 230.826C195.369 230.631 197.076 230.881 198.634 231.551C198.918 231.665 199.145 231.888 199.265 232.169C199.385 232.45 199.389 232.767 199.274 233.051C199.221 233.194 199.139 233.325 199.034 233.437C198.929 233.548 198.802 233.637 198.661 233.699C198.521 233.76 198.369 233.793 198.215 233.795C198.062 233.797 197.909 233.769 197.767 233.711C196.573 233.175 195.257 232.968 193.955 233.11C192.654 233.253 191.414 233.74 190.366 234.521C186.892 237.079 184.849 242.659 185.302 248.397C186.116 259.138 177.441 265.236 162.051 275.084C147.144 284.603 152.118 299.859 152.344 300.489Z" fill="#2C4EA2"/>
</g>
<path d="M233.847 641.437C315.318 641.437 381.364 623.18 381.364 600.659C381.364 578.138 315.318 559.881 233.847 559.881C152.375 559.881 86.3289 578.138 86.3289 600.659C86.3289 623.18 152.375 641.437 233.847 641.437Z" fill="#2C4EA2"/>
<path d="M234.2 609.859C305.555 609.859 363.4 599.146 363.4 585.93C363.4 574.5 305.555 560 234.2 560C162.845 560 105 574.5 105 585.93C105 599.146 162.845 609.859 234.2 609.859Z" fill="url(#paint8_linear)"/>
<path d="M239.802 593.614V529.645H185.155V460.884" stroke="white" stroke-width="3" stroke-miterlimit="10"/>
<path d="M185.967 460.884C190.313 460.884 193.836 457.366 193.836 453.027C193.836 448.688 190.313 445.171 185.967 445.171C181.622 445.171 178.099 448.688 178.099 453.027C178.099 457.366 181.622 460.884 185.967 460.884Z" stroke="white" stroke-width="3" stroke-miterlimit="10"/>
<path d="M128.92 505.572C133.266 505.572 136.789 502.054 136.789 497.715C136.789 493.376 133.266 489.859 128.92 489.859C124.575 489.859 121.052 493.376 121.052 497.715C121.052 502.054 124.575 505.572 128.92 505.572Z" stroke="white" stroke-width="3" stroke-miterlimit="10"/>
<path d="M212.046 466.776C216.391 466.776 219.914 463.259 219.914 458.92C219.914 454.581 216.391 451.063 212.046 451.063C207.7 451.063 204.177 454.581 204.177 458.92C204.177 463.259 207.7 466.776 212.046 466.776Z" stroke="white" stroke-width="3" stroke-miterlimit="10"/>
<path d="M235.164 433.891C239.51 433.891 243.033 430.373 243.033 426.034C243.033 421.695 239.51 418.178 235.164 418.178C230.818 418.178 227.296 421.695 227.296 426.034C227.296 430.373 230.818 433.891 235.164 433.891Z" stroke="white" stroke-width="3" stroke-miterlimit="10"/>
<path d="M298.6 441.243C302.946 441.243 306.469 437.725 306.469 433.386C306.469 429.047 302.946 425.53 298.6 425.53C294.254 425.53 290.731 429.047 290.731 433.386C290.731 437.725 294.254 441.243 298.6 441.243Z" stroke="white" stroke-width="3" stroke-miterlimit="10"/>
<path d="M350.576 463.01C354.922 463.01 358.444 459.493 358.444 455.154C358.444 450.815 354.922 447.297 350.576 447.297C346.23 447.297 342.707 450.815 342.707 455.154C342.707 459.493 346.23 463.01 350.576 463.01Z" stroke="white" stroke-width="3" stroke-miterlimit="10"/>
<path d="M319.264 558.44C323.61 558.44 327.133 554.923 327.133 550.584C327.133 546.245 323.61 542.727 319.264 542.727C314.918 542.727 311.396 546.245 311.396 550.584C311.396 554.923 314.918 558.44 319.264 558.44Z" stroke="white" stroke-width="3" stroke-miterlimit="10"/>
<path d="M185.155 490.363H212.208V465.317" stroke="white" stroke-width="3" stroke-miterlimit="10"/>
<path d="M241.228 539.952H273.19V491.823H235.327V433.891" stroke="white" stroke-width="3" stroke-miterlimit="10"/>
<path d="M298.762 441.243V511.464H273.677" stroke="white" stroke-width="3" stroke-miterlimit="10"/>
<path d="M238.268 559.594H155.161V499.679H135.977" stroke="white" stroke-width="3" stroke-miterlimit="10"/>
<path d="M299.087 487.246H319.426V543.232" stroke="white" stroke-width="3" stroke-miterlimit="10"/>
<path d="M319.427 515.392H333.449V456.469H344.512" stroke="white" stroke-width="3" stroke-miterlimit="10"/>
<defs>
<radialGradient id="paint0_radial" cx="0" cy="0" r="1" gradientUnits="userSpaceOnUse" gradientTransform="translate(247 332.5) rotate(90) scale(410.5 331.312)">
<stop stop-color="#2C4EA2"/>
<stop offset="0.401042" stop-color="#2C4EA2" stop-opacity="0.75"/>
<stop offset="0.677083" stop-color="#2C4EA2" stop-opacity="0.5"/>
<stop offset="1" stop-color="#2C4EA2" stop-opacity="0"/>
</radialGradient>
<linearGradient id="paint1_linear" x1="513.75" y1="671.169" x2="554.049" y2="671.169" gradientUnits="userSpaceOnUse">
<stop stop-opacity="0"/>
<stop offset="0.99"/>
</linearGradient>
<linearGradient id="paint2_linear" x1="14190.1" y1="7164.94" x2="15090.1" y2="7164.94" gradientUnits="userSpaceOnUse">
<stop stop-opacity="0"/>
<stop offset="0.99"/>
</linearGradient>
<linearGradient id="paint3_linear" x1="569.154" y1="706.523" x2="541.213" y2="375.051" gradientUnits="userSpaceOnUse">
<stop offset="0.02" stop-color="white" stop-opacity="0"/>
<stop offset="0.58" stop-color="white" stop-opacity="0.39"/>
<stop offset="0.68" stop-color="white" stop-opacity="0.68"/>
<stop offset="1" stop-color="white"/>
</linearGradient>
<linearGradient id="paint4_linear" x1="24756.4" y1="17643.7" x2="22459" y2="15764.4" gradientUnits="userSpaceOnUse">
<stop offset="0.02" stop-color="white" stop-opacity="0"/>
<stop offset="0.58" stop-color="white" stop-opacity="0.39"/>
<stop offset="0.68" stop-color="white" stop-opacity="0.68"/>
<stop offset="1" stop-color="white"/>
</linearGradient>
<linearGradient id="paint5_linear" x1="564.949" y1="274.889" x2="541.579" y2="276.859" gradientUnits="userSpaceOnUse">
<stop stop-color="#E5C5D5"/>
<stop offset="0.42" stop-color="#EAD4D1"/>
<stop offset="1" stop-color="#F0E9CB"/>
</linearGradient>
<linearGradient id="paint6_linear" x1="6318.22" y1="6394.26" x2="6517.7" y2="6394.26" gradientUnits="userSpaceOnUse">
<stop offset="0.02" stop-color="white" stop-opacity="0"/>
<stop offset="0.58" stop-color="white" stop-opacity="0.39"/>
<stop offset="0.68" stop-color="white" stop-opacity="0.68"/>
<stop offset="1" stop-color="white"/>
</linearGradient>
<linearGradient id="paint7_linear" x1="5399.99" y1="4642.59" x2="5251.16" y2="4521.2" gradientUnits="userSpaceOnUse">
<stop stop-color="#E5C5D5"/>
<stop offset="0.42" stop-color="#EAD4D1"/>
<stop offset="1" stop-color="#F0E9CB"/>
</linearGradient>
<linearGradient id="paint8_linear" x1="363.351" y1="585.92" x2="105.351" y2="585.92" gradientUnits="userSpaceOnUse">
<stop stop-color="white"/>
<stop offset="0.489583" stop-color="white" stop-opacity="0.5"/>
<stop offset="1" stop-color="white" stop-opacity="0"/>
</linearGradient>
<clipPath id="clip0">
<rect width="275" height="193" fill="white" transform="translate(105 198)"/>
</clipPath>
</defs>
</svg>
