<?xml version="1.0" encoding="UTF-8"?>
<svg width="1778px" height="899px" viewBox="0 0 1778 899" version="1.1" xmlns="http://www.w3.org/2000/svg" xmlns:xlink="http://www.w3.org/1999/xlink">
    <!-- Generator: Sketch 58 (84663) - https://sketch.com -->
    <title>Group</title>
    <desc>Created with Sketch.</desc>
    <defs>
        <path d="M0,395.898 C282.46949,-17.645 846.70149,-123.904 1260.24649,158.564 L1030.37649,495.099 C802.69849,339.582 492.05249,398.086 336.53649,625.769 L0,395.898 Z" id="path-1"></path>
    </defs>
    <g id="Page-1" stroke="none" stroke-width="1" fill="none" fill-rule="evenodd">
        <g id="Group">
            <g id="Group-3" transform="translate(0.163510, 0.000000)">
                <mask id="mask-2" fill="white">
                    <use xlink:href="#path-1"></use>
                </mask>
                <use id="Mask" fill="#2C4EA2" fill-rule="nonzero" xlink:href="#path-1"></use>
                <g mask="url(#mask-2)" fill="#FFFFFF" fill-rule="nonzero" id="Path">
                    <g transform="translate(850.836490, -62.000000)">
                        <path d="M1,77 C1.552,77 2,76.552 2,76 C2,75.448 1.552,75 1,75 C0.448,75 0,75.448 0,76 C0,76.552 0.448,77 1,77 Z"></path>
                        <path d="M26,77 C26.552,77 27,76.552 27,76 C27,75.448 26.552,75 26,75 C25.448,75 25,75.448 25,76 C25,76.552 25.448,77 26,77 Z"></path>
                        <path d="M51,77 C51.552,77 52,76.552 52,76 C52,75.448 51.552,75 51,75 C50.448,75 50,75.448 50,76 C50,76.552 50.448,77 51,77 Z"></path>
                        <path d="M76,77 C76.552,77 77,76.552 77,76 C77,75.448 76.552,75 76,75 C75.448,75 75,75.448 75,76 C75,76.552 75.448,77 76,77 Z"></path>
                        <path d="M101,77 C101.552,77 102,76.552 102,76 C102,75.448 101.552,75 101,75 C100.448,75 100,75.448 100,76 C100,76.552 100.448,77 101,77 Z"></path>
                        <path d="M126,77 C126.552,77 127,76.552 127,76 C127,75.448 126.552,75 126,75 C125.448,75 125,75.448 125,76 C125,76.552 125.448,77 126,77 Z"></path>
                        <path d="M1,102 C1.552,102 2,101.552 2,101 C2,100.448 1.552,100 1,100 C0.448,100 0,100.448 0,101 C0,101.552 0.448,102 1,102 Z"></path>
                        <path d="M26,102 C26.552,102 27,101.552 27,101 C27,100.448 26.552,100 26,100 C25.448,100 25,100.448 25,101 C25,101.552 25.448,102 26,102 Z"></path>
                        <path d="M51,102 C51.552,102 52,101.552 52,101 C52,100.448 51.552,100 51,100 C50.448,100 50,100.448 50,101 C50,101.552 50.448,102 51,102 Z"></path>
                        <path d="M76,102 C76.552,102 77,101.552 77,101 C77,100.448 76.552,100 76,100 C75.448,100 75,100.448 75,101 C75,101.552 75.448,102 76,102 Z"></path>
                        <path d="M101,102 C101.552,102 102,101.552 102,101 C102,100.448 101.552,100 101,100 C100.448,100 100,100.448 100,101 C100,101.552 100.448,102 101,102 Z"></path>
                        <path d="M126,102 C126.552,102 127,101.552 127,101 C127,100.448 126.552,100 126,100 C125.448,100 125,100.448 125,101 C125,101.552 125.448,102 126,102 Z"></path>
                        <path d="M1,127 C1.552,127 2,126.552 2,126 C2,125.448 1.552,125 1,125 C0.448,125 0,125.448 0,126 C0,126.552 0.448,127 1,127 Z"></path>
                        <path d="M26,127 C26.552,127 27,126.552 27,126 C27,125.448 26.552,125 26,125 C25.448,125 25,125.448 25,126 C25,126.552 25.448,127 26,127 Z"></path>
                        <path d="M51,127 C51.552,127 52,126.552 52,126 C52,125.448 51.552,125 51,125 C50.448,125 50,125.448 50,126 C50,126.552 50.448,127 51,127 Z"></path>
                        <path d="M76,127 C76.552,127 77,126.552 77,126 C77,125.448 76.552,125 76,125 C75.448,125 75,125.448 75,126 C75,126.552 75.448,127 76,127 Z"></path>
                        <path d="M101,127 C101.552,127 102,126.552 102,126 C102,125.448 101.552,125 101,125 C100.448,125 100,125.448 100,126 C100,126.552 100.448,127 101,127 Z"></path>
                        <path d="M126,127 C126.552,127 127,126.552 127,126 C127,125.448 126.552,125 126,125 C125.448,125 125,125.448 125,126 C125,126.552 125.448,127 126,127 Z"></path>
                    </g>
                </g>
            </g>
            <path d="M1777.71,548.518 C1495.54,931.3 956.482,1012.85 573.702,730.68 L803.33,419.178 C1014.07,574.533 1310.86,529.63 1466.21,318.885 L1777.71,548.518 Z" id="Path" fill="#2C4EA2" fill-rule="nonzero"></path>
            <path d="M1060.64,875.43 C1072.6,883.61 1092.9,886.75 1109.91,873.37 C1113.59,870.48 1116.51,867.83 1118.89,865.62 C1119.24,865.3 1119.57,864.99 1119.89,864.7 C1121.83,862.9 1123.15,861.67 1124.38,860.71 C1125.71,859.68 1126.27,859.51 1126.43,859.47 C1126.44,859.47 1126.44,859.47 1126.44,859.47 C1126.51,859.46 1126.96,859.35 1128.28,859.77 L1133.37,843.84 C1129.87,842.72 1126.32,842.35 1122.7,843.18 C1119.19,843.98 1116.39,845.75 1114.13,847.51 C1112.26,848.96 1110.31,850.77 1108.44,852.51 C1108.13,852.8 1107.83,853.08 1107.53,853.36 C1105.26,855.46 1102.72,857.75 1099.57,860.23 C1089.3,868.31 1077.12,866.45 1070.07,861.63 L1060.64,875.43 Z" id="Path" fill="#FFFFFF"></path>
            <path d="M762.768,34.93 C749.685,28.707 729.137,28.747 714.407,44.607 C711.227,48.032 708.754,51.103 706.745,53.647 C706.448,54.023 706.167,54.38 705.9,54.719 C704.263,56.797 703.146,58.216 702.078,59.352 C700.922,60.58 700.395,60.831 700.24,60.893 C700.238,60.894 700.237,60.895 700.235,60.896 C700.169,60.923 699.739,61.102 698.367,60.89 L695.81,77.412 C699.443,77.975 703.008,77.796 706.459,76.413 C709.801,75.073 712.289,72.897 714.256,70.807 C715.873,69.088 717.519,66.993 719.1,64.982 C719.357,64.655 719.613,64.329 719.867,64.008 C721.783,61.581 723.932,58.919 726.658,55.984 C735.554,46.405 747.876,46.36 755.586,50.028 L762.768,34.93 Z" id="Path" fill="#FFFFFF"></path>
            <path d="M1047.46,58.117 C1045.24,59.852 1043.94,61.81 1042.99,64.864 L1029,60.514 C1030.71,55.018 1033.55,50.385 1038.44,46.566 C1043.07,42.958 1049.14,40.383 1056.72,38.092 C1063.5,36.043 1067.78,33.725 1070.29,31.375 C1072.55,29.264 1073.55,26.997 1073.58,24 L1088.24,24.161 C1088.16,31.254 1085.41,37.299 1080.3,42.077 C1075.44,46.617 1068.74,49.768 1060.96,52.119 C1053.97,54.229 1049.95,56.172 1047.46,58.117 Z" id="Path" fill="#00D7FF"></path>
        </g>
    </g>
</svg>