<?xml version="1.0" encoding="UTF-8"?>
<svg width="2241px" height="1041px" viewBox="0 0 2241 1041" version="1.1" xmlns="http://www.w3.org/2000/svg" xmlns:xlink="http://www.w3.org/1999/xlink">
    <!-- Generator: Sketch 58 (84663) - https://sketch.com -->
    <title>Group</title>
    <desc>Created with Sketch.</desc>
    <defs>
        <path d="M0,527.44 C376.62683,-23.953 1128.94083,-165.632 1680.33083,210.994 L1373.84083,659.71 C1070.27083,452.352 656.07183,530.36 448.71583,833.93 L0,527.44 Z" id="path-1"></path>
    </defs>
    <g id="Page-1" stroke="none" stroke-width="1" fill="none" fill-rule="evenodd">
        <g id="Group">
            <g id="Group-2" transform="translate(0.129170, 0.000000)">
                <mask id="mask-2" fill="white">
                    <use xlink:href="#path-1"></use>
                </mask>
                <use id="Mask" fill="#313896" fill-rule="nonzero" xlink:href="#path-1"></use>
                <g mask="url(#mask-2)" fill="#FFFFFF" fill-rule="nonzero" id="Path">
                    <g transform="translate(893.870830, -167.000000)">
                        <path d="M2,204 C3.105,204 4,203.105 4,202 C4,200.895 3.105,200 2,200 C0.895,200 0,200.895 0,202 C0,203.105 0.895,204 2,204 Z"></path>
                        <path d="M52,204 C53.105,204 54,203.105 54,202 C54,200.895 53.105,200 52,200 C50.895,200 50,200.895 50,202 C50,203.105 50.895,204 52,204 Z"></path>
                        <path d="M102,204 C103.1,204 104,203.105 104,202 C104,200.895 103.1,200 102,200 C100.895,200 100,200.895 100,202 C100,203.105 100.895,204 102,204 Z"></path>
                        <path d="M152,204 C153.1,204 154,203.105 154,202 C154,200.895 153.1,200 152,200 C150.9,200 150,200.895 150,202 C150,203.105 150.9,204 152,204 Z"></path>
                        <path d="M202,204 C203.1,204 204,203.105 204,202 C204,200.895 203.1,200 202,200 C200.9,200 200,200.895 200,202 C200,203.105 200.9,204 202,204 Z"></path>
                        <path d="M252,204 C253.1,204 254,203.105 254,202 C254,200.895 253.1,200 252,200 C250.9,200 250,200.895 250,202 C250,203.105 250.9,204 252,204 Z"></path>
                        <path d="M2,254 C3.105,254 4,253.105 4,252 C4,250.895 3.105,250 2,250 C0.895,250 0,250.895 0,252 C0,253.105 0.895,254 2,254 Z"></path>
                        <path d="M52,254 C53.105,254 54,253.105 54,252 C54,250.895 53.105,250 52,250 C50.895,250 50,250.895 50,252 C50,253.105 50.895,254 52,254 Z"></path>
                        <path d="M102,254 C103.1,254 104,253.105 104,252 C104,250.895 103.1,250 102,250 C100.895,250 100,250.895 100,252 C100,253.105 100.895,254 102,254 Z"></path>
                        <path d="M152,254 C153.1,254 154,253.105 154,252 C154,250.895 153.1,250 152,250 C150.9,250 150,250.895 150,252 C150,253.105 150.9,254 152,254 Z"></path>
                        <path d="M202,254 C203.1,254 204,253.105 204,252 C204,250.895 203.1,250 202,250 C200.9,250 200,250.895 200,252 C200,253.105 200.9,254 202,254 Z"></path>
                        <path d="M252,254 C253.1,254 254,253.105 254,252 C254,250.895 253.1,250 252,250 C250.9,250 250,250.895 250,252 C250,253.105 250.9,254 252,254 Z"></path>
                    </g>
                </g>
            </g>
            <path d="M2240.83,573.71 C1864.59,1084.08 1145.85,1192.82 635.481,816.59 L941.651,401.26 C1222.64,608.4 1618.36,548.53 1825.5,267.538 L2240.83,573.71 Z" id="Path" fill="#313896" fill-rule="nonzero"></path>
            <path d="M1669,593 C1670.1,593 1671,592.1 1671,591 C1671,589.9 1670.1,589 1669,589 C1667.9,589 1667,589.9 1667,591 C1667,592.1 1667.9,593 1669,593 Z" id="Path" fill="#FFFFFF" fill-rule="nonzero"></path>
            <path d="M1719,593 C1720.1,593 1721,592.1 1721,591 C1721,589.9 1720.1,589 1719,589 C1717.9,589 1717,589.9 1717,591 C1717,592.1 1717.9,593 1719,593 Z" id="Path" fill="#FFFFFF" fill-rule="nonzero"></path>
            <path d="M1769,593 C1770.1,593 1771,592.1 1771,591 C1771,589.9 1770.1,589 1769,589 C1767.9,589 1767,589.9 1767,591 C1767,592.1 1767.9,593 1769,593 Z" id="Path" fill="#FFFFFF" fill-rule="nonzero"></path>
            <path d="M1819,593 C1820.1,593 1821,592.1 1821,591 C1821,589.9 1820.1,589 1819,589 C1817.9,589 1817,589.9 1817,591 C1817,592.1 1817.9,593 1819,593 Z" id="Path" fill="#FFFFFF" fill-rule="nonzero"></path>
            <path d="M1869,593 C1870.1,593 1871,592.1 1871,591 C1871,589.9 1870.1,589 1869,589 C1867.9,589 1867,589.9 1867,591 C1867,592.1 1867.9,593 1869,593 Z" id="Path" fill="#FFFFFF" fill-rule="nonzero"></path>
            <path d="M1919,593 C1920.1,593 1921,592.1 1921,591 C1921,589.9 1920.1,589 1919,589 C1917.9,589 1917,589.9 1917,591 C1917,592.1 1917.9,593 1919,593 Z" id="Path" fill="#FFFFFF" fill-rule="nonzero"></path>
            <path d="M1669,643 C1670.1,643 1671,642.1 1671,641 C1671,639.9 1670.1,639 1669,639 C1667.9,639 1667,639.9 1667,641 C1667,642.1 1667.9,643 1669,643 Z" id="Path" fill="#FFFFFF" fill-rule="nonzero"></path>
            <path d="M1719,643 C1720.1,643 1721,642.1 1721,641 C1721,639.9 1720.1,639 1719,639 C1717.9,639 1717,639.9 1717,641 C1717,642.1 1717.9,643 1719,643 Z" id="Path" fill="#FFFFFF" fill-rule="nonzero"></path>
            <path d="M1769,643 C1770.1,643 1771,642.1 1771,641 C1771,639.9 1770.1,639 1769,639 C1767.9,639 1767,639.9 1767,641 C1767,642.1 1767.9,643 1769,643 Z" id="Path" fill="#FFFFFF" fill-rule="nonzero"></path>
            <path d="M1819,643 C1820.1,643 1821,642.1 1821,641 C1821,639.9 1820.1,639 1819,639 C1817.9,639 1817,639.9 1817,641 C1817,642.1 1817.9,643 1819,643 Z" id="Path" fill="#FFFFFF" fill-rule="nonzero"></path>
            <path d="M1869,643 C1870.1,643 1871,642.1 1871,641 C1871,639.9 1870.1,639 1869,639 C1867.9,639 1867,639.9 1867,641 C1867,642.1 1867.9,643 1869,643 Z" id="Path" fill="#FFFFFF" fill-rule="nonzero"></path>
            <path d="M1919,643 C1920.1,643 1921,642.1 1921,641 C1921,639.9 1920.1,639 1919,639 C1917.9,639 1917,639.9 1917,641 C1917,642.1 1917.9,643 1919,643 Z" id="Path" fill="#FFFFFF" fill-rule="nonzero"></path>
            <path d="M1669,693 C1670.1,693 1671,692.1 1671,691 C1671,689.9 1670.1,689 1669,689 C1667.9,689 1667,689.9 1667,691 C1667,692.1 1667.9,693 1669,693 Z" id="Path" fill="#FFFFFF" fill-rule="nonzero"></path>
            <path d="M1719,693 C1720.1,693 1721,692.1 1721,691 C1721,689.9 1720.1,689 1719,689 C1717.9,689 1717,689.9 1717,691 C1717,692.1 1717.9,693 1719,693 Z" id="Path" fill="#FFFFFF" fill-rule="nonzero"></path>
            <path d="M1769,693 C1770.1,693 1771,692.1 1771,691 C1771,689.9 1770.1,689 1769,689 C1767.9,689 1767,689.9 1767,691 C1767,692.1 1767.9,693 1769,693 Z" id="Path" fill="#FFFFFF" fill-rule="nonzero"></path>
            <path d="M1819,693 C1820.1,693 1821,692.1 1821,691 C1821,689.9 1820.1,689 1819,689 C1817.9,689 1817,689.9 1817,691 C1817,692.1 1817.9,693 1819,693 Z" id="Path" fill="#FFFFFF" fill-rule="nonzero"></path>
            <path d="M1869,693 C1870.1,693 1871,692.1 1871,691 C1871,689.9 1870.1,689 1869,689 C1867.9,689 1867,689.9 1867,691 C1867,692.1 1867.9,693 1869,693 Z" id="Path" fill="#FFFFFF" fill-rule="nonzero"></path>
            <path d="M1919,693 C1920.1,693 1921,692.1 1921,691 C1921,689.9 1920.1,689 1919,689 C1917.9,689 1917,689.9 1917,691 C1917,692.1 1917.9,693 1919,693 Z" id="Path" fill="#FFFFFF" fill-rule="nonzero"></path>
            <path d="M1669,743 C1670.1,743 1671,742.1 1671,741 C1671,739.9 1670.1,739 1669,739 C1667.9,739 1667,739.9 1667,741 C1667,742.1 1667.9,743 1669,743 Z" id="Path" fill="#FFFFFF" fill-rule="nonzero"></path>
            <path d="M1719,743 C1720.1,743 1721,742.1 1721,741 C1721,739.9 1720.1,739 1719,739 C1717.9,739 1717,739.9 1717,741 C1717,742.1 1717.9,743 1719,743 Z" id="Path" fill="#FFFFFF" fill-rule="nonzero"></path>
            <path d="M1769,743 C1770.1,743 1771,742.1 1771,741 C1771,739.9 1770.1,739 1769,739 C1767.9,739 1767,739.9 1767,741 C1767,742.1 1767.9,743 1769,743 Z" id="Path" fill="#FFFFFF" fill-rule="nonzero"></path>
            <path d="M1819,743 C1820.1,743 1821,742.1 1821,741 C1821,739.9 1820.1,739 1819,739 C1817.9,739 1817,739.9 1817,741 C1817,742.1 1817.9,743 1819,743 Z" id="Path" fill="#FFFFFF" fill-rule="nonzero"></path>
            <path d="M1869,743 C1870.1,743 1871,742.1 1871,741 C1871,739.9 1870.1,739 1869,739 C1867.9,739 1867,739.9 1867,741 C1867,742.1 1867.9,743 1869,743 Z" id="Path" fill="#FFFFFF" fill-rule="nonzero"></path>
            <path d="M1919,743 C1920.1,743 1921,742.1 1921,741 C1921,739.9 1920.1,739 1919,739 C1917.9,739 1917,739.9 1917,741 C1917,742.1 1917.9,743 1919,743 Z" id="Path" fill="#FFFFFF" fill-rule="nonzero"></path>
            <path d="M1669,793 C1670.1,793 1671,792.1 1671,791 C1671,789.9 1670.1,789 1669,789 C1667.9,789 1667,789.9 1667,791 C1667,792.1 1667.9,793 1669,793 Z" id="Path" fill="#FFFFFF" fill-rule="nonzero"></path>
            <path d="M1719,793 C1720.1,793 1721,792.1 1721,791 C1721,789.9 1720.1,789 1719,789 C1717.9,789 1717,789.9 1717,791 C1717,792.1 1717.9,793 1719,793 Z" id="Path" fill="#FFFFFF" fill-rule="nonzero"></path>
            <path d="M1769,793 C1770.1,793 1771,792.1 1771,791 C1771,789.9 1770.1,789 1769,789 C1767.9,789 1767,789.9 1767,791 C1767,792.1 1767.9,793 1769,793 Z" id="Path" fill="#FFFFFF" fill-rule="nonzero"></path>
            <path d="M1819,793 C1820.1,793 1821,792.1 1821,791 C1821,789.9 1820.1,789 1819,789 C1817.9,789 1817,789.9 1817,791 C1817,792.1 1817.9,793 1819,793 Z" id="Path" fill="#FFFFFF" fill-rule="nonzero"></path>
            <path d="M1869,793 C1870.1,793 1871,792.1 1871,791 C1871,789.9 1870.1,789 1869,789 C1867.9,789 1867,789.9 1867,791 C1867,792.1 1867.9,793 1869,793 Z" id="Path" fill="#FFFFFF" fill-rule="nonzero"></path>
            <path d="M1919,793 C1920.1,793 1921,792.1 1921,791 C1921,789.9 1920.1,789 1919,789 C1917.9,789 1917,789.9 1917,791 C1917,792.1 1917.9,793 1919,793 Z" id="Path" fill="#FFFFFF" fill-rule="nonzero"></path>
            <path d="M1669,843 C1670.1,843 1671,842.1 1671,841 C1671,839.9 1670.1,839 1669,839 C1667.9,839 1667,839.9 1667,841 C1667,842.1 1667.9,843 1669,843 Z" id="Path" fill="#FFFFFF" fill-rule="nonzero"></path>
            <path d="M1719,843 C1720.1,843 1721,842.1 1721,841 C1721,839.9 1720.1,839 1719,839 C1717.9,839 1717,839.9 1717,841 C1717,842.1 1717.9,843 1719,843 Z" id="Path" fill="#FFFFFF" fill-rule="nonzero"></path>
            <path d="M1769,843 C1770.1,843 1771,842.1 1771,841 C1771,839.9 1770.1,839 1769,839 C1767.9,839 1767,839.9 1767,841 C1767,842.1 1767.9,843 1769,843 Z" id="Path" fill="#FFFFFF" fill-rule="nonzero"></path>
            <path d="M1819,843 C1820.1,843 1821,842.1 1821,841 C1821,839.9 1820.1,839 1819,839 C1817.9,839 1817,839.9 1817,841 C1817,842.1 1817.9,843 1819,843 Z" id="Path" fill="#FFFFFF" fill-rule="nonzero"></path>
            <path d="M1869,843 C1870.1,843 1871,842.1 1871,841 C1871,839.9 1870.1,839 1869,839 C1867.9,839 1867,839.9 1867,841 C1867,842.1 1867.9,843 1869,843 Z" id="Path" fill="#FFFFFF" fill-rule="nonzero"></path>
            <path d="M1919,843 C1920.1,843 1921,842.1 1921,841 C1921,839.9 1920.1,839 1919,839 C1917.9,839 1917,839.9 1917,841 C1917,842.1 1917.9,843 1919,843 Z" id="Path" fill="#FFFFFF" fill-rule="nonzero"></path>
            <path d="M1528.92,158.233 C1524.48,161.702 1521.88,165.619 1519.99,171.727 L1492,163.027 C1495.42,152.034 1501.1,142.769 1510.89,135.131 C1520.13,127.914 1532.27,122.766 1547.44,118.184 C1561,114.084 1569.55,109.45 1574.57,104.75 C1579.09,100.527 1581.1,95.994 1581.16,90 L1610.47,90.322 C1610.31,104.508 1604.81,116.598 1594.59,126.154 C1584.89,135.234 1571.47,141.535 1555.91,146.237 C1541.95,150.457 1533.91,154.342 1528.92,158.233 Z" id="Path" fill="#00D7FF"></path>
            <path d="M358.109,260.318 C329.26,257.623 290.695,271.823 273.933,311.735 C270.314,320.354 267.781,327.821 265.756,333.982 C265.457,334.892 265.175,335.755 264.906,336.576 C263.261,341.604 262.137,345.037 260.912,347.903 C259.585,351.006 258.769,351.838 258.52,352.062 C258.517,352.064 258.515,352.067 258.511,352.07 C258.408,352.166 257.724,352.799 255,353.343 L261.554,386.132 C268.765,384.691 275.337,381.904 280.869,376.934 C286.224,372.122 289.402,366.324 291.658,361.047 C293.513,356.707 295.166,351.64 296.752,346.777 C297.011,345.985 297.267,345.198 297.523,344.421 C299.454,338.544 301.661,332.069 304.763,324.683 C314.886,300.576 337.996,292.023 354.998,293.611 L358.109,260.318 Z" id="Path" fill="#FFFFFF"></path>
            <path d="M1570.15,898.02 C1565.27,926.59 1576.5,966.12 1615.02,985.86 C1623.34,990.12 1630.6,993.22 1636.58,995.7 C1637.47,996.07 1638.31,996.42 1639.11,996.75 C1644,998.77 1647.33,1000.15 1650.1,1001.59 C1653.09,1003.15 1653.86,1004.03 1654.06,1004.29 C1654.07,1004.29 1654.07,1004.3 1654.07,1004.3 C1654.16,1004.41 1654.74,1005.14 1655.07,1007.9 L1688.27,1003.85 C1687.38,996.55 1685.1,989.79 1680.56,983.9 C1676.17,978.19 1670.63,974.58 1665.54,971.93 C1661.35,969.75 1656.43,967.72 1651.7,965.77 C1650.93,965.45 1650.16,965.13 1649.41,964.82 C1643.69,962.45 1637.4,959.76 1630.27,956.1 C1607.01,944.18 1600.23,920.49 1603.11,903.65 L1570.15,898.02 Z" id="Path" fill="#FFFFFF"></path>
        </g>
    </g>
</svg>