<svg width="375" height="399" viewBox="0 0 375 399" fill="none" xmlns="http://www.w3.org/2000/svg">
<path opacity="0.18" d="M315.501 340.797L428 -120H-34L56.7929 342.276C56.7929 342.276 19.3585 374.376 186.245 375.942C300.728 377.007 328.399 363.381 315.501 340.797Z" fill="url(#paint0_radial)"/>
<g clip-path="url(#clip0)">
<path d="M276.229 180.077C279.057 173.167 279.29 161.608 270.951 157.56C270.419 157.304 269.976 156.895 269.679 156.387C269.381 155.879 269.242 155.294 269.28 154.708C269.28 154.634 269.726 146.115 265.465 141.633C263.481 139.525 260.773 138.672 257.067 139.002C256.7 139.035 256.33 139 255.976 138.899C256.744 143.17 256.709 147.547 255.872 151.805C255.843 151.977 255.754 152.133 255.621 152.245C255.487 152.358 255.317 152.419 255.142 152.417C255.098 152.417 255.048 152.417 254.994 152.417C254.797 152.376 254.625 152.259 254.515 152.091C254.406 151.924 254.367 151.72 254.408 151.524C255.321 146.802 255.209 141.94 254.081 137.265V137.235C254.081 137.235 254.051 137.206 254.051 137.191C253.302 135.434 250.356 130.241 246.948 129.516C245.312 129.177 243.655 128.947 241.987 128.83C238.892 128.548 235.98 128.267 233.158 125.898C231.987 124.911 229.914 124.264 227.865 124.264C225.995 124.264 224.443 124.787 223.5 125.72C223.209 126.016 222.859 126.247 222.472 126.399C222.085 126.552 221.671 126.622 221.256 126.605C220.84 126.588 220.433 126.485 220.06 126.302C219.687 126.119 219.357 125.86 219.09 125.543C218.35 124.75 217.517 124.047 216.61 123.45C210.707 122.542 202.413 123.894 196.768 128.948C190.652 134.422 189.759 139.284 189.759 139.313C189.707 139.667 189.527 139.99 189.253 140.222C188.98 140.455 188.631 140.581 188.271 140.577C178.455 140.281 174.119 150.798 174.075 150.902C173.973 151.151 173.806 151.369 173.59 151.53C173.374 151.692 173.118 151.792 172.849 151.82C164.179 152.714 158.559 165.058 158.514 165.176C158.408 165.406 158.246 165.605 158.042 165.756C157.838 165.907 157.6 166.005 157.348 166.04C156.946 166.099 147.155 167.659 143.062 177.308C138.801 187.352 142.631 191.932 142.794 192.115C142.939 192.279 143.044 192.474 143.102 192.684C143.161 192.894 143.171 193.115 143.132 193.329C144.937 194.578 149.58 197.12 158.36 197.969C158.502 197.939 158.649 197.954 158.782 198.013C160.105 198.132 161.523 198.206 163.038 198.235C175.935 198.517 179.556 192.164 180.399 190.146C180.484 189.947 180.556 189.742 180.612 189.534C180.663 189.342 180.785 189.178 180.955 189.075C181.132 188.977 181.339 188.951 181.535 189.001C181.58 189.001 186.396 190.161 194.616 185.758C195.692 185.18 196.768 184.568 197.875 183.956C205.752 179.514 214.685 174.485 222.086 181.222C222.231 181.357 222.317 181.544 222.325 181.741C222.334 181.939 222.264 182.131 222.131 182.278C222.065 182.351 221.985 182.411 221.895 182.453C221.805 182.494 221.708 182.518 221.61 182.522C221.511 182.526 221.412 182.511 221.319 182.477C221.227 182.442 221.142 182.39 221.069 182.323C214.477 176.316 206.407 180.842 198.604 185.254C197.498 185.876 196.406 186.483 195.33 187.066C188.504 190.723 183.852 190.773 182.031 190.575C182.641 192.436 184.392 199.351 179.233 204.943C179.168 205.018 179.089 205.079 178.999 205.122C178.909 205.165 178.812 205.189 178.712 205.193C178.613 205.198 178.514 205.181 178.421 205.146C178.328 205.111 178.243 205.057 178.172 204.987C178.098 204.923 178.039 204.845 177.996 204.757C177.954 204.669 177.93 204.573 177.926 204.476C177.922 204.379 177.937 204.282 177.972 204.19C178.007 204.099 178.059 204.016 178.127 203.946C181.867 199.899 181.49 194.919 180.955 192.362C179.144 195.279 174.615 199.736 163.856 199.736C163.588 199.736 163.316 199.736 163.033 199.736C161.421 199.706 159.898 199.617 158.489 199.484C157.1 199.825 149.178 202.233 146.187 213.003C147.775 214.059 149.764 214.923 151.857 214.716C152.046 214.712 152.23 214.78 152.371 214.906C152.511 215.032 152.599 215.206 152.616 215.394C152.633 215.582 152.578 215.769 152.462 215.917C152.346 216.066 152.178 216.166 151.991 216.196C151.733 216.221 151.495 216.221 151.242 216.221C148.851 216.221 146.668 215.17 144.992 214.01C144.895 213.978 144.811 213.916 144.754 213.832C144.754 213.832 144.724 213.832 144.709 213.802C143.566 212.984 142.528 212.03 141.619 210.96C141.553 210.885 141.504 210.798 141.473 210.704C141.442 210.609 141.431 210.51 141.439 210.411C141.447 210.313 141.476 210.217 141.522 210.129C141.568 210.041 141.632 209.964 141.709 209.901C141.786 209.838 141.875 209.792 141.97 209.764C142.066 209.736 142.166 209.727 142.265 209.738C142.364 209.75 142.459 209.781 142.546 209.829C142.633 209.878 142.709 209.943 142.77 210.022C143.413 210.763 144.122 211.445 144.888 212.06C147.239 204.252 152.065 200.669 155.265 199.104C148.147 198.023 144.173 195.866 142.368 194.603C126.678 211.66 139.59 229.31 140.155 230.07C140.348 230.323 140.454 230.631 140.458 230.949C141.254 231.61 142.139 232.156 143.087 232.573C144.575 233.244 146.629 233.56 149.154 233.56C152.405 233.501 155.638 233.072 158.792 232.282C156.599 229.424 154.327 225.081 153.028 218.63C153 218.531 152.993 218.428 153.006 218.327C153.02 218.225 153.055 218.128 153.108 218.04C153.162 217.953 153.233 217.877 153.317 217.818C153.401 217.759 153.496 217.718 153.597 217.697C153.698 217.677 153.802 217.677 153.902 217.698C154.003 217.719 154.098 217.76 154.182 217.819C154.266 217.879 154.337 217.954 154.39 218.042C154.443 218.13 154.477 218.227 154.491 218.328C155.85 225.13 158.36 229.444 160.617 232.099C161.276 232.222 161.876 232.559 162.323 233.057C162.353 233.057 164.308 234.601 170.84 236.373C174.524 237.289 178.264 237.963 182.036 238.392C186.312 238.974 189.685 239.433 191.763 240.638C192.721 241.2 195.732 241.975 199.358 241.975C202.031 241.975 205.906 241.576 209.194 239.656C213.569 237.099 214.809 235.707 215.092 235.342C215.254 234.861 215.532 234.428 215.901 234.078C216.203 233.801 216.559 233.588 216.947 233.452C217.336 233.316 217.747 233.261 218.158 233.289C218.515 233.323 218.875 233.335 219.234 233.323C221 233.323 225.544 233.131 229.696 231.299C232.374 230.14 234.314 228.294 236.035 226.675C238.128 224.7 240.112 222.82 242.91 222.627C244.706 222.494 246.02 220.397 246.035 220.372C246.187 220.103 246.389 219.865 246.63 219.671C248.173 216.797 249.238 213.693 249.785 210.481C250.498 206.477 250.718 202.401 250.44 198.344C250.43 198.147 250.499 197.954 250.63 197.806C250.762 197.659 250.947 197.568 251.144 197.554C251.243 197.548 251.342 197.56 251.435 197.592C251.529 197.624 251.615 197.674 251.689 197.739C251.763 197.804 251.823 197.884 251.866 197.972C251.908 198.061 251.933 198.157 251.938 198.255C252.183 201.948 252.042 205.657 251.516 209.321C253.416 208.087 255.02 206.453 256.214 204.533C256.317 204.366 256.482 204.247 256.673 204.201C256.864 204.155 257.066 204.187 257.233 204.289C257.401 204.391 257.521 204.555 257.567 204.745C257.613 204.936 257.581 205.136 257.479 205.303C255.971 207.816 253.794 209.866 251.189 211.226C250.686 213.877 249.853 216.455 248.709 218.901H248.768C248.798 218.901 249.036 218.901 249.413 218.901C252.057 218.901 261.085 218.407 265.956 212.317C271.442 205.441 267.419 197.219 267.375 197.13C267.11 196.609 267.006 196.022 267.076 195.442C267.146 194.862 267.386 194.316 267.767 193.872C267.796 193.848 273.223 187.456 276.229 180.077ZM235.112 130.868C235.192 130.812 235.283 130.772 235.378 130.751C235.474 130.73 235.573 130.728 235.669 130.746C235.766 130.764 235.857 130.801 235.939 130.855C236.02 130.909 236.09 130.979 236.144 131.061C236.248 131.224 238.624 134.822 239.19 138.138C240.524 138.528 243.828 140.058 246.829 146.036C246.874 146.122 246.901 146.216 246.909 146.312C246.917 146.409 246.905 146.506 246.874 146.598C246.844 146.69 246.795 146.775 246.731 146.848C246.667 146.921 246.589 146.98 246.501 147.023C246.402 147.079 246.289 147.11 246.174 147.112C246.034 147.112 245.896 147.074 245.777 147C245.658 146.927 245.562 146.822 245.499 146.697C242.107 139.96 238.476 139.501 238.446 139.481C238.274 139.469 238.112 139.397 237.989 139.278C237.865 139.159 237.788 139 237.771 138.829C237.459 135.735 234.934 131.92 234.904 131.885C234.85 131.805 234.813 131.715 234.794 131.62C234.775 131.525 234.776 131.428 234.795 131.333C234.815 131.239 234.853 131.149 234.907 131.069C234.961 130.989 235.031 130.921 235.112 130.868ZM201.263 140.74C202.573 138.437 204.563 136.592 206.963 135.453C209.364 134.314 212.058 133.937 214.68 134.373C214.868 134.413 215.032 134.523 215.141 134.68C215.25 134.836 215.294 135.029 215.266 135.217C215.238 135.405 215.138 135.576 214.988 135.694C214.838 135.812 214.648 135.869 214.457 135.853C206.163 134.619 202.741 141.12 202.607 141.401C202.543 141.525 202.447 141.63 202.328 141.704C202.209 141.777 202.072 141.818 201.932 141.82C201.817 141.819 201.703 141.787 201.605 141.727C201.517 141.685 201.439 141.626 201.374 141.554C201.309 141.482 201.259 141.398 201.227 141.307C201.196 141.215 201.182 141.119 201.188 141.022C201.194 140.926 201.22 140.831 201.263 140.745V140.74ZM167.229 164.964C167.453 164.796 172.353 161.218 178.182 162.299C178.142 159.52 178.782 151.934 186.644 148.01C186.822 147.928 187.026 147.918 187.211 147.982C187.396 148.047 187.549 148.181 187.636 148.355C187.722 148.531 187.734 148.734 187.67 148.919C187.606 149.104 187.471 149.256 187.294 149.342C178.594 153.671 179.67 162.758 179.73 163.162C179.742 163.284 179.725 163.406 179.681 163.52C179.637 163.634 179.567 163.737 179.477 163.819C179.384 163.9 179.272 163.955 179.151 163.981C179.03 164.007 178.905 164.002 178.787 163.967C173.212 162.437 168.177 166.139 168.117 166.168C167.989 166.269 167.829 166.322 167.666 166.316C167.51 166.315 167.358 166.265 167.232 166.173C167.106 166.082 167.012 165.953 166.963 165.806C166.914 165.659 166.912 165.5 166.958 165.352C167.004 165.203 167.095 165.073 167.219 164.979L167.229 164.964ZM218.222 158.054C221.888 160.64 221.377 163.523 220.886 164.801C219.586 168.197 215.013 170.65 211.992 169.579C211.819 169.502 211.681 169.364 211.606 169.191C211.531 169.018 211.524 168.823 211.587 168.646C211.649 168.468 211.776 168.32 211.943 168.231C212.11 168.143 212.305 168.12 212.488 168.167C214.7 168.952 218.5 166.854 219.482 164.283C220.261 162.259 219.244 160.374 216.645 158.814C215.893 158.361 215.103 157.973 214.284 157.654C205.796 154.199 199.74 162.304 195.33 168.197C193.643 170.467 192.299 172.269 191.044 173.132C187.185 175.793 180.355 175.023 178.147 174.692C177.418 176.967 174.457 184.257 167.046 184.85C166.52 184.894 166.029 184.914 165.558 184.914C158.008 184.914 156.049 179.978 155.959 179.736C155.892 179.551 155.902 179.346 155.987 179.167C156.072 178.989 156.224 178.851 156.411 178.784C156.501 178.748 156.598 178.731 156.696 178.734C156.793 178.736 156.889 178.758 156.978 178.798C157.067 178.838 157.147 178.896 157.213 178.967C157.279 179.038 157.33 179.122 157.363 179.213C157.437 179.411 159.308 183.956 166.917 183.364C174.526 182.772 176.867 173.774 176.882 173.685C176.928 173.499 177.043 173.337 177.204 173.232C177.365 173.127 177.56 173.086 177.75 173.118C177.84 173.118 186.148 174.677 190.151 171.913C191.198 171.198 192.542 169.401 194.12 167.318C198.559 161.395 205.256 152.417 214.834 156.287C215.541 156.566 216.23 156.888 216.898 157.249C217.93 156.326 223.148 151.154 219.621 143.597C217.742 144.368 216.086 145.595 214.804 147.166C214.737 147.26 214.647 147.336 214.544 147.389C214.44 147.441 214.325 147.468 214.209 147.467C214.046 147.459 213.888 147.402 213.758 147.304C213.68 147.244 213.615 147.17 213.566 147.084C213.517 146.999 213.485 146.906 213.473 146.808C213.46 146.711 213.467 146.613 213.493 146.518C213.519 146.424 213.564 146.335 213.624 146.258C213.669 146.189 219.423 138.854 226.556 142.748C226.731 142.845 226.86 143.007 226.915 143.199C226.97 143.391 226.946 143.596 226.848 143.77C226.751 143.944 226.588 144.073 226.396 144.127C226.203 144.182 225.997 144.158 225.822 144.061C224.391 143.236 222.716 142.93 221.084 143.198C224.532 150.858 219.854 156.46 218.222 158.054ZM190.965 200.955C191.158 200.585 195.776 191.992 207.508 191.335C208.048 189.704 208.906 188.195 210.033 186.893C210.099 186.82 210.179 186.761 210.269 186.719C210.358 186.677 210.455 186.653 210.554 186.649C210.653 186.645 210.751 186.661 210.844 186.695C210.937 186.729 211.022 186.781 211.094 186.849C211.236 186.983 211.32 187.166 211.328 187.36C211.336 187.555 211.268 187.745 211.139 187.89C210.174 189.042 209.434 190.362 208.956 191.784C208.985 191.857 209 191.934 209.001 192.011C209.005 192.125 208.981 192.239 208.932 192.342C208.882 192.445 208.809 192.535 208.718 192.604C208.325 194.093 208.3 195.654 208.644 197.154C208.666 197.249 208.67 197.348 208.655 197.444C208.639 197.541 208.604 197.633 208.553 197.716C208.501 197.799 208.433 197.871 208.354 197.928C208.274 197.985 208.184 198.026 208.088 198.048C208.034 198.055 207.979 198.055 207.924 198.048C207.754 198.05 207.588 197.993 207.455 197.887C207.322 197.781 207.23 197.632 207.195 197.465C206.825 195.938 206.8 194.349 207.121 192.811C196.565 193.645 192.339 201.527 192.294 201.616C192.23 201.738 192.132 201.84 192.013 201.91C191.894 201.981 191.758 202.018 191.62 202.016C191.5 202.015 191.382 201.985 191.277 201.927C191.108 201.838 190.98 201.686 190.922 201.504C190.864 201.323 190.879 201.125 190.965 200.955ZM219.958 224.873C216.908 225.135 213.47 224.128 212.171 223.694C210.748 225.54 208.931 227.049 206.85 228.112C204.77 229.174 202.479 229.764 200.142 229.839H199.898C199.715 229.81 199.549 229.715 199.433 229.571C199.316 229.428 199.257 229.247 199.266 229.062C199.276 228.878 199.355 228.704 199.486 228.574C199.617 228.444 199.793 228.367 199.978 228.358C202.202 228.285 204.38 227.707 206.345 226.668C208.31 225.63 210.011 224.158 211.317 222.366C211.416 222.237 211.555 222.145 211.711 222.102C211.868 222.059 212.035 222.069 212.185 222.129C212.23 222.129 216.387 223.718 219.824 223.393C220.024 223.38 220.221 223.444 220.374 223.572C220.527 223.699 220.625 223.881 220.648 224.079C220.658 224.274 220.592 224.465 220.463 224.613C220.335 224.761 220.154 224.854 219.958 224.873ZM227.235 224.913C227.094 225.046 226.909 225.121 226.714 225.125C226.564 225.126 226.417 225.083 226.292 225C226.167 224.918 226.07 224.799 226.013 224.661C225.957 224.523 225.943 224.371 225.974 224.225C226.006 224.078 226.08 223.945 226.189 223.842C232.811 217.494 231.719 208.186 231.705 208.092C231.692 207.995 231.699 207.897 231.724 207.803C231.75 207.709 231.794 207.621 231.854 207.544C231.914 207.467 231.989 207.403 232.074 207.354C232.159 207.306 232.252 207.275 232.349 207.263C232.446 207.249 232.545 207.254 232.64 207.279C232.734 207.304 232.823 207.347 232.901 207.406C232.979 207.466 233.043 207.54 233.092 207.625C233.14 207.709 233.171 207.803 233.183 207.899C233.242 208.319 234.403 218.032 227.235 224.913ZM232.275 202.579C228.867 207.514 221.094 210.041 215.638 207.949C207.299 204.765 200.38 205.654 197.582 210.283C194.893 214.755 188.619 215.93 186.629 216.206C186.317 217.899 184.789 222.465 177.84 224.192C175.397 224.817 172.837 224.824 170.391 224.213C167.945 223.602 165.692 222.392 163.836 220.693C163.766 220.624 163.71 220.542 163.672 220.452C163.634 220.362 163.614 220.265 163.614 220.167C163.614 220.069 163.634 219.972 163.672 219.882C163.71 219.792 163.766 219.71 163.836 219.641C163.904 219.57 163.985 219.514 164.075 219.475C164.165 219.437 164.262 219.417 164.36 219.417C164.458 219.417 164.555 219.437 164.645 219.475C164.735 219.514 164.816 219.57 164.883 219.641C166.565 221.15 168.594 222.222 170.792 222.765C172.989 223.307 175.287 223.302 177.482 222.751C184.834 220.92 185.226 215.55 185.226 215.49C185.238 215.312 185.313 215.143 185.439 215.015C185.564 214.887 185.731 214.807 185.91 214.79C185.985 214.79 193.549 214.094 196.327 209.528C199.512 204.232 207.121 203.112 216.169 206.567C220.936 208.398 228.034 206.073 231.05 201.75C233.227 198.566 232.736 194.953 229.641 191.547C229.536 191.397 229.491 191.213 229.513 191.031C229.536 190.849 229.624 190.681 229.762 190.56C229.9 190.438 230.078 190.371 230.262 190.371C230.446 190.371 230.624 190.439 230.762 190.56C235.623 195.901 233.798 200.387 232.275 202.579ZM229.76 169.342C228.548 169.666 227.513 170.451 226.878 171.528C226.789 171.701 226.635 171.833 226.449 171.894C226.264 171.955 226.061 171.94 225.886 171.854C225.798 171.812 225.72 171.752 225.656 171.679C225.592 171.606 225.544 171.521 225.513 171.429C225.483 171.337 225.471 171.24 225.479 171.144C225.486 171.047 225.514 170.953 225.559 170.867C225.963 170.14 226.512 169.502 227.172 168.993C227.832 168.484 228.589 168.114 229.398 167.906C231.848 167.264 234.72 168.049 237.945 170.24C245.733 175.487 249.517 174.134 249.562 174.134C249.744 174.063 249.947 174.067 250.127 174.145C250.306 174.222 250.447 174.368 250.519 174.549C250.558 174.638 250.578 174.734 250.578 174.83C250.578 174.927 250.559 175.023 250.521 175.112C250.483 175.201 250.427 175.281 250.357 175.348C250.287 175.415 250.204 175.467 250.113 175.502C249.495 175.716 248.842 175.812 248.188 175.783C246.139 175.783 242.464 175.087 237.111 171.454C234.244 169.534 231.779 168.799 229.76 169.342ZM256.874 177.95C254.84 187.767 245.906 191.335 243.153 192.214C243.153 194.434 243.563 196.636 244.364 198.709C244.402 198.801 244.422 198.9 244.422 198.999C244.422 199.099 244.402 199.198 244.363 199.29C244.325 199.382 244.268 199.465 244.196 199.535C244.125 199.605 244.04 199.659 243.947 199.696C243.861 199.725 243.77 199.74 243.679 199.741C243.529 199.744 243.381 199.702 243.255 199.62C243.13 199.538 243.032 199.42 242.975 199.282C242.104 197.032 241.654 194.644 241.645 192.234C241.543 192.143 241.475 192.022 241.452 191.888C241.422 191.764 241.426 191.635 241.463 191.513C241.499 191.39 241.567 191.28 241.66 191.192C241.711 189.055 242.045 186.935 242.652 184.884C242.681 184.791 242.728 184.703 242.791 184.628C242.854 184.552 242.931 184.49 243.018 184.444C243.105 184.398 243.2 184.37 243.299 184.361C243.397 184.352 243.496 184.362 243.59 184.391C243.78 184.451 243.938 184.583 244.031 184.759C244.124 184.934 244.143 185.139 244.086 185.329C243.596 187.058 243.31 188.839 243.233 190.634C246.179 189.613 253.679 186.192 255.445 177.668C255.936 175.424 255.95 173.102 255.487 170.851C255.024 168.601 254.094 166.471 252.757 164.599C250.301 161.144 246.506 158.543 243.054 158.024C242.906 157.998 242.769 157.93 242.659 157.827C242.55 157.725 242.473 157.592 242.439 157.447C242.406 157.302 242.418 157.151 242.473 157.013C242.529 156.875 242.626 156.758 242.751 156.677C242.796 156.647 246.948 153.745 248.833 150.31C248.88 150.224 248.944 150.148 249.021 150.087C249.098 150.026 249.187 149.98 249.281 149.953C249.376 149.926 249.475 149.917 249.573 149.928C249.671 149.939 249.766 149.969 249.852 150.016C249.938 150.064 250.015 150.127 250.076 150.204C250.138 150.28 250.183 150.368 250.211 150.463C250.238 150.557 250.247 150.655 250.236 150.753C250.225 150.85 250.195 150.945 250.147 151.03C248.773 153.543 246.382 155.714 244.904 156.919C248.282 157.906 251.64 160.428 253.992 163.745C255.436 165.784 256.438 168.1 256.934 170.546C257.43 172.991 257.41 175.513 256.874 177.95ZM264.81 183.26C264.751 183.388 264.656 183.495 264.536 183.569C264.416 183.642 264.277 183.679 264.136 183.675C264.022 183.679 263.909 183.653 263.808 183.601C263.719 183.56 263.64 183.501 263.574 183.429C263.509 183.357 263.458 183.272 263.426 183.18C263.395 183.088 263.382 182.99 263.388 182.893C263.395 182.796 263.422 182.701 263.466 182.614C264.247 181.16 265.325 179.884 266.631 178.868C270.172 166.529 264.513 160.862 264.453 160.798C264.381 160.73 264.324 160.648 264.285 160.557C264.246 160.466 264.226 160.369 264.226 160.27C264.226 160.171 264.246 160.074 264.285 159.983C264.324 159.892 264.381 159.81 264.453 159.742C264.593 159.603 264.783 159.525 264.981 159.525C265.179 159.525 265.369 159.603 265.51 159.742C265.753 159.984 271.343 165.576 268.531 177.589C269.271 177.142 270.052 176.764 270.862 176.459C270.955 176.42 271.055 176.401 271.156 176.401C271.258 176.402 271.357 176.423 271.45 176.463C271.543 176.503 271.626 176.562 271.696 176.635C271.765 176.708 271.819 176.794 271.854 176.889C271.889 176.979 271.906 177.076 271.903 177.173C271.9 177.27 271.878 177.366 271.838 177.454C271.798 177.543 271.74 177.623 271.669 177.689C271.598 177.755 271.514 177.807 271.423 177.841C270.101 178.345 268.865 179.048 267.757 179.924C266.547 180.819 265.539 181.955 264.795 183.26H264.81Z" fill="#2C4EA2"/>
<path d="M139.758 192.984C138.473 190.738 136.44 185.225 140.284 176.163C144.376 166.528 153.33 163.868 156.093 163.256C157.482 160.492 162.864 150.724 171.321 149.056C170.622 147.852 168.573 145.206 164.014 144.121C163.919 144.098 163.83 144.057 163.751 144C163.672 143.942 163.605 143.87 163.554 143.787C163.504 143.704 163.47 143.612 163.455 143.516C163.441 143.42 163.445 143.321 163.469 143.227C163.489 143.132 163.529 143.041 163.585 142.961C163.641 142.881 163.714 142.813 163.797 142.762C163.88 142.71 163.973 142.676 164.07 142.661C164.167 142.646 164.266 142.65 164.362 142.674C168.876 143.731 171.222 146.228 172.298 147.763C174.198 144.372 178.891 137.946 187.18 137.605C187.824 135.567 189.704 131.312 194.819 126.747C198.179 123.792 202.26 121.767 206.654 120.873L206.461 120.681C206.416 120.622 201.098 115 195.176 115C194.175 114.99 193.181 115.157 192.239 115.494C191.966 115.582 191.698 115.686 191.445 115.775C191.399 115.872 191.329 115.956 191.243 116.02C191.156 116.084 191.056 116.127 190.949 116.145C190.811 116.175 177.988 119.255 171.773 129.279C173.272 129.858 174.616 130.773 175.701 131.954C175.768 132.026 175.82 132.111 175.854 132.203C175.888 132.295 175.904 132.393 175.9 132.491C175.895 132.59 175.872 132.686 175.83 132.775C175.788 132.864 175.729 132.944 175.657 133.01C175.522 133.135 175.344 133.204 175.16 133.203C175.058 133.205 174.957 133.185 174.864 133.144C174.77 133.103 174.687 133.042 174.62 132.966C173.59 131.831 172.283 130.981 170.825 130.498C170.749 130.528 170.669 130.543 170.587 130.542C170.463 130.541 170.34 130.511 170.23 130.454C170.144 130.412 170.071 130.349 170.017 130.271C168.118 129.832 166.135 129.91 164.277 130.498C164.095 130.546 163.901 130.525 163.734 130.437C163.568 130.349 163.44 130.203 163.378 130.026C163.315 129.848 163.322 129.654 163.397 129.482C163.471 129.31 163.609 129.172 163.781 129.096C165.894 128.422 168.149 128.32 170.314 128.8C173.062 124.22 177.006 121.007 180.701 118.825C177.955 119.259 175.178 119.465 172.398 119.442C171.405 119.442 170.354 119.442 169.203 119.398H168.707C161.415 119.398 158.756 123.489 158.632 123.662C158.309 124.186 157.833 124.599 157.267 124.847C156.702 125.095 156.074 125.165 155.468 125.049C153.649 124.712 151.802 124.546 149.952 124.555C145.289 124.555 138.89 125.543 134.917 130.236C128.468 137.847 130.507 142.724 130.596 142.936C130.911 143.652 130.937 144.461 130.671 145.196C134.545 146.095 139.55 148.069 143.225 152.432C143.292 152.507 143.343 152.595 143.375 152.69C143.407 152.785 143.418 152.886 143.409 152.985C143.401 153.085 143.371 153.182 143.324 153.27C143.276 153.359 143.21 153.436 143.131 153.498C142.995 153.619 142.817 153.683 142.635 153.676C142.526 153.676 142.418 153.653 142.32 153.607C142.221 153.561 142.134 153.493 142.065 153.409C138.478 149.17 133.424 147.353 129.664 146.569C129.282 146.895 128.817 147.11 128.319 147.19C128.215 147.19 117.56 149.051 114.703 157.363C111.677 166.262 111.881 169.416 111.881 169.445C111.943 169.831 111.921 170.226 111.818 170.603C111.714 170.98 111.531 171.331 111.28 171.632C112.533 171.715 113.741 172.131 114.778 172.836C115.605 172.015 116.573 171.347 117.635 170.862C117.814 170.784 118.017 170.778 118.202 170.844C118.386 170.91 118.538 171.044 118.627 171.217C118.712 171.394 118.723 171.597 118.658 171.782C118.593 171.967 118.457 172.119 118.28 172.205C113.751 174.376 114.663 177.397 114.678 177.426C114.736 177.616 114.716 177.821 114.623 177.996C114.531 178.172 114.372 178.304 114.182 178.364C114.109 178.381 114.034 178.391 113.959 178.394C113.799 178.395 113.642 178.344 113.513 178.25C113.383 178.156 113.288 178.023 113.24 177.871C112.931 176.56 113.157 175.18 113.87 174.036C112.074 172.698 108.304 173.009 106.925 173.261C106.857 173.275 106.786 173.275 106.717 173.261C105.015 173.947 103.086 175.581 102.892 179.46C103.716 182.525 105.283 186.291 108.2 188.838C108.349 188.969 108.441 189.153 108.454 189.351C108.468 189.548 108.404 189.743 108.274 189.894C108.202 189.972 108.113 190.035 108.015 190.078C107.917 190.122 107.811 190.145 107.704 190.146C107.522 190.149 107.346 190.086 107.208 189.968C105.024 187.962 103.358 185.461 102.352 182.678C101.275 184.628 93.7256 198.966 98.5521 208.126C102.843 216.334 109.718 216.976 111.707 216.976C111.9 216.976 112.034 216.976 112.079 216.976C112.452 216.949 112.827 216.99 113.185 217.099C115.784 215.125 118.463 211.251 117.55 203.98C116.006 203.257 114.75 202.041 113.979 200.525C113.939 200.435 113.917 200.338 113.914 200.24C113.912 200.141 113.929 200.043 113.965 199.952C114.001 199.86 114.055 199.776 114.124 199.705C114.193 199.634 114.275 199.577 114.366 199.538C114.549 199.463 114.755 199.461 114.94 199.532C115.125 199.604 115.274 199.744 115.358 199.923C116.005 201.231 117.119 202.25 118.483 202.781C118.49 202.785 118.498 202.786 118.505 202.786C118.513 202.786 118.521 202.785 118.528 202.781C120.003 203.307 121.604 203.369 123.116 202.959C123.211 202.936 123.31 202.932 123.406 202.948C123.503 202.964 123.595 202.998 123.678 203.05C123.762 203.101 123.833 203.168 123.89 203.248C123.947 203.327 123.987 203.417 124.009 203.512C124.052 203.704 124.016 203.905 123.91 204.072C123.804 204.238 123.636 204.356 123.443 204.4C122.631 204.593 121.799 204.692 120.963 204.696C120.34 204.699 119.717 204.635 119.108 204.504C119.797 211.572 117.208 215.614 114.505 217.874C114.886 218.271 115.15 218.765 115.269 219.301C115.558 220.416 116.165 221.424 117.016 222.205C117.866 222.985 118.925 223.506 120.065 223.703C120.915 223.836 121.774 223.902 122.635 223.901C125.758 223.816 128.853 223.289 131.826 222.336C132.219 222.2 132.637 222.149 133.052 222.188C130.79 214.592 130.234 203.6 139.758 192.984ZM121.167 187.752C117.411 190.605 118.865 195.155 118.924 195.353C118.957 195.447 118.969 195.547 118.961 195.647C118.954 195.746 118.926 195.843 118.879 195.932C118.833 196.02 118.769 196.099 118.692 196.162C118.614 196.225 118.525 196.273 118.428 196.301C118.355 196.319 118.281 196.331 118.205 196.335C118.049 196.336 117.897 196.289 117.769 196.201C117.641 196.113 117.544 195.987 117.491 195.842C117.491 195.782 115.636 190.087 120.239 186.577C120.396 186.458 120.594 186.404 120.79 186.429C120.986 186.454 121.164 186.555 121.286 186.71C121.404 186.866 121.457 187.061 121.435 187.255C121.413 187.449 121.317 187.627 121.167 187.752ZM140.016 138.469C139.946 138.561 139.856 138.635 139.753 138.686C139.65 138.737 139.536 138.765 139.421 138.765C139.252 138.76 139.089 138.703 138.955 138.602C138.802 138.479 138.704 138.3 138.682 138.106C138.66 137.911 138.715 137.716 138.835 137.561C139.967 136.196 141.573 135.305 143.335 135.064C143.831 133.583 145.532 129.412 150.165 127.877C150.259 127.846 150.359 127.834 150.458 127.842C150.557 127.85 150.654 127.878 150.742 127.924C150.83 127.971 150.908 128.034 150.97 128.111C151.033 128.187 151.08 128.276 151.107 128.371C151.137 128.465 151.148 128.564 151.139 128.662C151.131 128.76 151.102 128.855 151.056 128.943C151.01 129.03 150.947 129.107 150.871 129.17C150.794 129.233 150.706 129.28 150.611 129.309C145.83 130.898 144.659 135.908 144.619 135.972C144.582 136.133 144.491 136.278 144.362 136.382C144.232 136.487 144.072 136.546 143.905 136.549C141.584 136.534 140.026 138.454 140.011 138.469H140.016ZM128.161 182.441C128.22 182.633 128.201 182.84 128.109 183.018C128.016 183.197 127.856 183.331 127.665 183.394C127.587 183.423 127.505 183.438 127.422 183.438C127.268 183.436 127.119 183.388 126.994 183.3C126.87 183.212 126.775 183.088 126.722 182.945C126.678 182.821 122.908 171.385 133.761 164.456C144.267 157.718 148.841 154.15 148.374 148.262C148.047 143.918 149.59 139.817 152.308 137.808C153.204 137.145 154.26 136.729 155.369 136.6C156.479 136.472 157.602 136.637 158.627 137.077C158.815 137.153 158.964 137.299 159.043 137.484C159.122 137.669 159.124 137.878 159.049 138.064C159.014 138.159 158.96 138.245 158.891 138.318C158.822 138.392 158.738 138.45 158.646 138.491C158.553 138.531 158.453 138.553 158.352 138.554C158.251 138.556 158.151 138.537 158.057 138.499C157.271 138.146 156.405 138.01 155.548 138.104C154.692 138.197 153.876 138.518 153.186 139.032C150.899 140.715 149.555 144.387 149.853 148.163C150.388 155.231 144.679 159.243 134.55 165.724C124.738 171.987 128.012 182.027 128.161 182.441Z" fill="#2C4EA2"/>
</g>
<path d="M187.5 399C272.276 399 341 384.225 341 366C341 347.775 272.276 333 187.5 333C102.724 333 34 347.775 34 366C34 384.225 102.724 399 187.5 399Z" fill="#2C4EA2"/>
<path d="M187.5 374C261.782 374 322 365.19 322 354.322C322 344.924 261.782 333 187.5 333C113.218 333 53 344.924 53 354.322C53 365.19 113.218 374 187.5 374Z" fill="url(#paint1_linear)"/>
<path d="M181 350V313.854H146V275" stroke="white" stroke-width="3" stroke-miterlimit="10"/>
<path d="M146.5 275C149.538 275 152 272.985 152 270.5C152 268.015 149.538 266 146.5 266C143.462 266 141 268.015 141 270.5C141 272.985 143.462 275 146.5 275Z" stroke="white" stroke-width="3" stroke-miterlimit="10"/>
<path d="M110 300C112.761 300 115 297.985 115 295.5C115 293.015 112.761 291 110 291C107.239 291 105 293.015 105 295.5C105 297.985 107.239 300 110 300Z" stroke="white" stroke-width="3" stroke-miterlimit="10"/>
<path d="M163 278C165.761 278 168 275.985 168 273.5C168 271.015 165.761 269 163 269C160.239 269 158 271.015 158 273.5C158 275.985 160.239 278 163 278Z" stroke="white" stroke-width="3" stroke-miterlimit="10"/>
<path d="M178 260C180.761 260 183 257.985 183 255.5C183 253.015 180.761 251 178 251C175.239 251 173 253.015 173 255.5C173 257.985 175.239 260 178 260Z" stroke="white" stroke-width="3" stroke-miterlimit="10"/>
<path d="M218.5 264C221.538 264 224 261.985 224 259.5C224 257.015 221.538 255 218.5 255C215.462 255 213 257.015 213 259.5C213 261.985 215.462 264 218.5 264Z" stroke="white" stroke-width="3" stroke-miterlimit="10"/>
<path d="M252 276C254.761 276 257 273.985 257 271.5C257 269.015 254.761 267 252 267C249.239 267 247 269.015 247 271.5C247 273.985 249.239 276 252 276Z" stroke="white" stroke-width="3" stroke-miterlimit="10"/>
<path d="M232 330C234.761 330 237 327.985 237 325.5C237 323.015 234.761 321 232 321C229.239 321 227 323.015 227 325.5C227 327.985 229.239 330 232 330Z" stroke="white" stroke-width="3" stroke-miterlimit="10"/>
<path d="M146 292H164V278" stroke="white" stroke-width="3" stroke-miterlimit="10"/>
<path d="M182.585 319H202V292.226H179V260" stroke="white" stroke-width="3" stroke-miterlimit="10"/>
<path d="M219 264V303H203" stroke="white" stroke-width="3" stroke-miterlimit="10"/>
<path d="M180 331H127.19V297H115" stroke="white" stroke-width="3" stroke-miterlimit="10"/>
<path d="M219 290H232V321" stroke="white" stroke-width="3" stroke-miterlimit="10"/>
<path d="M232 306H240.944V273H248" stroke="white" stroke-width="3" stroke-miterlimit="10"/>
<defs>
<radialGradient id="paint0_radial" cx="0" cy="0" r="1" gradientUnits="userSpaceOnUse" gradientTransform="translate(197 149.445) rotate(90) scale(332.654 309.851)">
<stop stop-color="#2C4EA2"/>
<stop offset="0.401042" stop-color="#2C4EA2" stop-opacity="0.75"/>
<stop offset="0.677083" stop-color="#2C4EA2" stop-opacity="0.5"/>
<stop offset="1" stop-color="#2C4EA2" stop-opacity="0"/>
</radialGradient>
<linearGradient id="paint1_linear" x1="321.949" y1="354.315" x2="53.3654" y2="354.315" gradientUnits="userSpaceOnUse">
<stop stop-color="white"/>
<stop offset="0.489583" stop-color="white" stop-opacity="0.5"/>
<stop offset="1" stop-color="white" stop-opacity="0"/>
</linearGradient>
<clipPath id="clip0">
<rect width="181" height="127" fill="white" transform="translate(97 115)"/>
</clipPath>
</defs>
</svg>
