<svg width="72" height="72" viewBox="0 0 72 72" fill="none" xmlns="http://www.w3.org/2000/svg">
<path d="M1 2C1.55228 2 2 1.55228 2 1C2 0.447715 1.55228 0 1 0C0.447715 0 0 0.447715 0 1C0 1.55228 0.447715 2 1 2Z" fill="#DDDEEE"/>
<path d="M11 2C11.5523 2 12 1.55228 12 1C12 0.447715 11.5523 0 11 0C10.4477 0 10 0.447715 10 1C10 1.55228 10.4477 2 11 2Z" fill="#DDDEEE"/>
<path d="M21 2C21.5523 2 22 1.55228 22 1C22 0.447715 21.5523 0 21 0C20.4477 0 20 0.447715 20 1C20 1.55228 20.4477 2 21 2Z" fill="#DDDEEE"/>
<path d="M31 2C31.5523 2 32 1.55228 32 1C32 0.447715 31.5523 0 31 0C30.4477 0 30 0.447715 30 1C30 1.55228 30.4477 2 31 2Z" fill="#DDDEEE"/>
<path d="M41 2C41.5523 2 42 1.55228 42 1C42 0.447715 41.5523 0 41 0C40.4477 0 40 0.447715 40 1C40 1.55228 40.4477 2 41 2Z" fill="#DDDEEE"/>
<path d="M51 2C51.5523 2 52 1.55228 52 1C52 0.447715 51.5523 0 51 0C50.4477 0 50 0.447715 50 1C50 1.55228 50.4477 2 51 2Z" fill="#DDDEEE"/>
<path d="M61 2C61.5523 2 62 1.55228 62 1C62 0.447715 61.5523 0 61 0C60.4477 0 60 0.447715 60 1C60 1.55228 60.4477 2 61 2Z" fill="#DDDEEE"/>
<path d="M71 2C71.5523 2 72 1.55228 72 1C72 0.447715 71.5523 0 71 0C70.4477 0 70 0.447715 70 1C70 1.55228 70.4477 2 71 2Z" fill="#DDDEEE"/>
<path d="M1 12C1.55228 12 2 11.5523 2 11C2 10.4477 1.55228 10 1 10C0.447715 10 0 10.4477 0 11C0 11.5523 0.447715 12 1 12Z" fill="#DDDEEE"/>
<path d="M11 12C11.5523 12 12 11.5523 12 11C12 10.4477 11.5523 10 11 10C10.4477 10 10 10.4477 10 11C10 11.5523 10.4477 12 11 12Z" fill="#DDDEEE"/>
<path d="M21 12C21.5523 12 22 11.5523 22 11C22 10.4477 21.5523 10 21 10C20.4477 10 20 10.4477 20 11C20 11.5523 20.4477 12 21 12Z" fill="#DDDEEE"/>
<path d="M31 12C31.5523 12 32 11.5523 32 11C32 10.4477 31.5523 10 31 10C30.4477 10 30 10.4477 30 11C30 11.5523 30.4477 12 31 12Z" fill="#DDDEEE"/>
<path d="M41 12C41.5523 12 42 11.5523 42 11C42 10.4477 41.5523 10 41 10C40.4477 10 40 10.4477 40 11C40 11.5523 40.4477 12 41 12Z" fill="#DDDEEE"/>
<path d="M51 12C51.5523 12 52 11.5523 52 11C52 10.4477 51.5523 10 51 10C50.4477 10 50 10.4477 50 11C50 11.5523 50.4477 12 51 12Z" fill="#DDDEEE"/>
<path d="M61 12C61.5523 12 62 11.5523 62 11C62 10.4477 61.5523 10 61 10C60.4477 10 60 10.4477 60 11C60 11.5523 60.4477 12 61 12Z" fill="#DDDEEE"/>
<path d="M71 12C71.5523 12 72 11.5523 72 11C72 10.4477 71.5523 10 71 10C70.4477 10 70 10.4477 70 11C70 11.5523 70.4477 12 71 12Z" fill="#DDDEEE"/>
<path d="M1 22C1.55228 22 2 21.5523 2 21C2 20.4477 1.55228 20 1 20C0.447715 20 0 20.4477 0 21C0 21.5523 0.447715 22 1 22Z" fill="#DDDEEE"/>
<path d="M11 22C11.5523 22 12 21.5523 12 21C12 20.4477 11.5523 20 11 20C10.4477 20 10 20.4477 10 21C10 21.5523 10.4477 22 11 22Z" fill="#DDDEEE"/>
<path d="M21 22C21.5523 22 22 21.5523 22 21C22 20.4477 21.5523 20 21 20C20.4477 20 20 20.4477 20 21C20 21.5523 20.4477 22 21 22Z" fill="#DDDEEE"/>
<path d="M31 22C31.5523 22 32 21.5523 32 21C32 20.4477 31.5523 20 31 20C30.4477 20 30 20.4477 30 21C30 21.5523 30.4477 22 31 22Z" fill="#DDDEEE"/>
<path d="M41 22C41.5523 22 42 21.5523 42 21C42 20.4477 41.5523 20 41 20C40.4477 20 40 20.4477 40 21C40 21.5523 40.4477 22 41 22Z" fill="#DDDEEE"/>
<path d="M51 22C51.5523 22 52 21.5523 52 21C52 20.4477 51.5523 20 51 20C50.4477 20 50 20.4477 50 21C50 21.5523 50.4477 22 51 22Z" fill="#DDDEEE"/>
<path d="M61 22C61.5523 22 62 21.5523 62 21C62 20.4477 61.5523 20 61 20C60.4477 20 60 20.4477 60 21C60 21.5523 60.4477 22 61 22Z" fill="#DDDEEE"/>
<path d="M71 22C71.5523 22 72 21.5523 72 21C72 20.4477 71.5523 20 71 20C70.4477 20 70 20.4477 70 21C70 21.5523 70.4477 22 71 22Z" fill="#DDDEEE"/>
<path d="M1 32C1.55228 32 2 31.5523 2 31C2 30.4477 1.55228 30 1 30C0.447715 30 0 30.4477 0 31C0 31.5523 0.447715 32 1 32Z" fill="#DDDEEE"/>
<path d="M11 32C11.5523 32 12 31.5523 12 31C12 30.4477 11.5523 30 11 30C10.4477 30 10 30.4477 10 31C10 31.5523 10.4477 32 11 32Z" fill="#DDDEEE"/>
<path d="M21 32C21.5523 32 22 31.5523 22 31C22 30.4477 21.5523 30 21 30C20.4477 30 20 30.4477 20 31C20 31.5523 20.4477 32 21 32Z" fill="#DDDEEE"/>
<path d="M31 32C31.5523 32 32 31.5523 32 31C32 30.4477 31.5523 30 31 30C30.4477 30 30 30.4477 30 31C30 31.5523 30.4477 32 31 32Z" fill="#DDDEEE"/>
<path d="M41 32C41.5523 32 42 31.5523 42 31C42 30.4477 41.5523 30 41 30C40.4477 30 40 30.4477 40 31C40 31.5523 40.4477 32 41 32Z" fill="#DDDEEE"/>
<path d="M51 32C51.5523 32 52 31.5523 52 31C52 30.4477 51.5523 30 51 30C50.4477 30 50 30.4477 50 31C50 31.5523 50.4477 32 51 32Z" fill="#DDDEEE"/>
<path d="M61 32C61.5523 32 62 31.5523 62 31C62 30.4477 61.5523 30 61 30C60.4477 30 60 30.4477 60 31C60 31.5523 60.4477 32 61 32Z" fill="#DDDEEE"/>
<path d="M71 32C71.5523 32 72 31.5523 72 31C72 30.4477 71.5523 30 71 30C70.4477 30 70 30.4477 70 31C70 31.5523 70.4477 32 71 32Z" fill="#DDDEEE"/>
<path d="M1 42C1.55228 42 2 41.5523 2 41C2 40.4477 1.55228 40 1 40C0.447715 40 0 40.4477 0 41C0 41.5523 0.447715 42 1 42Z" fill="#DDDEEE"/>
<path d="M11 42C11.5523 42 12 41.5523 12 41C12 40.4477 11.5523 40 11 40C10.4477 40 10 40.4477 10 41C10 41.5523 10.4477 42 11 42Z" fill="#DDDEEE"/>
<path d="M21 42C21.5523 42 22 41.5523 22 41C22 40.4477 21.5523 40 21 40C20.4477 40 20 40.4477 20 41C20 41.5523 20.4477 42 21 42Z" fill="#DDDEEE"/>
<path d="M31 42C31.5523 42 32 41.5523 32 41C32 40.4477 31.5523 40 31 40C30.4477 40 30 40.4477 30 41C30 41.5523 30.4477 42 31 42Z" fill="#DDDEEE"/>
<path d="M41 42C41.5523 42 42 41.5523 42 41C42 40.4477 41.5523 40 41 40C40.4477 40 40 40.4477 40 41C40 41.5523 40.4477 42 41 42Z" fill="#DDDEEE"/>
<path d="M51 42C51.5523 42 52 41.5523 52 41C52 40.4477 51.5523 40 51 40C50.4477 40 50 40.4477 50 41C50 41.5523 50.4477 42 51 42Z" fill="#DDDEEE"/>
<path d="M61 42C61.5523 42 62 41.5523 62 41C62 40.4477 61.5523 40 61 40C60.4477 40 60 40.4477 60 41C60 41.5523 60.4477 42 61 42Z" fill="#DDDEEE"/>
<path d="M71 42C71.5523 42 72 41.5523 72 41C72 40.4477 71.5523 40 71 40C70.4477 40 70 40.4477 70 41C70 41.5523 70.4477 42 71 42Z" fill="#DDDEEE"/>
<path d="M1 52C1.55228 52 2 51.5523 2 51C2 50.4477 1.55228 50 1 50C0.447715 50 0 50.4477 0 51C0 51.5523 0.447715 52 1 52Z" fill="#DDDEEE"/>
<path d="M11 52C11.5523 52 12 51.5523 12 51C12 50.4477 11.5523 50 11 50C10.4477 50 10 50.4477 10 51C10 51.5523 10.4477 52 11 52Z" fill="#DDDEEE"/>
<path d="M21 52C21.5523 52 22 51.5523 22 51C22 50.4477 21.5523 50 21 50C20.4477 50 20 50.4477 20 51C20 51.5523 20.4477 52 21 52Z" fill="#DDDEEE"/>
<path d="M31 52C31.5523 52 32 51.5523 32 51C32 50.4477 31.5523 50 31 50C30.4477 50 30 50.4477 30 51C30 51.5523 30.4477 52 31 52Z" fill="#DDDEEE"/>
<path d="M41 52C41.5523 52 42 51.5523 42 51C42 50.4477 41.5523 50 41 50C40.4477 50 40 50.4477 40 51C40 51.5523 40.4477 52 41 52Z" fill="#DDDEEE"/>
<path d="M51 52C51.5523 52 52 51.5523 52 51C52 50.4477 51.5523 50 51 50C50.4477 50 50 50.4477 50 51C50 51.5523 50.4477 52 51 52Z" fill="#DDDEEE"/>
<path d="M61 52C61.5523 52 62 51.5523 62 51C62 50.4477 61.5523 50 61 50C60.4477 50 60 50.4477 60 51C60 51.5523 60.4477 52 61 52Z" fill="#DDDEEE"/>
<path d="M71 52C71.5523 52 72 51.5523 72 51C72 50.4477 71.5523 50 71 50C70.4477 50 70 50.4477 70 51C70 51.5523 70.4477 52 71 52Z" fill="#DDDEEE"/>
<path d="M1 62C1.55228 62 2 61.5523 2 61C2 60.4477 1.55228 60 1 60C0.447715 60 0 60.4477 0 61C0 61.5523 0.447715 62 1 62Z" fill="#DDDEEE"/>
<path d="M11 62C11.5523 62 12 61.5523 12 61C12 60.4477 11.5523 60 11 60C10.4477 60 10 60.4477 10 61C10 61.5523 10.4477 62 11 62Z" fill="#DDDEEE"/>
<path d="M21 62C21.5523 62 22 61.5523 22 61C22 60.4477 21.5523 60 21 60C20.4477 60 20 60.4477 20 61C20 61.5523 20.4477 62 21 62Z" fill="#DDDEEE"/>
<path d="M31 62C31.5523 62 32 61.5523 32 61C32 60.4477 31.5523 60 31 60C30.4477 60 30 60.4477 30 61C30 61.5523 30.4477 62 31 62Z" fill="#DDDEEE"/>
<path d="M41 62C41.5523 62 42 61.5523 42 61C42 60.4477 41.5523 60 41 60C40.4477 60 40 60.4477 40 61C40 61.5523 40.4477 62 41 62Z" fill="#DDDEEE"/>
<path d="M51 62C51.5523 62 52 61.5523 52 61C52 60.4477 51.5523 60 51 60C50.4477 60 50 60.4477 50 61C50 61.5523 50.4477 62 51 62Z" fill="#DDDEEE"/>
<path d="M61 62C61.5523 62 62 61.5523 62 61C62 60.4477 61.5523 60 61 60C60.4477 60 60 60.4477 60 61C60 61.5523 60.4477 62 61 62Z" fill="#DDDEEE"/>
<path d="M71 62C71.5523 62 72 61.5523 72 61C72 60.4477 71.5523 60 71 60C70.4477 60 70 60.4477 70 61C70 61.5523 70.4477 62 71 62Z" fill="#DDDEEE"/>
<path d="M1 72C1.55228 72 2 71.5523 2 71C2 70.4477 1.55228 70 1 70C0.447715 70 0 70.4477 0 71C0 71.5523 0.447715 72 1 72Z" fill="#DDDEEE"/>
<path d="M11 72C11.5523 72 12 71.5523 12 71C12 70.4477 11.5523 70 11 70C10.4477 70 10 70.4477 10 71C10 71.5523 10.4477 72 11 72Z" fill="#DDDEEE"/>
<path d="M21 72C21.5523 72 22 71.5523 22 71C22 70.4477 21.5523 70 21 70C20.4477 70 20 70.4477 20 71C20 71.5523 20.4477 72 21 72Z" fill="#DDDEEE"/>
<path d="M31 72C31.5523 72 32 71.5523 32 71C32 70.4477 31.5523 70 31 70C30.4477 70 30 70.4477 30 71C30 71.5523 30.4477 72 31 72Z" fill="#DDDEEE"/>
<path d="M41 72C41.5523 72 42 71.5523 42 71C42 70.4477 41.5523 70 41 70C40.4477 70 40 70.4477 40 71C40 71.5523 40.4477 72 41 72Z" fill="#DDDEEE"/>
<path d="M51 72C51.5523 72 52 71.5523 52 71C52 70.4477 51.5523 70 51 70C50.4477 70 50 70.4477 50 71C50 71.5523 50.4477 72 51 72Z" fill="#DDDEEE"/>
<path d="M61 72C61.5523 72 62 71.5523 62 71C62 70.4477 61.5523 70 61 70C60.4477 70 60 70.4477 60 71C60 71.5523 60.4477 72 61 72Z" fill="#DDDEEE"/>
<path d="M71 72C71.5523 72 72 71.5523 72 71C72 70.4477 71.5523 70 71 70C70.4477 70 70 70.4477 70 71C70 71.5523 70.4477 72 71 72Z" fill="#DDDEEE"/>
</svg>
