<svg width="750" height="628" viewBox="0 0 750 628" fill="none" xmlns="http://www.w3.org/2000/svg">
<circle opacity="0.4" cx="354" cy="278" r="236.5" stroke="#EFEFF0" stroke-opacity="0.9" stroke-width="5"/>
<circle opacity="0.4" cx="353" cy="279" r="192.5" stroke="#EFEFF0" stroke-opacity="0.8" stroke-width="5"/>
<circle opacity="0.4" cx="354.5" cy="280.5" r="130" stroke="#EFEFF0" stroke-opacity="0.7" stroke-width="5"/>
<circle opacity="0.4" cx="353.5" cy="278.5" r="73" stroke="#EFEFF0" stroke-opacity="0.6" stroke-width="5"/>
<path d="M612.65 380.102C613.259 378.561 612.503 376.819 610.962 376.21C609.422 375.601 607.679 376.357 607.07 377.898L612.65 380.102ZM489.598 514.867C489.178 516.469 490.136 518.11 491.738 518.53L517.853 525.387C519.456 525.807 521.096 524.849 521.517 523.247C521.937 521.644 520.979 520.004 519.377 519.583L496.163 513.489L502.258 490.275C502.679 488.673 501.721 487.033 500.118 486.612C498.516 486.191 496.875 487.149 496.455 488.752L489.598 514.867ZM607.07 377.898C584.554 434.889 543.339 482.459 490.987 513.038L494.013 518.219C547.514 486.969 589.636 438.357 612.65 380.102L607.07 377.898Z" fill="#EFEFF0"/>
<path d="M191.747 52.2358C190.403 53.2038 190.097 55.0787 191.065 56.4233C192.033 57.7679 193.908 58.0732 195.253 57.1051L191.747 52.2358ZM617.455 206.613C618.898 207.427 620.728 206.917 621.542 205.474L634.807 181.957C635.621 180.514 635.111 178.684 633.668 177.87C632.225 177.056 630.395 177.566 629.581 179.009L617.79 199.913L596.886 188.122C595.443 187.308 593.613 187.818 592.799 189.261C591.985 190.704 592.495 192.534 593.938 193.348L617.455 206.613ZM195.253 57.1051C239.926 24.9435 294.746 6 354 6V0C293.447 0 237.407 19.3635 191.747 52.2358L195.253 57.1051ZM354 6C478.859 6 584.077 90.1324 616.039 204.805L621.819 203.195C589.152 85.9948 481.622 0 354 0V6Z" fill="#EFEFF0"/>
<circle cx="354" cy="279" r="12" fill="#EFEFF0"/>
<path d="M91.4015 203.516C90.582 202.076 88.7504 201.573 87.3104 202.393L63.844 215.747C62.404 216.566 61.901 218.398 62.7205 219.838C63.5399 221.278 65.3716 221.781 66.8116 220.961L87.6706 209.091L99.5409 229.95C100.36 231.39 102.192 231.893 103.632 231.074C105.072 230.254 105.575 228.423 104.756 226.983L91.4015 203.516ZM148.769 465.524C149.887 466.747 151.785 466.832 153.008 465.714C154.231 464.596 154.316 462.699 153.198 461.476L148.769 465.524ZM82 278C82 252.996 85.373 228.785 91.687 205.794L85.9013 204.206C79.4464 227.709 76 252.454 76 278H82ZM153.198 461.476C108.974 413.103 82 348.705 82 278H76C76 350.261 103.574 416.089 148.769 465.524L153.198 461.476Z" fill="#EFEFF0"/>
<g filter="url(#filter0_d)">
<rect x="40" y="68" width="273" height="101" rx="8" fill="white"/>
</g>
<path d="M136.592 114.24C134.304 114.24 132.504 113.688 131.192 112.584C129.896 111.48 129.208 109.864 129.128 107.736C129.112 107.304 129.104 106.6 129.104 105.624C129.104 104.632 129.112 103.912 129.128 103.464C129.208 101.384 129.904 99.784 131.216 98.664C132.544 97.528 134.336 96.96 136.592 96.96C138.016 96.96 139.288 97.192 140.408 97.656C141.544 98.12 142.44 98.792 143.096 99.672C143.752 100.552 144.096 101.592 144.128 102.792C144.128 102.936 144.072 103.056 143.96 103.152C143.864 103.248 143.744 103.296 143.6 103.296H140.192C139.968 103.296 139.8 103.256 139.688 103.176C139.592 103.08 139.504 102.912 139.424 102.672C139.2 101.888 138.856 101.344 138.392 101.04C137.944 100.72 137.344 100.56 136.592 100.56C134.784 100.56 133.848 101.568 133.784 103.584C133.768 104.016 133.76 104.68 133.76 105.576C133.76 106.472 133.768 107.152 133.784 107.616C133.848 109.632 134.784 110.64 136.592 110.64C137.328 110.64 137.928 110.48 138.392 110.16C138.872 109.84 139.216 109.296 139.424 108.528C139.488 108.288 139.576 108.128 139.688 108.048C139.8 107.952 139.968 107.904 140.192 107.904H143.6C143.744 107.904 143.864 107.952 143.96 108.048C144.072 108.144 144.128 108.264 144.128 108.408C144.096 109.608 143.752 110.648 143.096 111.528C142.44 112.408 141.544 113.08 140.408 113.544C139.288 114.008 138.016 114.24 136.592 114.24ZM150.081 114.24C149.233 114.24 148.457 114.08 147.753 113.76C147.065 113.424 146.521 112.968 146.121 112.392C145.737 111.816 145.545 111.184 145.545 110.496C145.545 109.408 145.993 108.528 146.889 107.856C147.801 107.168 149.049 106.696 150.633 106.44L153.609 105.984V105.696C153.609 105.104 153.489 104.672 153.249 104.4C153.009 104.128 152.601 103.992 152.025 103.992C151.705 103.992 151.433 104.048 151.209 104.16C151.001 104.272 150.761 104.44 150.489 104.664C150.281 104.84 150.097 104.968 149.937 105.048C149.873 105.16 149.793 105.216 149.697 105.216H146.913C146.753 105.216 146.617 105.168 146.505 105.072C146.409 104.96 146.369 104.832 146.385 104.688C146.401 104.256 146.617 103.776 147.033 103.248C147.449 102.704 148.081 102.24 148.929 101.856C149.777 101.472 150.825 101.28 152.073 101.28C154.057 101.28 155.529 101.72 156.489 102.6C157.449 103.464 157.929 104.64 157.929 106.128V113.4C157.929 113.56 157.873 113.704 157.761 113.832C157.649 113.944 157.505 114 157.329 114H154.377C154.217 114 154.073 113.944 153.945 113.832C153.833 113.704 153.777 113.56 153.777 113.4V112.56C153.425 113.056 152.937 113.464 152.313 113.784C151.689 114.088 150.945 114.24 150.081 114.24ZM151.281 111.408C151.985 111.408 152.553 111.176 152.985 110.712C153.433 110.248 153.657 109.576 153.657 108.696V108.408L151.665 108.744C150.321 109 149.649 109.48 149.649 110.184C149.649 110.552 149.801 110.848 150.105 111.072C150.425 111.296 150.817 111.408 151.281 111.408ZM161.164 118.56C160.988 118.56 160.836 118.504 160.708 118.392C160.596 118.28 160.54 118.136 160.54 117.96V102.12C160.54 101.944 160.596 101.8 160.708 101.688C160.836 101.576 160.988 101.52 161.164 101.52H164.02C164.196 101.52 164.34 101.576 164.452 101.688C164.564 101.8 164.62 101.944 164.62 102.12V102.984C165.484 101.848 166.724 101.28 168.34 101.28C169.892 101.28 171.108 101.768 171.988 102.744C172.884 103.704 173.364 105.08 173.428 106.872C173.444 107.08 173.452 107.376 173.452 107.76C173.452 108.144 173.444 108.448 173.428 108.672C173.364 110.4 172.884 111.76 171.988 112.752C171.092 113.744 169.876 114.24 168.34 114.24C166.788 114.24 165.628 113.712 164.86 112.656V117.96C164.86 118.136 164.804 118.28 164.692 118.392C164.58 118.504 164.436 118.56 164.26 118.56H161.164ZM166.948 110.904C167.668 110.904 168.18 110.696 168.484 110.28C168.804 109.848 168.988 109.256 169.036 108.504C169.052 108.344 169.06 108.096 169.06 107.76C169.06 107.424 169.052 107.176 169.036 107.016C168.988 106.264 168.804 105.68 168.484 105.264C168.18 104.832 167.668 104.616 166.948 104.616C166.26 104.616 165.748 104.84 165.412 105.288C165.076 105.72 164.892 106.272 164.86 106.944C164.844 107.152 164.836 107.456 164.836 107.856C164.836 108.24 164.844 108.536 164.86 108.744C164.892 109.368 165.076 109.888 165.412 110.304C165.764 110.704 166.276 110.904 166.948 110.904ZM182.256 114C178.864 114 177.168 112.408 177.168 109.224V104.784H175.272C175.112 104.784 174.968 104.728 174.84 104.616C174.728 104.488 174.672 104.344 174.672 104.184V102.12C174.672 101.944 174.728 101.8 174.84 101.688C174.968 101.576 175.112 101.52 175.272 101.52H177.168V97.56C177.168 97.384 177.224 97.24 177.336 97.128C177.464 97.016 177.608 96.96 177.768 96.96H180.72C180.896 96.96 181.04 97.016 181.152 97.128C181.264 97.24 181.32 97.384 181.32 97.56V101.52H184.32C184.496 101.52 184.64 101.576 184.752 101.688C184.88 101.8 184.944 101.944 184.944 102.12V104.184C184.944 104.36 184.88 104.504 184.752 104.616C184.64 104.728 184.496 104.784 184.32 104.784H181.32V108.864C181.32 109.424 181.424 109.848 181.632 110.136C181.84 110.424 182.176 110.568 182.64 110.568H184.536C184.712 110.568 184.856 110.632 184.968 110.76C185.08 110.872 185.136 111.016 185.136 111.192V113.4C185.136 113.56 185.08 113.704 184.968 113.832C184.856 113.944 184.712 114 184.536 114H182.256ZM191.655 114.24C190.247 114.24 189.111 113.768 188.247 112.824C187.383 111.88 186.951 110.544 186.951 108.816V102.12C186.951 101.944 187.007 101.8 187.119 101.688C187.247 101.576 187.391 101.52 187.551 101.52H190.743C190.919 101.52 191.063 101.576 191.175 101.688C191.303 101.8 191.367 101.944 191.367 102.12V108.672C191.367 110.16 192.031 110.904 193.359 110.904C193.999 110.904 194.495 110.712 194.847 110.328C195.215 109.928 195.399 109.376 195.399 108.672V102.12C195.399 101.944 195.455 101.8 195.567 101.688C195.695 101.576 195.847 101.52 196.023 101.52H199.191C199.367 101.52 199.511 101.576 199.623 101.688C199.735 101.8 199.791 101.944 199.791 102.12V113.4C199.791 113.56 199.735 113.704 199.623 113.832C199.511 113.944 199.367 114 199.191 114H196.263C196.087 114 195.935 113.944 195.807 113.832C195.695 113.72 195.639 113.576 195.639 113.4V112.488C194.807 113.656 193.479 114.24 191.655 114.24ZM203.116 114C202.956 114 202.812 113.944 202.684 113.832C202.572 113.704 202.516 113.56 202.516 113.4V102.144C202.516 101.968 202.572 101.824 202.684 101.712C202.796 101.584 202.94 101.52 203.116 101.52H206.044C206.22 101.52 206.364 101.584 206.476 101.712C206.604 101.824 206.668 101.968 206.668 102.144V103.056C207.116 102.56 207.636 102.184 208.228 101.928C208.836 101.656 209.508 101.52 210.244 101.52H211.324C211.5 101.52 211.644 101.576 211.756 101.688C211.868 101.8 211.924 101.944 211.924 102.12V104.736C211.924 104.896 211.868 105.04 211.756 105.168C211.644 105.28 211.5 105.336 211.324 105.336H208.9C208.26 105.336 207.764 105.512 207.412 105.864C207.076 106.216 206.908 106.712 206.908 107.352V113.4C206.908 113.576 206.844 113.72 206.716 113.832C206.604 113.944 206.46 114 206.284 114H203.116ZM219.341 114.24C217.389 114.24 215.853 113.72 214.733 112.68C213.613 111.624 213.037 110.096 213.005 108.096V107.352C213.069 105.448 213.661 103.96 214.781 102.888C215.901 101.816 217.413 101.28 219.317 101.28C220.693 101.28 221.853 101.56 222.797 102.12C223.757 102.664 224.469 103.424 224.933 104.4C225.413 105.36 225.653 106.456 225.653 107.688V108.288C225.653 108.464 225.589 108.616 225.461 108.744C225.349 108.856 225.205 108.912 225.029 108.912H217.421V109.056C217.437 109.776 217.605 110.36 217.925 110.808C218.245 111.24 218.701 111.456 219.293 111.456C219.677 111.456 219.981 111.384 220.205 111.24C220.445 111.08 220.669 110.88 220.877 110.64C221.021 110.48 221.133 110.384 221.213 110.352C221.309 110.304 221.453 110.28 221.645 110.28H224.789C224.933 110.28 225.053 110.328 225.149 110.424C225.261 110.504 225.317 110.608 225.317 110.736C225.317 111.152 225.077 111.64 224.597 112.2C224.133 112.76 223.445 113.24 222.533 113.64C221.637 114.04 220.573 114.24 219.341 114.24ZM221.237 106.464V106.416C221.237 105.648 221.069 105.056 220.733 104.64C220.397 104.208 219.925 103.992 219.317 103.992C218.709 103.992 218.237 104.208 217.901 104.64C217.581 105.056 217.421 105.648 217.421 106.416V106.464H221.237ZM233.709 114C233.549 114 233.405 113.944 233.277 113.832C233.165 113.704 233.109 113.56 233.109 113.4V97.824C233.109 97.648 233.165 97.504 233.277 97.392C233.389 97.264 233.533 97.2 233.709 97.2H240.021C242.389 97.2 244.229 97.768 245.541 98.904C246.853 100.024 247.541 101.64 247.605 103.752C247.621 104.216 247.629 104.832 247.629 105.6C247.629 106.368 247.621 106.976 247.605 107.424C247.445 111.808 244.957 114 240.141 114H233.709ZM240.021 110.4C241.029 110.4 241.773 110.16 242.253 109.68C242.733 109.2 242.989 108.432 243.021 107.376C243.053 106.912 243.069 106.312 243.069 105.576C243.069 104.84 243.053 104.248 243.021 103.8C242.989 102.776 242.709 102.024 242.181 101.544C241.669 101.048 240.909 100.8 239.901 100.8H237.621V110.4H240.021ZM253.863 114.24C253.015 114.24 252.239 114.08 251.535 113.76C250.847 113.424 250.303 112.968 249.903 112.392C249.519 111.816 249.327 111.184 249.327 110.496C249.327 109.408 249.775 108.528 250.671 107.856C251.583 107.168 252.831 106.696 254.415 106.44L257.391 105.984V105.696C257.391 105.104 257.271 104.672 257.031 104.4C256.791 104.128 256.383 103.992 255.807 103.992C255.487 103.992 255.215 104.048 254.991 104.16C254.783 104.272 254.543 104.44 254.271 104.664C254.063 104.84 253.879 104.968 253.719 105.048C253.655 105.16 253.575 105.216 253.479 105.216H250.695C250.535 105.216 250.399 105.168 250.287 105.072C250.191 104.96 250.151 104.832 250.167 104.688C250.183 104.256 250.399 103.776 250.815 103.248C251.231 102.704 251.863 102.24 252.711 101.856C253.559 101.472 254.607 101.28 255.855 101.28C257.839 101.28 259.311 101.72 260.271 102.6C261.231 103.464 261.711 104.64 261.711 106.128V113.4C261.711 113.56 261.655 113.704 261.543 113.832C261.431 113.944 261.287 114 261.111 114H258.159C257.999 114 257.855 113.944 257.727 113.832C257.615 113.704 257.559 113.56 257.559 113.4V112.56C257.207 113.056 256.719 113.464 256.095 113.784C255.471 114.088 254.727 114.24 253.863 114.24ZM255.063 111.408C255.767 111.408 256.335 111.176 256.767 110.712C257.215 110.248 257.439 109.576 257.439 108.696V108.408L255.447 108.744C254.103 109 253.431 109.48 253.431 110.184C253.431 110.552 253.583 110.848 253.887 111.072C254.207 111.296 254.599 111.408 255.063 111.408ZM270.779 114C267.387 114 265.691 112.408 265.691 109.224V104.784H263.795C263.635 104.784 263.491 104.728 263.363 104.616C263.251 104.488 263.195 104.344 263.195 104.184V102.12C263.195 101.944 263.251 101.8 263.363 101.688C263.491 101.576 263.635 101.52 263.795 101.52H265.691V97.56C265.691 97.384 265.747 97.24 265.859 97.128C265.987 97.016 266.131 96.96 266.291 96.96H269.243C269.419 96.96 269.563 97.016 269.675 97.128C269.787 97.24 269.843 97.384 269.843 97.56V101.52H272.843C273.019 101.52 273.163 101.576 273.275 101.688C273.403 101.8 273.467 101.944 273.467 102.12V104.184C273.467 104.36 273.403 104.504 273.275 104.616C273.163 104.728 273.019 104.784 272.843 104.784H269.843V108.864C269.843 109.424 269.947 109.848 270.155 110.136C270.363 110.424 270.699 110.568 271.163 110.568H273.059C273.235 110.568 273.379 110.632 273.491 110.76C273.603 110.872 273.659 111.016 273.659 111.192V113.4C273.659 113.56 273.603 113.704 273.491 113.832C273.379 113.944 273.235 114 273.059 114H270.779ZM279.363 114.24C278.515 114.24 277.739 114.08 277.035 113.76C276.347 113.424 275.803 112.968 275.403 112.392C275.019 111.816 274.827 111.184 274.827 110.496C274.827 109.408 275.275 108.528 276.171 107.856C277.083 107.168 278.331 106.696 279.915 106.44L282.891 105.984V105.696C282.891 105.104 282.771 104.672 282.531 104.4C282.291 104.128 281.883 103.992 281.307 103.992C280.987 103.992 280.715 104.048 280.491 104.16C280.283 104.272 280.043 104.44 279.771 104.664C279.563 104.84 279.379 104.968 279.219 105.048C279.155 105.16 279.075 105.216 278.979 105.216H276.195C276.035 105.216 275.899 105.168 275.787 105.072C275.691 104.96 275.651 104.832 275.667 104.688C275.683 104.256 275.899 103.776 276.315 103.248C276.731 102.704 277.363 102.24 278.211 101.856C279.059 101.472 280.107 101.28 281.355 101.28C283.339 101.28 284.811 101.72 285.771 102.6C286.731 103.464 287.211 104.64 287.211 106.128V113.4C287.211 113.56 287.155 113.704 287.043 113.832C286.931 113.944 286.787 114 286.611 114H283.659C283.499 114 283.355 113.944 283.227 113.832C283.115 113.704 283.059 113.56 283.059 113.4V112.56C282.707 113.056 282.219 113.464 281.595 113.784C280.971 114.088 280.227 114.24 279.363 114.24ZM280.563 111.408C281.267 111.408 281.835 111.176 282.267 110.712C282.715 110.248 282.939 109.576 282.939 108.696V108.408L280.947 108.744C279.603 109 278.931 109.48 278.931 110.184C278.931 110.552 279.083 110.848 279.387 111.072C279.707 111.296 280.099 111.408 280.563 111.408Z" fill="#303037"/>
<path d="M129.661 141H134.056C136.622 141 138.239 139.743 138.239 137.634C138.239 135.946 137.22 134.883 135.629 134.672V134.602C136.851 134.232 137.562 133.327 137.562 131.956C137.562 130.137 136.262 129.003 134.214 129.003H129.661V141ZM131.27 130.409H133.933C135.198 130.409 135.937 131.086 135.937 132.237C135.937 133.538 135.058 134.145 133.08 134.145H131.27V130.409ZM131.27 135.507H134.1C135.682 135.507 136.587 136.289 136.587 137.625C136.587 139.005 135.646 139.594 133.326 139.594H131.27V135.507ZM141.034 141H142.625V131.754H141.034V141ZM140.7 128.906C140.7 129.539 141.184 130.005 141.816 130.005C142.484 130.005 142.968 129.539 142.968 128.906C142.968 128.265 142.484 127.799 141.816 127.799C141.184 127.799 140.7 128.265 140.7 128.906ZM149.322 143.039C148.109 143.039 147.362 142.494 147.239 141.844H145.622C145.745 143.188 146.905 144.384 149.27 144.384C151.634 144.384 153.339 143.276 153.339 140.728V131.754H151.818V133.143H151.739C151.432 132.387 150.447 131.613 149.059 131.613C147.011 131.613 145.42 133.081 145.42 135.524V136.939C145.42 139.383 147.02 140.833 149.067 140.833C150.351 140.833 151.3 140.183 151.66 139.383H151.748V140.719C151.748 142.169 150.948 143.039 149.322 143.039ZM149.454 132.993C150.904 132.993 151.748 134.215 151.748 135.568V136.948C151.748 138.267 150.948 139.479 149.472 139.479C148.039 139.479 147.02 138.354 147.02 136.676V135.814C147.02 134.127 147.951 132.993 149.454 132.993ZM160.493 129.003V141H164.396C167.894 141 169.678 138.908 169.678 134.997C169.678 131.086 167.894 129.003 164.396 129.003H160.493ZM162.11 130.444H164.281C166.777 130.444 167.999 131.965 167.999 135.006C167.999 138.047 166.786 139.55 164.281 139.55H162.11V130.444ZM174.74 141.149C176.103 141.149 176.938 140.517 177.386 139.778H177.456V141H178.985V134.689C178.985 132.422 177.412 131.604 175.505 131.604C173.439 131.604 172.209 132.492 172.068 134.057H173.606C173.791 133.415 174.283 132.967 175.452 132.967C176.639 132.967 177.386 133.503 177.386 134.681V135.595H174.969C172.842 135.595 171.717 136.693 171.717 138.311C171.717 140.024 172.947 141.149 174.74 141.149ZM175.18 139.805C174.222 139.805 173.343 139.312 173.343 138.258C173.343 137.432 173.853 136.808 175.101 136.808H177.386V137.845C177.386 138.961 176.428 139.805 175.18 139.805ZM182.589 131.78H181.165V133.09H182.58V138.407C182.58 140.235 183.055 141.079 185.252 141.079C185.604 141.079 186.254 141.026 186.386 141V139.708C186.236 139.726 185.885 139.743 185.656 139.743C184.531 139.743 184.162 139.462 184.162 138.381V133.09H186.254V131.78H184.162V129.46H182.589V131.78ZM191.352 141.149C192.714 141.149 193.549 140.517 193.997 139.778H194.067V141H195.597V134.689C195.597 132.422 194.023 131.604 192.116 131.604C190.051 131.604 188.82 132.492 188.68 134.057H190.218C190.402 133.415 190.895 132.967 192.063 132.967C193.25 132.967 193.997 133.503 193.997 134.681V135.595H191.58C189.453 135.595 188.328 136.693 188.328 138.311C188.328 140.024 189.559 141.149 191.352 141.149ZM191.791 139.805C190.833 139.805 189.954 139.312 189.954 138.258C189.954 137.432 190.464 136.808 191.712 136.808H193.997V137.845C193.997 138.961 193.039 139.805 191.791 139.805ZM204.008 134.197C204.008 131.692 205.177 130.216 207.154 130.216C208.675 130.216 209.791 131.191 209.949 132.545H211.549V132.483C211.382 130.312 209.562 128.757 207.146 128.757C204.148 128.757 202.382 130.787 202.382 134.171V135.894C202.382 139.286 204.104 141.246 207.146 141.246C209.545 141.246 211.373 139.761 211.549 137.695V137.643H209.949C209.791 138.917 208.701 139.787 207.154 139.787C205.15 139.787 204.008 138.372 204.008 135.885V134.197ZM217.789 131.596C215.478 131.596 213.79 133.195 213.79 135.691V137.045C213.79 139.682 215.451 141.149 217.789 141.149C220.083 141.149 221.779 139.664 221.779 137.045V135.691C221.779 133.107 220.083 131.596 217.789 131.596ZM217.798 132.967C219.283 132.967 220.18 134.145 220.18 135.823V136.931C220.18 138.636 219.327 139.787 217.798 139.787C216.251 139.787 215.381 138.636 215.381 136.931V135.823C215.381 134.153 216.312 132.967 217.798 132.967ZM224.504 141H226.095V128.37H224.504V141ZM229.338 141H230.929V128.37H229.338V141ZM237.626 141.149C239.964 141.149 241.08 139.699 241.221 138.697H239.586C239.428 139.269 238.698 139.787 237.617 139.787C236.079 139.787 235.253 138.688 235.253 137.256V136.79H241.344V135.683C241.344 133.187 239.744 131.596 237.503 131.596C235.288 131.596 233.671 133.151 233.671 135.683V137.071C233.671 139.576 235.139 141.149 237.626 141.149ZM235.253 135.639V135.489C235.253 133.96 236.158 132.958 237.512 132.958C238.865 132.958 239.762 133.96 239.762 135.489V135.639H235.253ZM243.532 137.106C243.532 139.594 245.009 141.149 247.391 141.149C249.834 141.149 250.95 139.796 251.003 138.416H249.456C249.289 139.128 248.779 139.743 247.417 139.743C245.993 139.743 245.123 138.724 245.123 137.115V135.665C245.123 134.048 245.905 133.011 247.417 133.011C248.858 133.011 249.289 133.89 249.386 134.443H250.941C250.897 133.028 249.702 131.596 247.391 131.596C245.018 131.596 243.532 133.178 243.532 135.604V137.106ZM254.009 131.78H252.585V133.09H254V138.407C254 140.235 254.475 141.079 256.672 141.079C257.023 141.079 257.674 141.026 257.806 141V139.708C257.656 139.726 257.305 139.743 257.076 139.743C255.951 139.743 255.582 139.462 255.582 138.381V133.09H257.674V131.78H255.582V129.46H254.009V131.78ZM260.495 141H262.086V131.754H260.495V141ZM260.161 128.906C260.161 129.539 260.645 130.005 261.277 130.005C261.945 130.005 262.429 129.539 262.429 128.906C262.429 128.265 261.945 127.799 261.277 127.799C260.645 127.799 260.161 128.265 260.161 128.906ZM268.994 131.596C266.683 131.596 264.995 133.195 264.995 135.691V137.045C264.995 139.682 266.656 141.149 268.994 141.149C271.288 141.149 272.984 139.664 272.984 137.045V135.691C272.984 133.107 271.288 131.596 268.994 131.596ZM269.003 132.967C270.488 132.967 271.385 134.145 271.385 135.823V136.931C271.385 138.636 270.532 139.787 269.003 139.787C267.456 139.787 266.586 138.636 266.586 136.931V135.823C266.586 134.153 267.518 132.967 269.003 132.967ZM275.656 141H277.247V135.85C277.247 134.259 278.038 133.011 279.664 133.011C280.921 133.011 281.668 133.749 281.668 135.199V141H283.259V134.689C283.259 132.615 281.984 131.604 280.121 131.604C278.188 131.604 277.546 132.703 277.317 133.433H277.229V131.754H275.656V141Z" fill="#A7A9C0"/>
<circle cx="88" cy="119" r="24" fill="#2C4EA2"/>
<path d="M89.0009 126C88.8676 126 88.7476 125.953 88.6409 125.86C88.5476 125.753 88.5009 125.633 88.5009 125.5V116.14L85.8209 118.2C85.7143 118.267 85.6143 118.3 85.5209 118.3C85.3609 118.3 85.2209 118.22 85.1009 118.06L83.8609 116.46C83.8076 116.367 83.7809 116.267 83.7809 116.16C83.7809 115.973 83.8543 115.827 84.0009 115.72L88.6409 112.14C88.7743 112.047 88.9276 112 89.1009 112H91.7409C91.8876 112 92.0076 112.047 92.1009 112.14C92.2076 112.233 92.2609 112.353 92.2609 112.5V125.5C92.2609 125.647 92.2076 125.767 92.1009 125.86C92.0076 125.953 91.8876 126 91.7409 126H89.0009Z" fill="white"/>
<g filter="url(#filter1_d)">
<rect x="437" y="221" width="273" height="134" rx="8" fill="white"/>
</g>
<path d="M527.232 267C527.072 267 526.928 266.944 526.8 266.832C526.688 266.704 526.632 266.56 526.632 266.4V250.824C526.632 250.648 526.688 250.504 526.8 250.392C526.912 250.264 527.056 250.2 527.232 250.2H534.648C536.68 250.2 538.192 250.616 539.184 251.448C540.176 252.28 540.672 253.464 540.672 255C540.672 255.768 540.464 256.432 540.048 256.992C539.648 257.552 539.2 257.96 538.704 258.216C539.36 258.504 539.912 258.984 540.36 259.656C540.808 260.312 541.032 261.056 541.032 261.888C541.032 263.504 540.496 264.76 539.424 265.656C538.368 266.552 536.848 267 534.864 267H527.232ZM534.144 256.848C534.736 256.848 535.192 256.688 535.512 256.368C535.832 256.048 535.992 255.632 535.992 255.12C535.992 254.624 535.832 254.224 535.512 253.92C535.208 253.6 534.752 253.44 534.144 253.44H531.144V256.848H534.144ZM534.36 263.76C534.984 263.76 535.464 263.584 535.8 263.232C536.152 262.864 536.328 262.416 536.328 261.888C536.328 261.344 536.152 260.896 535.8 260.544C535.448 260.176 534.968 259.992 534.36 259.992H531.144V263.76H534.36ZM547.921 267.24C546.513 267.24 545.377 266.768 544.513 265.824C543.649 264.88 543.217 263.544 543.217 261.816V255.12C543.217 254.944 543.273 254.8 543.385 254.688C543.513 254.576 543.657 254.52 543.817 254.52H547.009C547.185 254.52 547.329 254.576 547.441 254.688C547.569 254.8 547.633 254.944 547.633 255.12V261.672C547.633 263.16 548.297 263.904 549.625 263.904C550.265 263.904 550.761 263.712 551.113 263.328C551.481 262.928 551.665 262.376 551.665 261.672V255.12C551.665 254.944 551.721 254.8 551.833 254.688C551.961 254.576 552.113 254.52 552.289 254.52H555.457C555.633 254.52 555.777 254.576 555.889 254.688C556.001 254.8 556.057 254.944 556.057 255.12V266.4C556.057 266.56 556.001 266.704 555.889 266.832C555.777 266.944 555.633 267 555.457 267H552.529C552.353 267 552.201 266.944 552.073 266.832C551.961 266.72 551.905 266.576 551.905 266.4V265.488C551.073 266.656 549.745 267.24 547.921 267.24ZM559.382 252.792C559.206 252.792 559.062 252.736 558.95 252.624C558.838 252.496 558.782 252.344 558.782 252.168V249.936C558.782 249.76 558.838 249.616 558.95 249.504C559.078 249.376 559.222 249.312 559.382 249.312H562.382C562.558 249.312 562.702 249.376 562.814 249.504C562.942 249.616 563.006 249.76 563.006 249.936V252.168C563.006 252.344 562.942 252.496 562.814 252.624C562.702 252.736 562.558 252.792 562.382 252.792H559.382ZM559.382 267C559.222 267 559.078 266.944 558.95 266.832C558.838 266.704 558.782 266.56 558.782 266.4V255.12C558.782 254.944 558.838 254.8 558.95 254.688C559.078 254.576 559.222 254.52 559.382 254.52H562.382C562.558 254.52 562.702 254.576 562.814 254.688C562.942 254.8 563.006 254.944 563.006 255.12V266.4C563.006 266.576 562.942 266.72 562.814 266.832C562.702 266.944 562.558 267 562.382 267H559.382ZM566.367 267C566.191 267 566.039 266.944 565.911 266.832C565.799 266.72 565.743 266.576 565.743 266.4V250.56C565.743 250.384 565.799 250.24 565.911 250.128C566.039 250.016 566.191 249.96 566.367 249.96H569.367C569.543 249.96 569.687 250.016 569.799 250.128C569.911 250.24 569.967 250.384 569.967 250.56V266.4C569.967 266.56 569.911 266.704 569.799 266.832C569.687 266.944 569.543 267 569.367 267H566.367ZM577.384 267.24C575.832 267.24 574.608 266.752 573.712 265.776C572.832 264.8 572.36 263.408 572.296 261.6L572.272 260.76L572.296 259.896C572.36 258.152 572.84 256.784 573.736 255.792C574.632 254.784 575.848 254.28 577.384 254.28C578.824 254.28 579.984 254.744 580.864 255.672V250.56C580.864 250.384 580.92 250.24 581.032 250.128C581.16 250.016 581.304 249.96 581.464 249.96H584.56C584.736 249.96 584.88 250.016 584.992 250.128C585.12 250.24 585.184 250.384 585.184 250.56V266.4C585.184 266.576 585.12 266.72 584.992 266.832C584.88 266.944 584.736 267 584.56 267H581.704C581.544 267 581.4 266.944 581.272 266.832C581.16 266.704 581.104 266.56 581.104 266.4V265.656C580.24 266.712 579 267.24 577.384 267.24ZM578.776 263.904C579.464 263.904 579.976 263.688 580.312 263.256C580.648 262.808 580.832 262.248 580.864 261.576C580.896 261.128 580.912 260.824 580.912 260.664C580.912 260.488 580.896 260.192 580.864 259.776C580.832 259.152 580.64 258.64 580.288 258.24C579.952 257.824 579.448 257.616 578.776 257.616C578.056 257.616 577.536 257.832 577.216 258.264C576.912 258.68 576.736 259.264 576.688 260.016L576.664 260.76L576.688 261.504C576.736 262.256 576.912 262.848 577.216 263.28C577.536 263.696 578.056 263.904 578.776 263.904ZM593.842 267C593.666 267 593.514 266.944 593.386 266.832C593.274 266.72 593.218 266.576 593.218 266.4V250.824C593.218 250.648 593.274 250.504 593.386 250.392C593.514 250.264 593.666 250.2 593.842 250.2H596.554C596.954 250.2 597.242 250.376 597.418 250.728L601.546 258.12L605.698 250.728C605.874 250.376 606.162 250.2 606.562 250.2H609.274C609.45 250.2 609.594 250.264 609.706 250.392C609.834 250.504 609.898 250.648 609.898 250.824V266.4C609.898 266.576 609.834 266.72 609.706 266.832C609.594 266.944 609.45 267 609.274 267H606.226C606.066 267 605.922 266.944 605.794 266.832C605.682 266.704 605.626 266.56 605.626 266.4V257.664L603.034 262.416C602.826 262.784 602.546 262.968 602.194 262.968H600.898C600.578 262.968 600.298 262.784 600.058 262.416L597.49 257.664V266.4C597.49 266.576 597.426 266.72 597.298 266.832C597.186 266.944 597.042 267 596.866 267H593.842ZM618.899 267.24C616.883 267.24 615.331 266.776 614.243 265.848C613.171 264.904 612.587 263.568 612.491 261.84C612.475 261.632 612.467 261.272 612.467 260.76C612.467 260.248 612.475 259.888 612.491 259.68C612.587 257.984 613.187 256.664 614.291 255.72C615.411 254.76 616.947 254.28 618.899 254.28C620.851 254.28 622.379 254.76 623.483 255.72C624.603 256.664 625.211 257.984 625.307 259.68C625.339 260.096 625.355 260.456 625.355 260.76C625.355 261.064 625.339 261.424 625.307 261.84C625.211 263.568 624.619 264.904 623.531 265.848C622.459 266.776 620.915 267.24 618.899 267.24ZM618.899 264.216C619.555 264.216 620.043 264.016 620.363 263.616C620.683 263.2 620.867 262.568 620.915 261.72C620.931 261.56 620.939 261.24 620.939 260.76C620.939 260.28 620.931 259.96 620.915 259.8C620.867 258.968 620.683 258.344 620.363 257.928C620.043 257.512 619.555 257.304 618.899 257.304C618.243 257.304 617.755 257.512 617.435 257.928C617.115 258.344 616.931 258.968 616.883 259.8L616.859 260.76L616.883 261.72C616.931 262.568 617.115 263.2 617.435 263.616C617.755 264.016 618.243 264.216 618.899 264.216ZM632.321 267.24C630.769 267.24 629.545 266.752 628.649 265.776C627.769 264.8 627.297 263.408 627.233 261.6L627.209 260.76L627.233 259.896C627.297 258.152 627.777 256.784 628.673 255.792C629.569 254.784 630.785 254.28 632.321 254.28C633.761 254.28 634.921 254.744 635.801 255.672V250.56C635.801 250.384 635.857 250.24 635.969 250.128C636.097 250.016 636.241 249.96 636.401 249.96H639.497C639.673 249.96 639.817 250.016 639.929 250.128C640.057 250.24 640.121 250.384 640.121 250.56V266.4C640.121 266.576 640.057 266.72 639.929 266.832C639.817 266.944 639.673 267 639.497 267H636.641C636.481 267 636.337 266.944 636.209 266.832C636.097 266.704 636.041 266.56 636.041 266.4V265.656C635.177 266.712 633.937 267.24 632.321 267.24ZM633.713 263.904C634.401 263.904 634.913 263.688 635.249 263.256C635.585 262.808 635.769 262.248 635.801 261.576C635.833 261.128 635.849 260.824 635.849 260.664C635.849 260.488 635.833 260.192 635.801 259.776C635.769 259.152 635.577 258.64 635.225 258.24C634.889 257.824 634.385 257.616 633.713 257.616C632.993 257.616 632.473 257.832 632.153 258.264C631.849 258.68 631.673 259.264 631.625 260.016L631.601 260.76L631.625 261.504C631.673 262.256 631.849 262.848 632.153 263.28C632.473 263.696 632.993 263.904 633.713 263.904ZM648.708 267.24C646.756 267.24 645.22 266.72 644.1 265.68C642.98 264.624 642.404 263.096 642.372 261.096V260.352C642.436 258.448 643.028 256.96 644.148 255.888C645.268 254.816 646.78 254.28 648.684 254.28C650.06 254.28 651.22 254.56 652.164 255.12C653.124 255.664 653.836 256.424 654.3 257.4C654.78 258.36 655.02 259.456 655.02 260.688V261.288C655.02 261.464 654.956 261.616 654.828 261.744C654.716 261.856 654.572 261.912 654.396 261.912H646.788V262.056C646.804 262.776 646.972 263.36 647.292 263.808C647.612 264.24 648.068 264.456 648.66 264.456C649.044 264.456 649.348 264.384 649.572 264.24C649.812 264.08 650.036 263.88 650.244 263.64C650.388 263.48 650.5 263.384 650.58 263.352C650.676 263.304 650.82 263.28 651.012 263.28H654.156C654.3 263.28 654.42 263.328 654.516 263.424C654.628 263.504 654.684 263.608 654.684 263.736C654.684 264.152 654.444 264.64 653.964 265.2C653.5 265.76 652.812 266.24 651.9 266.64C651.004 267.04 649.94 267.24 648.708 267.24ZM650.604 259.464V259.416C650.604 258.648 650.436 258.056 650.1 257.64C649.764 257.208 649.292 256.992 648.684 256.992C648.076 256.992 647.604 257.208 647.268 257.64C646.948 258.056 646.788 258.648 646.788 259.416V259.464H650.604ZM657.797 267C657.621 267 657.469 266.944 657.341 266.832C657.229 266.72 657.173 266.576 657.173 266.4V250.56C657.173 250.384 657.229 250.24 657.341 250.128C657.469 250.016 657.621 249.96 657.797 249.96H660.797C660.973 249.96 661.117 250.016 661.229 250.128C661.341 250.24 661.397 250.384 661.397 250.56V266.4C661.397 266.56 661.341 266.704 661.229 266.832C661.117 266.944 660.973 267 660.797 267H657.797Z" fill="#303037"/>
<path d="M528.164 297V288.308H528.243L531.557 295.928H532.875L536.18 288.308H536.268V297H537.735V285.003H536.153L532.251 294.144H532.198L528.287 285.003H526.696V297H528.164ZM543.51 297.149C544.872 297.149 545.707 296.517 546.155 295.778H546.226V297H547.755V290.689C547.755 288.422 546.182 287.604 544.274 287.604C542.209 287.604 540.979 288.492 540.838 290.057H542.376C542.561 289.415 543.053 288.967 544.222 288.967C545.408 288.967 546.155 289.503 546.155 290.681V291.595H543.738C541.611 291.595 540.486 292.693 540.486 294.311C540.486 296.024 541.717 297.149 543.51 297.149ZM543.949 295.805C542.991 295.805 542.112 295.312 542.112 294.258C542.112 293.432 542.622 292.808 543.87 292.808H546.155V293.845C546.155 294.961 545.197 295.805 543.949 295.805ZM550.392 293.106C550.392 295.594 551.868 297.149 554.25 297.149C556.693 297.149 557.81 295.796 557.862 294.416H556.315C556.148 295.128 555.639 295.743 554.276 295.743C552.853 295.743 551.982 294.724 551.982 293.115V291.665C551.982 290.048 552.765 289.011 554.276 289.011C555.718 289.011 556.148 289.89 556.245 290.443H557.801C557.757 289.028 556.562 287.596 554.25 287.596C551.877 287.596 550.392 289.178 550.392 291.604V293.106ZM560.411 297H562.002V291.85C562.002 290.25 562.828 289.011 564.41 289.011C565.658 289.011 566.458 289.767 566.458 291.217V297H568.049V290.707C568.049 288.633 566.73 287.604 564.946 287.604C563.021 287.604 562.266 288.791 562.081 289.433H562.002V284.37H560.411V297ZM571.345 297H572.936V287.754H571.345V297ZM571.011 284.906C571.011 285.539 571.494 286.005 572.127 286.005C572.795 286.005 573.278 285.539 573.278 284.906C573.278 284.265 572.795 283.799 572.127 283.799C571.494 283.799 571.011 284.265 571.011 284.906ZM576.293 297H577.884V291.85C577.884 290.259 578.675 289.011 580.301 289.011C581.558 289.011 582.305 289.749 582.305 291.199V297H583.896V290.689C583.896 288.615 582.621 287.604 580.758 287.604C578.824 287.604 578.183 288.703 577.954 289.433H577.866V287.754H576.293V297ZM590.487 297.149C592.825 297.149 593.941 295.699 594.082 294.697H592.447C592.289 295.269 591.56 295.787 590.479 295.787C588.94 295.787 588.114 294.688 588.114 293.256V292.79H594.205V291.683C594.205 289.187 592.605 287.596 590.364 287.596C588.149 287.596 586.532 289.151 586.532 291.683V293.071C586.532 295.576 588 297.149 590.487 297.149ZM588.114 291.639V291.489C588.114 289.96 589.02 288.958 590.373 288.958C591.727 288.958 592.623 289.96 592.623 291.489V291.639H588.114ZM608.118 295.532H602.634V285.003H601.017V297H608.118V295.532ZM613.62 297.149C615.958 297.149 617.074 295.699 617.215 294.697H615.58C615.422 295.269 614.692 295.787 613.611 295.787C612.073 295.787 611.247 294.688 611.247 293.256V292.79H617.338V291.683C617.338 289.187 615.738 287.596 613.497 287.596C611.282 287.596 609.665 289.151 609.665 291.683V293.071C609.665 295.576 611.133 297.149 613.62 297.149ZM611.247 291.639V291.489C611.247 289.96 612.152 288.958 613.506 288.958C614.859 288.958 615.756 289.96 615.756 291.489V291.639H611.247ZM622.471 297.149C623.833 297.149 624.668 296.517 625.116 295.778H625.187V297H626.716V290.689C626.716 288.422 625.143 287.604 623.235 287.604C621.17 287.604 619.939 288.492 619.799 290.057H621.337C621.521 289.415 622.014 288.967 623.183 288.967C624.369 288.967 625.116 289.503 625.116 290.681V291.595H622.699C620.572 291.595 619.447 292.693 619.447 294.311C619.447 296.024 620.678 297.149 622.471 297.149ZM622.91 295.805C621.952 295.805 621.073 295.312 621.073 294.258C621.073 293.432 621.583 292.808 622.831 292.808H625.116V293.845C625.116 294.961 624.158 295.805 622.91 295.805ZM629.941 297H631.541V291.296C631.541 290.048 632.35 289.072 633.976 289.072C634.257 289.072 634.573 289.09 634.723 289.125V287.657C634.538 287.631 634.345 287.613 634.143 287.613C632.508 287.613 631.84 288.562 631.611 289.178H631.532V287.754H629.941V297ZM636.85 297H638.44V291.85C638.44 290.259 639.231 289.011 640.857 289.011C642.114 289.011 642.861 289.749 642.861 291.199V297H644.452V290.689C644.452 288.615 643.178 287.604 641.314 287.604C639.381 287.604 638.739 288.703 638.511 289.433H638.423V287.754H636.85V297ZM647.757 297H649.348V287.754H647.757V297ZM647.423 284.906C647.423 285.539 647.906 286.005 648.539 286.005C649.207 286.005 649.69 285.539 649.69 284.906C649.69 284.265 649.207 283.799 648.539 283.799C647.906 283.799 647.423 284.265 647.423 284.906ZM652.705 297H654.296V291.85C654.296 290.259 655.087 289.011 656.713 289.011C657.97 289.011 658.717 289.749 658.717 291.199V297H660.308V290.689C660.308 288.615 659.033 287.604 657.17 287.604C655.236 287.604 654.595 288.703 654.366 289.433H654.278V287.754H652.705V297ZM666.732 299.039C665.52 299.039 664.772 298.494 664.649 297.844H663.032C663.155 299.188 664.315 300.384 666.68 300.384C669.044 300.384 670.749 299.276 670.749 296.728V287.754H669.229V289.143H669.149C668.842 288.387 667.857 287.613 666.469 287.613C664.421 287.613 662.83 289.081 662.83 291.524V292.939C662.83 295.383 664.43 296.833 666.478 296.833C667.761 296.833 668.71 296.183 669.07 295.383H669.158V296.719C669.158 298.169 668.358 299.039 666.732 299.039ZM666.864 288.993C668.314 288.993 669.158 290.215 669.158 291.568V292.948C669.158 294.267 668.358 295.479 666.882 295.479C665.449 295.479 664.43 294.354 664.43 292.676V291.814C664.43 290.127 665.361 288.993 666.864 288.993ZM530.651 324V313.453H534.264V312.003H525.413V313.453H529.034V324H530.651ZM538.702 324.149C541.04 324.149 542.156 322.699 542.297 321.697H540.662C540.504 322.269 539.774 322.787 538.693 322.787C537.155 322.787 536.329 321.688 536.329 320.256V319.79H542.42V318.683C542.42 316.187 540.82 314.596 538.579 314.596C536.364 314.596 534.747 316.151 534.747 318.683V320.071C534.747 322.576 536.215 324.149 538.702 324.149ZM536.329 318.639V318.489C536.329 316.96 537.234 315.958 538.588 315.958C539.941 315.958 540.838 316.96 540.838 318.489V318.639H536.329ZM544.608 320.106C544.608 322.594 546.085 324.149 548.467 324.149C550.91 324.149 552.026 322.796 552.079 321.416H550.532C550.365 322.128 549.855 322.743 548.493 322.743C547.069 322.743 546.199 321.724 546.199 320.115V318.665C546.199 317.048 546.981 316.011 548.493 316.011C549.935 316.011 550.365 316.89 550.462 317.443H552.018C551.974 316.028 550.778 314.596 548.467 314.596C546.094 314.596 544.608 316.178 544.608 318.604V320.106ZM554.628 324H556.219V318.85C556.219 317.25 557.045 316.011 558.627 316.011C559.875 316.011 560.675 316.767 560.675 318.217V324H562.266V317.707C562.266 315.633 560.947 314.604 559.163 314.604C557.238 314.604 556.482 315.791 556.298 316.433H556.219V311.37H554.628V324ZM565.342 324H566.933V318.85C566.933 317.259 567.724 316.011 569.35 316.011C570.606 316.011 571.354 316.749 571.354 318.199V324H572.944V317.689C572.944 315.615 571.67 314.604 569.807 314.604C567.873 314.604 567.231 315.703 567.003 316.433H566.915V314.754H565.342V324ZM576.249 324H577.84V314.754H576.249V324ZM575.915 311.906C575.915 312.539 576.398 313.005 577.031 313.005C577.699 313.005 578.183 312.539 578.183 311.906C578.183 311.265 577.699 310.799 577.031 310.799C576.398 310.799 575.915 311.265 575.915 311.906ZM584.291 314.613C582.146 314.613 580.749 316.169 580.749 318.568V320.194C580.749 322.62 582.111 324.141 584.265 324.141C585.565 324.141 586.594 323.561 586.989 322.603H587.068V327.067H588.659V314.754H587.139V316.204H587.06C586.629 315.202 585.592 314.613 584.291 314.613ZM584.66 316.002C586.075 316.002 587.068 317.03 587.068 318.498V320.089C587.068 321.732 586.163 322.77 584.695 322.77C583.219 322.77 582.349 321.724 582.349 319.939V318.814C582.349 317.065 583.228 316.002 584.66 316.002ZM599.303 314.754H597.712V320.572C597.712 321.759 596.684 322.743 595.33 322.743C594.231 322.743 593.317 322.26 593.317 320.73V314.754H591.727V321.161C591.727 323.314 593.036 324.149 594.891 324.149C596.508 324.149 597.378 323.218 597.642 322.462H597.729V324H599.303V314.754ZM605.938 324.149C608.276 324.149 609.393 322.699 609.533 321.697H607.898C607.74 322.269 607.011 322.787 605.93 322.787C604.392 322.787 603.565 321.688 603.565 320.256V319.79H609.656V318.683C609.656 316.187 608.057 314.596 605.815 314.596C603.601 314.596 601.983 316.151 601.983 318.683V320.071C601.983 322.576 603.451 324.149 605.938 324.149ZM603.565 318.639V318.489C603.565 316.96 604.471 315.958 605.824 315.958C607.178 315.958 608.074 316.96 608.074 318.489V318.639H603.565ZM611.854 317.408C611.854 319.228 613.251 319.632 614.974 319.983C616.257 320.238 617.285 320.423 617.285 321.451C617.285 322.242 616.688 322.893 615.229 322.893C613.937 322.893 613.365 322.383 613.242 321.565H611.687C611.687 323.227 613.102 324.149 615.158 324.149C617.373 324.149 618.85 323.104 618.85 321.258C618.85 319.465 617.417 318.981 615.686 318.674C614.64 318.489 613.392 318.34 613.392 317.241C613.392 316.362 614.165 315.861 615.246 315.861C616.485 315.861 617.083 316.547 617.136 317.197H618.612C618.612 315.633 617.294 314.596 615.299 314.596C613.497 314.596 611.854 315.439 611.854 317.408Z" fill="#A7A9C0"/>
<circle cx="485" cy="272" r="24" fill="#2C4EA2"/>
<path d="M479.757 279C479.624 279 479.504 278.953 479.398 278.86C479.304 278.753 479.258 278.633 479.258 278.5V277C479.258 276.6 479.424 276.267 479.757 276L481.618 274.18C482.884 273.22 483.838 272.473 484.478 271.94C485.131 271.407 485.624 270.927 485.958 270.5C486.304 270.06 486.478 269.647 486.478 269.26C486.478 268.273 485.984 267.78 484.998 267.78C484.478 267.78 484.078 267.94 483.798 268.26C483.518 268.567 483.331 268.953 483.238 269.42C483.158 269.727 482.931 269.88 482.558 269.88H479.918C479.798 269.88 479.691 269.84 479.598 269.76C479.518 269.667 479.478 269.567 479.478 269.46C479.504 268.58 479.744 267.787 480.198 267.08C480.664 266.36 481.311 265.793 482.138 265.38C482.964 264.953 483.918 264.74 484.998 264.74C486.118 264.74 487.084 264.92 487.898 265.28C488.711 265.64 489.324 266.147 489.737 266.8C490.164 267.453 490.378 268.213 490.378 269.08C490.378 270.04 490.078 270.907 489.478 271.68C488.891 272.453 487.991 273.293 486.778 274.2L485.118 275.86H490.178C490.324 275.86 490.444 275.907 490.538 276C490.631 276.093 490.678 276.213 490.678 276.36V278.5C490.678 278.633 490.631 278.753 490.538 278.86C490.444 278.953 490.324 279 490.178 279H479.757Z" fill="white"/>
<g filter="url(#filter2_d)">
<rect x="156" y="477" width="315" height="96" rx="8" fill="white"/>
</g>
<path d="M246.256 518C246.08 518 245.928 517.944 245.8 517.832C245.688 517.72 245.632 517.576 245.632 517.4V501.824C245.632 501.648 245.688 501.504 245.8 501.392C245.928 501.264 246.08 501.2 246.256 501.2H248.968C249.368 501.2 249.656 501.376 249.832 501.728L253.96 509.12L258.112 501.728C258.288 501.376 258.576 501.2 258.976 501.2H261.688C261.864 501.2 262.008 501.264 262.12 501.392C262.248 501.504 262.312 501.648 262.312 501.824V517.4C262.312 517.576 262.248 517.72 262.12 517.832C262.008 517.944 261.864 518 261.688 518H258.64C258.48 518 258.336 517.944 258.208 517.832C258.096 517.704 258.04 517.56 258.04 517.4V508.664L255.448 513.416C255.24 513.784 254.96 513.968 254.608 513.968H253.312C252.992 513.968 252.712 513.784 252.472 513.416L249.904 508.664V517.4C249.904 517.576 249.84 517.72 249.712 517.832C249.6 517.944 249.456 518 249.28 518H246.256ZM271.169 518.24C269.217 518.24 267.681 517.72 266.561 516.68C265.441 515.624 264.865 514.096 264.833 512.096V511.352C264.897 509.448 265.489 507.96 266.609 506.888C267.729 505.816 269.241 505.28 271.145 505.28C272.521 505.28 273.681 505.56 274.625 506.12C275.585 506.664 276.297 507.424 276.761 508.4C277.241 509.36 277.481 510.456 277.481 511.688V512.288C277.481 512.464 277.417 512.616 277.289 512.744C277.177 512.856 277.033 512.912 276.857 512.912H269.249V513.056C269.265 513.776 269.433 514.36 269.753 514.808C270.073 515.24 270.529 515.456 271.121 515.456C271.505 515.456 271.809 515.384 272.033 515.24C272.273 515.08 272.497 514.88 272.705 514.64C272.849 514.48 272.961 514.384 273.041 514.352C273.137 514.304 273.281 514.28 273.473 514.28H276.617C276.761 514.28 276.881 514.328 276.977 514.424C277.089 514.504 277.145 514.608 277.145 514.736C277.145 515.152 276.905 515.64 276.425 516.2C275.961 516.76 275.273 517.24 274.361 517.64C273.465 518.04 272.401 518.24 271.169 518.24ZM273.065 510.464V510.416C273.065 509.648 272.897 509.056 272.561 508.64C272.225 508.208 271.753 507.992 271.145 507.992C270.537 507.992 270.065 508.208 269.729 508.64C269.409 509.056 269.249 509.648 269.249 510.416V510.464H273.065ZM283.402 518.24C282.554 518.24 281.778 518.08 281.074 517.76C280.386 517.424 279.842 516.968 279.442 516.392C279.058 515.816 278.866 515.184 278.866 514.496C278.866 513.408 279.314 512.528 280.21 511.856C281.122 511.168 282.37 510.696 283.954 510.44L286.93 509.984V509.696C286.93 509.104 286.81 508.672 286.57 508.4C286.33 508.128 285.922 507.992 285.346 507.992C285.026 507.992 284.754 508.048 284.53 508.16C284.322 508.272 284.082 508.44 283.81 508.664C283.602 508.84 283.418 508.968 283.258 509.048C283.194 509.16 283.114 509.216 283.018 509.216H280.234C280.074 509.216 279.938 509.168 279.826 509.072C279.73 508.96 279.69 508.832 279.706 508.688C279.722 508.256 279.938 507.776 280.354 507.248C280.77 506.704 281.402 506.24 282.25 505.856C283.098 505.472 284.146 505.28 285.394 505.28C287.378 505.28 288.85 505.72 289.81 506.6C290.77 507.464 291.25 508.64 291.25 510.128V517.4C291.25 517.56 291.194 517.704 291.082 517.832C290.97 517.944 290.826 518 290.65 518H287.698C287.538 518 287.394 517.944 287.266 517.832C287.154 517.704 287.098 517.56 287.098 517.4V516.56C286.746 517.056 286.258 517.464 285.634 517.784C285.01 518.088 284.266 518.24 283.402 518.24ZM284.602 515.408C285.306 515.408 285.874 515.176 286.306 514.712C286.754 514.248 286.978 513.576 286.978 512.696V512.408L284.986 512.744C283.642 513 282.97 513.48 282.97 514.184C282.97 514.552 283.122 514.848 283.426 515.072C283.746 515.296 284.138 515.408 284.602 515.408ZM299.092 518.24C297.78 518.24 296.684 518.056 295.804 517.688C294.924 517.32 294.268 516.88 293.836 516.368C293.42 515.856 293.212 515.392 293.212 514.976C293.212 514.816 293.268 514.688 293.38 514.592C293.508 514.48 293.644 514.424 293.788 514.424H296.692C296.788 514.424 296.868 514.456 296.932 514.52C297.204 514.696 297.356 514.8 297.388 514.832C297.692 515.056 297.972 515.232 298.228 515.36C298.5 515.472 298.82 515.528 299.188 515.528C299.62 515.528 299.972 515.448 300.244 515.288C300.532 515.112 300.676 514.872 300.676 514.568C300.676 514.312 300.596 514.104 300.436 513.944C300.292 513.784 300.004 513.632 299.572 513.488C299.156 513.328 298.516 513.168 297.652 513.008C294.884 512.448 293.5 511.168 293.5 509.168C293.5 508.512 293.708 507.888 294.124 507.296C294.556 506.688 295.18 506.2 295.996 505.832C296.828 505.464 297.82 505.28 298.972 505.28C300.14 505.28 301.148 505.464 301.996 505.832C302.86 506.184 303.516 506.616 303.964 507.128C304.412 507.624 304.636 508.08 304.636 508.496C304.636 508.64 304.58 508.768 304.468 508.88C304.372 508.992 304.252 509.048 304.108 509.048H301.468C301.324 509.048 301.212 509.016 301.132 508.952C300.94 508.856 300.748 508.736 300.556 508.592C300.268 508.4 300.012 508.256 299.788 508.16C299.58 508.048 299.308 507.992 298.972 507.992C298.572 507.992 298.26 508.08 298.036 508.256C297.812 508.432 297.7 508.656 297.7 508.928C297.7 509.168 297.764 509.368 297.892 509.528C298.036 509.672 298.316 509.816 298.732 509.96C299.164 510.104 299.812 510.256 300.676 510.416C302.244 510.688 303.38 511.176 304.084 511.88C304.804 512.568 305.164 513.376 305.164 514.304C305.164 515.504 304.628 516.464 303.556 517.184C302.5 517.888 301.012 518.24 299.092 518.24ZM311.804 518.24C310.396 518.24 309.26 517.768 308.396 516.824C307.532 515.88 307.1 514.544 307.1 512.816V506.12C307.1 505.944 307.156 505.8 307.268 505.688C307.396 505.576 307.54 505.52 307.7 505.52H310.892C311.068 505.52 311.212 505.576 311.324 505.688C311.452 505.8 311.516 505.944 311.516 506.12V512.672C311.516 514.16 312.18 514.904 313.508 514.904C314.148 514.904 314.644 514.712 314.996 514.328C315.364 513.928 315.548 513.376 315.548 512.672V506.12C315.548 505.944 315.604 505.8 315.716 505.688C315.844 505.576 315.996 505.52 316.172 505.52H319.34C319.516 505.52 319.66 505.576 319.772 505.688C319.884 505.8 319.94 505.944 319.94 506.12V517.4C319.94 517.56 319.884 517.704 319.772 517.832C319.66 517.944 319.516 518 319.34 518H316.412C316.236 518 316.084 517.944 315.956 517.832C315.844 517.72 315.788 517.576 315.788 517.4V516.488C314.956 517.656 313.628 518.24 311.804 518.24ZM323.265 518C323.105 518 322.961 517.944 322.833 517.832C322.721 517.704 322.665 517.56 322.665 517.4V506.144C322.665 505.968 322.721 505.824 322.833 505.712C322.945 505.584 323.089 505.52 323.265 505.52H326.193C326.369 505.52 326.513 505.584 326.625 505.712C326.753 505.824 326.817 505.968 326.817 506.144V507.056C327.265 506.56 327.785 506.184 328.377 505.928C328.985 505.656 329.657 505.52 330.393 505.52H331.473C331.649 505.52 331.793 505.576 331.905 505.688C332.017 505.8 332.073 505.944 332.073 506.12V508.736C332.073 508.896 332.017 509.04 331.905 509.168C331.793 509.28 331.649 509.336 331.473 509.336H329.049C328.409 509.336 327.913 509.512 327.561 509.864C327.225 510.216 327.057 510.712 327.057 511.352V517.4C327.057 517.576 326.993 517.72 326.865 517.832C326.753 517.944 326.609 518 326.433 518H323.265ZM339.49 518.24C337.538 518.24 336.002 517.72 334.882 516.68C333.762 515.624 333.186 514.096 333.154 512.096V511.352C333.218 509.448 333.81 507.96 334.93 506.888C336.05 505.816 337.562 505.28 339.466 505.28C340.842 505.28 342.002 505.56 342.946 506.12C343.906 506.664 344.618 507.424 345.082 508.4C345.562 509.36 345.802 510.456 345.802 511.688V512.288C345.802 512.464 345.738 512.616 345.61 512.744C345.498 512.856 345.354 512.912 345.178 512.912H337.57V513.056C337.586 513.776 337.754 514.36 338.074 514.808C338.394 515.24 338.85 515.456 339.442 515.456C339.826 515.456 340.13 515.384 340.354 515.24C340.594 515.08 340.818 514.88 341.026 514.64C341.17 514.48 341.282 514.384 341.362 514.352C341.458 514.304 341.602 514.28 341.794 514.28H344.938C345.082 514.28 345.202 514.328 345.298 514.424C345.41 514.504 345.466 514.608 345.466 514.736C345.466 515.152 345.226 515.64 344.746 516.2C344.282 516.76 343.594 517.24 342.682 517.64C341.786 518.04 340.722 518.24 339.49 518.24ZM341.386 510.464V510.416C341.386 509.648 341.218 509.056 340.882 508.64C340.546 508.208 340.074 507.992 339.466 507.992C338.858 507.992 338.386 508.208 338.05 508.64C337.73 509.056 337.57 509.648 337.57 510.416V510.464H341.386Z" fill="#303037"/>
<path d="M247.164 545V536.308H247.243L250.557 543.928H251.875L255.18 536.308H255.268V545H256.735V533.003H255.153L251.251 542.144H251.198L247.287 533.003H245.696V545H247.164ZM263.564 535.596C261.253 535.596 259.565 537.195 259.565 539.691V541.045C259.565 543.682 261.227 545.149 263.564 545.149C265.858 545.149 267.555 543.664 267.555 541.045V539.691C267.555 537.107 265.858 535.596 263.564 535.596ZM263.573 536.967C265.059 536.967 265.955 538.145 265.955 539.823V540.931C265.955 542.636 265.103 543.787 263.573 543.787C262.026 543.787 261.156 542.636 261.156 540.931V539.823C261.156 538.153 262.088 536.967 263.573 536.967ZM270.227 545H271.817V539.85C271.817 538.259 272.608 537.011 274.234 537.011C275.491 537.011 276.238 537.749 276.238 539.199V545H277.829V538.689C277.829 536.615 276.555 535.604 274.691 535.604C272.758 535.604 272.116 536.703 271.888 537.433H271.8V535.754H270.227V545ZM281.134 545H282.725V535.754H281.134V545ZM280.8 532.906C280.8 533.539 281.283 534.005 281.916 534.005C282.584 534.005 283.067 533.539 283.067 532.906C283.067 532.265 282.584 531.799 281.916 531.799C281.283 531.799 280.8 532.265 280.8 532.906ZM286.601 535.78H285.177V537.09H286.592V542.407C286.592 544.235 287.066 545.079 289.264 545.079C289.615 545.079 290.266 545.026 290.397 545V543.708C290.248 543.726 289.896 543.743 289.668 543.743C288.543 543.743 288.174 543.462 288.174 542.381V537.09H290.266V535.78H288.174V533.46H286.601V535.78ZM296.418 535.596C294.106 535.596 292.419 537.195 292.419 539.691V541.045C292.419 543.682 294.08 545.149 296.418 545.149C298.712 545.149 300.408 543.664 300.408 541.045V539.691C300.408 537.107 298.712 535.596 296.418 535.596ZM296.427 536.967C297.912 536.967 298.809 538.145 298.809 539.823V540.931C298.809 542.636 297.956 543.787 296.427 543.787C294.88 543.787 294.01 542.636 294.01 540.931V539.823C294.01 538.153 294.941 536.967 296.427 536.967ZM303.221 545H304.82V539.296C304.82 538.048 305.629 537.072 307.255 537.072C307.536 537.072 307.853 537.09 308.002 537.125V535.657C307.817 535.631 307.624 535.613 307.422 535.613C305.787 535.613 305.119 536.562 304.891 537.178H304.812V535.754H303.221V545ZM310.349 545H311.939V535.754H310.349V545ZM310.015 532.906C310.015 533.539 310.498 534.005 311.131 534.005C311.799 534.005 312.282 533.539 312.282 532.906C312.282 532.265 311.799 531.799 311.131 531.799C310.498 531.799 310.015 532.265 310.015 532.906ZM315.297 545H316.888V539.85C316.888 538.259 317.679 537.011 319.305 537.011C320.562 537.011 321.309 537.749 321.309 539.199V545H322.899V538.689C322.899 536.615 321.625 535.604 319.762 535.604C317.828 535.604 317.187 536.703 316.958 537.433H316.87V535.754H315.297V545ZM329.324 547.039C328.111 547.039 327.364 546.494 327.241 545.844H325.624C325.747 547.188 326.907 548.384 329.271 548.384C331.636 548.384 333.341 547.276 333.341 544.728V535.754H331.82V537.143H331.741C331.434 536.387 330.449 535.613 329.061 535.613C327.013 535.613 325.422 537.081 325.422 539.524V540.939C325.422 543.383 327.021 544.833 329.069 544.833C330.353 544.833 331.302 544.183 331.662 543.383H331.75V544.719C331.75 546.169 330.95 547.039 329.324 547.039ZM329.456 536.993C330.906 536.993 331.75 538.215 331.75 539.568V540.948C331.75 542.267 330.95 543.479 329.474 543.479C328.041 543.479 327.021 542.354 327.021 540.676V539.814C327.021 538.127 327.953 536.993 329.456 536.993ZM348.669 545H350.638L348.555 542.785C349.231 541.757 349.521 540.342 349.521 538.584V538.171H348.071V538.566C348.071 539.938 347.922 541.001 347.535 541.73L344.67 538.628C346.05 537.898 347.21 537.063 347.21 535.587C347.21 533.979 345.865 532.897 344.151 532.897C342.35 532.897 341.093 534.084 341.093 535.569C341.093 536.668 341.796 537.503 342.569 538.32C342.411 538.391 342.262 538.47 342.112 538.558C340.768 539.296 339.783 540.271 339.783 541.845C339.783 543.954 341.559 545.229 343.809 545.229C344.978 545.229 346.419 544.886 347.597 543.849L348.669 545ZM343.026 539.463C343.149 539.393 343.281 539.322 343.413 539.261L346.691 542.855C345.962 543.62 344.837 543.919 343.949 543.919C342.613 543.919 341.348 543.216 341.348 541.739C341.348 540.658 342.016 540.008 343.026 539.463ZM343.835 537.758C342.886 536.809 342.587 536.281 342.587 535.657C342.587 534.77 343.22 534.119 344.16 534.119C345.065 534.119 345.742 534.726 345.742 535.64C345.742 536.65 344.934 537.195 343.835 537.758ZM357.66 538.197C357.66 535.692 358.829 534.216 360.807 534.216C362.327 534.216 363.443 535.191 363.602 536.545H365.201V536.483C365.034 534.312 363.215 532.757 360.798 532.757C357.801 532.757 356.034 534.787 356.034 538.171V539.894C356.034 543.286 357.757 545.246 360.798 545.246C363.197 545.246 365.025 543.761 365.201 541.695V541.643H363.602C363.443 542.917 362.354 543.787 360.807 543.787C358.803 543.787 357.66 542.372 357.66 539.885V538.197ZM370.387 545.149C371.749 545.149 372.584 544.517 373.032 543.778H373.103V545H374.632V538.689C374.632 536.422 373.059 535.604 371.151 535.604C369.086 535.604 367.855 536.492 367.715 538.057H369.253C369.438 537.415 369.93 536.967 371.099 536.967C372.285 536.967 373.032 537.503 373.032 538.681V539.595H370.615C368.488 539.595 367.363 540.693 367.363 542.311C367.363 544.024 368.594 545.149 370.387 545.149ZM370.826 543.805C369.868 543.805 368.989 543.312 368.989 542.258C368.989 541.432 369.499 540.808 370.747 540.808H373.032V541.845C373.032 542.961 372.074 543.805 370.826 543.805ZM377.77 545H379.36V532.37H377.77V545ZM382.771 545H384.361V535.754H382.771V545ZM382.437 532.906C382.437 533.539 382.92 534.005 383.553 534.005C384.221 534.005 384.704 533.539 384.704 532.906C384.704 532.265 384.221 531.799 383.553 531.799C382.92 531.799 382.437 532.265 382.437 532.906ZM392.078 545.141C394.284 545.141 395.664 543.62 395.664 541.159V539.586C395.664 537.134 394.302 535.613 392.122 535.613C390.786 535.613 389.688 536.255 389.397 537.213H389.318V532.37H387.728V545H389.257V543.629H389.336C389.749 544.578 390.777 545.141 392.078 545.141ZM391.771 543.761C390.347 543.761 389.318 542.706 389.318 541.221V539.709C389.318 538.039 390.25 536.993 391.727 536.993C393.212 536.993 394.064 538.065 394.064 539.911V540.887C394.064 542.706 393.221 543.761 391.771 543.761ZM398.494 545H400.094V539.296C400.094 538.048 400.902 537.072 402.528 537.072C402.81 537.072 403.126 537.09 403.275 537.125V535.657C403.091 535.631 402.897 535.613 402.695 535.613C401.061 535.613 400.393 536.562 400.164 537.178H400.085V535.754H398.494V545ZM407.898 545.149C409.261 545.149 410.096 544.517 410.544 543.778H410.614V545H412.144V538.689C412.144 536.422 410.57 535.604 408.663 535.604C406.598 535.604 405.367 536.492 405.227 538.057H406.765C406.949 537.415 407.441 536.967 408.61 536.967C409.797 536.967 410.544 537.503 410.544 538.681V539.595H408.127C406 539.595 404.875 540.693 404.875 542.311C404.875 544.024 406.105 545.149 407.898 545.149ZM408.338 543.805C407.38 543.805 406.501 543.312 406.501 542.258C406.501 541.432 407.011 540.808 408.259 540.808H410.544V541.845C410.544 542.961 409.586 543.805 408.338 543.805ZM415.747 535.78H414.323V537.09H415.738V542.407C415.738 544.235 416.213 545.079 418.41 545.079C418.762 545.079 419.412 545.026 419.544 545V543.708C419.395 543.726 419.043 543.743 418.814 543.743C417.689 543.743 417.32 543.462 417.32 542.381V537.09H419.412V535.78H417.32V533.46H415.747V535.78ZM422.233 545H423.824V535.754H422.233V545ZM421.899 532.906C421.899 533.539 422.383 534.005 423.016 534.005C423.684 534.005 424.167 533.539 424.167 532.906C424.167 532.265 423.684 531.799 423.016 531.799C422.383 531.799 421.899 532.265 421.899 532.906ZM430.732 535.596C428.421 535.596 426.733 537.195 426.733 539.691V541.045C426.733 543.682 428.395 545.149 430.732 545.149C433.026 545.149 434.723 543.664 434.723 541.045V539.691C434.723 537.107 433.026 535.596 430.732 535.596ZM430.741 536.967C432.227 536.967 433.123 538.145 433.123 539.823V540.931C433.123 542.636 432.271 543.787 430.741 543.787C429.194 543.787 428.324 542.636 428.324 540.931V539.823C428.324 538.153 429.256 536.967 430.741 536.967ZM437.395 545H438.985V539.85C438.985 538.259 439.776 537.011 441.402 537.011C442.659 537.011 443.406 537.749 443.406 539.199V545H444.997V538.689C444.997 536.615 443.723 535.604 441.859 535.604C439.926 535.604 439.284 536.703 439.056 537.433H438.968V535.754H437.395V545Z" fill="#A7A9C0"/>
<circle cx="204" cy="523" r="24" fill="#2C4EA2"/>
<path d="M203.89 530.2C202.583 530.2 201.483 530 200.59 529.6C199.71 529.187 199.056 528.68 198.63 528.08C198.216 527.48 197.996 526.88 197.97 526.28C197.97 526.16 198.01 526.06 198.09 525.98C198.183 525.9 198.29 525.86 198.41 525.86H201.17C201.33 525.86 201.456 525.893 201.55 525.96C201.643 526.013 201.73 526.107 201.81 526.24C202.063 526.893 202.763 527.22 203.91 527.22C204.563 527.22 205.07 527.067 205.43 526.76C205.79 526.453 205.97 526.04 205.97 525.52C205.97 524.52 205.303 524.02 203.97 524.02H201.73C201.583 524.02 201.456 523.973 201.35 523.88C201.256 523.773 201.21 523.647 201.21 523.5V522.32C201.21 522.013 201.323 521.787 201.55 521.64L204.77 519H199.25C199.116 519 198.996 518.953 198.89 518.86C198.796 518.753 198.75 518.633 198.75 518.5V516.52C198.75 516.373 198.796 516.253 198.89 516.16C198.983 516.053 199.103 516 199.25 516H208.57C208.716 516 208.836 516.053 208.93 516.16C209.023 516.253 209.07 516.373 209.07 516.52V518.3C209.07 518.58 208.963 518.8 208.75 518.96L205.79 521.66L205.93 521.7C207.13 521.873 208.083 522.287 208.79 522.94C209.496 523.593 209.85 524.533 209.85 525.76C209.85 526.653 209.59 527.44 209.07 528.12C208.563 528.787 207.856 529.3 206.95 529.66C206.056 530.02 205.036 530.2 203.89 530.2Z" fill="white"/>
<defs>
<filter id="filter0_d" x="0" y="43" width="353" height="181" filterUnits="userSpaceOnUse" color-interpolation-filters="sRGB">
<feFlood flood-opacity="0" result="BackgroundImageFix"/>
<feColorMatrix in="SourceAlpha" type="matrix" values="0 0 0 0 0 0 0 0 0 0 0 0 0 0 0 0 0 0 127 0"/>
<feOffset dy="15"/>
<feGaussianBlur stdDeviation="20"/>
<feColorMatrix type="matrix" values="0 0 0 0 0.105882 0 0 0 0 0.117647 0 0 0 0 0.305882 0 0 0 0.08 0"/>
<feBlend mode="normal" in2="BackgroundImageFix" result="effect1_dropShadow"/>
<feBlend mode="normal" in="SourceGraphic" in2="effect1_dropShadow" result="shape"/>
</filter>
<filter id="filter1_d" x="397" y="196" width="353" height="214" filterUnits="userSpaceOnUse" color-interpolation-filters="sRGB">
<feFlood flood-opacity="0" result="BackgroundImageFix"/>
<feColorMatrix in="SourceAlpha" type="matrix" values="0 0 0 0 0 0 0 0 0 0 0 0 0 0 0 0 0 0 127 0"/>
<feOffset dy="15"/>
<feGaussianBlur stdDeviation="20"/>
<feColorMatrix type="matrix" values="0 0 0 0 0.105882 0 0 0 0 0.117647 0 0 0 0 0.305882 0 0 0 0.08 0"/>
<feBlend mode="normal" in2="BackgroundImageFix" result="effect1_dropShadow"/>
<feBlend mode="normal" in="SourceGraphic" in2="effect1_dropShadow" result="shape"/>
</filter>
<filter id="filter2_d" x="116" y="452" width="395" height="176" filterUnits="userSpaceOnUse" color-interpolation-filters="sRGB">
<feFlood flood-opacity="0" result="BackgroundImageFix"/>
<feColorMatrix in="SourceAlpha" type="matrix" values="0 0 0 0 0 0 0 0 0 0 0 0 0 0 0 0 0 0 127 0"/>
<feOffset dy="15"/>
<feGaussianBlur stdDeviation="20"/>
<feColorMatrix type="matrix" values="0 0 0 0 0.105882 0 0 0 0 0.117647 0 0 0 0 0.305882 0 0 0 0.08 0"/>
<feBlend mode="normal" in2="BackgroundImageFix" result="effect1_dropShadow"/>
<feBlend mode="normal" in="SourceGraphic" in2="effect1_dropShadow" result="shape"/>
</filter>
</defs>
</svg>
