<svg width="64" height="67" viewBox="0 0 64 67" fill="none" xmlns="http://www.w3.org/2000/svg">
<path d="M0 33.4207C0 15.776 14.2874 1.46858 31.9242 1.43609C49.4656 1.40371 63.8433 15.6472 63.9686 33.1881C64.0334 42.3358 60.257 50.6013 54.1577 56.4701C47.1028 55.7061 39.6667 55.2969 31.9845 55.2969C24.6347 55.2969 17.51 55.6717 10.729 56.3733C10.1417 56.4336 9.55639 56.2296 9.14321 55.8079C3.48802 50.0389 0 42.1372 0 33.4207Z" fill="url(#paint0_linear)"/>
<path d="M54.8308 5.22206V55.8019C49.0254 61.727 40.9351 65.4052 31.9845 65.4052C23.0339 65.4052 14.9436 61.7285 9.13818 55.8034V5.22206C9.13818 2.33782 11.4765 0 14.3602 0H49.6087C52.4925 0 54.8308 2.33782 54.8308 5.22206Z" fill="#A8ABC1"/>
<path d="M12.8423 59.0429C11.5259 58.0579 10.2869 56.975 9.13818 55.8034V5.22206C9.13818 2.33782 11.4765 0 14.3602 0H18.0643C15.1801 0 12.8423 2.33782 12.8423 5.22206V59.0429Z" fill="#D3D5E0"/>
<path d="M41.6452 17.6244V18.9298C41.6452 19.29 41.3528 19.5825 40.9925 19.5825H17.4935C17.1332 19.5825 16.8408 19.29 16.8408 18.9298V17.6244C16.8408 17.2636 17.1332 16.9717 17.4935 16.9717H40.9925C41.3528 16.9717 41.6452 17.2636 41.6452 17.6244ZM33.1597 22.1937H17.4935C17.1332 22.1937 16.8408 22.4857 16.8408 22.8464V24.1518C16.8408 24.5121 17.1332 24.8045 17.4935 24.8045H33.1597C33.52 24.8045 33.8124 24.5121 33.8124 24.1518V22.8464C33.8124 22.4857 33.52 22.1937 33.1597 22.1937Z" fill="#D3D5E0"/>
<path d="M46.8673 30.6791V31.9845C46.8673 32.3447 46.5749 32.6371 46.2146 32.6371H17.4935C17.1332 32.6371 16.8408 32.3447 16.8408 31.9845V30.6791C16.8408 30.3188 17.1332 30.0264 17.4935 30.0264H46.2146C46.5749 30.0264 46.8673 30.3188 46.8673 30.6791ZM42.2979 35.2484H17.4935C17.1332 35.2484 16.8408 35.5403 16.8408 35.9011V37.2065C16.8408 37.5668 17.1332 37.8592 17.4935 37.8592H42.2979C42.6582 37.8592 42.9506 37.5668 42.9506 37.2065V35.9011C42.9506 35.5403 42.6582 35.2484 42.2979 35.2484ZM33.1597 40.47H17.4935C17.1332 40.47 16.8408 40.7624 16.8408 41.1232V42.4286C16.8408 42.7888 17.1332 43.0813 17.4935 43.0813H33.1597C33.52 43.0813 33.8124 42.7888 33.8124 42.4286V41.1232C33.8124 40.7624 33.52 40.47 33.1597 40.47ZM18.1462 53.5254C17.4252 53.5254 16.8408 54.1097 16.8408 54.8308C16.8408 55.5518 17.4252 56.1361 18.1462 56.1361C18.8673 56.1361 19.4516 55.5518 19.4516 54.8308C19.4516 54.1097 18.8673 53.5254 18.1462 53.5254ZM22.0629 53.5254C21.3418 53.5254 20.7575 54.1097 20.7575 54.8308C20.7575 55.5518 21.3418 56.1361 22.0629 56.1361C22.7839 56.1361 23.3683 55.5518 23.3683 54.8308C23.3683 54.1097 22.7839 53.5254 22.0629 53.5254ZM25.9795 53.5254C25.2585 53.5254 24.6737 54.1097 24.6737 54.8308C24.6737 55.5518 25.2585 56.1361 25.9795 56.1361C26.7001 56.1361 27.2849 55.5518 27.2849 54.8308C27.2849 54.1097 26.7001 53.5254 25.9795 53.5254Z" fill="#D3D5E0"/>
<path d="M42.9506 6.02046V10.4441C42.9506 11.1652 42.3662 11.7495 41.6452 11.7495H5.09128C4.37022 11.7495 3.78589 11.1652 3.78589 10.4441V6.02046C3.78589 2.69561 6.4815 0 9.80635 0H48.971C45.6462 0 42.9506 2.69561 42.9506 6.02046Z" fill="#CFD2E7"/>
<path d="M42.9505 6.02046V10.4441C42.9505 11.1652 42.3662 11.7495 41.6452 11.7495H9.00793V6.02046C9.00793 2.69561 11.7035 0 15.0284 0H48.971C45.6462 0 42.9505 2.69561 42.9505 6.02046Z" fill="#CFD2E7"/>
<path d="M62.9431 52.0018C62.9431 59.404 56.9426 65.405 49.5404 65.405C42.1377 65.405 36.1372 59.4045 36.1372 52.0018C36.1372 44.5996 42.1377 38.5986 49.5404 38.5986C56.9426 38.5986 62.9431 44.5996 62.9431 52.0018Z" fill="#2C4EA2"/>
<path d="M60.8952 59.1245C58.5239 62.897 54.3253 65.405 49.5404 65.405C42.1377 65.405 36.1372 59.4045 36.1372 52.0018C36.1372 47.2168 38.6452 43.0182 42.4176 40.647C41.1207 42.7103 40.3697 45.152 40.3697 47.7692C40.3697 55.1714 46.3702 61.1724 53.7729 61.1724C56.3902 61.1724 58.8318 60.4214 60.8952 59.1245Z" fill="#0095D6"/>
<path d="M63.3958 46.4242L49.4177 60.4022C48.6527 61.1667 47.4132 61.1667 46.6483 60.4022L40.503 54.257C39.7386 53.4925 39.7386 52.2525 40.503 51.488L41.4262 50.5649C42.1912 49.7999 43.4307 49.7999 44.1957 50.5649L47.5714 53.9406C47.8264 54.1956 48.2396 54.1956 48.4946 53.9406L59.7031 42.7316C60.4681 41.9671 61.7076 41.9671 62.4726 42.7316L63.3958 43.6547C64.1602 44.4197 64.1602 45.6597 63.3958 46.4242Z" fill="white"/>
<path d="M63.3957 43.6547C64.1602 44.4197 64.1602 45.6597 63.3957 46.4242L50.2041 59.6158C46.0205 58.1662 42.7779 54.7031 41.6362 50.3852C42.4032 49.8079 43.497 49.8663 44.1956 50.5644L47.5714 53.9401C47.8263 54.1951 48.2395 54.1951 48.4945 53.9401L59.7031 42.7316C60.4681 41.9671 61.7076 41.9671 62.4726 42.7316L63.3957 43.6547Z" fill="white"/>
<defs>
<linearGradient id="paint0_linear" x1="31.9847" y1="1.43604" x2="31.9847" y2="56.4701" gradientUnits="userSpaceOnUse">
<stop stop-color="#DDDEEE"/>
<stop offset="1" stop-color="#EEEFF8"/>
</linearGradient>
</defs>
</svg>
