<svg width="204" height="48" viewBox="0 0 204 48" fill="none" xmlns="http://www.w3.org/2000/svg">
<path d="M15.0293 24.0136C15.0293 19.0627 19.0579 15.0479 24.031 15.0479C29.0024 15.0479 33.0327 19.061 33.0327 24.0136C33.0327 28.9679 29.0042 32.981 24.0327 32.981C19.0596 32.981 15.0293 28.9661 15.0293 24.0153" fill="#A7A9C0"/>
<path d="M24.0293 0.105968C10.7744 0.105968 0.0292969 10.81 0.0292969 24.0151C0.0292969 33.9271 6.03787 42.3888 14.7619 46.0711C15.3753 46.3289 16.0384 46.4474 16.7032 46.4179C17.368 46.3885 18.018 46.2118 18.6062 45.9007C19.1945 45.5896 19.7064 45.1518 20.1049 44.6189C20.5035 44.086 20.7788 43.4713 20.911 42.8191C21.1149 41.8025 20.9597 40.7466 20.4721 39.8316C19.9844 38.9165 19.1943 38.199 18.2367 37.8014V37.7997C12.8299 35.542 9.0293 30.2225 9.0293 24.0151C9.0293 15.7608 15.7442 9.06997 24.031 9.06997C32.3179 9.06997 39.0344 15.7608 39.0344 24.0151C39.0344 30.2208 35.2339 35.542 29.8253 37.798V37.8014C28.8675 38.1993 28.0775 38.9173 27.5901 39.8328C27.1026 40.7483 26.948 41.8046 27.1525 42.8214C27.357 43.8382 27.9081 44.7525 28.7116 45.4083C29.5151 46.0641 30.5213 46.4207 31.5584 46.4174C32.1548 46.4138 32.7449 46.2956 33.2967 46.0694C42.0207 42.3871 48.031 33.9237 48.031 24.0134C48.031 10.8065 37.2842 0.102539 24.0293 0.102539" fill="#A7A9C0"/>
<path d="M117.67 21.3616C117.67 17.0365 114.693 13.8205 110.05 13.8205C105.405 13.8205 102.429 17.0382 102.429 21.3633C102.429 25.685 105.406 28.9062 110.05 28.9062C114.693 28.9062 117.67 25.6868 117.67 21.3633V21.3616ZM94.9579 21.3633C94.9579 13.4193 101.266 7.28389 110.05 7.28389C118.882 7.28389 125.141 13.4193 125.141 21.3633C125.141 29.3073 118.882 35.441 110.05 35.441C101.268 35.441 94.9579 29.3073 94.9579 21.3633V21.3633ZM122.577 41.1942H126.614C128.784 41.1942 129.542 40.3885 129.542 38.4788V7.29247H137.011V38.5782C137.011 45.1662 134.337 47.981 127.221 47.981H122.575V41.1925L122.577 41.1942ZM82.9836 22.817C82.9836 26.1085 79.6305 28.7382 75.3636 28.7382C70.5396 28.7382 67.5413 25.9045 67.5413 21.1988C67.5413 16.8479 70.7419 13.8616 75.6687 13.8616C79.5807 13.8616 82.9836 16.5942 82.9836 19.6799V22.817V22.817ZM83.2887 7.27532V10.4193H83.1859C81.2556 8.39647 78.0567 7.28218 74.2476 7.28218C66.0687 7.28218 60.0242 13.3542 60.0242 21.197C60.0242 29.345 66.2213 35.3159 74.5013 35.3159C78.2076 35.3159 81.307 34.1502 83.1876 32.0759H83.2905V34.7879C83.2905 38.4308 80.1396 41.1119 75.9739 41.1119C71.7739 41.1119 69.3293 39.9325 67.207 37.9113L62.3436 42.5742C65.6025 46.0199 70.5156 47.9793 76.1265 47.9793C84.6619 47.9793 90.5007 42.2759 90.5007 34.6868V7.27532H83.2887ZM156.1 13.3165C160.085 13.3165 162.862 15.3788 163.216 18.497H148.881C149.285 15.3788 152.062 13.3165 156.1 13.3165V13.3165ZM156.871 29.4068C152.393 29.4068 148.874 26.5233 148.781 23.7256H170.484V21.6153C170.484 13.6199 164.932 7.28389 155.947 7.28389C147.468 7.28389 141.412 13.2188 141.412 21.4148C141.412 29.861 147.801 35.441 157.192 35.441C162.945 35.441 167.071 32.693 169.224 30.0616L164.162 26.5268C161.911 28.6199 159.868 29.4068 156.873 29.4068H156.871ZM174.885 0.0341797H182.095L182.134 18.497H182.232L194.304 7.22047H203.969L191.458 19.0165L203.92 35.4188H195.29L186.732 23.5645H186.634L182.095 27.8485V35.4393H174.885V0.0341797Z" fill="#A7A9C0"/>
</svg>
