<svg width="206" height="48" viewBox="0 0 206 48" fill="none" xmlns="http://www.w3.org/2000/svg">
<path d="M41.5612 29.0133C41.6519 29.0133 41.7252 28.9394 41.7252 28.8501C41.7252 28.7589 41.6519 28.6851 41.5612 28.6851C41.4695 28.6851 41.3972 28.7589 41.3972 28.8501C41.3972 28.9394 41.4695 29.0133 41.5612 29.0133Z" fill="#A7A9C0"/>
<path d="M41.2449 29.0133C41.3363 29.0133 41.4089 28.9394 41.4089 28.8501C41.4089 28.7589 41.3363 28.6851 41.2449 28.6851C41.1534 28.6851 41.0798 28.7589 41.0798 28.8501C41.0801 28.9394 41.1537 29.0133 41.2449 29.0133Z" fill="#A7A9C0"/>
<path d="M29.8431 22.3648C31.0758 20.8122 31.8228 18.6687 31.6276 16.1328C31.3959 13.2303 29.9456 11.3515 27.7806 10.1917C25.5094 8.98356 22.5489 8.90918 19.1023 8.90918H9.52485C9.06212 8.90918 8.68823 9.28494 8.68823 9.7498V38.1039C8.68823 38.5641 9.05543 38.9373 9.51506 38.9432H19.7553C21.6163 38.9432 23.3449 38.9642 24.8927 38.7191C27.0467 38.3661 28.8131 37.5905 30.1006 36.3597C30.4192 36.089 34.4367 32.5279 32.6671 26.4974C32.6671 26.4971 32.0242 24.216 29.8431 22.3648ZM16.6393 15.0644H16.6452H21.3328V15.0686C23.179 15.1491 24.6465 16.4079 24.6465 17.9492C24.6465 19.4907 23.1793 20.7492 21.3328 20.8295V20.8339L16.6452 20.8328C16.183 20.8328 15.8081 20.4578 15.8081 19.994L15.7968 15.8666C15.8156 15.4203 16.1879 15.0644 16.6393 15.0644ZM21.9067 32.9378C21.9008 32.9378 21.8939 32.9378 21.8879 32.9378H16.6324C16.1691 32.9378 15.795 32.5631 15.795 32.099L15.797 27.9664C15.797 27.5513 16.1426 27.1379 16.6344 27.1399H21.8879C21.8939 27.1399 21.9008 27.1399 21.9067 27.1399C23.8398 27.1399 25.4069 28.439 25.4069 30.0394C25.4067 31.6403 23.8398 32.9378 21.9067 32.9378Z" fill="#A7A9C0"/>
<path d="M54.2887 11.5747H48.8454C48.404 11.5747 48.0183 11.9487 48.0183 12.414V28.8256C47.3563 29.1203 46.7197 29.3788 45.7142 29.5539C45.1356 29.6593 44.3991 29.7502 43.7301 29.7133C42.0294 29.5167 41.7484 28.0372 41.7484 28.0372L41.744 28.0431C41.5213 27.0481 41.536 25.7501 41.486 24.7075C41.4088 23.1228 41.486 21.5271 41.486 20.0796V12.414C41.486 11.9582 41.1137 11.5747 40.6463 11.5747H35.203C34.7619 11.5747 34.377 11.9487 34.377 12.414V23.3067C34.377 24.918 34.4022 26.4631 34.5389 27.89C35.0761 32.5231 39.0011 36.1198 43.7636 36.1198C44.3402 36.1198 44.9044 36.0671 45.4521 35.9649C45.4521 35.9659 45.4521 35.9672 45.4521 35.9672C45.6181 35.9352 45.7809 35.9024 45.9416 35.8646C47.5579 35.4711 53.5981 33.1708 55.1277 32.6354V12.414C55.1277 11.9585 54.7561 11.5747 54.2887 11.5747Z" fill="#A7A9C0"/>
<path d="M71.962 17.9662C71.9404 17.9687 70.81 17.8771 70.0694 18.9098C68.5705 21.0244 65.9154 24.9047 65.9123 24.9065C65.8196 25.0452 65.6618 25.1366 65.4831 25.1366C65.1957 25.1366 64.958 24.9052 64.958 24.6181C64.958 24.5982 64.958 24.618 64.958 24.5982V9.92458C64.956 9.46256 64.5834 9.08887 64.1219 9.08887H64.1119H58.734H58.6691C58.2283 9.08887 57.8425 9.46515 57.8425 9.92846V38.1C57.8425 38.1 57.8425 39.0001 58.6794 39.0001C59.4295 39.0001 64.1119 39.0001 64.1119 39.0001C64.579 39.0001 64.9519 38.6168 64.9519 38.1607V33.485L64.9529 33.4574C64.9529 33.1702 65.1846 32.9372 65.4699 32.9372C65.6494 32.9372 65.8078 33.0294 65.9002 33.1681C67.0901 34.6833 68.6941 36.8302 69.7393 38.0213C69.7414 38.0223 70.5131 39.0003 71.5724 39.0003H78.6988L70.9323 28.9201L78.6988 17.9664H71.962V17.9662Z" fill="#A7A9C0"/>
<path d="M133.29 30.94L133.029 30.9235C131.279 30.8667 130.754 30.3197 130.595 29.5906C130.544 29.3605 130.561 28.3076 130.561 27.945V19.8746C130.561 16.7411 130.078 14.4954 128.357 12.8756C126.715 11.3255 123.71 10.9913 120.584 11.184C119.627 11.238 118.688 11.3204 117.764 11.4203C115.842 11.6254 115.275 11.7289 114.347 11.8676C113.256 12.0471 112.704 12.8312 112.533 13.5047C112.459 13.7919 112.457 14.0584 112.48 14.2598L112.706 18.9849L112.708 19.0285L112.71 19.091C112.71 19.091 112.877 19.0833 112.71 19.1112C115.069 18.7165 115.354 18.583 118.606 18.1543C119.727 18.0069 122.429 17.698 123.03 18.0825C123.568 18.4172 123.535 18.6843 123.488 19.5262C121.187 19.7865 118.926 19.7762 116.93 20.1819C114.924 20.5959 113.333 21.4509 112.308 22.8884C111.289 24.3421 110.903 26.5582 111.177 28.8859C111.344 30.2949 111.832 31.6771 112.704 32.8051C113.148 33.38 113.706 33.7542 114.338 34.1124C115.676 34.8722 117.242 35.2534 118.766 35.3187C119.179 35.3363 119.721 35.303 120.122 35.2513C120.574 35.1925 121.001 35.1023 121.427 34.9928C122.249 34.7594 123.285 34.3503 124.305 33.6365L124.424 33.7374C126.316 35.3123 129.728 36.4923 133.03 35.3655L133.29 35.2849V30.94H133.29ZM123.484 28.4486C123.502 28.858 123.2 29.1924 122.807 29.2546L122.706 29.2627C122.696 29.2627 122.686 29.2658 122.678 29.2658H122.69L120.751 29.4481C120.619 29.4734 120.484 29.4868 120.344 29.4868C119.138 29.4868 118.159 28.507 118.159 27.2981C118.159 26.0887 119.138 25.1076 120.344 25.1076L123.484 24.8078V28.4486V28.4486Z" fill="#A7A9C0"/>
<path d="M158.08 39.0008H178.639L176.33 35.989L176.068 35.973C174.317 35.9154 173.792 35.3676 173.633 34.6404C173.584 34.4106 173.6 33.3569 173.6 32.992V24.9225C173.6 21.7896 173.118 19.5441 171.396 17.9248C169.755 16.3735 166.75 16.0396 163.623 16.2333C162.666 16.2873 161.726 16.3694 160.803 16.468V16.4685C158.88 16.6741 158.314 16.7769 157.385 16.9169C156.295 17.0953 155.743 17.8799 155.572 18.5534C155.498 18.8409 155.494 19.1071 155.519 19.3081L155.743 24.0326L155.746 24.0773L155.751 24.1403C155.751 24.1403 155.916 24.1315 155.751 24.1586C158.109 23.7653 158.394 23.632 161.645 23.2031C162.766 23.0548 165.469 22.7467 166.069 23.1318C166.605 23.466 166.573 23.7327 166.527 24.5741C164.225 24.8355 161.965 24.8239 159.97 25.2299C157.963 25.6438 156.37 26.4979 155.347 27.9374C154.328 29.3906 153.941 31.6049 154.215 33.9341C154.383 35.3434 154.871 36.7245 155.742 37.8531C156.121 38.3438 157.107 39.0008 158.08 39.0008ZM163.382 30.1566L166.523 29.8557V33.4974C166.541 33.9064 166.241 34.2414 165.846 34.3024L165.745 34.3124C165.736 34.3124 165.726 34.315 165.717 34.315H165.73L163.791 34.4976C163.658 34.5224 163.522 34.5356 163.382 34.5356C162.176 34.5356 161.199 33.556 161.199 32.3461C161.199 31.1369 162.176 30.1566 163.382 30.1566Z" fill="#A7A9C0"/>
<path d="M190.449 17.9662C190.427 17.9687 189.297 17.8771 188.556 18.9098C187.057 21.0244 184.401 24.9047 184.399 24.9065C184.306 25.0452 184.148 25.1366 183.969 25.1366C183.683 25.1366 183.445 24.9052 183.445 24.6181C183.445 24.5982 183.445 24.618 183.445 24.5982V9.92458C183.442 9.46256 183.069 9.08887 182.608 9.08887H182.599H177.22H177.155C176.714 9.08887 176.33 9.46515 176.33 9.92846V38.1C176.33 38.1 176.33 39.0001 177.165 39.0001C177.915 39.0001 182.599 39.0001 182.599 39.0001C183.066 39.0001 183.439 38.6168 183.439 38.1607V33.485L183.44 33.4574C183.44 33.1702 183.671 32.9372 183.957 32.9372C184.136 32.9372 184.294 33.0294 184.387 33.1681C185.575 34.6833 187.182 36.8302 188.225 38.0213C188.227 38.0223 188.999 39.0003 190.06 39.0003H197.186L189.419 28.9201L197.186 17.9664H190.449V17.9662Z" fill="#A7A9C0"/>
<path d="M152.883 16.9317C152.248 12.6271 150.518 9.67778 146.152 9.11788C141.854 8.56522 137.583 9.9709 133.728 11.7712C133.665 11.8086 133.568 11.8657 133.511 11.9194C133.324 12.0741 133.201 12.3073 133.201 12.5705V28.1146V30.9296V35.2988V36.7631V38.1022C133.201 38.5665 133.586 38.9418 134.027 38.9418H139.471C139.938 38.9418 140.309 38.5582 140.309 38.1022L140.312 31.9301C142.401 32.1574 144.579 32.1243 146.336 31.7121C150.176 30.8147 152.401 27.93 152.93 23.7561C153.218 21.6593 153.218 19.1643 152.883 16.9317ZM144.716 24.4838C143.832 25.0342 142.428 24.9632 141.022 24.9626C140.821 24.9626 140.265 24.9626 140.265 24.9626L140.271 16.6644C141.14 16.4828 141.86 16.3134 142.789 16.255C145.597 16.0774 145.949 17.958 146.065 20.1978C146.159 22.0438 145.942 23.7302 144.716 24.4838Z" fill="#A7A9C0"/>
<path d="M117.374 34.6211L114.095 33.2807L112.638 32.7438C112.652 32.7632 112.663 32.7828 112.678 32.8006C112.714 32.8476 112.753 32.8915 112.79 32.9344L106.371 32.9403V9.86592C106.371 9.86592 106.338 9.07178 105.526 9.07178C104.711 9.07178 100.114 9.07178 100.114 9.07178C100.114 9.07178 99.2487 9.07462 99.2487 9.92816V18.3321C99.2508 20.5283 99.2513 22.7439 99.2487 24.9145V29.8895H99.2178L98.9575 29.8735C97.2075 29.8165 96.6804 29.2695 96.5234 28.5412C96.4716 28.3103 96.4886 27.2587 96.4886 26.894V18.8238C96.4886 15.6917 96.0073 13.4451 94.2846 11.8253C92.6444 10.276 89.6394 9.94029 86.5123 10.1335C85.5544 10.1882 84.616 10.2703 83.6932 10.3685V10.37C81.7707 10.5751 81.2021 10.6781 80.2751 10.8181C79.1841 10.9968 78.6325 11.7804 78.4605 12.4549C78.3869 12.7411 78.3851 13.0089 78.4077 13.2096L78.6325 17.9336L78.6343 17.978L78.6395 18.0415C78.6395 18.0415 78.8056 18.0322 78.6395 18.0596C80.9974 17.6663 81.2822 17.533 84.5342 17.1043C85.654 16.9561 88.3573 16.6485 88.9577 17.0325C89.4944 17.3672 89.4612 17.634 89.4158 18.4746C87.1146 18.737 84.8542 18.7257 82.8591 19.1314C80.8517 19.5454 79.2601 20.3992 78.2357 21.8382C77.2168 23.2914 76.83 25.508 77.1045 27.8359C77.2724 29.2447 77.7593 30.6266 78.6318 31.7552C79.0747 32.3296 79.6352 32.7038 80.2651 33.0622C81.6056 33.8218 83.1702 34.2027 84.6946 34.2685C85.1061 34.2874 85.6494 34.253 86.049 34.2009C86.5022 34.1412 86.9292 34.0526 87.3546 33.9437C88.1755 33.7094 89.2119 33.3014 90.2319 32.586L90.3516 32.6865H90.3521C92.2437 34.2616 95.6543 35.441 98.957 34.3163L99.2482 34.2249V36.3387C99.2508 36.3387 99.2536 36.3387 99.2554 36.3387V38.2038C99.2843 38.6419 99.6448 38.9871 100.087 38.9892H116.94C117.356 38.9701 117.694 38.6493 117.735 38.2382C117.747 37.9815 117.76 37.7008 117.771 37.4043V35.2285C117.905 35.2471 118.04 35.2517 118.175 35.2649L117.374 34.6211ZM89.4135 27.3979C89.431 27.8075 89.1298 28.1417 88.736 28.2031L88.6341 28.2122C88.6248 28.2122 88.6148 28.2153 88.6068 28.2153H88.6189L86.6789 28.3989C86.547 28.4232 86.4106 28.4366 86.2707 28.4366C85.0649 28.4366 84.0869 27.456 84.0869 26.2474C84.0869 25.0377 85.0649 24.0576 86.2707 24.0576L89.4135 23.757V27.3979V27.3979Z" fill="#A7A9C0"/>
</svg>
