<svg width="150" height="48" viewBox="0 0 150 48" fill="none" xmlns="http://www.w3.org/2000/svg">
<path fill-rule="evenodd" clip-rule="evenodd" d="M41.2252 40.4002C36.755 44.9002 30.6954 47.2992 24.1391 47.2992C17.4834 47.2992 11.4238 44.9002 6.95364 40.4002C2.58278 36.0002 0 30.1002 0 23.7002C0 17.3002 2.48344 11.2002 6.95364 6.90024C11.4238 2.50024 17.4834 0.000244141 24.1391 0.000244141C30.6954 0.000244141 36.755 2.40024 41.2252 6.90024C45.6954 11.3002 48.1788 17.3002 48.1788 23.6002C48.1788 29.9002 45.596 36.0002 41.2252 40.4002ZM24.1391 7.70024C15.4967 7.70024 8.9404 14.5002 8.9404 23.6002C8.9404 32.7002 15.4967 39.6002 24.1391 39.6002C32.6821 39.6002 39.2384 32.7002 39.2384 23.6002C39.2384 14.5002 32.6821 7.70024 24.1391 7.70024Z" fill="#A7A9C0"/>
<path fill-rule="evenodd" clip-rule="evenodd" d="M98.0465 5.49981L79.5686 47.7998L78.4769 47.6008C73.212 46.6008 72.1193 45.2998 69.6359 39.7998L55.8279 8.79981H50.6624V1.2998H70.3312V8.79981H65.563L76.6888 34.3998L87.5157 8.79981H81.7551V1.2998H98.0465V5.49981Z" fill="#A7A9C0"/>
<path fill-rule="evenodd" clip-rule="evenodd" d="M142.847 40.3996C138.377 44.8996 132.318 47.2986 125.761 47.2986C119.107 47.2986 113.046 44.8996 108.576 40.3996C104.206 35.9996 101.622 30.0996 101.622 23.6996C101.622 17.2996 104.106 11.2996 108.576 6.99961C113.046 2.59961 119.107 0.0996094 125.761 0.0996094C132.318 0.0996094 138.377 2.49961 142.847 6.99961C147.218 11.3996 149.801 17.3996 149.801 23.6996C149.801 29.9996 147.318 35.9996 142.847 40.3996ZM125.761 7.69961C117.12 7.69961 110.563 14.5996 110.563 23.6996C110.563 32.7986 117.12 39.6996 125.761 39.6996C134.304 39.6996 140.861 32.7986 140.861 23.6996C140.861 14.5996 134.304 7.69961 125.761 7.69961Z" fill="#A7A9C0"/>
</svg>
