<svg width="223" height="48" viewBox="0 0 223 48" fill="none" xmlns="http://www.w3.org/2000/svg">
<g clip-path="url(#clip0)">
<path fill-rule="evenodd" clip-rule="evenodd" d="M190.998 8.41624C190.699 8.72537 190.337 8.96568 189.936 9.12047C189.535 9.27526 189.105 9.3408 188.677 9.31254C188.268 9.32203 187.861 9.24772 187.481 9.09419C187.102 8.94065 186.758 8.71114 186.47 8.41973C186.183 8.12832 185.958 7.78117 185.809 7.3996C185.66 7.01804 185.591 6.6101 185.606 6.20086C185.587 5.79079 185.653 5.3812 185.802 4.99851C185.95 4.61581 186.177 4.26852 186.468 3.97903C186.759 3.68954 187.108 3.46429 187.491 3.31782C187.874 3.17134 188.284 3.10689 188.694 3.12863C189.102 3.11549 189.508 3.18576 189.888 3.33514C190.268 3.48452 190.614 3.70987 190.904 3.99742C191.194 4.28497 191.422 4.62868 191.575 5.00754C191.728 5.38639 191.802 5.79244 191.792 6.20086C191.817 7.01327 191.533 7.80489 190.998 8.41624" fill="#A7A9C0"/>
<path fill-rule="evenodd" clip-rule="evenodd" d="M186.085 11.4375H191.336V36.9285H190.964C190.323 36.9278 189.688 36.8006 189.095 36.5543C188.503 36.308 187.965 35.9474 187.512 35.4931C187.059 35.0387 186.699 34.4995 186.455 33.9063C186.21 33.313 186.084 32.6773 186.085 32.0355V11.4375Z" fill="#A7A9C0"/>
<path fill-rule="evenodd" clip-rule="evenodd" d="M217.738 22.6216C217.769 21.6643 217.569 20.7135 217.157 19.8493C216.744 18.985 216.13 18.2326 215.366 17.6553C213.835 16.493 211.95 15.8956 210.03 15.9642C205.258 15.9642 202.21 19.6847 202.21 24.2733C202.21 28.6928 205.444 32.3795 209.968 32.3795C213.123 32.3795 214.802 30.5361 216.6 28.2475V34.8711C215.668 35.6152 214.648 36.2418 213.563 36.737C212.272 37.2365 210.895 37.4759 209.512 37.4416C201.951 37.4416 196.953 31.1675 196.953 23.9125C196.953 20.1883 198.11 17.1217 200.424 14.7128C202.903 12.1648 206.137 10.9077 210.103 10.9077C217.619 10.9077 223 15.2257 223 23.0275V36.9286H222.634C221.336 36.9286 220.092 36.4133 219.174 35.4958C218.256 34.5784 217.739 33.3338 217.738 32.0356V22.6216Z" fill="#A7A9C0"/>
<path fill-rule="evenodd" clip-rule="evenodd" d="M176.163 33.5577C174.982 34.8321 173.542 35.8382 171.939 36.5082C170.336 37.1782 168.609 37.4965 166.873 37.4417C162.9 37.4417 159.672 36.0775 157.199 33.3153C154.877 30.711 153.722 27.4527 153.722 23.5631C153.722 16.6802 159.035 10.9191 166.027 10.9191C168.616 10.8792 171.17 11.5227 173.431 12.785V18.4841C171.532 17.1988 169.143 15.9756 166.794 15.9756C161.903 15.9756 158.979 19.3578 158.979 24.1325C158.979 28.9071 162.072 32.3908 166.906 32.3908C167.938 32.4108 168.961 32.1988 169.9 31.7705C170.839 31.3422 171.67 30.7085 172.332 29.9161C173.763 28.2814 174.507 25.8631 174.507 22.6217V4.89301C174.508 3.59576 175.024 2.35207 175.941 1.43478C176.858 0.517483 178.101 0.00149195 179.397 0L179.78 0V23.4504C179.78 27.5824 178.575 30.9647 176.163 33.5577Z" fill="#A7A9C0"/>
<path fill-rule="evenodd" clip-rule="evenodd" d="M119.224 33.7492C118.107 34.9283 116.759 35.8645 115.264 36.4998C113.77 37.135 112.16 37.4556 110.537 37.4415C107.945 37.4969 105.39 36.8293 103.156 35.5137V29.8765C105.055 31.1674 107.432 32.3907 109.782 32.3907C114.678 32.3907 117.596 29.0084 117.596 24.2394C117.596 19.4704 114.582 15.9754 109.675 15.9754C108.664 15.9439 107.658 16.1397 106.733 16.5485C105.808 16.9572 104.986 17.5686 104.328 18.3374C102.84 20.0285 102.074 22.4919 102.074 25.7164V47.9999H101.702C100.404 47.9984 99.1597 47.4818 98.2418 46.5634C97.324 45.6451 96.8076 44.4 96.8062 43.1012V24.8933C96.8062 17.1592 101.533 10.9189 109.652 10.9189C113.658 10.9189 116.914 12.2888 119.382 15.0397C121.698 17.6102 122.859 20.8572 122.859 24.8031C122.887 26.4615 122.579 28.1085 121.955 29.6449C121.33 31.1813 120.401 32.5755 119.224 33.7436" fill="#A7A9C0"/>
<path d="M38.2222 14.6566C36.9928 13.4437 35.5351 12.4868 33.9336 11.8414C32.332 11.196 30.6184 10.8749 28.892 10.8966C27.1446 10.869 25.4096 11.1941 23.7906 11.8527C22.1717 12.5113 20.7022 13.4897 19.4698 14.7295C18.2375 15.9693 17.2677 17.4451 16.6185 19.0684C15.9692 20.6918 15.6538 22.4296 15.6912 24.1777C15.6384 25.9494 15.9582 27.7124 16.6298 29.3526C17.3015 30.9927 18.31 32.4734 19.59 33.6988C20.8143 34.9096 22.2674 35.8642 23.8645 36.5068C25.4616 37.1495 27.1707 37.4674 28.892 37.4418C30.6213 37.4707 32.339 37.1545 33.9448 36.5119C35.5506 35.8692 37.0123 34.9129 38.2447 33.6988C39.5285 32.4757 40.5402 30.9957 41.2139 29.3552C41.8877 27.7147 42.2082 25.9505 42.1548 24.1777C42.1979 22.4065 41.8692 20.646 41.1898 19.0099C40.5105 17.3737 39.4957 15.8984 38.2109 14.6792L38.2222 14.6566ZM28.892 32.391C24.1199 32.391 21.1507 28.7888 21.1507 24.1777C21.1507 19.5665 24.0579 15.9757 28.892 15.9757C29.9236 15.939 30.9513 16.121 31.9077 16.5096C32.8641 16.8982 33.7276 17.4846 34.4416 18.2305C35.1807 19.0279 35.7541 19.9642 36.1284 20.9852C36.5027 22.0061 36.6705 23.0913 36.6221 24.1777C36.6221 28.7888 33.6641 32.391 28.8864 32.391" fill="#A7A9C0"/>
<path d="M89.9494 14.6564C88.0814 12.832 85.7169 11.5995 83.1521 11.1131C80.5873 10.6267 77.936 10.9081 75.5303 11.9221C73.1245 12.936 71.0711 14.6375 69.6272 16.8134C68.1833 18.9894 67.413 21.5431 67.4128 24.155C67.3603 25.9261 67.6797 27.6886 68.3503 29.3285C69.0209 30.9685 70.0278 32.4496 71.306 33.676C73.8205 36.073 77.1603 37.41 80.6333 37.41C84.1063 37.41 87.4462 36.073 89.9607 33.676C91.2434 32.4525 92.2541 30.9722 92.9269 29.3318C93.5996 27.6913 93.9193 25.9273 93.8652 24.155C93.9097 22.3836 93.5816 20.6227 92.9022 18.9863C92.2227 17.35 91.2071 15.8748 89.9212 14.6564H89.9494ZM80.6305 32.3908C75.864 32.3908 72.8948 28.7887 72.8948 24.1775C72.8948 19.5664 75.7964 15.9755 80.6305 15.9755C81.6631 15.9381 82.6919 16.1196 83.6493 16.5082C84.6067 16.8968 85.4712 17.4837 86.1858 18.2304C86.9208 19.0271 87.4916 19.9609 87.8657 20.9784C88.2399 21.996 88.4099 23.0773 88.3662 24.1606C88.3662 28.7718 85.4026 32.3739 80.6305 32.3739" fill="#A7A9C0"/>
<path fill-rule="evenodd" clip-rule="evenodd" d="M62.8322 17.5709C62.0603 18.8618 61.4631 19.7919 61.0462 20.35C60.6547 20.8907 60.1901 21.3744 59.6658 21.7874C63.328 22.9769 64.6858 25.5023 64.6858 29.2792V36.9287H64.314C63.0164 36.9287 61.7719 36.4134 60.8539 35.4959C59.9359 34.5785 59.4194 33.3339 59.4179 32.0357V29.7809C59.4179 27.34 58.3305 25.6827 55.7388 25.6827H50.961V36.9287H50.5892C49.2931 36.9272 48.0506 36.411 47.1347 35.4936C46.2188 34.5761 45.7043 33.3324 45.7043 32.0357V4.89301C45.7043 3.59628 46.2188 2.35258 47.1347 1.43512C48.0506 0.517666 49.2931 0.00149393 50.5892 0L50.961 0V20.5924H52.5104C54.2007 20.5924 55.3275 20.0287 55.9923 18.9012L60.4151 11.4433H66.4099L62.8322 17.5709Z" fill="#A7A9C0"/>
<path fill-rule="evenodd" clip-rule="evenodd" d="M7.69631 36.9286C2.55796 36.9286 5.19472e-05 33.4223 5.19472e-05 28.5349V9.9888C-0.0029146 9.34482 0.121205 8.70659 0.365292 8.11071C0.609379 7.51482 0.968633 6.97301 1.42245 6.51633C1.87627 6.05966 2.41573 5.6971 3.00989 5.44947C3.60404 5.20183 4.24122 5.07398 4.88487 5.07324H5.26236V11.4375H14.1531V16.5109H5.26236V29.1212C5.26236 31.2689 6.22016 31.8777 8.271 31.8777H14.1531V36.9511L7.69631 36.9286Z" fill="#A7A9C0"/>
<path d="M145.164 28.2475C144.548 29.5279 143.572 30.6013 142.357 31.3369C141.141 32.0726 139.738 32.4387 138.319 32.3908C134.178 32.3908 131.394 29.6737 130.735 25.9363H151.48C151.536 25.3726 151.582 24.8089 151.582 24.1775C151.627 22.4061 151.299 20.6449 150.62 19.0085C149.94 17.372 148.924 15.8969 147.638 14.679C145.769 12.8573 143.404 11.6271 140.84 11.1422C138.276 10.6573 135.627 10.9393 133.222 11.9528C130.817 12.9663 128.764 14.6664 127.32 16.8406C125.876 19.0149 125.104 21.5668 125.101 24.1775C125.05 25.9511 125.372 27.7155 126.048 29.356C126.724 30.9964 127.737 32.4761 129.022 33.6986C131.533 36.1003 134.873 37.4406 138.347 37.4406C141.821 37.4406 145.161 36.1003 147.671 33.6986C148.339 33.0552 148.934 32.3407 149.446 31.5678V31.5678L145.164 28.2475ZM138.319 15.9755C139.351 15.9381 140.38 16.1196 141.338 16.5082C142.295 16.8968 143.159 17.4837 143.874 18.2304C144.637 19.0476 145.214 20.0208 145.564 21.0827H131.051C132.048 18.0274 134.617 15.9586 138.319 15.9586" fill="#A7A9C0"/>
</g>
<defs>
<clipPath id="clip0">
<rect width="223" height="48" fill="white"/>
</clipPath>
</defs>
</svg>
