<svg width="200" height="68" viewBox="0 0 200 68" fill="none" xmlns="http://www.w3.org/2000/svg">
<path d="M28.9021 0.000635364C28.7311 -0.00140651 28.5609 0.00149659 28.3922 0.00900541C22.3433 0.304352 16.2396 6.64014 15.9944 18.2116H1.96167C0.871705 18.2116 0 19.071 0 20.145L2.61572 59.1546C2.61572 60.2285 5.53111 65.142 10.136 65.1151H48.2291C54.9048 64.0949 55.7494 58.5909 55.7494 57.517L58.1475 20.145C58.1202 19.071 57.2209 18.2116 56.131 18.2116H42.0983C40.5672 4.79093 34.2033 0.0633406 28.9021 0.000635364ZM28.9516 3.22501C32.7862 3.28851 37.4815 7.20982 38.8014 18.2116H19.2918C19.5098 8.76105 24.1964 3.44547 28.5833 3.23075C28.705 3.22489 28.8279 3.22291 28.9516 3.22501ZM29.1315 24.772C32.0468 24.7382 34.9763 25.662 36.7848 27.7158C38.1745 29.273 35.8584 31.5819 34.4688 29.9978C31.8802 27.0714 25.7224 27.4743 23.379 30.4813C20.0547 34.8038 25.0407 37.1126 28.5284 38.1597C33.3241 39.5827 38.6377 42.2135 39.5096 47.61C40.2182 51.9862 36.7849 56.0403 32.5342 56.8458C27.9838 57.7049 22.1254 56.2013 18.9374 52.8453C17.4932 51.3151 19.8094 49.033 21.2534 50.5633C23.406 52.8453 27.221 53.8929 30.3272 53.8123C34.3055 53.7318 37.8202 50.1609 35.5857 46.1874C32.4795 40.6835 24.7685 42.2406 20.8176 37.918C17.6296 34.4278 19.128 28.9508 22.8883 26.5077C24.6049 25.4036 26.864 24.7982 29.1315 24.772Z" fill="#A7A9C0"/>
<path d="M84.9317 28.3858C81.7164 24.7882 74.9587 24.6808 71.0349 27.2045C67.2746 29.6208 65.7759 35.0441 68.964 38.5076C72.915 42.8032 80.5992 41.2729 83.7328 46.7231C85.9944 50.6697 82.4521 54.1868 78.501 54.2674C75.3946 54.3479 71.5798 53.274 69.4272 51.0188C67.983 49.5153 65.6669 51.7705 67.1111 53.274C70.2992 56.6032 76.1577 58.1066 80.6809 57.2475C84.9317 56.442 88.365 52.4148 87.6566 48.0923C86.7846 42.7227 81.4712 40.1453 76.6754 38.7224C73.1875 37.7021 68.201 35.3932 71.5253 31.1243C73.8688 28.1174 79.9997 27.7415 82.6155 30.6411C84.0053 32.2251 86.3214 29.9431 84.9317 28.3858Z" fill="#A7A9C0"/>
<path d="M107.984 44.6828V55.9052C107.984 58.0262 104.715 58.0262 104.715 55.9052V44.8976C104.606 42.7229 102.78 41.7296 102.726 41.7027C100.382 40.6825 96.1588 41.1389 93.6247 44.3875V55.9052C93.6247 58.0262 90.355 58.0262 90.355 55.9052V27.0707C90.355 24.9497 93.6247 24.9497 93.6247 27.0707V40.0382C97.6574 37.2997 102.78 37.6219 105.178 39.2865C105.151 39.2596 108.039 40.8704 107.984 44.6828Z" fill="#A7A9C0"/>
<path d="M178.149 47.7986C178.067 43.3687 175.778 39.3952 171.009 38.5092C166.922 37.7575 162.126 39.8785 160.382 43.664C158.556 47.5838 159.32 52.9802 162.916 55.7187C166.786 58.672 172.808 57.7592 176.786 55.5845C178.639 54.5643 176.977 51.7721 175.124 52.7923C172.617 54.1883 169.32 54.8596 166.513 53.9467C164.415 53.2486 163.216 51.4499 162.862 49.4631H176.514C177.386 49.4094 178.176 48.6845 178.149 47.7986ZM162.971 46.1877C162.998 46.0535 163.025 45.9461 163.053 45.8387C163.843 43.2076 166.513 41.6772 169.238 41.5967C172.372 41.5161 174.116 43.6372 174.661 46.1877H162.971Z" fill="#A7A9C0"/>
<path d="M200 47.7703C199.918 43.3404 197.63 39.3669 192.861 38.4809C188.774 37.7292 183.979 39.8502 182.235 43.6357C180.409 47.5555 181.172 52.9519 184.769 55.6904C188.638 58.6437 194.66 57.7309 198.638 55.5562C200.49 54.536 198.828 51.7438 196.976 52.764C194.469 54.1601 191.172 54.8313 188.366 53.9184C186.267 53.2204 185.069 51.4216 184.714 49.4349H198.365C199.237 49.3811 200 48.6563 200 47.7703ZM184.823 46.1594C184.851 46.0252 184.878 45.9178 184.905 45.8104C185.695 43.1793 188.366 41.6489 191.09 41.5684C194.224 41.4879 195.967 43.6089 196.512 46.1594H184.823Z" fill="#A7A9C0"/>
<path d="M121.608 57.5692C116.24 57.5692 111.853 53.2468 111.853 47.9579C111.853 42.6691 116.24 38.3467 121.608 38.3467C126.976 38.3467 131.363 42.6691 131.363 47.9579C131.363 53.2737 126.976 57.5692 121.608 57.5692ZM121.608 41.81C118.175 41.81 115.368 44.5752 115.368 47.9579C115.368 51.3407 118.175 54.106 121.608 54.106C125.041 54.106 127.848 51.3408 127.848 47.9579C127.821 44.5752 125.041 41.81 121.608 41.81Z" fill="#A7A9C0"/>
<path d="M145.804 38.3469C142.915 38.3469 140.299 39.6088 138.528 41.5687V39.2598C138.528 37.1925 135.259 37.1656 135.259 39.2598V66.4299C135.259 68.524 138.528 68.524 138.528 66.4299V54.3214C140.327 56.3082 142.915 57.5432 145.804 57.5432C151.171 57.5432 155.558 53.2475 155.558 47.9316C155.558 42.6695 151.199 38.3469 145.804 38.3469ZM145.804 54.1067C142.37 54.1067 139.564 51.3414 139.564 47.9585C139.564 44.9247 141.825 42.3742 144.795 41.8909C144.795 41.8909 144.823 41.8909 144.85 41.8909C145.15 41.8372 145.477 41.8103 145.804 41.8103C148.338 41.8103 150.545 43.3138 151.498 45.4885V45.5154C151.825 46.2671 152.016 47.0994 152.016 47.9585C152.043 51.3413 149.237 54.1067 145.804 54.1067Z" fill="#A7A9C0"/>
</svg>
